<!-- Generated by IcoMoon.io -->
<svg version="1.1" xmlns="http://www.w3.org/2000/svg" width="20" height="20" viewBox="0 0 20 20">
<title>ac_unit</title>
<path d="M18.32 9.18v1.641h-3.477l2.695 2.695-1.172 1.211-3.867-3.906h-1.68v1.68l3.906 3.867-1.211 1.172-2.695-2.695v3.477h-1.641v-3.477l-2.695 2.695-1.211-1.172 3.906-3.867v-1.68h-1.68l-3.867 3.906-1.172-1.211 2.695-2.695h-3.477v-1.641h3.477l-2.695-2.695 1.172-1.211 3.867 3.906h1.68v-1.68l-3.906-3.867 1.211-1.172 2.695 2.695v-3.477h1.641v3.477l2.695-2.695 1.211 1.172-3.906 3.867v1.68h1.68l3.867-3.906 1.172 1.211-2.695 2.695h3.477z"></path>
</svg>
