<!-- Generated by IcoMoon.io -->
<svg version="1.1" xmlns="http://www.w3.org/2000/svg" width="20" height="20" viewBox="0 0 20 20">
<title>access_alarmalarm</title>
<path d="M10 16.68q2.422 0 4.121-1.719t1.699-4.141-1.699-4.121-4.121-1.699-4.121 1.699-1.699 4.121 1.699 4.141 4.121 1.719zM10 3.32q3.125 0 5.313 2.207t2.188 5.293-2.188 5.293-5.313 2.207-5.313-2.207-2.188-5.293 2.188-5.293 5.313-2.207zM10.43 6.68v4.375l3.32 1.953-0.625 1.016-3.945-2.344v-5h1.25zM6.563 2.813l-3.828 3.203-1.055-1.25 3.828-3.203zM18.32 4.766l-1.055 1.289-3.828-3.242 1.055-1.25z"></path>
</svg>
