<!-- Generated by IcoMoon.io -->
<svg version="1.1" xmlns="http://www.w3.org/2000/svg" width="20" height="20" viewBox="0 0 20 20">
<title>access_alarms</title>
<path d="M10 16.68q2.422 0 4.121-1.719t1.699-4.141-1.699-4.121-4.121-1.699-4.121 1.699-1.699 4.121 1.699 4.141 4.121 1.719zM10 3.32q3.125 0 5.313 2.188t2.188 5.313-2.188 5.313-5.313 2.188-5.313-2.188-2.188-5.313 2.188-5.313 5.313-2.188zM10.43 6.68v4.414l3.32 1.992-0.664 1.016-3.906-2.422v-5h1.25zM6.602 2.852l-3.867 3.164-1.055-1.25 3.828-3.164zM18.32 4.766l-1.055 1.25-3.867-3.281 1.094-1.25z"></path>
</svg>
