<!-- Generated by IcoMoon.io -->
<svg version="1.1" xmlns="http://www.w3.org/2000/svg" width="20" height="20" viewBox="0 0 20 20">
<title>accessible</title>
<path d="M10.703 15h1.719q-0.273 1.367-1.484 2.344t-2.617 0.977q-1.719 0-2.93-1.211t-1.211-2.93q0-1.406 0.977-2.617t2.344-1.484v1.719q-0.742 0.273-1.211 0.918t-0.469 1.465q0 1.016 0.742 1.758t1.758 0.742q0.82 0 1.465-0.469t0.918-1.211zM8.32 7.578q0-0.938 0.82-1.484t1.68-0.039h0.039v0.039q0.273 0.117 0.508 0.352l1.094 1.211q1.406 1.523 3.359 1.523v1.641q-2.188 0-4.141-1.602v2.852h2.5q0.664 0 1.152 0.508t0.488 1.172v4.57h-1.641v-4.141h-4.18q-0.664 0-1.172-0.508t-0.508-1.172v-4.922zM8.32 3.32q0-0.703 0.488-1.172t1.191-0.469 1.191 0.469 0.488 1.172-0.488 1.191-1.191 0.488-1.191-0.488-0.488-1.191z"></path>
</svg>
