<!-- Generated by IcoMoon.io -->
<svg version="1.1" xmlns="http://www.w3.org/2000/svg" width="20" height="20" viewBox="0 0 20 20">
<title>accessible_forward</title>
<path d="M14.18 11.25q0.664 0 1.152 0.508t0.488 1.172v4.57h-1.641v-4.18h-4.18q-0.898 0-1.406-0.801t-0.117-1.621l1.523-3.398h-1.836l-0.547 1.289-1.602-0.469 0.547-1.484q0.43-1.016 1.563-1.016h4.336q0.938 0 1.445 0.781t0.117 1.602l-1.406 3.047h1.563zM11.68 14.18q0 1.719-1.23 2.93t-2.949 1.211-2.949-1.211-1.23-2.93 1.23-2.949 2.949-1.23v1.68q-1.016 0-1.758 0.742t-0.742 1.758 0.742 1.758 1.758 0.742 1.758-0.742 0.742-1.758h1.68zM12.5 3.789q0-0.703 0.488-1.191t1.191-0.488 1.172 0.488 0.469 1.191-0.469 1.191-1.172 0.488-1.191-0.488-0.488-1.191z"></path>
</svg>
