<!-- Generated by IcoMoon.io -->
<svg version="1.1" xmlns="http://www.w3.org/2000/svg" width="20" height="20" viewBox="0 0 20 20">
<title>account_circle</title>
<path d="M10 16.016q1.328 0 2.793-0.781t2.207-1.914q-0.039-1.094-1.758-1.836t-3.242-0.742-3.242 0.723-1.758 1.855q0.742 1.133 2.207 1.914t2.793 0.781zM10 4.18q-1.016 0-1.758 0.742t-0.742 1.758 0.742 1.758 1.758 0.742 1.758-0.742 0.742-1.758-0.742-1.758-1.758-0.742zM10 1.68q3.438 0 5.879 2.441t2.441 5.879-2.441 5.879-5.879 2.441-5.879-2.441-2.441-5.879 2.441-5.879 5.879-2.441z"></path>
</svg>
