<!-- Generated by IcoMoon.io -->
<svg version="1.1" xmlns="http://www.w3.org/2000/svg" width="20" height="20" viewBox="0 0 20 20">
<title>account_balance_wallet</title>
<path d="M13.32 11.25q0.508 0 0.879-0.352t0.371-0.898-0.371-0.898-0.879-0.352-0.879 0.352-0.371 0.898 0.371 0.898 0.879 0.352zM10 13.32v-6.641h8.32v6.641h-8.32zM17.5 15v0.82q0 0.664-0.508 1.172t-1.172 0.508h-11.641q-0.703 0-1.191-0.488t-0.488-1.191v-11.641q0-0.703 0.488-1.191t1.191-0.488h11.641q0.664 0 1.172 0.508t0.508 1.172v0.82h-7.5q-0.703 0-1.191 0.488t-0.488 1.191v6.641q0 0.703 0.488 1.191t1.191 0.488h7.5z"></path>
</svg>
