<!-- Generated by IcoMoon.io -->
<svg version="1.1" xmlns="http://www.w3.org/2000/svg" width="20" height="20" viewBox="0 0 20 20">
<title>adb</title>
<path d="M12.5 7.5q0.352 0 0.586-0.234t0.234-0.586-0.234-0.605-0.586-0.254-0.586 0.254-0.234 0.605 0.234 0.586 0.586 0.234zM7.5 7.5q0.352 0 0.586-0.234t0.234-0.586-0.234-0.605-0.586-0.254-0.586 0.254-0.234 0.605 0.234 0.586 0.586 0.234zM13.438 3.633q2.383 1.758 2.383 4.688v0.859h-11.641v-0.859q0-2.93 2.383-4.688l-1.758-1.758 0.703-0.664 1.914 1.914q1.25-0.625 2.578-0.625t2.578 0.625l1.914-1.914 0.703 0.664zM4.18 13.32v-3.32h11.641v3.32q0 2.422-1.699 4.141t-4.121 1.719-4.121-1.719-1.699-4.141z"></path>
</svg>
