<!-- Generated by IcoMoon.io -->
<svg version="1.1" xmlns="http://www.w3.org/2000/svg" width="20" height="20" viewBox="0 0 20 20">
<title>add_ic_call</title>
<path d="M17.5 5v1.68h-2.5v2.5h-1.68v-2.5h-2.5v-1.68h2.5v-2.5h1.68v2.5h2.5zM16.68 12.93q0.352 0 0.586 0.234t0.234 0.586v2.93q0 0.352-0.234 0.586t-0.586 0.234q-5.859 0-10.020-4.16t-4.16-10.020q0-0.352 0.234-0.586t0.586-0.234h2.93q0.352 0 0.586 0.234t0.234 0.586v0.039q0 1.602 0.469 2.93 0.078 0.156 0.078 0.273 0 0.391-0.273 0.586l-1.836 1.836q0.781 1.484 2.402 3.105t3.105 2.402l1.836-1.836q0.273-0.273 0.586-0.273 0.117 0 0.273 0.078 1.406 0.469 2.969 0.469z"></path>
</svg>
