<!-- Generated by IcoMoon.io -->
<svg version="1.1" xmlns="http://www.w3.org/2000/svg" width="20" height="20" viewBox="0 0 20 20">
<title>add_link</title>
<path d="M15.82 10v2.5h2.5v1.68h-2.5v2.5h-1.641v-2.5h-2.5v-1.68h2.5v-2.5h1.641zM3.242 10q0 1.055 0.762 1.816t1.816 0.762h3.359v1.602h-3.359q-1.719 0-2.93-1.23t-1.211-2.949 1.211-2.949 2.93-1.23h3.359v1.602h-3.359q-1.055 0-1.816 0.762t-0.762 1.816zM16.758 10q0-1.055-0.762-1.816t-1.816-0.762h-3.359v-1.602h3.359q1.719 0 2.93 1.23t1.211 2.949h-1.563zM6.68 9.18h6.641v1.641h-6.641v-1.641z"></path>
</svg>
