<!-- Generated by IcoMoon.io -->
<svg version="1.1" xmlns="http://www.w3.org/2000/svg" width="20" height="20" viewBox="0 0 20 20">
<title>add_a_photo</title>
<path d="M8.164 11.68q0-1.133 0.781-1.914t1.875-0.781q1.133 0 1.914 0.781t0.781 1.914q0 1.094-0.781 1.875t-1.914 0.781-1.895-0.762-0.762-1.895zM10.82 15.82q1.719 0 2.949-1.211t1.23-2.93-1.23-2.949-2.949-1.23-2.93 1.23-1.211 2.949 1.211 2.93 2.93 1.211zM5 8.32v-2.5h2.5v-2.5h5.82l1.523 1.68h2.656q0.664 0 1.172 0.508t0.508 1.172v10q0 0.664-0.508 1.152t-1.172 0.488h-13.32q-0.664 0-1.172-0.488t-0.508-1.152v-8.359h2.5zM2.5 3.32v-2.5h1.68v2.5h2.5v1.68h-2.5v2.5h-1.68v-2.5h-2.5v-1.68h2.5z"></path>
</svg>
