<!-- Generated by IcoMoon.io -->
<svg version="1.1" xmlns="http://www.w3.org/2000/svg" width="20" height="20" viewBox="0 0 20 20">
<title>add_chart</title>
<path d="M15 15.82v-4.141h1.68v4.141q0 0.664-0.508 1.172t-1.172 0.508h-11.68q-0.664 0-1.152-0.508t-0.488-1.172v-11.641q0-0.664 0.488-1.172t1.152-0.508h10v1.68h-10v11.641h11.68zM16.68 5.82h2.5v1.68h-2.5v2.5h-1.68v-2.5h-2.5v-1.68h2.5v-2.5h1.68v2.5zM8.32 5.82h1.68v8.32h-1.68v-8.32zM11.68 10.82h1.641v3.32h-1.641v-3.32zM5 8.32h1.68v5.82h-1.68v-5.82z"></path>
</svg>
