<!-- Generated by IcoMoon.io -->
<svg version="1.1" xmlns="http://www.w3.org/2000/svg" width="20" height="20" viewBox="0 0 20 20">
<title>add_alert</title>
<path d="M13.32 10.859v-1.68h-2.5v-2.5h-1.641v2.5h-2.5v1.68h2.5v2.5h1.641v-2.5h2.5zM15.742 14.023l1.758 1.758v0.898h-15v-0.898l1.758-1.758v-4.844q0-1.875 1.289-3.516t3.125-2.070v-0.586q0-0.547 0.391-0.938t0.938-0.391 0.938 0.391 0.391 0.938v0.586q1.914 0.43 3.164 2.012t1.25 3.574v4.844zM8.359 17.5h3.281q0 0.664-0.488 1.172t-1.152 0.508-1.152-0.508-0.488-1.172z"></path>
</svg>
