<!-- Generated by IcoMoon.io -->
<svg version="1.1" xmlns="http://www.w3.org/2000/svg" width="20" height="20" viewBox="0 0 20 20">
<title>airline_seat_legroom_extra</title>
<path d="M19.023 14.375q0.273 0.469 0.078 0.977t-0.664 0.742l-3.086 1.406-2.852-5.82h-5.82q-1.016 0-1.758-0.742t-0.742-1.758v-6.68h5v5h2.93q0.43 0 0.859 0.273t0.625 0.664l2.813 5.82 0.938-0.43q0.469-0.195 0.957-0.039t0.723 0.586zM3.32 10q0 1.016 0.742 1.758t1.758 0.742h5v1.68h-5q-1.719 0-2.93-1.23t-1.211-2.949v-7.5h1.641v7.5z"></path>
</svg>
