<!-- Generated by IcoMoon.io -->
<svg version="1.1" xmlns="http://www.w3.org/2000/svg" width="20" height="20" viewBox="0 0 20 20">
<title>airline_seat_recline_extra</title>
<path d="M13.516 12.5l4.805 3.75-1.25 1.25-3.164-2.5h-5.703q-0.859 0-1.582-0.586t-0.879-1.445l-1.133-4.922q0-0.039-0.020-0.156t-0.020-0.156q0-0.664 0.469-1.211t1.094-0.664h0.039q0.039 0 0.137-0.020t0.137-0.020q0.664 0 1.172 0.391l1.367 1.055q1.875 1.445 3.906 1.055v1.797q-1.875 0.313-4.297-1.016l0.859 3.398h4.063zM13.32 15.82v1.68h-5.859q-1.484 0-2.695-1.016t-1.445-2.5l-1.641-8.164h1.641l1.641 7.891q0.156 0.898 0.859 1.504t1.641 0.605h5.859zM4.453 4.688q-0.547-0.391-0.664-1.074t0.273-1.23 1.074-0.684 1.23 0.254q0.547 0.43 0.684 1.113t-0.254 1.23-1.094 0.664-1.25-0.273z"></path>
</svg>
