<!-- Generated by IcoMoon.io -->
<svg version="1.1" xmlns="http://www.w3.org/2000/svg" width="20" height="20" viewBox="0 0 20 20">
<title>airline_seat_flat_angled</title>
<path d="M6.094 8.516q-0.391 0.234-1.094 0.234-0.664 0-1.328-0.41t-0.938-0.996q-0.234-0.391-0.234-1.094 0-0.664 0.41-1.328t0.996-0.938q0.391-0.234 1.094-0.234 0.664 0 1.328 0.41t0.938 0.996q0.234 0.547 0.234 1.094 0 0.664-0.41 1.328t-0.996 0.938zM1.25 10.117l0.586-1.563 15.82 5.703-0.547 1.563-3.789-1.328v1.328h-6.641v-3.75zM18.555 11.914l-0.586 1.563-10.313-3.711 1.758-4.727 7.109 2.578q0.898 0.313 1.563 1.23t0.664 1.895q0 0.664-0.195 1.172z"></path>
</svg>
