<!-- Generated by IcoMoon.io -->
<svg version="1.1" xmlns="http://www.w3.org/2000/svg" width="20" height="20" viewBox="0 0 20 20">
<title>airline_seat_recline_normal</title>
<path d="M16.68 16.719l-1.211 1.211-2.93-2.93h-4.219q-1.016 0-1.758-0.742t-0.742-1.758v-4.805q0-0.742 0.566-1.309t1.309-0.566h0.039q0.742 0 1.367 0.625l1.172 1.289q0.664 0.742 1.777 1.211t2.129 0.469v1.836q-2.422 0-4.609-1.836v3.086h2.891zM5 13.32q0 1.016 0.742 1.758t1.758 0.742h5v1.68h-5q-1.719 0-2.949-1.23t-1.23-2.949v-7.5h1.68v7.5zM6.328 4.492q-0.508-0.508-0.508-1.172t0.508-1.172 1.172-0.508 1.172 0.508 0.508 1.172-0.508 1.172-1.172 0.508-1.172-0.508z"></path>
</svg>
