<!-- Generated by IcoMoon.io -->
<svg version="1.1" xmlns="http://www.w3.org/2000/svg" width="20" height="20" viewBox="0 0 20 20">
<title>airline_seat_legroom_reduced</title>
<path d="M4.18 10q0 1.016 0.742 1.758t1.758 0.742h3.32v1.68h-3.32q-1.719 0-2.949-1.23t-1.23-2.949v-7.5h1.68v7.5zM16.641 16.016q0.117 0.586-0.254 1.035t-0.957 0.449h-3.75v-2.5l0.82-3.32h-5q-1.016 0-1.758-0.742t-0.742-1.758v-6.68h5v5h4.18q0.664 0 1.152 0.508t0.488 1.172l-1.641 5.82h1.172q0.469 0 0.84 0.293t0.449 0.723z"></path>
</svg>
