<!-- Generated by IcoMoon.io -->
<svg version="1.1" xmlns="http://www.w3.org/2000/svg" width="20" height="20" viewBox="0 0 20 20">
<title>airport_shuttle</title>
<path d="M12.5 9.18h4.18l-3.359-3.359h-0.82v3.359zM14.57 14.57q0.508 0 0.879-0.371t0.371-0.879-0.371-0.879-0.879-0.371-0.879 0.371-0.371 0.879 0.371 0.879 0.879 0.371zM10.82 9.18v-3.359h-3.32v3.359h3.32zM5 14.57q0.547 0 0.898-0.371t0.352-0.879-0.352-0.879-0.898-0.371-0.898 0.371-0.352 0.879 0.352 0.879 0.898 0.371zM2.5 9.18h3.32v-3.359h-3.32v3.359zM14.18 4.18l5 5v4.141h-2.109q0 1.016-0.742 1.758t-1.758 0.742-1.758-0.742-0.742-1.758h-4.57q0 1.016-0.742 1.758t-1.758 0.742-1.758-0.742-0.742-1.758h-1.68v-7.5q0-0.703 0.488-1.172t1.191-0.469h11.68z"></path>
</svg>
