<!-- Generated by IcoMoon.io -->
<svg version="1.1" xmlns="http://www.w3.org/2000/svg" width="20" height="20" viewBox="0 0 20 20">
<title>alarm_on</title>
<path d="M8.789 12.109l4.102-4.141 0.898 0.898-5 5-2.656-2.656 0.859-0.859zM10 16.68q2.422 0 4.121-1.719t1.699-4.141-1.699-4.121-4.121-1.699-4.121 1.699-1.699 4.121 1.699 4.141 4.121 1.719zM10 3.32q3.125 0 5.313 2.207t2.188 5.293-2.188 5.293-5.313 2.207-5.313-2.207-2.188-5.293 2.188-5.293 5.313-2.207zM6.563 2.813l-3.828 3.203-1.055-1.25 3.828-3.203zM18.32 4.766l-1.055 1.289-3.828-3.242 1.055-1.25z"></path>
</svg>
