<!-- Generated by IcoMoon.io -->
<svg version="1.1" xmlns="http://www.w3.org/2000/svg" width="20" height="20" viewBox="0 0 20 20">
<title>alarm_off</title>
<path d="M6.68 2.734l-0.703 0.586-1.211-1.172 0.742-0.586zM13.711 15.313l-8.203-8.203q-1.328 1.641-1.328 3.711 0 2.422 1.699 4.141t4.121 1.719q2.031 0 3.711-1.367zM2.422 1.914q2.969 2.969 8.457 8.438t6.934 6.914l-1.055 1.055-1.836-1.836q-2.148 1.836-4.922 1.836-3.125 0-5.313-2.207t-2.188-5.293q0-1.133 0.547-2.578t1.289-2.305l-0.664-0.664-0.938 0.781-1.172-1.211 0.938-0.742-1.133-1.133zM18.32 4.766l-1.055 1.289-3.828-3.242 1.055-1.25zM10 5q-1.055 0-1.992 0.352l-1.289-1.25q1.641-0.781 3.281-0.781 3.125 0 5.313 2.207t2.188 5.293q0 1.719-0.742 3.281l-1.289-1.25q0.352-0.938 0.352-2.031 0-2.422-1.699-4.121t-4.121-1.699z"></path>
</svg>
