<!-- Generated by IcoMoon.io -->
<svg version="1.1" xmlns="http://www.w3.org/2000/svg" width="20" height="20" viewBox="0 0 20 20">
<title>album</title>
<path d="M10 9.18q0.352 0 0.586 0.234t0.234 0.586-0.234 0.586-0.586 0.234-0.586-0.234-0.234-0.586 0.234-0.586 0.586-0.234zM10 13.75q1.563 0 2.656-1.094t1.094-2.656-1.094-2.656-2.656-1.094-2.656 1.094-1.094 2.656 1.094 2.656 2.656 1.094zM10 1.68q3.438 0 5.879 2.441t2.441 5.879-2.441 5.879-5.879 2.441-5.879-2.441-2.441-5.879 2.441-5.879 5.879-2.441z"></path>
</svg>
