<!-- Generated by IcoMoon.io -->
<svg version="1.1" xmlns="http://www.w3.org/2000/svg" width="20" height="20" viewBox="0 0 20 20">
<title>all_inbox</title>
<path d="M12.5 13.32h5v2.5q0 0.664-0.508 1.172t-1.172 0.508h-11.641q-0.664 0-1.172-0.508t-0.508-1.172v-2.5h5q0 1.016 0.742 1.758t1.758 0.742 1.758-0.742 0.742-1.758zM15.82 7.5v-3.32h-11.641v3.32h3.32q0 1.016 0.742 1.758t1.758 0.742 1.758-0.742 0.742-1.758h3.32zM15.82 2.5q0.664 0 1.172 0.508t0.508 1.172v5.82q0 0.664-0.508 1.172t-1.172 0.508h-11.641q-0.664 0-1.172-0.508t-0.508-1.172v-5.82q0-0.664 0.508-1.172t1.172-0.508h11.641z"></path>
</svg>
