<!-- Generated by IcoMoon.io -->
<svg version="1.1" xmlns="http://www.w3.org/2000/svg" width="20" height="20" viewBox="0 0 20 20">
<title>alternate_email</title>
<path d="M10 12.5q1.016 0 1.758-0.742t0.742-1.758-0.742-1.758-1.758-0.742-1.758 0.742-0.742 1.758 0.742 1.758 1.758 0.742zM10 1.68q3.438 0 5.879 2.441t2.441 5.879v1.211q0 1.25-0.84 2.109t-2.051 0.859q-1.523 0-2.461-1.25-1.25 1.25-2.969 1.25t-2.949-1.23-1.23-2.949 1.23-2.949 2.949-1.23 2.949 1.23 1.23 2.949v1.211q0 0.508 0.371 0.898t0.879 0.391 0.879-0.391 0.371-0.898v-1.211q0-2.734-1.973-4.707t-4.707-1.973-4.707 1.973-1.973 4.707 1.973 4.707 4.707 1.973h4.18v1.641h-4.18q-3.438 0-5.879-2.441t-2.441-5.879 2.441-5.879 5.879-2.441z"></path>
</svg>
