<!-- Generated by IcoMoon.io -->
<svg version="1.1" xmlns="http://www.w3.org/2000/svg" width="20" height="20" viewBox="0 0 20 20">
<title>android</title>
<path d="M12.5 4.18v-0.859h-0.82v0.859h0.82zM8.32 4.18v-0.859h-0.82v0.859h0.82zM12.93 1.797q2.070 1.484 2.070 4.023h-10q0-1.055 0.586-2.227t1.445-1.797l-1.094-1.094q-0.313-0.313 0-0.586t0.586 0l1.25 1.25q1.016-0.547 2.227-0.547 1.016 0 2.188 0.547l1.25-1.25q0.313-0.273 0.586 0t0 0.586zM17.070 6.68q0.508 0 0.879 0.371t0.371 0.879v5.82q0 0.547-0.371 0.898t-0.879 0.352-0.879-0.352-0.371-0.898v-5.82q0-0.508 0.371-0.879t0.879-0.371zM2.93 6.68q0.508 0 0.879 0.371t0.371 0.879v5.82q0 0.547-0.371 0.898t-0.879 0.352-0.879-0.352-0.371-0.898v-5.82q0-0.508 0.371-0.879t0.879-0.371zM5 15v-8.32h10v8.32q0 0.352-0.234 0.586t-0.586 0.234h-0.859v2.93q0 0.547-0.371 0.898t-0.879 0.352-0.879-0.352-0.371-0.898v-2.93h-1.641v2.93q0 0.547-0.371 0.898t-0.879 0.352-0.879-0.352-0.371-0.898v-2.93h-0.859q-0.352 0-0.586-0.234t-0.234-0.586z"></path>
</svg>
