<!-- Generated by IcoMoon.io -->
<svg version="1.1" xmlns="http://www.w3.org/2000/svg" width="20" height="20" viewBox="0 0 20 20">
<title>apartment</title>
<path d="M15.82 12.5v-1.68h-1.641v1.68h1.641zM15.82 15.82v-1.641h-1.641v1.641h1.641zM12.5 5.82v-1.641h-1.68v1.641h1.68zM12.5 9.18v-1.68h-1.68v1.68h1.68zM12.5 12.5v-1.68h-1.68v1.68h1.68zM9.18 5.82v-1.641h-1.68v1.641h1.68zM9.18 9.18v-1.68h-1.68v1.68h1.68zM9.18 12.5v-1.68h-1.68v1.68h1.68zM5.82 9.18v-1.68h-1.641v1.68h1.641zM5.82 12.5v-1.68h-1.641v1.68h1.641zM5.82 15.82v-1.641h-1.641v1.641h1.641zM14.18 9.18h3.32v8.32h-6.68v-3.32h-1.641v3.32h-6.68v-11.68h3.32v-3.32h8.359v6.68z"></path>
</svg>
