<!-- Generated by IcoMoon.io -->
<svg version="1.1" xmlns="http://www.w3.org/2000/svg" width="20" height="20" viewBox="0 0 20 20">
<title>art_track</title>
<path d="M8.75 12.5l-1.875-2.5-1.445 1.875-1.055-1.25-1.445 1.875h5.82zM10 7.5v5q0 0.664-0.508 1.172t-1.172 0.508h-5q-0.664 0-1.152-0.508t-0.488-1.172v-5q0-0.664 0.488-1.172t1.152-0.508h5q0.664 0 1.172 0.508t0.508 1.172zM11.68 14.18v-1.68h6.641v1.68h-6.641zM18.32 5.82v1.68h-6.641v-1.68h6.641zM18.32 10.82h-6.641v-1.641h6.641v1.641z"></path>
</svg>
