<!-- Generated by IcoMoon.io -->
<svg version="1.1" xmlns="http://www.w3.org/2000/svg" width="20" height="20" viewBox="0 0 20 20">
<title>assignment_turned_in</title>
<path d="M8.32 14.18l6.68-6.68-1.172-1.172-5.508 5.469-2.148-2.148-1.172 1.172zM10 2.5q-0.352 0-0.586 0.234t-0.234 0.586 0.234 0.605 0.586 0.254 0.586-0.254 0.234-0.605-0.234-0.586-0.586-0.234zM15.82 2.5q0.664 0 1.172 0.508t0.508 1.172v11.641q0 0.664-0.508 1.172t-1.172 0.508h-11.641q-0.664 0-1.172-0.508t-0.508-1.172v-11.641q0-0.664 0.508-1.172t1.172-0.508h3.477q0.273-0.742 0.898-1.211t1.445-0.469 1.445 0.469 0.898 1.211h3.477z"></path>
</svg>
