<!-- Generated by IcoMoon.io -->
<svg version="1.1" xmlns="http://www.w3.org/2000/svg" width="20" height="20" viewBox="0 0 20 20">
<title>assignment_late</title>
<path d="M10 4.18q0.352 0 0.586-0.254t0.234-0.605-0.234-0.586-0.586-0.234-0.586 0.234-0.234 0.586 0.234 0.605 0.586 0.254zM10.82 11.68v-5h-1.641v5h1.641zM10.82 15v-1.68h-1.641v1.68h1.641zM15.82 2.5q0.664 0 1.172 0.508t0.508 1.172v11.641q0 0.664-0.508 1.172t-1.172 0.508h-11.641q-0.664 0-1.172-0.508t-0.508-1.172v-11.641q0-0.664 0.508-1.172t1.172-0.508h3.477q0.273-0.742 0.898-1.211t1.445-0.469 1.445 0.469 0.898 1.211h3.477z"></path>
</svg>
