<!-- Generated by IcoMoon.io -->
<svg version="1.1" xmlns="http://www.w3.org/2000/svg" width="20" height="20" viewBox="0 0 20 20">
<title>assignment_ind</title>
<path d="M15 15.82v-1.172q0-1.133-1.719-1.855t-3.281-0.723-3.281 0.723-1.719 1.855v1.172h10zM10 5.82q-1.016 0-1.758 0.742t-0.742 1.758 0.742 1.758 1.758 0.742 1.758-0.742 0.742-1.758-0.742-1.758-1.758-0.742zM10 2.5q-0.352 0-0.586 0.234t-0.234 0.586 0.234 0.605 0.586 0.254 0.586-0.254 0.234-0.605-0.234-0.586-0.586-0.234zM15.82 2.5q0.664 0 1.172 0.508t0.508 1.172v11.641q0 0.664-0.508 1.172t-1.172 0.508h-11.641q-0.664 0-1.172-0.508t-0.508-1.172v-11.641q0-0.664 0.508-1.172t1.172-0.508h3.477q0.273-0.742 0.898-1.211t1.445-0.469 1.445 0.469 0.898 1.211h3.477z"></path>
</svg>
