<!-- Generated by IcoMoon.io -->
<svg version="1.1" xmlns="http://www.w3.org/2000/svg" width="20" height="20" viewBox="0 0 20 20">
<title>assistant_direction</title>
<path d="M16.445 10.469q0.547-0.547 0-0.938l-5.977-6.016q-0.508-0.391-0.977 0l-5.977 6.016q-0.195 0.313-0.195 0.469t0.195 0.469l5.977 6.016q0.508 0.391 0.977 0zM10 0.82q3.828 0 6.504 2.676t2.676 6.504-2.676 6.504-6.504 2.676-6.504-2.676-2.676-6.504 2.676-6.504 6.504-2.676zM11.68 8.32v-2.070l2.891 2.93-2.891 2.891v-2.070h-3.359v2.5h-1.641v-3.32q0-0.859 0.82-0.859h4.18z"></path>
</svg>
