<!-- Generated by IcoMoon.io -->
<svg version="1.1" xmlns="http://www.w3.org/2000/svg" width="20" height="20" viewBox="0 0 20 20">
<title>atm</title>
<path d="M17.5 7.5q0.352 0 0.586 0.234t0.234 0.586v4.18h-1.25v-3.75h-0.82v2.93h-1.25v-2.93h-0.82v3.75h-1.25v-4.18q0-0.352 0.234-0.586t0.586-0.234h3.75zM4.57 10v-1.25h-1.641v1.25h1.641zM5 7.5q0.352 0 0.586 0.234t0.234 0.586v4.18h-1.25v-1.25h-1.641v1.25h-1.25v-4.18q0-0.352 0.234-0.586t0.586-0.234h2.5zM6.68 7.5h5v1.25h-1.875v3.75h-1.25v-3.75h-1.875v-1.25z"></path>
</svg>
