<!-- Generated by IcoMoon.io -->
<svg version="1.1" xmlns="http://www.w3.org/2000/svg" width="20" height="20" viewBox="0 0 20 20">
<title>attach_money</title>
<path d="M9.844 9.102q0.859 0.234 1.426 0.469t1.191 0.645 0.957 1.035 0.332 1.484q0 1.211-0.801 1.973t-2.129 0.996v1.797h-2.5v-1.797q-1.289-0.273-2.129-1.094t-0.918-2.109h1.836q0.156 1.758 2.461 1.758 1.211 0 1.738-0.449t0.527-1.035q0-1.406-2.5-2.031-3.906-0.898-3.906-3.438 0-1.133 0.82-1.934t2.070-1.074v-1.797h2.5v1.836q1.289 0.313 1.973 1.172t0.723 1.992h-1.836q-0.078-1.758-2.109-1.758-1.016 0-1.621 0.43t-0.605 1.133q0 1.133 2.5 1.797z"></path>
</svg>
