<!-- Generated by IcoMoon.io -->
<svg version="1.1" xmlns="http://www.w3.org/2000/svg" width="20" height="20" viewBox="0 0 20 20">
<title>attachment</title>
<path d="M1.68 10.43q0-1.914 1.328-3.262t3.242-1.348h8.75q1.367 0 2.344 0.996t0.977 2.363-0.977 2.344-2.344 0.977h-7.070q-0.859 0-1.484-0.605t-0.625-1.465 0.625-1.484 1.484-0.625h6.25v1.68h-6.328q-0.352 0-0.352 0.41t0.352 0.41h7.148q0.664 0 1.172-0.488t0.508-1.152-0.508-1.172-1.172-0.508h-8.75q-1.211 0-2.070 0.859t-0.859 2.070 0.859 2.051 2.070 0.84h7.93v1.68h-7.93q-1.914 0-3.242-1.328t-1.328-3.242z"></path>
</svg>
