<!-- Generated by IcoMoon.io -->
<svg version="1.1" xmlns="http://www.w3.org/2000/svg" width="20" height="20" viewBox="0 0 20 20">
<title>attach_file</title>
<path d="M13.75 5h1.25v9.57q0 1.914-1.328 3.262t-3.242 1.348-3.262-1.348-1.348-3.262v-10.391q0-1.367 0.996-2.363t2.363-0.996 2.344 0.996 0.977 2.363v8.75q0 0.859-0.605 1.465t-1.465 0.605-1.484-0.605-0.625-1.465v-7.93h1.25v7.93q0 0.352 0.254 0.586t0.605 0.234 0.586-0.234 0.234-0.586v-8.75q0-0.859-0.605-1.484t-1.465-0.625-1.484 0.625-0.625 1.484v10.391q0 1.367 0.996 2.363t2.363 0.996 2.344-0.996 0.977-2.363v-9.57z"></path>
</svg>
