<!-- Generated by IcoMoon.io -->
<svg version="1.1" xmlns="http://www.w3.org/2000/svg" width="20" height="20" viewBox="0 0 20 20">
<title>attractions</title>
<path d="M3.203 7.969q-0.508-0.391-0.625-0.996t0.195-1.152 0.918-0.742 1.152 0.039q0.586-0.625 1.621-1.211t1.895-0.781q0.078-0.625 0.547-1.035t1.094-0.41 1.094 0.41 0.547 1.035q1.992 0.469 3.477 1.992 0.234-0.117 0.664-0.117 0.977 0 1.445 0.82 0.313 0.547 0.195 1.152t-0.625 0.996q0.273 0.859 0.273 2.031t-0.273 2.031q0.508 0.391 0.625 0.996t-0.195 1.152-0.938 0.742-1.172-0.039q-0.586 0.586-1.094 0.938l1.094 2.5h-1.523l-0.82-1.797q-0.508 0.234-1.133 0.352-0.078 0.625-0.547 1.035t-1.094 0.41-1.094-0.41-0.547-1.035q-0.117-0.039-0.371-0.098t-0.449-0.117-0.352-0.137l-0.82 1.797h-1.563l1.133-2.5q-0.469-0.352-1.055-0.938-0.586 0.234-1.191 0.039t-0.918-0.742-0.195-1.152 0.625-0.996q-0.273-0.859-0.273-2.031t0.273-2.031zM4.297 8.32q-0.195 0.703-0.195 1.563 0 0.977 0.273 1.797 0.898 0.078 1.289 0.82 0.391 0.703 0.078 1.484 0.352 0.313 0.742 0.625l1.25-2.813q-0.625-0.742-0.625-1.797 0-1.172 0.84-1.992t2.051-0.82 2.051 0.82 0.84 1.992q0 0.977-0.664 1.836l1.25 2.773q0.273-0.195 0.742-0.664-0.313-0.781 0.156-1.504t1.211-0.762q0.313-0.938 0.313-1.797 0-0.703-0.234-1.563-0.938-0.078-1.328-0.82-0.469-0.781 0-1.641-1.172-1.289-2.891-1.719-0.469 0.859-1.445 0.859t-1.445-0.859q-1.641 0.43-2.891 1.719 0.469 0.859 0 1.641-0.391 0.742-1.367 0.82zM8.711 15.625q0.508-0.625 1.289-0.625t1.289 0.625q0.313-0.078 0.938-0.313l-1.172-2.656q-0.469 0.195-1.055 0.195-0.625 0-1.094-0.195l-1.172 2.656q0.625 0.234 0.977 0.313z"></path>
</svg>
