<!-- Generated by IcoMoon.io -->
<svg version="1.1" xmlns="http://www.w3.org/2000/svg" width="20" height="20" viewBox="0 0 20 20">
<title>av_timer</title>
<path d="M5 10q0-0.352 0.234-0.586t0.586-0.234 0.605 0.234 0.254 0.586-0.254 0.586-0.605 0.234-0.586-0.234-0.234-0.586zM15 10q0 0.352-0.234 0.586t-0.586 0.234-0.605-0.234-0.254-0.586 0.254-0.586 0.605-0.234 0.586 0.234 0.234 0.586zM9.18 2.5h0.82q3.125 0 5.313 2.188t2.188 5.313-2.188 5.313-5.313 2.188-5.313-2.188-2.188-5.313q0-3.75 3.008-5.977v-0.039l5.664 5.664-1.172 1.172-4.531-4.492q-1.289 1.602-1.289 3.672 0 2.422 1.699 4.121t4.121 1.699 4.121-1.699 1.699-4.121q0-2.188-1.445-3.828t-3.555-1.953v1.602h-1.641v-3.32zM9.18 14.18q0-0.352 0.234-0.605t0.586-0.254 0.586 0.254 0.234 0.605-0.234 0.586-0.586 0.234-0.586-0.234-0.234-0.586z"></path>
</svg>
