<!-- Generated by IcoMoon.io -->
<svg version="1.1" xmlns="http://www.w3.org/2000/svg" width="20" height="20" viewBox="0 0 20 20">
<title>bakery_dining</title>
<path d="M11.484 12.5h-2.969l-0.625-5.742q-0.039-0.391 0.195-0.664t0.547-0.273h2.734q0.313 0 0.547 0.273t0.195 0.664zM7.188 7.813l0.547 4.688h-1.484l-1.758-3.398q-0.391-0.742 0.313-1.172l1.328-0.742q0.313-0.195 0.664 0t0.391 0.625zM12.813 7.813q0.078-0.43 0.391-0.625t0.664 0l1.328 0.742q0.703 0.43 0.273 1.172l-1.719 3.398h-1.484zM3.945 13.633q-0.195 0.117-0.469 0.117-0.469 0-0.703-0.469l-0.195-0.391q-0.195-0.469 0.039-0.82l0.703-1.055q0.195-0.352 0.664-0.352t0.664 0.352l0.82 1.484zM16.055 13.633l-1.523-1.133q0.273-0.508 0.82-1.484 0.195-0.352 0.664-0.352t0.664 0.352l0.664 1.055q0.273 0.391 0.078 0.82l-0.195 0.391q-0.195 0.469-0.703 0.469-0.273 0-0.469-0.117z"></path>
</svg>
