<!-- Generated by IcoMoon.io -->
<svg version="1.1" xmlns="http://www.w3.org/2000/svg" width="20" height="20" viewBox="0 0 20 20">
<title>ballot</title>
<path d="M5.82 11.68h2.5v2.5h-2.5v-2.5zM5 15h4.18v-4.18h-4.18v4.18zM5.82 5.82h2.5v2.5h-2.5v-2.5zM5 9.18h4.18v-4.18h-4.18v4.18zM15.82 17.5h-11.641q-0.664 0-1.172-0.508t-0.508-1.172v-11.641q0-0.664 0.508-1.172t1.172-0.508h11.641q0.664 0 1.172 0.508t0.508 1.172v11.641q0 0.664-0.508 1.172t-1.172 0.508zM10.82 13.75h4.18v-1.68h-4.18v1.68zM10.82 7.93h4.18v-1.68h-4.18v1.68z"></path>
</svg>
