<!-- Generated by IcoMoon.io -->
<svg version="1.1" xmlns="http://www.w3.org/2000/svg" width="20" height="20" viewBox="0 0 20 20">
<title>bathtub</title>
<path d="M16.68 10.82h1.641v5q0 0.664-0.488 1.172t-1.152 0.508q0 0.352-0.254 0.586t-0.605 0.234h-11.641q-0.352 0-0.605-0.234t-0.254-0.586q-0.664 0-1.152-0.508t-0.488-1.172v-5h2.5v-0.625q0-0.742 0.566-1.309t1.309-0.566q0.781 0 1.406 0.625l1.133 1.289q0.234 0.273 0.703 0.586h5.703v-6.797q0-0.273-0.195-0.488t-0.508-0.215q-0.273 0-0.469 0.195l-1.055 1.055q0.078 0.313 0.078 0.43 0 0.43-0.273 0.898l-2.305-2.305q0.469-0.273 0.898-0.273 0.195 0 0.43 0.078l1.055-1.055q0.664-0.664 1.641-0.664t1.68 0.684 0.703 1.66v6.797zM4.18 5.82q0-0.703 0.469-1.172t1.172-0.469 1.191 0.469 0.488 1.172-0.488 1.191-1.191 0.488-1.172-0.488-0.469-1.191z"></path>
</svg>
