<!-- Generated by IcoMoon.io -->
<svg version="1.1" xmlns="http://www.w3.org/2000/svg" width="20" height="20" viewBox="0 0 20 20">
<title>battery_unknown</title>
<path d="M11.914 10.586q0.586-0.586 0.586-1.406 0-1.016-0.742-1.758t-1.758-0.742-1.758 0.742-0.742 1.758h1.25q0-0.508 0.352-0.879t0.898-0.371 0.898 0.371 0.352 0.879-0.352 0.859l-0.781 0.781q-0.781 0.781-0.781 1.68h1.328q0-0.625 0.703-1.328zM10.781 14.961v-1.602h-1.563v1.602h1.563zM13.047 3.32q0.469 0 0.801 0.332t0.332 0.801v12.773q0 0.469-0.332 0.781t-0.801 0.313h-6.094q-0.469 0-0.801-0.313t-0.332-0.781v-12.773q0-0.469 0.332-0.801t0.801-0.332h1.367v-1.641h3.359v1.641h1.367z"></path>
</svg>
