<!-- Generated by IcoMoon.io -->
<svg version="1.1" xmlns="http://www.w3.org/2000/svg" width="20" height="20" viewBox="0 0 20 20">
<title>block</title>
<path d="M10 16.68q2.734 0 4.707-1.973t1.973-4.707q0-0.938-0.41-2.148t-0.996-1.953l-9.375 9.375q1.758 1.406 4.102 1.406zM3.32 10q0 0.938 0.41 2.148t0.996 1.953l9.375-9.375q-1.758-1.406-4.102-1.406-2.734 0-4.707 1.973t-1.973 4.707zM10 1.68q3.438 0 5.879 2.441t2.441 5.879-2.441 5.879-5.879 2.441-5.879-2.441-2.441-5.879 2.441-5.879 5.879-2.441z"></path>
</svg>
