<!-- Generated by IcoMoon.io -->
<svg version="1.1" xmlns="http://www.w3.org/2000/svg" width="20" height="20" viewBox="0 0 20 20">
<title>blur_linear</title>
<path d="M10.82 14.18q-0.352 0-0.586-0.254t-0.234-0.605 0.234-0.586 0.586-0.234 0.605 0.234 0.254 0.586-0.254 0.605-0.605 0.254zM10.82 10.82q-0.352 0-0.586-0.234t-0.234-0.586 0.234-0.586 0.586-0.234 0.605 0.234 0.254 0.586-0.254 0.586-0.605 0.234zM10.82 7.5q-0.352 0-0.586-0.234t-0.234-0.586 0.234-0.605 0.586-0.254 0.605 0.254 0.254 0.605-0.254 0.586-0.605 0.234zM14.18 10.43q-0.43 0-0.43-0.43t0.43-0.43q0.391 0 0.391 0.43t-0.391 0.43zM14.18 7.070q-0.43 0-0.43-0.391 0-0.43 0.43-0.43 0.391 0 0.391 0.43 0 0.391-0.391 0.391zM2.5 2.5h15v1.68h-15v-1.68zM14.18 13.75q-0.43 0-0.43-0.43 0-0.391 0.43-0.391 0.391 0 0.391 0.391 0 0.43-0.391 0.43zM7.5 14.18q-0.352 0-0.586-0.254t-0.234-0.605 0.234-0.586 0.586-0.234 0.586 0.234 0.234 0.586-0.234 0.605-0.586 0.254zM4.18 11.25q-0.508 0-0.879-0.352t-0.371-0.898 0.371-0.898 0.879-0.352 0.879 0.352 0.371 0.898-0.371 0.898-0.879 0.352zM4.18 7.93q-0.508 0-0.879-0.371t-0.371-0.879 0.371-0.879 0.879-0.371 0.879 0.371 0.371 0.879-0.371 0.879-0.879 0.371zM2.5 17.5v-1.68h15v1.68h-15zM7.5 7.5q-0.352 0-0.586-0.234t-0.234-0.586 0.234-0.605 0.586-0.254 0.586 0.254 0.234 0.605-0.234 0.586-0.586 0.234zM7.5 10.82q-0.352 0-0.586-0.234t-0.234-0.586 0.234-0.586 0.586-0.234 0.586 0.234 0.234 0.586-0.234 0.586-0.586 0.234zM4.18 14.57q-0.508 0-0.879-0.371t-0.371-0.879 0.371-0.879 0.879-0.371 0.879 0.371 0.371 0.879-0.371 0.879-0.879 0.371z"></path>
</svg>
