<!-- Generated by IcoMoon.io -->
<svg version="1.1" xmlns="http://www.w3.org/2000/svg" width="20" height="20" viewBox="0 0 20 20">
<title>blur_circular</title>
<path d="M11.68 10.82q0.352 0 0.586 0.254t0.234 0.605-0.234 0.586-0.586 0.234-0.605-0.234-0.254-0.586 0.254-0.605 0.605-0.254zM11.68 13.75q0.391 0 0.391 0.43 0 0.391-0.391 0.391-0.43 0-0.43-0.391 0-0.43 0.43-0.43zM10 16.68q2.734 0 4.707-1.973t1.973-4.707-1.973-4.707-4.707-1.973-4.707 1.973-1.973 4.707 1.973 4.707 4.707 1.973zM10 1.68q3.438 0 5.879 2.441t2.441 5.879-2.441 5.879-5.879 2.441-5.879-2.441-2.441-5.879 2.441-5.879 5.879-2.441zM14.18 7.93q0.391 0 0.391 0.391 0 0.43-0.391 0.43-0.43 0-0.43-0.43 0-0.391 0.43-0.391zM14.18 11.25q0.391 0 0.391 0.43 0 0.391-0.391 0.391-0.43 0-0.43-0.391 0-0.43 0.43-0.43zM11.68 6.25q-0.43 0-0.43-0.43 0-0.391 0.43-0.391 0.391 0 0.391 0.391 0 0.43-0.391 0.43zM11.68 7.5q0.352 0 0.586 0.234t0.234 0.586-0.234 0.605-0.586 0.254-0.605-0.254-0.254-0.605 0.254-0.586 0.605-0.234zM8.32 6.25q-0.391 0-0.391-0.43 0-0.391 0.391-0.391 0.43 0 0.43 0.391 0 0.43-0.43 0.43zM5.82 11.25q0.43 0 0.43 0.43 0 0.391-0.43 0.391-0.391 0-0.391-0.391 0-0.43 0.391-0.43zM8.32 13.75q0.43 0 0.43 0.43 0 0.391-0.43 0.391-0.391 0-0.391-0.391 0-0.43 0.391-0.43zM5.82 7.93q0.43 0 0.43 0.391 0 0.43-0.43 0.43-0.391 0-0.391-0.43 0-0.391 0.391-0.391zM8.32 10.82q0.352 0 0.605 0.254t0.254 0.605-0.254 0.586-0.605 0.234-0.586-0.234-0.234-0.586 0.234-0.605 0.586-0.254zM8.32 7.5q0.352 0 0.605 0.234t0.254 0.586-0.254 0.605-0.605 0.254-0.586-0.254-0.234-0.605 0.234-0.586 0.586-0.234z"></path>
</svg>
