<!-- Generated by IcoMoon.io -->
<svg version="1.1" xmlns="http://www.w3.org/2000/svg" width="20" height="20" viewBox="0 0 20 20">
<title>blur_on</title>
<path d="M11.68 7.070q0.508 0 0.879 0.371t0.371 0.879-0.371 0.879-0.879 0.371-0.879-0.371-0.371-0.879 0.371-0.879 0.879-0.371zM11.68 10.43q0.508 0 0.879 0.371t0.371 0.879-0.371 0.879-0.879 0.371-0.879-0.371-0.371-0.879 0.371-0.879 0.879-0.371zM8.32 14.18q0.352 0 0.605 0.234t0.254 0.586-0.254 0.586-0.605 0.234-0.586-0.234-0.234-0.586 0.234-0.586 0.586-0.234zM8.32 7.070q0.508 0 0.879 0.371t0.371 0.879-0.371 0.879-0.879 0.371-0.879-0.371-0.371-0.879 0.371-0.879 0.879-0.371zM11.68 17.070q0.391 0 0.391 0.43t-0.391 0.43q-0.43 0-0.43-0.43t0.43-0.43zM11.68 14.18q0.352 0 0.586 0.234t0.234 0.586-0.234 0.586-0.586 0.234-0.605-0.234-0.254-0.586 0.254-0.586 0.605-0.234zM17.5 11.25q0.43 0 0.43 0.43 0 0.391-0.43 0.391t-0.43-0.391q0-0.43 0.43-0.43zM15 4.18q0.352 0 0.586 0.234t0.234 0.586-0.234 0.586-0.586 0.234-0.586-0.234-0.234-0.586 0.234-0.586 0.586-0.234zM15 7.5q0.352 0 0.586 0.234t0.234 0.586-0.234 0.605-0.586 0.254-0.586-0.254-0.234-0.605 0.234-0.586 0.586-0.234zM15 14.18q0.352 0 0.586 0.234t0.234 0.586-0.234 0.586-0.586 0.234-0.586-0.234-0.234-0.586 0.234-0.586 0.586-0.234zM15 10.82q0.352 0 0.586 0.254t0.234 0.605-0.234 0.586-0.586 0.234-0.586-0.234-0.234-0.586 0.234-0.605 0.586-0.254zM8.32 10.43q0.508 0 0.879 0.371t0.371 0.879-0.371 0.879-0.879 0.371-0.879-0.371-0.371-0.879 0.371-0.879 0.879-0.371zM8.32 5.82q-0.352 0-0.586-0.234t-0.234-0.586 0.234-0.586 0.586-0.234 0.605 0.234 0.254 0.586-0.254 0.586-0.605 0.234zM8.32 2.93q-0.391 0-0.391-0.43t0.391-0.43q0.43 0 0.43 0.43t-0.43 0.43zM8.32 17.070q0.43 0 0.43 0.43t-0.43 0.43q-0.391 0-0.391-0.43t0.391-0.43zM2.5 11.25q0.43 0 0.43 0.43 0 0.391-0.43 0.391t-0.43-0.391q0-0.43 0.43-0.43zM11.68 2.93q-0.43 0-0.43-0.43t0.43-0.43q0.391 0 0.391 0.43t-0.391 0.43zM11.68 5.82q-0.352 0-0.605-0.234t-0.254-0.586 0.254-0.586 0.605-0.234 0.586 0.234 0.234 0.586-0.234 0.586-0.586 0.234zM17.5 8.75q-0.43 0-0.43-0.43 0-0.391 0.43-0.391t0.43 0.391q0 0.43-0.43 0.43zM5 4.18q0.352 0 0.586 0.234t0.234 0.586-0.234 0.586-0.586 0.234-0.586-0.234-0.234-0.586 0.234-0.586 0.586-0.234zM2.5 7.93q0.43 0 0.43 0.391 0 0.43-0.43 0.43t-0.43-0.43q0-0.391 0.43-0.391zM5 7.5q0.352 0 0.586 0.234t0.234 0.586-0.234 0.605-0.586 0.254-0.586-0.254-0.234-0.605 0.234-0.586 0.586-0.234zM5 14.18q0.352 0 0.586 0.234t0.234 0.586-0.234 0.586-0.586 0.234-0.586-0.234-0.234-0.586 0.234-0.586 0.586-0.234zM5 10.82q0.352 0 0.586 0.254t0.234 0.605-0.234 0.586-0.586 0.234-0.586-0.234-0.234-0.586 0.234-0.605 0.586-0.254z"></path>
</svg>
