<!-- Generated by IcoMoon.io -->
<svg version="1.1" xmlns="http://www.w3.org/2000/svg" width="20" height="20" viewBox="0 0 20 20">
<title>blur_off</title>
<path d="M2.5 11.25q0.43 0 0.43 0.43 0 0.391-0.43 0.391t-0.43-0.391q0-0.43 0.43-0.43zM5 14.18q0.352 0 0.586 0.234t0.234 0.586-0.234 0.586-0.586 0.234-0.586-0.234-0.234-0.586 0.234-0.586 0.586-0.234zM8.32 17.070q0.43 0 0.43 0.43t-0.43 0.43q-0.391 0-0.391-0.43t0.391-0.43zM2.5 7.93q0.43 0 0.43 0.391 0 0.43-0.43 0.43t-0.43-0.43q0-0.391 0.43-0.391zM5 10.82q0.352 0 0.586 0.254t0.234 0.605-0.234 0.586-0.586 0.234-0.586-0.234-0.234-0.586 0.234-0.605 0.586-0.254zM17.5 11.25q0.43 0 0.43 0.43 0 0.391-0.43 0.391t-0.43-0.391q0-0.43 0.43-0.43zM8.32 14.18q0.352 0 0.605 0.234t0.254 0.586-0.254 0.586-0.605 0.234-0.586-0.234-0.234-0.586 0.234-0.586 0.586-0.234zM2.070 4.375l1.055-1.055 13.555 13.555-1.094 1.055-3.125-3.164q0.039 0.078 0.039 0.234 0 0.352-0.234 0.586t-0.586 0.234-0.605-0.234-0.254-0.586 0.254-0.586 0.605-0.234q0.156 0 0.234 0.039l-2.344-2.344q-0.078 0.43-0.43 0.742t-0.82 0.313q-0.508 0-0.879-0.371t-0.371-0.879q0-0.469 0.313-0.82t0.742-0.43l-2.344-2.344q0.039 0.078 0.039 0.234 0 0.352-0.234 0.605t-0.586 0.254-0.586-0.254-0.234-0.605 0.234-0.586 0.586-0.234l0.234 0.039zM11.68 17.070q0.391 0 0.391 0.43t-0.391 0.43q-0.43 0-0.43-0.43t0.43-0.43zM15 5.82q-0.352 0-0.586-0.234t-0.234-0.586 0.234-0.586 0.586-0.234 0.586 0.234 0.234 0.586-0.234 0.586-0.586 0.234zM15 9.18q-0.352 0-0.586-0.254t-0.234-0.605 0.234-0.586 0.586-0.234 0.586 0.234 0.234 0.586-0.234 0.605-0.586 0.254zM15 12.5q-0.352 0-0.586-0.234t-0.234-0.586 0.234-0.605 0.586-0.254 0.586 0.254 0.234 0.605-0.234 0.586-0.586 0.234zM8.32 5.82q-0.352 0-0.586-0.234t-0.234-0.586 0.234-0.586 0.586-0.234 0.605 0.234 0.254 0.586-0.254 0.586-0.605 0.234zM17.5 8.75q-0.43 0-0.43-0.43 0-0.391 0.43-0.391t0.43 0.391q0 0.43-0.43 0.43zM8.32 2.93q-0.391 0-0.391-0.43t0.391-0.43q0.43 0 0.43 0.43t-0.43 0.43zM11.68 2.93q-0.43 0-0.43-0.43t0.43-0.43q0.391 0 0.391 0.43t-0.391 0.43zM11.484 9.57q-0.391-0.039-0.703-0.352t-0.352-0.703v-0.195q0-0.508 0.371-0.879t0.879-0.371 0.879 0.371 0.371 0.879-0.371 0.879-0.879 0.371h-0.195zM11.68 5.82q-0.352 0-0.605-0.234t-0.254-0.586 0.254-0.586 0.605-0.234 0.586 0.234 0.234 0.586-0.234 0.586-0.586 0.234z"></path>
</svg>
