<!-- Generated by IcoMoon.io -->
<svg version="1.1" xmlns="http://www.w3.org/2000/svg" width="20" height="20" viewBox="0 0 20 20">
<title>border_bottom</title>
<path d="M4.18 12.5v1.68h-1.68v-1.68h1.68zM2.5 17.5v-1.68h15v1.68h-15zM4.18 9.18v1.641h-1.68v-1.641h1.68zM15.82 7.5v-1.68h1.68v1.68h-1.68zM15.82 2.5h1.68v1.68h-1.68v-1.68zM4.18 5.82v1.68h-1.68v-1.68h1.68zM15.82 14.18v-1.68h1.68v1.68h-1.68zM15.82 10.82v-1.641h1.68v1.641h-1.68zM14.18 2.5v1.68h-1.68v-1.68h1.68zM10.82 2.5v1.68h-1.641v-1.68h1.641zM14.18 9.18v1.641h-1.68v-1.641h1.68zM10.82 5.82v1.68h-1.641v-1.68h1.641zM4.18 2.5v1.68h-1.68v-1.68h1.68zM10.82 9.18v1.641h-1.641v-1.641h1.641zM7.5 2.5v1.68h-1.68v-1.68h1.68zM10.82 12.5v1.68h-1.641v-1.68h1.641zM7.5 9.18v1.641h-1.68v-1.641h1.68z"></path>
</svg>
