<!-- Generated by IcoMoon.io -->
<svg version="1.1" xmlns="http://www.w3.org/2000/svg" width="20" height="20" viewBox="0 0 20 20">
<title>border_vertical</title>
<path d="M12.5 10.82v-1.641h1.68v1.641h-1.68zM12.5 17.5v-1.68h1.68v1.68h-1.68zM12.5 4.18v-1.68h1.68v1.68h-1.68zM15.82 7.5v-1.68h1.68v1.68h-1.68zM15.82 2.5h1.68v1.68h-1.68v-1.68zM15.82 10.82v-1.641h1.68v1.641h-1.68zM15.82 17.5v-1.68h1.68v1.68h-1.68zM9.18 17.5v-15h1.641v15h-1.641zM15.82 14.18v-1.68h1.68v1.68h-1.68zM5.82 4.18v-1.68h1.68v1.68h-1.68zM2.5 14.18v-1.68h1.68v1.68h-1.68zM2.5 17.5v-1.68h1.68v1.68h-1.68zM2.5 10.82v-1.641h1.68v1.641h-1.68zM5.82 10.82v-1.641h1.68v1.641h-1.68zM5.82 17.5v-1.68h1.68v1.68h-1.68zM2.5 4.18v-1.68h1.68v1.68h-1.68zM2.5 7.5v-1.68h1.68v1.68h-1.68z"></path>
</svg>
