<!-- Generated by IcoMoon.io -->
<svg version="1.1" xmlns="http://www.w3.org/2000/svg" width="20" height="20" viewBox="0 0 20 20">
<title>border_horizontal</title>
<path d="M15.82 17.5v-1.68h1.68v1.68h-1.68zM12.5 17.5v-1.68h1.68v1.68h-1.68zM9.18 14.18v-1.68h1.641v1.68h-1.641zM15.82 7.5v-1.68h1.68v1.68h-1.68zM15.82 2.5h1.68v1.68h-1.68v-1.68zM2.5 10.82v-1.641h15v1.641h-15zM9.18 17.5v-1.68h1.641v1.68h-1.641zM15.82 14.18v-1.68h1.68v1.68h-1.68zM10.82 2.5v1.68h-1.641v-1.68h1.641zM10.82 5.82v1.68h-1.641v-1.68h1.641zM14.18 2.5v1.68h-1.68v-1.68h1.68zM7.5 2.5v1.68h-1.68v-1.68h1.68zM4.18 2.5v1.68h-1.68v-1.68h1.68zM5.82 17.5v-1.68h1.68v1.68h-1.68zM2.5 14.18v-1.68h1.68v1.68h-1.68zM4.18 5.82v1.68h-1.68v-1.68h1.68zM2.5 17.5v-1.68h1.68v1.68h-1.68z"></path>
</svg>
