<!-- Generated by IcoMoon.io -->
<svg version="1.1" xmlns="http://www.w3.org/2000/svg" width="20" height="20" viewBox="0 0 20 20">
<title>border_top</title>
<path d="M12.5 10.82v-1.641h1.68v1.641h-1.68zM15.82 17.5v-1.68h1.68v1.68h-1.68zM9.18 7.5v-1.68h1.641v1.68h-1.641zM12.5 17.5v-1.68h1.68v1.68h-1.68zM15.82 14.18v-1.68h1.68v1.68h-1.68zM2.5 2.5h15v1.68h-15v-1.68zM15.82 10.82v-1.641h1.68v1.641h-1.68zM15.82 7.5v-1.68h1.68v1.68h-1.68zM9.18 14.18v-1.68h1.641v1.68h-1.641zM2.5 7.5v-1.68h1.68v1.68h-1.68zM2.5 10.82v-1.641h1.68v1.641h-1.68zM2.5 17.5v-1.68h1.68v1.68h-1.68zM2.5 14.18v-1.68h1.68v1.68h-1.68zM9.18 17.5v-1.68h1.641v1.68h-1.641zM9.18 10.82v-1.641h1.641v1.641h-1.641zM5.82 10.82v-1.641h1.68v1.641h-1.68zM5.82 17.5v-1.68h1.68v1.68h-1.68z"></path>
</svg>
