<!-- Generated by IcoMoon.io -->
<svg version="1.1" xmlns="http://www.w3.org/2000/svg" width="20" height="20" viewBox="0 0 20 20">
<title>brightness_highbrightness_7</title>
<path d="M10 6.68q1.367 0 2.344 0.977t0.977 2.344-0.977 2.344-2.344 0.977-2.344-0.977-0.977-2.344 0.977-2.344 2.344-0.977zM10 15q2.070 0 3.535-1.465t1.465-3.535-1.465-3.535-3.535-1.465-3.535 1.465-1.465 3.535 1.465 3.535 3.535 1.465zM16.68 7.227l2.734 2.773-2.734 2.773v3.906h-3.906l-2.773 2.734-2.773-2.734h-3.906v-3.906l-2.734-2.773 2.734-2.773v-3.906h3.906l2.773-2.734 2.773 2.734h3.906v3.906z"></path>
</svg>
