<!-- Generated by IcoMoon.io -->
<svg version="1.1" xmlns="http://www.w3.org/2000/svg" width="20" height="20" viewBox="0 0 20 20">
<title>brunch_dining</title>
<path d="M5.82 13.32v-1.641h3.359v1.641h3.75q0.391 0 0.391 0.43v0.82q0 0.43-0.391 0.43h-10.859q-0.391 0-0.391-0.43v-0.82q0-0.43 0.391-0.43h3.75zM15 13.242l-0.352-0.352q-0.547-0.586-0.938-1.563t-0.391-1.758v-7.891h5v7.93q0 1.914-1.25 3.281l-0.391 0.43v3.359h1.641v1.641h-3.32v-5.078zM12.93 18.32h-10.859q-0.391 0-0.391-0.391v-1.25h11.641v1.25q0 0.391-0.391 0.391zM15 6.68h1.68v-3.359h-1.68v3.359z"></path>
</svg>
