<!-- Generated by IcoMoon.io -->
<svg version="1.1" xmlns="http://www.w3.org/2000/svg" width="20" height="20" viewBox="0 0 20 20">
<title>bubble_chart</title>
<path d="M8.672 7.344q0-1.68 1.152-2.852t2.832-1.172 2.852 1.172 1.172 2.852-1.172 2.832-2.852 1.152-2.832-1.152-1.152-2.832zM10.664 15q0-0.703 0.488-1.191t1.191-0.488 1.172 0.488 0.469 1.191-0.469 1.191-1.172 0.488-1.191-0.488-0.488-1.191zM3.32 11.992q0-1.094 0.781-1.875t1.914-0.781q1.094 0 1.875 0.762t0.781 1.895-0.781 1.895-1.875 0.762q-1.133 0-1.914-0.781t-0.781-1.875z"></path>
</svg>
