<!-- Generated by IcoMoon.io -->
<svg version="1.1" xmlns="http://www.w3.org/2000/svg" width="20" height="20" viewBox="0 0 20 20">
<title>bug_report</title>
<path d="M11.68 10v-1.68h-3.359v1.68h3.359zM11.68 13.32v-1.641h-3.359v1.641h3.359zM16.68 6.68v1.641h-1.758q0.078 0.547 0.078 0.859v0.82h1.68v1.68h-1.68v0.82q0 0.273-0.078 0.82h1.758v1.68h-2.344q-0.664 1.133-1.816 1.816t-2.52 0.684-2.52-0.684-1.816-1.816h-2.344v-1.68h1.758q-0.078-0.547-0.078-0.82v-0.82h-1.68v-1.68h1.68v-0.82q0-0.313 0.078-0.859h-1.758v-1.641h2.344q0.586-0.977 1.523-1.641l-1.367-1.367 1.172-1.172 1.836 1.797q0.586-0.117 1.172-0.117t1.172 0.117l1.836-1.797 1.172 1.172-1.367 1.367q0.977 0.664 1.523 1.641h2.344z"></path>
</svg>
