<!-- Generated by IcoMoon.io -->
<svg version="1.1" xmlns="http://www.w3.org/2000/svg" width="20" height="20" viewBox="0 0 20 20">
<title>bus_alert</title>
<path d="M12.5 8.32h1.68v1.68h-1.68v-1.68zM12.5 3.32h1.68v4.18h-1.68v-4.18zM13.32 10.82q1.719 0 2.949-1.211t1.23-2.93-1.23-2.949-2.949-1.23-2.93 1.23-1.211 2.949 1.211 2.93 2.93 1.211zM11.25 15.82q0.547 0 0.898-0.371t0.352-0.879-0.352-0.879-0.898-0.371-0.898 0.371-0.352 0.879 0.352 0.879 0.898 0.371zM2.5 10.82h6.758q-1.758-1.68-1.758-4.141h-5v4.141zM3.75 15.82q0.547 0 0.898-0.371t0.352-0.879-0.352-0.879-0.898-0.371-0.898 0.371-0.352 0.879 0.352 0.879 0.898 0.371zM13.32 0.82q2.422 0.039 4.121 1.758t1.699 4.102q0 2.070-1.445 3.75t-3.516 1.992v2.578q0 1.055-0.859 1.836v1.484q0 0.352-0.234 0.605t-0.586 0.254h-0.82q-0.352 0-0.605-0.254t-0.254-0.605v-0.82h-6.641v0.82q0 0.352-0.254 0.605t-0.605 0.254h-0.82q-0.352 0-0.586-0.254t-0.234-0.605v-1.484q-0.859-0.781-0.859-1.836v-8.32q0-1.992 1.719-2.676t4.961-0.684q0.156 0 0.508 0.020t0.508 0.020q0.742-1.055 2.129-1.797t2.676-0.742z"></path>
</svg>
