<!-- Generated by IcoMoon.io -->
<svg version="1.1" xmlns="http://www.w3.org/2000/svg" width="20" height="20" viewBox="0 0 20 20">
<title>business_center</title>
<path d="M11.68 5.82v-1.641h-3.359v1.641h3.359zM16.68 5.82q0.664 0 1.152 0.508t0.488 1.172v2.5q0 0.664-0.488 1.172t-1.152 0.508h-5v-1.68h-3.359v1.68h-5q-0.703 0-1.172-0.488t-0.469-1.191v-2.5q0-0.664 0.488-1.172t1.152-0.508h3.32v-1.641l1.68-1.68h3.32l1.68 1.68v1.641h3.359zM8.32 13.32h3.359v-0.82h5.82v3.32q0 0.703-0.488 1.191t-1.191 0.488h-11.641q-0.703 0-1.191-0.488t-0.488-1.191v-3.32h5.82v0.82z"></path>
</svg>
