<!-- Generated by IcoMoon.io -->
<svg version="1.1" xmlns="http://www.w3.org/2000/svg" width="20" height="20" viewBox="0 0 20 20">
<title>businessdomain</title>
<path d="M15 12.5v1.68h-1.68v-1.68h1.68zM15 9.18v1.641h-1.68v-1.641h1.68zM16.68 15.82v-8.32h-6.68v1.68h1.68v1.641h-1.68v1.68h1.68v1.68h-1.68v1.641h6.68zM8.32 5.82v-1.641h-1.641v1.641h1.641zM8.32 9.18v-1.68h-1.641v1.68h1.641zM8.32 12.5v-1.68h-1.641v1.68h1.641zM8.32 15.82v-1.641h-1.641v1.641h1.641zM5 5.82v-1.641h-1.68v1.641h1.68zM5 9.18v-1.68h-1.68v1.68h1.68zM5 12.5v-1.68h-1.68v1.68h1.68zM5 15.82v-1.641h-1.68v1.641h1.68zM10 5.82h8.32v11.68h-16.641v-15h8.32v3.32z"></path>
</svg>
