<!-- Generated by IcoMoon.io -->
<svg version="1.1" xmlns="http://www.w3.org/2000/svg" width="20" height="20" viewBox="0 0 20 20">
<title>cake</title>
<path d="M15 7.5q1.016 0 1.758 0.742t0.742 1.758v1.289q0 0.664-0.488 1.152t-1.152 0.488-1.133-0.469l-1.797-1.797-1.797 1.797q-0.469 0.469-1.152 0.469t-1.152-0.469l-1.758-1.797-1.797 1.797q-0.469 0.469-1.133 0.469t-1.152-0.488-0.488-1.152v-1.289q0-1.016 0.742-1.758t1.758-0.742h4.18v-1.68h1.641v1.68h4.18zM13.828 13.32q0.859 0.859 2.031 0.859 0.859 0 1.641-0.508v3.828q0 0.352-0.234 0.586t-0.586 0.234h-13.359q-0.352 0-0.586-0.234t-0.234-0.586v-3.828q0.742 0.508 1.641 0.508 1.172 0 2.031-0.859l0.898-0.898 0.898 0.898q0.82 0.82 2.031 0.82t2.031-0.82l0.898-0.898zM10 5q-0.664 0-1.172-0.508t-0.508-1.172q0-0.43 0.273-0.859l1.406-2.461 1.406 2.461q0.273 0.43 0.273 0.859 0 0.703-0.488 1.191t-1.191 0.488z"></path>
</svg>
