<!-- Generated by IcoMoon.io -->
<svg version="1.1" xmlns="http://www.w3.org/2000/svg" width="20" height="20" viewBox="0 0 20 20">
<title>call_end</title>
<path d="M10 7.5q-2.031 0-3.828 0.586v2.578q0 0.586-0.469 0.781-1.25 0.586-2.227 1.523-0.234 0.234-0.586 0.234t-0.586-0.234l-2.070-2.070q-0.234-0.234-0.234-0.586t0.234-0.586q4.102-3.906 9.766-3.906t9.766 3.906q0.234 0.234 0.234 0.586t-0.234 0.586l-2.070 2.070q-0.234 0.234-0.586 0.234t-0.586-0.234q-0.859-0.82-2.227-1.523-0.469-0.195-0.469-0.742v-2.578q-1.953-0.625-3.828-0.625z"></path>
</svg>
