<!-- Generated by IcoMoon.io -->
<svg version="1.1" xmlns="http://www.w3.org/2000/svg" width="20" height="20" viewBox="0 0 20 20">
<title>camera</title>
<path d="M8.203 18.125q0.156-0.273 1.68-2.93t2.344-4.023l3.047 5.273q-0.938 0.781-2.5 1.328t-2.773 0.547q-0.938 0-1.797-0.195zM2.031 12.5h8.086l-3.086 5.273q-1.797-0.664-3.105-2.051t-1.895-3.223zM3.867 4.375l4.219 7.305h-6.25q-0.156-0.938-0.156-1.68 0-1.328 0.645-2.969t1.543-2.656zM18.164 8.32q0.156 0.742 0.156 1.68 0 1.328-0.645 2.969t-1.543 2.656l-3.984-6.875-0.234-0.43h6.25zM17.969 7.5h-8.086l3.086-5.273q1.797 0.664 3.105 2.051t1.895 3.223zM7.852 8.75l-0.078 0.078-3.047-5.273q0.938-0.781 2.5-1.328t2.773-0.547q0.938 0 1.797 0.195z"></path>
</svg>
