<!-- Generated by IcoMoon.io -->
<svg version="1.1" xmlns="http://www.w3.org/2000/svg" width="20" height="20" viewBox="0 0 20 20">
<title>camera_altphoto_cameralocal_see</title>
<path d="M10 14.18q1.719 0 2.949-1.23t1.23-2.949-1.23-2.949-2.949-1.23-2.949 1.23-1.23 2.949 1.23 2.949 2.949 1.23zM7.5 1.68h5l1.523 1.641h2.656q0.664 0 1.152 0.508t0.488 1.172v10q0 0.664-0.488 1.172t-1.152 0.508h-13.359q-0.664 0-1.152-0.508t-0.488-1.172v-10q0-0.664 0.488-1.172t1.152-0.508h2.656zM7.344 10q0-1.094 0.781-1.875t1.875-0.781 1.875 0.781 0.781 1.875-0.781 1.875-1.875 0.781-1.875-0.781-0.781-1.875z"></path>
</svg>
