<!-- Generated by IcoMoon.io -->
<svg version="1.1" xmlns="http://www.w3.org/2000/svg" width="20" height="20" viewBox="0 0 20 20">
<title>camera_rear</title>
<path d="M10 5q0.664 0 1.152-0.508t0.488-1.172-0.488-1.152-1.152-0.488-1.172 0.488-0.508 1.152 0.488 1.172 1.191 0.508zM14.18 0q0.664 0 1.152 0.508t0.488 1.172v11.641q0 0.664-0.488 1.172t-1.152 0.508h-5.859l2.5 2.5-2.5 2.5v-1.68h-4.141v-1.641h4.141v-1.68h-2.5q-0.664 0-1.152-0.508t-0.488-1.172v-11.641q0-0.664 0.488-1.172t1.152-0.508h8.359zM11.68 16.68h4.141v1.641h-4.141v-1.641z"></path>
</svg>
