<!-- Generated by IcoMoon.io -->
<svg version="1.1" xmlns="http://www.w3.org/2000/svg" width="20" height="20" viewBox="0 0 20 20">
<title>camera_roll</title>
<path d="M16.68 7.5v-1.68h-1.68v1.68h1.68zM16.68 15v-1.68h-1.68v1.68h1.68zM13.32 7.5v-1.68h-1.641v1.68h1.641zM13.32 15v-1.68h-1.641v1.68h1.641zM10 7.5v-1.68h-1.68v1.68h1.68zM10 15v-1.68h-1.68v1.68h1.68zM11.68 4.18h6.641v12.5h-6.641q0 0.664-0.508 1.152t-1.172 0.488h-6.68q-0.664 0-1.152-0.488t-0.488-1.152v-12.5q0-0.664 0.488-1.172t1.152-0.508h0.859v-0.82q0-0.352 0.234-0.605t0.586-0.254h3.32q0.352 0 0.605 0.254t0.254 0.605v0.82h0.82q0.664 0 1.172 0.508t0.508 1.172z"></path>
</svg>
