<!-- Generated by IcoMoon.io -->
<svg version="1.1" xmlns="http://www.w3.org/2000/svg" width="20" height="20" viewBox="0 0 20 20">
<title>camera_enhance</title>
<path d="M10 14.18l-1.055-2.305-2.266-1.055 2.266-1.016 1.055-2.305 1.055 2.305 2.266 1.016-2.266 1.055zM10 15q1.719 0 2.949-1.23t1.23-2.949-1.23-2.93-2.949-1.211-2.949 1.211-1.23 2.93 1.23 2.949 2.949 1.23zM7.5 2.5h5l1.523 1.68h2.656q0.664 0 1.152 0.488t0.488 1.152v10q0 0.664-0.488 1.172t-1.152 0.508h-13.359q-0.664 0-1.152-0.508t-0.488-1.172v-10q0-0.664 0.488-1.152t1.152-0.488h2.656z"></path>
</svg>
