<!-- Generated by IcoMoon.io -->
<svg version="1.1" xmlns="http://www.w3.org/2000/svg" width="20" height="20" viewBox="0 0 20 20">
<title>cancel_presentation</title>
<path d="M12.148 6.68l1.172 1.172-2.148 2.148 2.148 2.148-1.172 1.172-2.148-2.148-2.148 2.148-1.172-1.172 2.148-2.148-2.148-2.148 1.172-1.172 2.148 2.148zM17.5 2.5q0.664 0 1.172 0.508t0.508 1.172v11.641q0 0.664-0.508 1.172t-1.172 0.508h-15q-0.664 0-1.172-0.508t-0.508-1.172v-11.641q0-0.664 0.508-1.172t1.172-0.508h15zM17.5 15.898v-11.719h-15v11.719h15z"></path>
</svg>
