<!-- Generated by IcoMoon.io -->
<svg version="1.1" xmlns="http://www.w3.org/2000/svg" width="20" height="20" viewBox="0 0 20 20">
<title>cancel_schedule_send</title>
<path d="M15.234 11.68l0.586 0.586-1.484 1.484 1.484 1.484-0.586 0.586-1.484-1.484-1.484 1.484-0.586-0.586 1.484-1.484-1.484-1.484 0.586-0.586 1.484 1.484zM13.75 18.32q1.914 0 3.242-1.328t1.328-3.242-1.328-3.242-3.242-1.328-3.242 1.328-1.328 3.242 1.328 3.242 3.242 1.328zM13.75 7.5q2.578 0 4.414 1.836t1.836 4.414-1.836 4.414-4.414 1.836q-2.344 0-4.102-1.543t-2.070-3.848l-6.719 2.891-0.039-5.82 7.5-1.68-7.5-1.68 0.039-5.82 11.875 5.078q0.703-0.078 1.016-0.078z"></path>
</svg>
