<!-- Generated by IcoMoon.io -->
<svg version="1.1" xmlns="http://www.w3.org/2000/svg" width="20" height="20" viewBox="0 0 20 20">
<title>car_repair</title>
<path d="M3.32 14.18h13.359v1.641h-5.859v2.5h-1.641v-2.5h-5.859v-1.641zM14.375 3.008q0.117 0.234 1.445 4.219v5.43q0 0.664-0.625 0.664h-0.391q-0.625 0-0.625-0.664v-0.977h-8.359v0.977q0 0.664-0.625 0.664h-0.391q-0.625 0-0.625-0.664v-5.43q1.133-3.359 1.289-3.906 0-0.039 0.078-0.137t0.078-0.176l0.039-0.039q0.156-0.195 0.352-0.313t0.313-0.156h7.227q0.469 0.039 0.781 0.469 0.039 0 0.039 0.039zM6.328 3.32l-1.094 3.359h9.531l-1.133-3.359h-7.305zM5.469 8.984q0 0.43 0.293 0.723t0.723 0.293 0.723-0.293 0.293-0.723-0.293-0.723-0.723-0.293-0.723 0.293-0.293 0.723zM13.516 10q0.43 0 0.723-0.293t0.293-0.723-0.293-0.723-0.723-0.293-0.723 0.293-0.293 0.723 0.293 0.723 0.723 0.293z"></path>
</svg>
