<!-- Generated by IcoMoon.io -->
<svg version="1.1" xmlns="http://www.w3.org/2000/svg" width="20" height="20" viewBox="0 0 20 20">
<title>car_rental</title>
<path d="M6.68 4.18q0.352 0 0.586-0.254t0.234-0.605-0.234-0.586-0.586-0.234-0.605 0.234-0.254 0.586 0.254 0.605 0.605 0.254zM9.023 2.5h6.797v1.68h-0.82v1.641h-1.68v-1.641h-4.297q-0.586 1.641-2.344 1.641-1.016 0-1.758-0.742t-0.742-1.758 0.742-1.758 1.758-0.742q0.742 0 1.426 0.488t0.918 1.191zM5.234 11.68h9.531l-1.094-3.359h-7.305zM13.516 15q0.43 0 0.723-0.293t0.293-0.723-0.293-0.723-0.723-0.293-0.723 0.293-0.293 0.723 0.293 0.723 0.723 0.293zM6.484 15q0.43 0 0.723-0.293t0.293-0.723-0.293-0.723-0.723-0.293-0.723 0.293-0.293 0.723 0.293 0.723 0.723 0.293zM13.672 7.5q0.547 0 0.781 0.586l1.367 4.141v5.703q0 0.391-0.391 0.391h-0.859q-0.391 0-0.391-0.391v-1.25h-8.359v1.25q0 0.391-0.391 0.391h-0.859q-0.391 0-0.391-0.43v-5.664l1.367-4.141q0.195-0.586 0.781-0.586h7.344z"></path>
</svg>
