<!-- Generated by IcoMoon.io -->
<svg version="1.1" xmlns="http://www.w3.org/2000/svg" width="20" height="20" viewBox="0 0 20 20">
<title>card_travel</title>
<path d="M16.68 11.68v-5h-2.5v1.641h-1.68v-1.641h-5v1.641h-1.68v-1.641h-2.5v5h13.359zM16.68 15.82v-1.641h-13.359v1.641h13.359zM7.5 3.32v1.68h5v-1.68h-5zM16.68 5q0.703 0 1.172 0.488t0.469 1.191v9.141q0 0.703-0.469 1.191t-1.172 0.488h-13.359q-0.703 0-1.172-0.488t-0.469-1.191v-9.141q0-0.703 0.469-1.191t1.172-0.488h2.5v-1.68q0-0.703 0.488-1.172t1.191-0.469h5q0.703 0 1.191 0.469t0.488 1.172v1.68h2.5z"></path>
</svg>
