<!-- Generated by IcoMoon.io -->
<svg version="1.1" xmlns="http://www.w3.org/2000/svg" width="20" height="20" viewBox="0 0 20 20">
<title>cases</title>
<path d="M3.32 7.5v9.18h13.359q0 0.703-0.488 1.172t-1.191 0.469h-11.68q-0.703 0-1.172-0.469t-0.469-1.172v-9.18h1.641zM13.32 5v-0.82q0-0.313-0.273-0.586t-0.547-0.273h-2.5q-0.313 0-0.566 0.254t-0.254 0.605v0.82h4.141zM7.5 5v-1.68l1.68-1.641h4.141l1.68 1.641v1.68h3.32v9.18q0 0.664-0.488 1.152t-1.152 0.488h-10.859q-0.664 0-1.152-0.488t-0.488-1.152v-9.18h3.32z"></path>
</svg>
