<!-- Generated by IcoMoon.io -->
<svg version="1.1" xmlns="http://www.w3.org/2000/svg" width="20" height="20" viewBox="0 0 20 20">
<title>casino</title>
<path d="M13.75 7.5q0.547 0 0.898-0.352t0.352-0.898-0.352-0.898-0.898-0.352-0.898 0.352-0.352 0.898 0.352 0.898 0.898 0.352zM13.75 15q0.547 0 0.898-0.352t0.352-0.898-0.352-0.898-0.898-0.352-0.898 0.352-0.352 0.898 0.352 0.898 0.898 0.352zM10 11.25q0.547 0 0.898-0.352t0.352-0.898-0.352-0.898-0.898-0.352-0.898 0.352-0.352 0.898 0.352 0.898 0.898 0.352zM6.25 7.5q0.547 0 0.898-0.352t0.352-0.898-0.352-0.898-0.898-0.352-0.898 0.352-0.352 0.898 0.352 0.898 0.898 0.352zM6.25 15q0.547 0 0.898-0.352t0.352-0.898-0.352-0.898-0.898-0.352-0.898 0.352-0.352 0.898 0.352 0.898 0.898 0.352zM15.82 2.5q0.664 0 1.172 0.508t0.508 1.172v11.641q0 0.664-0.508 1.172t-1.172 0.508h-11.641q-0.664 0-1.172-0.508t-0.508-1.172v-11.641q0-0.664 0.508-1.172t1.172-0.508h11.641z"></path>
</svg>
