<!-- Generated by IcoMoon.io -->
<svg version="1.1" xmlns="http://www.w3.org/2000/svg" width="20" height="20" viewBox="0 0 20 20">
<title>cast_connected</title>
<path d="M17.5 2.5q0.664 0 1.172 0.508t0.508 1.172v11.641q0 0.664-0.508 1.172t-1.172 0.508h-5.82v-1.68h5.82v-11.641h-15v2.5h-1.68v-2.5q0-0.664 0.508-1.172t1.172-0.508h15zM0.82 8.32q3.789 0 6.484 2.695t2.695 6.484h-1.68q0-3.125-2.207-5.313t-5.293-2.188v-1.68zM15.82 5.82v8.359h-4.688q-0.781-2.461-2.637-4.336t-4.316-2.656v-1.367h11.641zM0.82 11.68q2.422 0 4.141 1.699t1.719 4.121h-1.68q0-1.719-1.23-2.949t-2.949-1.23v-1.641zM0.82 15q1.016 0 1.758 0.742t0.742 1.758h-2.5v-2.5z"></path>
</svg>
