<!-- Generated by IcoMoon.io -->
<svg version="1.1" xmlns="http://www.w3.org/2000/svg" width="20" height="20" viewBox="0 0 20 20">
<title>celebration</title>
<path d="M12.539 4.883q0.273-0.273 0.273-0.703t-0.273-0.742l-1.328-1.328 0.898-0.898 1.328 1.328q0.664 0.742 0.664 1.641 0 0.859-0.664 1.602l-3.008 3.008-0.859-0.898zM14.219 9.883q0.742-0.664 1.602-0.664 0.898 0 1.641 0.664l1.328 1.367-0.859 0.859-1.367-1.328q-0.313-0.313-0.742-0.313-0.391 0-0.703 0.313l-1.328 1.328-0.898-0.898zM8.398 5.742q0.273-0.273 0.273-0.742t-0.273-0.742l-0.508-0.469 0.898-0.898 0.469 0.469q0.664 0.742 0.664 1.641 0 0.859-0.664 1.602l-0.469 0.508-0.898-0.898zM12.109 10.43l-0.898-0.859 4.688-4.688q0.742-0.664 1.602-0.664 0.898 0 1.641 0.664l0.469 0.508-0.859 0.898-0.508-0.508q-0.313-0.313-0.742-0.313t-0.742 0.313zM1.68 18.32l4.141-11.641 7.5 7.5z"></path>
</svg>
