<!-- Generated by IcoMoon.io -->
<svg version="1.1" xmlns="http://www.w3.org/2000/svg" width="20" height="20" viewBox="0 0 20 20">
<title>center_focus_strong</title>
<path d="M15.82 15.82v-3.32h1.68v3.32q0 0.664-0.508 1.172t-1.172 0.508h-3.32v-1.68h3.32zM15.82 2.5q0.664 0 1.172 0.508t0.508 1.172v3.32h-1.68v-3.32h-3.32v-1.68h3.32zM4.18 4.18v3.32h-1.68v-3.32q0-0.664 0.508-1.172t1.172-0.508h3.32v1.68h-3.32zM4.18 12.5v3.32h3.32v1.68h-3.32q-0.664 0-1.172-0.508t-0.508-1.172v-3.32h1.68zM10 6.68q1.367 0 2.344 0.977t0.977 2.344-0.977 2.344-2.344 0.977-2.344-0.977-0.977-2.344 0.977-2.344 2.344-0.977z"></path>
</svg>
