<!-- Generated by IcoMoon.io -->
<svg version="1.1" xmlns="http://www.w3.org/2000/svg" width="20" height="20" viewBox="0 0 20 20">
<title>child_friendly</title>
<path d="M14.18 16.68q0.508 0 0.879-0.371t0.371-0.879-0.371-0.879-0.879-0.371-0.879 0.371-0.371 0.879 0.371 0.879 0.879 0.371zM6.68 16.68q0.508 0 0.879-0.371t0.371-0.879-0.371-0.879-0.879-0.371-0.879 0.371-0.371 0.879 0.371 0.879 0.879 0.371zM16.094 13.242q0.977 0.898 0.977 2.188 0 1.211-0.84 2.051t-2.051 0.84q-1.094 0-1.914-0.723t-0.977-1.777h-1.758q-0.156 1.055-0.957 1.777t-1.895 0.723q-1.211 0-2.070-0.84t-0.859-2.051q0-1.719 1.523-2.578l-1.758-3.672h-1.836v-1.68h2.891l0.781 1.68h12.148q0 0.938-0.41 2.129t-0.996 1.934zM10.82 1.68q2.773 0 4.727 1.953t1.953 4.688h-6.68v-6.641z"></path>
</svg>
