<!-- Generated by IcoMoon.io -->
<svg version="1.1" xmlns="http://www.w3.org/2000/svg" width="20" height="20" viewBox="0 0 20 20">
<title>child_care</title>
<path d="M6.25 11.68h7.5q-0.469 1.133-1.484 1.816t-2.266 0.684-2.266-0.684-1.484-1.816zM10 15.82q1.992 0 3.535-1.172t2.051-3.008q0.039 0 0.117 0.020t0.117 0.020q0.664 0 1.172-0.508t0.508-1.172-0.508-1.172-1.172-0.508q-0.039 0-0.117 0.020t-0.117 0.020q-0.508-1.836-2.051-3.008t-3.535-1.172-3.535 1.172-2.051 3.008q-0.039 0-0.117-0.020t-0.117-0.020q-0.664 0-1.172 0.508t-0.508 1.172 0.508 1.172 1.172 0.508q0.039 0 0.117-0.020t0.117-0.020q0.508 1.836 2.051 3.008t3.535 1.172zM19.102 10.547q-0.156 0.859-0.82 1.641t-1.484 1.016q-0.859 1.836-2.715 3.066t-4.082 1.23q-2.773 0-4.961-1.914-1.211-1.055-1.797-2.383-0.82-0.234-1.504-1.016t-0.84-1.641q-0.078-0.313-0.078-0.547t0.078-0.547q0.156-0.859 0.84-1.641t1.504-1.016q0.664-1.484 1.797-2.422 2.109-1.875 4.961-1.875t4.961 1.875q1.211 1.133 1.797 2.422 0.82 0.234 1.504 1.016t0.84 1.641q0.078 0.313 0.078 0.547t-0.078 0.547zM6.875 8.75q0-0.43 0.313-0.742t0.742-0.313 0.723 0.313 0.293 0.742-0.293 0.742-0.723 0.313-0.742-0.313-0.313-0.742zM11.055 8.75q0-0.43 0.293-0.742t0.723-0.313 0.742 0.313 0.313 0.742-0.313 0.742-0.742 0.313-0.723-0.313-0.293-0.742z"></path>
</svg>
