<!-- Generated by IcoMoon.io -->
<svg version="1.1" xmlns="http://www.w3.org/2000/svg" width="20" height="20" viewBox="0 0 20 20">
<title>circle_notifications</title>
<path d="M14.18 13.32v-0.82l-0.859-0.82v-2.188q0-1.367-0.645-2.383t-1.855-1.289v-0.391q0-0.352-0.234-0.605t-0.586-0.254-0.586 0.254-0.234 0.605v0.391q-1.211 0.273-1.855 1.289t-0.645 2.383v2.188l-0.859 0.82v0.82h8.359zM10 15.43q0.547 0 0.898-0.371t0.352-0.879h-2.5q0 0.508 0.352 0.879t0.898 0.371zM10 1.68q3.438 0 5.879 2.441t2.441 5.879-2.441 5.879-5.879 2.441-5.879-2.441-2.441-5.879 2.441-5.879 5.879-2.441z"></path>
</svg>
