<!-- Generated by IcoMoon.io -->
<svg version="1.1" xmlns="http://www.w3.org/2000/svg" width="20" height="20" viewBox="0 0 20 20">
<title>closed_caption_off</title>
<path d="M15 9.18h-1.25v-0.43h-1.68v2.5h1.68v-0.43h1.25v0.859q0 0.352-0.234 0.586t-0.586 0.234h-2.5q-0.352 0-0.605-0.234t-0.254-0.586v-3.359q0-0.352 0.254-0.586t0.605-0.234h2.5q0.352 0 0.586 0.234t0.234 0.586v0.859zM9.18 9.18h-1.25v-0.43h-1.68v2.5h1.68v-0.43h1.25v0.859q0 0.352-0.254 0.586t-0.605 0.234h-2.5q-0.352 0-0.586-0.234t-0.234-0.586v-3.359q0-0.352 0.234-0.586t0.586-0.234h2.5q0.352 0 0.605 0.234t0.254 0.586v0.859zM15.82 3.32q0.664 0 1.172 0.508t0.508 1.172v10q0 0.664-0.508 1.172t-1.172 0.508h-11.641q-0.703 0-1.191-0.488t-0.488-1.191v-10q0-0.703 0.488-1.191t1.191-0.488h11.641zM16.25 4.57h-12.5v10.859h12.5v-10.859z"></path>
</svg>
