<!-- Generated by IcoMoon.io -->
<svg version="1.1" xmlns="http://www.w3.org/2000/svg" width="20" height="20" viewBox="0 0 20 20">
<title>cloud_off</title>
<path d="M6.445 8.32h-1.445q-1.367 0-2.344 0.996t-0.977 2.363 0.977 2.344 2.344 0.977h8.125zM2.5 4.375l1.055-1.055 13.945 13.945-1.055 1.055-1.68-1.641h-9.766q-2.070 0-3.535-1.465t-1.465-3.535q0-2.031 1.406-3.477t3.398-1.523zM16.133 8.359q1.602 0.117 2.734 1.309t1.133 2.832q0 2.148-1.758 3.398l-1.211-1.211q1.289-0.703 1.289-2.188 0-1.016-0.742-1.758t-1.758-0.742h-1.25v-0.43q0-1.914-1.328-3.242t-3.242-1.328q-1.094 0-2.109 0.508l-1.25-1.211q1.523-0.977 3.359-0.977 2.109 0 3.926 1.484t2.207 3.555z"></path>
</svg>
