<!-- Generated by IcoMoon.io -->
<svg version="1.1" xmlns="http://www.w3.org/2000/svg" width="20" height="20" viewBox="0 0 20 20">
<title>cloud_circle</title>
<path d="M13.75 13.32q0.859 0 1.465-0.605t0.605-1.465-0.605-1.465-1.465-0.605h-0.43q0-1.367-0.977-2.363t-2.344-0.996q-1.055 0-1.992 0.742t-1.211 1.797l-0.117-0.039q-1.016 0-1.758 0.742t-0.742 1.758 0.742 1.758 1.758 0.742h7.070zM10 1.68q3.438 0 5.879 2.441t2.441 5.879-2.441 5.879-5.879 2.441-5.879-2.441-2.441-5.879 2.441-5.879 5.879-2.441z"></path>
</svg>
