<!-- Generated by IcoMoon.io -->
<svg version="1.1" xmlns="http://www.w3.org/2000/svg" width="20" height="20" viewBox="0 0 20 20">
<title>cloud_queue</title>
<path d="M15.82 15q1.016 0 1.758-0.742t0.742-1.758-0.742-1.758-1.758-0.742h-1.25v-0.43q0-1.914-1.328-3.242t-3.242-1.328q-1.563 0-2.773 0.938t-1.641 2.383h-0.586q-1.367 0-2.344 0.996t-0.977 2.363 0.977 2.344 2.344 0.977h10.82zM16.133 8.359q1.602 0.117 2.734 1.309t1.133 2.832q0 1.719-1.23 2.949t-2.949 1.23h-10.82q-2.070 0-3.535-1.465t-1.465-3.535q0-1.836 1.309-3.301t3.145-1.66q0.82-1.523 2.305-2.461t3.242-0.938q2.109 0 3.926 1.484t2.207 3.555z"></path>
</svg>
