<!-- Generated by IcoMoon.io -->
<svg version="1.1" xmlns="http://www.w3.org/2000/svg" width="20" height="20" viewBox="0 0 20 20">
<title>color_lenspalette</title>
<path d="M14.57 10q0.508 0 0.879-0.352t0.371-0.898-0.371-0.898-0.879-0.352-0.879 0.352-0.371 0.898 0.371 0.898 0.879 0.352zM12.070 6.68q0.508 0 0.879-0.371t0.371-0.879-0.371-0.879-0.879-0.371-0.879 0.371-0.371 0.879 0.371 0.879 0.879 0.371zM7.93 6.68q0.508 0 0.879-0.371t0.371-0.879-0.371-0.879-0.879-0.371-0.879 0.371-0.371 0.879 0.371 0.879 0.879 0.371zM5.43 10q0.508 0 0.879-0.352t0.371-0.898-0.371-0.898-0.879-0.352-0.879 0.352-0.371 0.898 0.371 0.898 0.879 0.352zM10 2.5q3.086 0 5.293 1.953t2.207 4.727q0 1.719-1.23 2.93t-2.949 1.211h-1.445q-0.547 0-0.898 0.371t-0.352 0.879q0 0.43 0.313 0.82t0.313 0.859q0 0.547-0.352 0.898t-0.898 0.352q-3.125 0-5.313-2.188t-2.188-5.313 2.188-5.313 5.313-2.188z"></path>
</svg>
