<!-- Generated by IcoMoon.io -->
<svg version="1.1" xmlns="http://www.w3.org/2000/svg" width="20" height="20" viewBox="0 0 20 20">
<title>commute</title>
<path d="M16.68 13.32q0.352 0 0.586-0.234t0.234-0.586-0.234-0.586-0.586-0.234-0.605 0.234-0.254 0.586 0.254 0.586 0.605 0.234zM10 13.32q0.352 0 0.586-0.234t0.234-0.586-0.234-0.586-0.586-0.234-0.586 0.234-0.234 0.586 0.234 0.586 0.586 0.234zM10.352 8.32l-0.859 2.5h7.695l-0.859-2.5h-5.977zM17.148 8.047l1.172 3.438v4.57q0 0.234-0.176 0.43t-0.41 0.195h-0.508q-0.234 0-0.391-0.215t-0.156-0.449v-1.016h-6.68v1.016q0 0.234-0.176 0.449t-0.41 0.215h-0.508q-0.234 0-0.391-0.195t-0.156-0.43l-0.039-4.57 1.211-3.438q0.195-0.547 0.82-0.547h5.977q0.625 0 0.82 0.547zM4.18 11.68q-0.352 0-0.605 0.234t-0.254 0.586 0.254 0.586 0.605 0.234 0.586-0.234 0.234-0.586-0.234-0.586-0.586-0.234zM10 3.32q1.016 0 1.758 0.742t0.742 1.758v0.859h-1.68v-1.68h-7.5v5.82h4.18v4.18l-1.68-0.039-1.641 1.719h-0.859v-0.859l0.859-0.82q-1.016 0-1.758-0.742t-0.742-1.758v-6.68q0-1.016 0.742-1.758t1.758-0.742h5.82z"></path>
</svg>
