<!-- Generated by IcoMoon.io -->
<svg version="1.1" xmlns="http://www.w3.org/2000/svg" width="20" height="20" viewBox="0 0 20 20">
<title>confirmation_number</title>
<path d="M10.82 7.070v-1.641h-1.641v1.641h1.641zM10.82 10.82v-1.641h-1.641v1.641h1.641zM10.82 14.57v-1.641h-1.641v1.641h1.641zM18.32 8.32q-0.664 0-1.152 0.508t-0.488 1.172 0.488 1.172 1.152 0.508v3.32q0 0.664-0.488 1.172t-1.152 0.508h-13.359q-0.664 0-1.152-0.508t-0.488-1.172v-3.32q0.703 0 1.172-0.488t0.469-1.191q0-0.664-0.488-1.172t-1.152-0.508v-3.32q0-0.703 0.488-1.191t1.152-0.488h13.359q0.703 0 1.172 0.488t0.469 1.191v3.32z"></path>
</svg>
