<!-- Generated by IcoMoon.io -->
<svg version="1.1" xmlns="http://www.w3.org/2000/svg" width="20" height="20" viewBox="0 0 20 20">
<title>connected_tv</title>
<path d="M3.32 6.68q2.773 0 4.727 1.953t1.953 4.688h-1.211q0-2.266-1.602-3.848t-3.867-1.582v-1.211zM3.32 9.18q1.719 0 2.949 1.211t1.23 2.93h-1.211q0-1.211-0.879-2.090t-2.090-0.879v-1.172zM3.32 11.68q0.703 0 1.191 0.469t0.488 1.172h-1.68v-1.641zM17.5 14.18v-10h-15v10h15zM17.5 2.5q0.664 0 1.172 0.508t0.508 1.172l-0.039 10q0 0.664-0.488 1.152t-1.152 0.488h-4.18v1.68h-6.641v-1.68h-4.18q-0.664 0-1.172-0.488t-0.508-1.152v-10q0-0.664 0.508-1.172t1.172-0.508h15z"></path>
</svg>
