<!-- Generated by IcoMoon.io -->
<svg version="1.1" xmlns="http://www.w3.org/2000/svg" width="20" height="20" viewBox="0 0 20 20">
<title>content_paste</title>
<path d="M15.82 16.68v-13.359h-1.641v2.5h-8.359v-2.5h-1.641v13.359h11.641zM10 1.68q-0.352 0-0.586 0.234t-0.234 0.586 0.234 0.586 0.586 0.234 0.586-0.234 0.234-0.586-0.234-0.586-0.586-0.234zM15.82 1.68q0.664 0 1.172 0.488t0.508 1.152v13.359q0 0.664-0.508 1.152t-1.172 0.488h-11.641q-0.664 0-1.172-0.488t-0.508-1.152v-13.359q0-0.664 0.508-1.152t1.172-0.488h3.477q0.273-0.742 0.898-1.211t1.445-0.469 1.445 0.469 0.898 1.211h3.477z"></path>
</svg>
