<!-- Generated by IcoMoon.io -->
<svg version="1.1" xmlns="http://www.w3.org/2000/svg" width="20" height="20" viewBox="0 0 20 20">
<title>control_camera</title>
<path d="M7.5 10q0-1.016 0.742-1.758t1.758-0.742 1.758 0.742 0.742 1.758-0.742 1.758-1.758 0.742-1.758-0.742-0.742-1.758zM4.609 7.031l1.484 1.484-1.484 1.484 1.484 1.484-1.484 1.484-2.93-2.969zM7.031 15.391l1.484-1.484 1.484 1.484 1.484-1.484 1.484 1.484-2.969 2.93zM15.391 12.969l-1.484-1.484 1.484-1.484-1.484-1.484 1.484-1.484 2.93 2.969zM12.969 4.609l-1.484 1.484-1.484-1.484-1.484 1.484-1.484-1.484 2.969-2.93z"></path>
</svg>
