<!-- Generated by IcoMoon.io -->
<svg version="1.1" xmlns="http://www.w3.org/2000/svg" width="20" height="20" viewBox="0 0 20 20">
<title>contact_support</title>
<path d="M10.43 10.82q0-0.898 1.25-1.992t1.25-2.148q0-1.367-0.996-2.363t-2.363-0.996-2.344 0.996-0.977 2.363h1.68q0-0.664 0.488-1.172t1.152-0.508 1.172 0.508 0.508 1.172q0 0.547-0.391 0.977t-0.859 0.703-0.859 0.918-0.391 1.543h1.68zM10.43 13.75v-1.68h-1.68v1.68h1.68zM9.57 1.68q2.93 0 5.020 2.070t2.090 5q0 2.852-1.836 5.488t-4.844 4.082v-2.5h-0.43q-2.93 0-5-2.070t-2.070-5 2.070-5 5-2.070z"></path>
</svg>
