<!-- Generated by IcoMoon.io -->
<svg version="1.1" xmlns="http://www.w3.org/2000/svg" width="20" height="20" viewBox="0 0 20 20">
<title>contact_phone</title>
<path d="M14.883 11.68q-0.313-0.82-0.313-1.68t0.313-1.68h1.367l1.25-1.641-1.641-1.68q-0.703 0.547-1.387 1.523t-0.918 1.797-0.234 1.68 0.234 1.68 0.918 1.797 1.387 1.523l1.641-1.68-1.25-1.641h-1.367zM11.68 15v-0.82q0-1.133-1.719-1.855t-3.281-0.723-3.281 0.723-1.719 1.855v0.82h10zM6.68 5q-1.016 0-1.758 0.742t-0.742 1.758 0.742 1.758 1.758 0.742 1.758-0.742 0.742-1.758-0.742-1.758-1.758-0.742zM18.32 2.5q0.664 0 1.172 0.508t0.508 1.172v11.641q0 0.664-0.508 1.172t-1.172 0.508h-16.641q-0.664 0-1.172-0.508t-0.508-1.172v-11.641q0-0.664 0.508-1.172t1.172-0.508h16.641z"></path>
</svg>
