<!-- Generated by IcoMoon.io -->
<svg version="1.1" xmlns="http://www.w3.org/2000/svg" width="20" height="20" viewBox="0 0 20 20">
<title>contactless</title>
<path d="M12.227 14.453q1.094-2.227 1.094-4.453 0-2.266-1.094-4.453l-1.133 0.586q0.977 1.914 0.977 3.867t-0.977 3.906zM9.609 13.359q0.82-1.445 0.82-3.242 0-1.836-0.82-3.398l-1.094 0.547q0.664 1.406 0.664 2.852 0 1.406-0.664 2.617zM7.031 12.031q0.469-1.016 0.469-2.070 0-0.938-0.469-1.992l-1.133 0.508q0.352 0.703 0.352 1.484 0 0.82-0.352 1.563zM10 1.68q3.438 0 5.879 2.441t2.441 5.879-2.441 5.879-5.879 2.441-5.879-2.441-2.441-5.879 2.441-5.879 5.879-2.441z"></path>
</svg>
