<!-- Generated by IcoMoon.io -->
<svg version="1.1" xmlns="http://www.w3.org/2000/svg" width="20" height="20" viewBox="0 0 20 20">
<title>control_point_duplicate</title>
<path d="M12.5 15.82q2.422 0 4.121-1.699t1.699-4.121-1.699-4.121-4.121-1.699-4.121 1.699-1.699 4.121 1.699 4.121 4.121 1.699zM12.5 2.5q3.125 0 5.313 2.188t2.188 5.313-2.188 5.313-5.313 2.188-5.313-2.188-2.188-5.313 2.188-5.313 5.313-2.188zM1.68 10q0 1.523 0.977 3.086t2.344 2.188v1.797q-2.188-0.781-3.594-2.734t-1.406-4.336 1.406-4.336 3.594-2.734v1.797q-1.523 0.703-2.422 2.129t-0.898 3.145zM13.32 6.68v2.5h2.5v1.641h-2.5v2.5h-1.641v-2.5h-2.5v-1.641h2.5v-2.5h1.641z"></path>
</svg>
