<!-- Generated by IcoMoon.io -->
<svg version="1.1" xmlns="http://www.w3.org/2000/svg" width="20" height="20" viewBox="0 0 20 20">
<title>content_cut</title>
<path d="M15.82 2.5h2.5v0.82l-5.82 5.859-1.68-1.68zM10 10.43q0.43 0 0.43-0.43t-0.43-0.43-0.43 0.43 0.43 0.43zM5 16.68q0.664 0 1.172-0.488t0.508-1.191-0.508-1.191-1.172-0.488-1.172 0.488-0.508 1.191 0.508 1.191 1.172 0.488zM5 6.68q0.664 0 1.172-0.488t0.508-1.191-0.508-1.191-1.172-0.488-1.172 0.488-0.508 1.191 0.508 1.191 1.172 0.488zM8.047 6.367l10.273 10.313v0.82h-2.5l-5.82-5.82-1.953 1.953q0.273 0.586 0.273 1.367 0 1.367-0.977 2.344t-2.344 0.977-2.344-0.977-0.977-2.344 0.977-2.344 2.344-0.977q0.781 0 1.367 0.273l1.953-1.953-1.953-1.953q-0.586 0.273-1.367 0.273-1.367 0-2.344-0.977t-0.977-2.344 0.977-2.344 2.344-0.977 2.344 0.977 0.977 2.344q0 0.781-0.273 1.367z"></path>
</svg>
