<!-- Generated by IcoMoon.io -->
<svg version="1.1" xmlns="http://www.w3.org/2000/svg" width="20" height="20" viewBox="0 0 20 20">
<title>contacts</title>
<path d="M14.18 14.18v-1.25q0-0.938-1.426-1.523t-2.754-0.586-2.754 0.586-1.426 1.523v1.25h8.359zM10 5.625q-0.781 0-1.328 0.547t-0.547 1.328 0.547 1.328 1.328 0.547 1.328-0.547 0.547-1.328-0.547-1.328-1.328-0.547zM16.68 3.32q0.664 0 1.152 0.508t0.488 1.172v10q0 0.664-0.488 1.172t-1.152 0.508h-13.359q-0.664 0-1.152-0.508t-0.488-1.172v-10q0-0.664 0.488-1.172t1.152-0.508h13.359zM3.32 20v-1.68h13.359v1.68h-13.359zM16.68 0v1.68h-13.359v-1.68h13.359z"></path>
</svg>
