<!-- Generated by IcoMoon.io -->
<svg version="1.1" xmlns="http://www.w3.org/2000/svg" width="20" height="20" viewBox="0 0 20 20">
<title>copyright</title>
<path d="M10 16.68q2.734 0 4.707-1.973t1.973-4.707-1.973-4.707-4.707-1.973-4.707 1.973-1.973 4.707 1.973 4.707 4.707 1.973zM10 1.68q3.438 0 5.879 2.441t2.441 5.879-2.441 5.879-5.879 2.441-5.879-2.441-2.441-5.879 2.441-5.879 5.879-2.441zM9.883 7.617q-1.563 0-1.563 2.266v0.234q0 2.266 1.563 2.266 0.586 0 0.977-0.332t0.391-0.84h1.484q0 0.977-0.859 1.719-0.82 0.703-1.992 0.703-1.563 0-2.383-0.938t-0.82-2.578v-0.234q0-1.602 0.781-2.5 0.938-1.055 2.422-1.055 1.289 0 2.031 0.742 0.82 0.82 0.82 1.914h-1.484q0-0.273-0.117-0.508-0.195-0.391-0.273-0.469-0.391-0.391-0.977-0.391z"></path>
</svg>
