<!-- Generated by IcoMoon.io -->
<svg version="1.1" xmlns="http://www.w3.org/2000/svg" width="20" height="20" viewBox="0 0 20 20">
<title>crop_rotate</title>
<path d="M6.68 13.32h10v1.68h-1.68v1.68h-1.68v-1.68h-6.641q-0.703 0-1.191-0.488t-0.488-1.191v-6.641h-1.68v-1.68h1.68v-1.68h1.68v10zM13.32 11.68v-5h-5v-1.68h5q0.703 0 1.191 0.488t0.488 1.191v5h-1.68zM10.039 0q3.906 0 6.777 2.656t3.184 6.523h-1.25q-0.234-2.344-1.563-4.219t-3.398-2.852l-1.133 1.094-3.164-3.164q0.117 0 0.273-0.020t0.273-0.020zM6.211 17.891l1.133-1.094 3.164 3.164q-0.117 0-0.273 0.020t-0.273 0.020q-3.906 0-6.777-2.656t-3.184-6.523h1.25q0.234 2.344 1.563 4.219t3.398 2.852z"></path>
</svg>
