<!-- Generated by IcoMoon.io -->
<svg version="1.1" xmlns="http://www.w3.org/2000/svg" width="20" height="20" viewBox="0 0 20 20">
<title>d_rotation</title>
<path d="M10 0q3.906 0 6.777 2.637t3.184 6.504h-1.25q-0.195-2.305-1.543-4.18t-3.418-2.852l-1.133 1.094-3.164-3.164zM13.789 9.844q0-2.227-1.836-2.227h-0.781v4.805h0.742q1.406 0 1.797-1.328 0.078-0.273 0.078-0.938v-0.313zM11.953 6.68q2.070 0 2.813 1.836 0.195 0.469 0.195 1.328v0.313q0 1.484-0.82 2.305-0.859 0.859-2.227 0.859h-1.914v-6.641h1.953zM8.086 9.922q1.094 0.43 1.094 1.523 0 0.391-0.195 0.781-0.234 0.469-0.43 0.625-0.586 0.469-1.563 0.469-0.938 0-1.523-0.469t-0.586-1.367h1.055q0 0.43 0.293 0.703t0.762 0.273q1.094 0 1.094-1.055t-1.211-1.055h-0.625v-0.859h0.625q1.133 0 1.133-0.977t-1.016-0.977q-0.977 0-0.977 0.898h-1.094q0-0.664 0.586-1.25 0.625-0.508 1.484-0.508 0.938 0 1.504 0.469t0.566 1.367q0 0.977-0.977 1.406zM6.25 17.891l1.133-1.094 3.164 3.164-0.547 0.039q-3.906 0-6.777-2.656t-3.184-6.523h1.25q0.195 2.070 1.641 4.141t3.32 2.93z"></path>
</svg>
