<!-- Generated by IcoMoon.io -->
<svg version="1.1" xmlns="http://www.w3.org/2000/svg" width="20" height="20" viewBox="0 0 20 20">
<title>data_usage</title>
<path d="M10 15.82q1.133 0 2.461-0.645t2.070-1.543l2.188 1.289q-2.5 3.398-6.719 3.398-3.438 0-5.879-2.441t-2.441-5.879q0-3.242 2.168-5.605t5.332-2.676v2.5q-2.109 0.313-3.555 1.953t-1.445 3.828q0 2.422 1.699 4.121t4.121 1.699zM10.82 1.719q3.164 0.313 5.332 2.676t2.168 5.605q0 1.875-0.703 3.398l-2.188-1.289q0.391-1.094 0.391-2.109 0-2.188-1.445-3.828t-3.555-1.953v-2.5z"></path>
</svg>
