<!-- Generated by IcoMoon.io -->
<svg version="1.1" xmlns="http://www.w3.org/2000/svg" width="20" height="20" viewBox="0 0 20 20">
<title>date_range</title>
<path d="M15.82 16.68v-9.18h-11.641v9.18h11.641zM15.82 3.32q0.664 0 1.172 0.508t0.508 1.172v11.68q0 0.664-0.508 1.152t-1.172 0.488h-11.641q-0.703 0-1.191-0.469t-0.488-1.172v-11.68q0-0.664 0.488-1.172t1.191-0.508h0.82v-1.641h1.68v1.641h6.641v-1.641h1.68v1.641h0.82zM14.18 9.18v1.641h-1.68v-1.641h1.68zM10.82 9.18v1.641h-1.641v-1.641h1.641zM7.5 9.18v1.641h-1.68v-1.641h1.68z"></path>
</svg>
