<!-- Generated by IcoMoon.io -->
<svg version="1.1" xmlns="http://www.w3.org/2000/svg" width="20" height="20" viewBox="0 0 20 20">
<title>delivery_dining</title>
<path d="M15.82 14.18q0.352 0 0.605-0.254t0.254-0.605-0.254-0.586-0.605-0.234-0.586 0.234-0.234 0.586 0.234 0.605 0.586 0.254zM15.82 10.82q1.016 0 1.758 0.742t0.742 1.758-0.742 1.758-1.758 0.742-1.758-0.742-0.742-1.758 0.742-1.758 1.758-0.742zM4.18 5h4.141v1.68h-4.141v-1.68zM5.82 14.18q0.352 0 0.605-0.254t0.254-0.605h-1.68q0 0.352 0.234 0.605t0.586 0.254zM15.82 5.82v2.813l-3.75 4.688h-3.75q0 1.016-0.742 1.758t-1.758 0.742-1.758-0.742-0.742-1.758h-1.641v-2.5q0-1.367 0.977-2.344t2.344-0.977h3.32v4.18h2.93l2.93-3.633v-2.227h-2.5v-1.641h2.5q0.664 0 1.152 0.488t0.488 1.152z"></path>
</svg>
