<!-- Generated by IcoMoon.io -->
<svg version="1.1" xmlns="http://www.w3.org/2000/svg" width="20" height="20" viewBox="0 0 20 20">
<title>desktop_access_disabled</title>
<path d="M2.5 13.32h8.242l-8.242-8.242v8.242zM12.422 15h-0.742v1.68h1.641v1.641h-6.641v-1.641h1.641v-1.68h-5.82q-0.664 0-1.172-0.508t-0.508-1.172v-9.922l-0.82-0.82 1.016-1.094q0.938 0.938 5.938 5.898t7.617 7.617l3.945 3.906-1.094 1.094zM19.18 13.32q0 0.664-0.508 1.172t-1.172 0.508h-0.82l-1.68-1.68h2.5v-10h-12.5l-1.68-1.641h14.18q0.664 0 1.172 0.488t0.508 1.152v10z"></path>
</svg>
