<!-- Generated by IcoMoon.io -->
<svg version="1.1" xmlns="http://www.w3.org/2000/svg" width="20" height="20" viewBox="0 0 20 20">
<title>developer_board</title>
<path d="M10 9.18h3.32v5h-3.32v-5zM5 5.82h4.18v4.18h-4.18v-4.18zM10 5.82h3.32v2.5h-3.32v-2.5zM5 10.82h4.18v3.359h-4.18v-3.359zM15 15.82v-11.641h-11.68v11.641h11.68zM18.32 7.5h-1.641v1.68h1.641v1.641h-1.641v1.68h1.641v1.68h-1.641v1.641q0 0.664-0.508 1.172t-1.172 0.508h-11.68q-0.664 0-1.152-0.508t-0.488-1.172v-11.641q0-0.664 0.488-1.172t1.152-0.508h11.68q0.664 0 1.172 0.508t0.508 1.172v1.641h1.641v1.68z"></path>
</svg>
