<!-- Generated by IcoMoon.io -->
<svg version="1.1" xmlns="http://www.w3.org/2000/svg" width="20" height="20" viewBox="0 0 20 20">
<title>developer_mode</title>
<path d="M14.18 15.82v-1.641h1.641v3.32q0 0.664-0.488 1.172t-1.152 0.508h-8.359q-0.664 0-1.152-0.508t-0.488-1.172v-3.32h1.641v1.641h8.359zM8.32 12.656l-1.172 1.172-3.828-3.828 3.828-3.828 1.172 1.172-2.617 2.656zM12.852 13.828l-1.172-1.172 2.617-2.656-2.617-2.656 1.172-1.172 3.828 3.828zM5.82 4.18v1.641h-1.641v-3.32q0-0.664 0.488-1.172t1.152-0.508l8.359 0.039q0.664 0 1.152 0.488t0.488 1.152v3.32h-1.641v-1.641h-8.359z"></path>
</svg>
