<!-- Generated by IcoMoon.io -->
<svg version="1.1" xmlns="http://www.w3.org/2000/svg" width="20" height="20" viewBox="0 0 20 20">
<title>device_unknown</title>
<path d="M9.258 12.93h1.484v1.484h-1.484v-1.484zM10 5.586q1.25 0 2.090 0.84t0.84 2.051q0 0.977-1.094 1.953t-1.094 1.758h-1.484q0-0.82 0.332-1.387t0.762-0.82 0.762-0.645 0.332-0.859q0-0.586-0.43-1.016t-1.016-0.43-1.016 0.43-0.43 1.016h-1.484q0-1.211 0.84-2.051t2.090-0.84zM14.18 15.82v-11.641h-8.359v11.641h8.359zM14.18 0.82q0.664 0 1.152 0.508t0.488 1.172v15q0 0.664-0.488 1.172t-1.152 0.508h-8.359q-0.664 0-1.152-0.508t-0.488-1.172v-15q0-0.664 0.488-1.172t1.152-0.508h8.359z"></path>
</svg>
