<!-- Generated by IcoMoon.io -->
<svg version="1.1" xmlns="http://www.w3.org/2000/svg" width="20" height="20" viewBox="0 0 20 20">
<title>devices_other</title>
<path d="M17.5 15v-6.68h-3.32v6.68h3.32zM18.32 6.68q0.313 0 0.586 0.254t0.273 0.566v8.32q0 0.313-0.273 0.586t-0.586 0.273h-5q-0.313 0-0.566-0.273t-0.254-0.586v-8.32q0-0.313 0.254-0.566t0.566-0.254h5zM9.18 14.57q0.508 0 0.879-0.371t0.371-0.879-0.371-0.879-0.879-0.371-0.879 0.371-0.371 0.879 0.371 0.879 0.879 0.371zM10.82 10v1.484q0.859 0.781 0.859 1.836 0 1.094-0.859 1.875v1.484h-3.32v-1.484q-0.82-0.742-0.82-1.875 0-1.094 0.82-1.836v-1.484h3.32zM2.5 5v10h3.32v1.68h-3.32q-0.664 0-1.172-0.508t-0.508-1.172v-10q0-0.664 0.508-1.172t1.172-0.508h15v1.68h-15z"></path>
</svg>
