<!-- Generated by IcoMoon.io -->
<svg version="1.1" xmlns="http://www.w3.org/2000/svg" width="20" height="20" viewBox="0 0 20 20">
<title>dialpad</title>
<path d="M10 0.82q0.664 0 1.172 0.508t0.508 1.172-0.508 1.172-1.172 0.508-1.172-0.508-0.508-1.172 0.508-1.172 1.172-0.508zM10 5.82q0.664 0 1.172 0.508t0.508 1.172-0.508 1.172-1.172 0.508-1.172-0.508-0.508-1.172 0.508-1.172 1.172-0.508zM15 5.82q0.664 0 1.172 0.508t0.508 1.172-0.508 1.172-1.172 0.508-1.172-0.508-0.508-1.172 0.508-1.172 1.172-0.508zM15 10.82q0.664 0 1.172 0.508t0.508 1.172-0.508 1.172-1.172 0.508-1.172-0.508-0.508-1.172 0.508-1.172 1.172-0.508zM10 10.82q0.664 0 1.172 0.508t0.508 1.172-0.508 1.172-1.172 0.508-1.172-0.508-0.508-1.172 0.508-1.172 1.172-0.508zM15 4.18q-0.664 0-1.172-0.508t-0.508-1.172 0.508-1.172 1.172-0.508 1.172 0.508 0.508 1.172-0.508 1.172-1.172 0.508zM5 10.82q0.664 0 1.172 0.508t0.508 1.172-0.508 1.172-1.172 0.508-1.172-0.508-0.508-1.172 0.508-1.172 1.172-0.508zM5 5.82q0.664 0 1.172 0.508t0.508 1.172-0.508 1.172-1.172 0.508-1.172-0.508-0.508-1.172 0.508-1.172 1.172-0.508zM5 0.82q0.664 0 1.172 0.508t0.508 1.172-0.508 1.172-1.172 0.508-1.172-0.508-0.508-1.172 0.508-1.172 1.172-0.508zM10 15.82q0.664 0 1.172 0.508t0.508 1.172-0.508 1.172-1.172 0.508-1.172-0.508-0.508-1.172 0.508-1.172 1.172-0.508z"></path>
</svg>
