<!-- Generated by IcoMoon.io -->
<svg version="1.1" xmlns="http://www.w3.org/2000/svg" width="20" height="20" viewBox="0 0 20 20">
<title>dialer_sip</title>
<path d="M16.68 12.93q0.352 0 0.586 0.234t0.234 0.586v2.93q0 0.352-0.234 0.586t-0.586 0.234q-5.859 0-10.020-4.16t-4.16-10.020q0-0.352 0.234-0.586t0.586-0.234h2.93q0.352 0 0.586 0.234t0.234 0.586v0.039q0 1.602 0.469 2.93 0.156 0.508-0.195 0.859l-1.836 1.836q0.781 1.484 2.402 3.105t3.105 2.402l1.836-1.836q0.273-0.273 0.586-0.273 0.117 0 0.273 0.078 1.406 0.469 2.969 0.469zM16.68 4.18v-0.859h-0.859v0.859h0.859zM15 2.5h2.5v2.5h-1.68v1.68h-0.82v-4.18zM12.5 4.18v2.5h-2.5v-0.859h1.68v-0.82h-1.68v-2.5h2.5v0.82h-1.68v0.859h1.68zM14.18 2.5v4.18h-0.859v-4.18h0.859z"></path>
</svg>
