<!-- Generated by IcoMoon.io -->
<svg version="1.1" xmlns="http://www.w3.org/2000/svg" width="20" height="20" viewBox="0 0 20 20">
<title>dinner_dining</title>
<path d="M3.32 13.75v-7.070h-0.82v-0.859h0.82v-0.82h-0.82v-0.82h0.82v-0.859h-0.82v-0.82h5q0.625 0.039 1.113 0.527t0.566 1.152h8.32v0.82h-8.32q-0.078 0.664-0.566 1.191t-1.113 0.488h-1.68v5.859q0.078 0 0.215-0.020t0.215-0.020q0.703 0 1.602 0.352 0.508-1.172 1.758-2.012t2.5-0.84q1.914 0 3.242 1.328t1.328 3.242q0 0.078-0.020 0.234t-0.020 0.195h-14.023q0.156-0.625 0.703-1.25zM5 12.695v-6.016h-0.82v6.406q0.586-0.313 0.82-0.391zM7.5 5.82v-0.82h-1.68v0.82h1.68zM7.5 3.32h-1.68v0.859h1.68v-0.859zM4.18 3.32v0.859h0.82v-0.859h-0.82zM4.18 5v0.82h0.82v-0.82h-0.82zM1.68 15.82h16.641l-1.641 1.68h-13.359z"></path>
</svg>
