<!-- Generated by IcoMoon.io -->
<svg version="1.1" xmlns="http://www.w3.org/2000/svg" width="20" height="20" viewBox="0 0 20 20">
<title>directions_bike</title>
<path d="M15.82 17.070q1.211 0 2.070-0.84t0.859-2.051-0.859-2.070-2.070-0.859-2.051 0.859-0.84 2.070 0.84 2.051 2.051 0.84zM15.82 10q1.758 0 2.969 1.211t1.211 2.969-1.211 2.949-2.969 1.191-2.949-1.191-1.191-2.949 1.191-2.969 2.949-1.211zM8.984 8.75l1.836 1.914v5.156h-1.641v-4.141l-2.695-2.344q-0.469-0.313-0.469-1.172 0-0.703 0.469-1.172l2.344-2.344q0.313-0.469 1.172-0.469 0.742 0 1.328 0.469l1.602 1.602q1.25 1.25 2.969 1.25v1.68q-2.461 0-4.219-1.758l-0.664-0.664zM4.18 17.070q1.211 0 2.051-0.84t0.84-2.051-0.84-2.070-2.051-0.859-2.070 0.859-0.859 2.070 0.859 2.051 2.070 0.84zM4.18 10q1.758 0 2.949 1.211t1.191 2.969-1.191 2.949-2.949 1.191-2.969-1.191-1.211-2.949 1.211-2.969 2.969-1.211zM12.93 4.57q-0.664 0-1.172-0.488t-0.508-1.152 0.508-1.172 1.172-0.508 1.152 0.508 0.488 1.172-0.488 1.152-1.152 0.488z"></path>
</svg>
