<!-- Generated by IcoMoon.io -->
<svg version="1.1" xmlns="http://www.w3.org/2000/svg" width="20" height="20" viewBox="0 0 20 20">
<title>directions_run</title>
<path d="M8.242 16.133l-5.82-1.133 0.313-1.68 4.102 0.82 1.328-6.758-1.523 0.586v2.852h-1.641v-3.906l4.336-1.836q0.117 0 0.332-0.039t0.332-0.039q0.82 0 1.406 0.82l0.82 1.328q1.133 1.992 3.594 1.992v1.68q-2.773 0-4.57-2.070l-0.508 2.5 1.758 1.641v6.25h-1.68v-5l-1.758-1.641zM11.25 4.57q-0.664 0-1.172-0.508t-0.508-1.172 0.508-1.152 1.172-0.488 1.152 0.488 0.488 1.152-0.488 1.172-1.152 0.508z"></path>
</svg>
