<!-- Generated by IcoMoon.io -->
<svg version="1.1" xmlns="http://www.w3.org/2000/svg" width="20" height="20" viewBox="0 0 20 20">
<title>directions_ferry</title>
<path d="M5 5v3.32l5-1.641 5 1.641v-3.32h-10zM3.281 15.82l-1.563-5.547q-0.039-0.078-0.039-0.273 0-0.547 0.586-0.781l1.055-0.352v-3.867q0-0.664 0.508-1.172t1.172-0.508h2.5v-2.5h5v2.5h2.5q0.664 0 1.172 0.508t0.508 1.172v3.867l1.055 0.352q0.82 0.273 0.547 1.055l-1.563 5.547h-0.039q-1.914 0-3.359-1.641-1.445 1.641-3.32 1.641t-3.32-1.641q-1.445 1.641-3.359 1.641h-0.039zM16.68 17.5h1.641v1.68h-1.641q-1.758 0-3.359-0.82-1.563 0.781-3.32 0.781t-3.32-0.781q-1.602 0.82-3.359 0.82h-1.641v-1.68h1.641q1.797 0 3.359-1.094 1.523 1.055 3.32 1.055t3.32-1.055q1.563 1.094 3.359 1.094z"></path>
</svg>
