<!-- Generated by IcoMoon.io -->
<svg version="1.1" xmlns="http://www.w3.org/2000/svg" width="20" height="20" viewBox="0 0 20 20">
<title>directions_subwaydirections_transit</title>
<path d="M15 9.18v-4.18h-4.18v4.18h4.18zM13.75 14.18q0.547 0 0.898-0.371t0.352-0.879-0.352-0.879-0.898-0.371-0.898 0.371-0.352 0.879 0.352 0.879 0.898 0.371zM9.18 9.18v-4.18h-4.18v4.18h4.18zM6.25 14.18q0.547 0 0.898-0.371t0.352-0.879-0.352-0.879-0.898-0.371-0.898 0.371-0.352 0.879 0.352 0.879 0.898 0.371zM10 1.68q3.242 0 4.961 0.664t1.719 2.656v7.93q0 1.211-0.859 2.051t-2.070 0.84l1.25 1.25v0.43h-10v-0.43l1.25-1.25q-1.211 0-2.070-0.84t-0.859-2.051v-7.93q0-1.992 1.719-2.656t4.961-0.664z"></path>
</svg>
