<!-- Generated by IcoMoon.io -->
<svg version="1.1" xmlns="http://www.w3.org/2000/svg" width="20" height="20" viewBox="0 0 20 20">
<title>directions_railway</title>
<path d="M15 8.32v-4.141h-10v4.141h10zM10 14.18q0.664 0 1.172-0.508t0.508-1.172-0.508-1.172-1.172-0.508-1.172 0.508-0.508 1.172 0.508 1.172 1.172 0.508zM3.32 12.93v-8.75q0-1.992 1.719-2.676t4.961-0.684 4.961 0.684 1.719 2.676v8.75q0 1.211-0.859 2.051t-2.070 0.84l1.25 1.25v0.43h-10v-0.43l1.25-1.25q-1.211 0-2.070-0.84t-0.859-2.051z"></path>
</svg>
