<!-- Generated by IcoMoon.io -->
<svg version="1.1" xmlns="http://www.w3.org/2000/svg" width="20" height="20" viewBox="0 0 20 20">
<title>directions_walk</title>
<path d="M8.164 7.422l-2.344 11.758h1.758l1.523-6.68 1.719 1.68v5h1.68v-6.25l-1.758-1.68 0.508-2.5q1.797 2.070 4.57 2.070v-1.641q-2.422 0-3.555-2.031l-0.859-1.328q-0.586-0.82-1.406-0.82-0.117 0-0.332 0.039t-0.332 0.039l-4.336 1.836v3.906h1.68v-2.813l1.484-0.586zM11.25 4.57q-0.664 0-1.172-0.488t-0.508-1.152 0.508-1.172 1.172-0.508 1.172 0.508 0.508 1.172-0.508 1.152-1.172 0.488z"></path>
</svg>
