<!-- Generated by IcoMoon.io -->
<svg version="1.1" xmlns="http://www.w3.org/2000/svg" width="20" height="20" viewBox="0 0 20 20">
<title>directions_bus</title>
<path d="M15 9.18v-4.18h-10v4.18h10zM13.75 14.18q0.547 0 0.898-0.371t0.352-0.879-0.352-0.879-0.898-0.371-0.898 0.371-0.352 0.879 0.352 0.879 0.898 0.371zM6.25 14.18q0.547 0 0.898-0.371t0.352-0.879-0.352-0.879-0.898-0.371-0.898 0.371-0.352 0.879 0.352 0.879 0.898 0.371zM3.32 13.32v-8.32q0-1.992 1.719-2.656t4.961-0.664 4.961 0.664 1.719 2.656v8.32q0 1.094-0.859 1.875v1.484q0 0.352-0.234 0.586t-0.586 0.234h-0.82q-0.352 0-0.605-0.234t-0.254-0.586v-0.859h-6.641v0.859q0 0.352-0.254 0.586t-0.605 0.234h-0.82q-0.352 0-0.586-0.234t-0.234-0.586v-1.484q-0.859-0.781-0.859-1.875z"></path>
</svg>
