<!-- Generated by IcoMoon.io -->
<svg version="1.1" xmlns="http://www.w3.org/2000/svg" width="20" height="20" viewBox="0 0 20 20">
<title>directions_car</title>
<path d="M4.18 9.18h11.641l-1.25-3.75h-9.141zM14.57 13.32q0.508 0 0.879-0.371t0.371-0.879-0.371-0.879-0.879-0.371-0.879 0.371-0.371 0.879 0.371 0.879 0.879 0.371zM5.43 13.32q0.508 0 0.879-0.371t0.371-0.879-0.371-0.879-0.879-0.371-0.879 0.371-0.371 0.879 0.371 0.879 0.879 0.371zM15.781 5l1.719 5v6.68q0 0.352-0.234 0.586t-0.586 0.234h-0.859q-0.352 0-0.586-0.234t-0.234-0.586v-0.859h-10v0.859q0 0.352-0.234 0.586t-0.586 0.234h-0.859q-0.352 0-0.586-0.234t-0.234-0.586v-6.68l1.719-5q0.234-0.82 1.211-0.82h9.141q0.977 0 1.211 0.82z"></path>
</svg>
