<!-- Generated by IcoMoon.io -->
<svg version="1.1" xmlns="http://www.w3.org/2000/svg" width="20" height="20" viewBox="0 0 20 20">
<title>dns</title>
<path d="M5.82 7.5q0.664 0 1.172-0.508t0.508-1.172-0.508-1.152-1.172-0.488-1.152 0.488-0.488 1.152 0.488 1.172 1.152 0.508zM16.68 2.5q0.352 0 0.586 0.234t0.234 0.586v5q0 0.352-0.234 0.605t-0.586 0.254h-13.359q-0.352 0-0.586-0.254t-0.234-0.605v-5q0-0.352 0.234-0.586t0.586-0.234h13.359zM5.82 15.82q0.664 0 1.172-0.488t0.508-1.152-0.508-1.172-1.172-0.508-1.152 0.508-0.488 1.172 0.488 1.152 1.152 0.488zM16.68 10.82q0.352 0 0.586 0.254t0.234 0.605v5q0 0.352-0.234 0.586t-0.586 0.234h-13.359q-0.352 0-0.586-0.234t-0.234-0.586v-5q0-0.352 0.234-0.605t0.586-0.254h13.359z"></path>
</svg>
