<!-- Generated by IcoMoon.io -->
<svg version="1.1" xmlns="http://www.w3.org/2000/svg" width="20" height="20" viewBox="0 0 20 20">
<title>do_not_disturb_off</title>
<path d="M5.82 10.82h2.891l-1.68-1.641h-1.211v1.641zM1.875 1.875l16.25 16.25-1.094 1.055-2.305-2.344q-2.109 1.484-4.727 1.484-3.438 0-5.879-2.441t-2.441-5.879q0-1.094 0.43-2.461t1.055-2.266l-2.344-2.305zM14.18 9.18h-2.891l-6.016-6.016q2.109-1.484 4.727-1.484 3.438 0 5.879 2.441t2.441 5.879q0 1.094-0.43 2.461t-1.055 2.266l-3.867-3.906h1.211v-1.641z"></path>
</svg>
