<!-- Generated by IcoMoon.io -->
<svg version="1.1" xmlns="http://www.w3.org/2000/svg" width="20" height="20" viewBox="0 0 20 20">
<title>domain_disabled</title>
<path d="M10 15.82h3.32l-1.641-1.641h-1.68v1.641zM8.32 12.5v-1.68h-1.641v1.68h1.641zM8.32 15.82v-1.641h-1.641v1.641h1.641zM5 9.18v-1.68h-1.68v1.68h1.68zM5 12.5v-1.68h-1.68v1.68h1.68zM5 15.82v-1.641h-1.68v1.641h1.68zM1.094 1.484l17.5 17.422-1.094 1.094-2.5-2.5h-13.32v-13.32l-1.602-1.602zM13.32 9.18h1.68v1.641h-1.68v-1.641zM6.68 4.18v0.742l-2.422-2.422h5.742v3.32h8.32v10.781l-1.641-1.68v-7.422h-6.68v0.742l-2.422-2.422h0.742v-1.641h-1.641z"></path>
</svg>
