<!-- Generated by IcoMoon.io -->
<svg version="1.1" xmlns="http://www.w3.org/2000/svg" width="20" height="20" viewBox="0 0 20 20">
<title>drag_indicator</title>
<path d="M12.5 13.32q0.664 0 1.172 0.508t0.508 1.172-0.508 1.172-1.172 0.508-1.172-0.508-0.508-1.172 0.508-1.172 1.172-0.508zM12.5 8.32q0.664 0 1.172 0.508t0.508 1.172-0.508 1.172-1.172 0.508-1.172-0.508-0.508-1.172 0.508-1.172 1.172-0.508zM12.5 6.68q-0.664 0-1.172-0.508t-0.508-1.172 0.508-1.172 1.172-0.508 1.172 0.508 0.508 1.172-0.508 1.172-1.172 0.508zM7.5 3.32q0.664 0 1.172 0.508t0.508 1.172-0.508 1.172-1.172 0.508-1.172-0.508-0.508-1.172 0.508-1.172 1.172-0.508zM7.5 8.32q0.664 0 1.172 0.508t0.508 1.172-0.508 1.172-1.172 0.508-1.172-0.508-0.508-1.172 0.508-1.172 1.172-0.508zM9.18 15q0 0.664-0.508 1.172t-1.172 0.508-1.172-0.508-0.508-1.172 0.508-1.172 1.172-0.508 1.172 0.508 0.508 1.172z"></path>
</svg>
