<!-- Generated by IcoMoon.io -->
<svg version="1.1" xmlns="http://www.w3.org/2000/svg" width="20" height="20" viewBox="0 0 20 20">
<title>drive_etatime_to_leave</title>
<path d="M4.18 8.32h11.641l-1.25-3.75h-9.141zM14.57 12.5q0.508 0 0.879-0.352t0.371-0.898-0.371-0.898-0.879-0.352-0.879 0.352-0.371 0.898 0.371 0.898 0.879 0.352zM5.43 12.5q0.508 0 0.879-0.352t0.371-0.898-0.371-0.898-0.879-0.352-0.879 0.352-0.371 0.898 0.371 0.898 0.879 0.352zM15.781 4.18l1.719 5v6.641q0 0.352-0.234 0.605t-0.586 0.254h-0.859q-0.352 0-0.586-0.254t-0.234-0.605v-0.82h-10v0.82q0 0.352-0.234 0.605t-0.586 0.254h-0.859q-0.352 0-0.586-0.254t-0.234-0.605v-6.641l1.719-5q0.273-0.859 1.211-0.859h9.141q0.938 0 1.211 0.859z"></path>
</svg>
