<!-- Generated by IcoMoon.io -->
<svg version="1.1" xmlns="http://www.w3.org/2000/svg" width="20" height="20" viewBox="0 0 20 20">
<title>dry_cleaning</title>
<path d="M15.469 11.68q0.352 0 0.352-0.352 0-0.273-0.195-0.352l-5.625-2.5-5.625 2.5q-0.195 0.078-0.195 0.313 0 0.391 0.352 0.391h1.289v-0.859h8.359v0.859h1.289zM16.289 9.453q1.211 0.508 1.211 1.836v0.039q0 0.859-0.586 1.426t-1.445 0.566h-1.289v5h-8.359v-5h-1.289q-0.859 0-1.445-0.566t-0.586-1.426v-0.039q0-1.289 1.211-1.797l5.469-2.461v-0.508q-0.859-0.313-1.328-1.113t-0.313-1.738q0.156-0.742 0.703-1.27t1.289-0.684q1.172-0.195 2.070 0.547t0.898 1.914h-1.68q0-0.352-0.234-0.605t-0.586-0.254-0.586 0.254-0.234 0.605 0.234 0.586 0.586 0.234 0.586 0.234 0.234 0.586v1.211z"></path>
</svg>
