<!-- Generated by IcoMoon.io -->
<svg version="1.1" xmlns="http://www.w3.org/2000/svg" width="20" height="20" viewBox="0 0 20 20">
<title>dvr</title>
<path d="M5.82 10v1.68h-1.641v-1.68h1.641zM5.82 6.68v1.641h-1.641v-1.641h1.641zM15.82 10v1.68h-9.141v-1.68h9.141zM15.82 6.68v1.641h-9.141v-1.641h9.141zM17.5 14.18v-10h-15v10h15zM17.5 2.5q0.664 0 1.172 0.508t0.508 1.172l-0.039 10q0 0.664-0.488 1.152t-1.152 0.488h-4.18v1.68h-6.641v-1.68h-4.18q-0.664 0-1.172-0.488t-0.508-1.152v-10q0-0.664 0.508-1.172t1.172-0.508h15z"></path>
</svg>
