<!-- Generated by IcoMoon.io -->
<svg version="1.1" xmlns="http://www.w3.org/2000/svg" width="20" height="20" viewBox="0 0 20 20">
<title>dynamic_feed</title>
<path d="M3.32 10v5.82h7.5v1.68h-7.5q-0.664 0-1.152-0.508t-0.488-1.172v-5.82h1.641zM16.68 9.18v-3.359h-6.68v3.359h6.68zM16.68 2.5q0.664 0 1.152 0.508t0.488 1.172v5q0 0.664-0.488 1.152t-1.152 0.488h-6.68q-0.664 0-1.172-0.488t-0.508-1.152v-5q0-0.664 0.508-1.172t1.172-0.508h6.68zM6.68 6.68v5.82h7.5v1.68h-7.5q-0.664 0-1.172-0.508t-0.508-1.172v-5.82h1.68z"></path>
</svg>
