<!-- Generated by IcoMoon.io -->
<svg version="1.1" xmlns="http://www.w3.org/2000/svg" width="20" height="20" viewBox="0 0 20 20">
<title>edit_location</title>
<path d="M12.422 6.289q0.234-0.195 0-0.43l-0.781-0.781q-0.078-0.078-0.195-0.078-0.156 0-0.234 0.078l-0.586 0.586 1.211 1.211zM8.711 10l2.773-2.773-1.211-1.211-2.773 2.773v1.211h1.211zM10 1.68q2.422 0 4.121 1.699t1.699 4.121q0 1.211-0.605 2.773t-1.465 2.93-1.699 2.559-1.426 1.895l-0.625 0.664q-0.234-0.273-0.625-0.723t-1.406-1.797-1.777-2.617-1.387-2.871-0.625-2.813q0-2.422 1.699-4.121t4.121-1.699z"></path>
</svg>
