<!-- Generated by IcoMoon.io -->
<svg version="1.1" xmlns="http://www.w3.org/2000/svg" width="20" height="20" viewBox="0 0 20 20">
<title>emoji_nature</title>
<path d="M10.156 12.148q0.43-0.508 0.391-1.113t-0.508-1.074q-0.508-0.508-1.133-0.508-0.586 0-1.055 0.391l1.328 0.508q0.039 0 0.117 0.039l0.313 0.313 0.039 0.078v0.039zM9.141 16.602q0.781-0.273 0.508-1.055l-0.977-2.617q-1.016 1.953-0.586 3.164 0.313 0.82 1.055 0.508zM3.906 11.914q1.211 0.43 3.164-0.586l-2.656-0.977q-0.742-0.273-1.016 0.508-0.313 0.742 0.508 1.055zM10 7.969q1.484 0.508 1.992 2.031h1.328v0.859h-1.133q0.117 1.563-0.938 2.617l-0.469 0.352 0.469 1.172q0.117 0.352 0.117 0.82 0 0.742-0.469 1.445t-1.172 0.938q-0.43 0.117-0.859 0.117-1.328 0-2.031-1.055-0.352 0.117-0.938 0.117-1.328 0-2.305-0.977-1.367-1.367-0.859-3.242-0.586-0.391-0.918-1.23t-0.020-1.66q0.234-0.664 0.938-1.152t1.445-0.488q0.469 0 0.82 0.117l1.172 0.469 0.352-0.469q0.977-0.977 2.344-0.977 0.039 0 0.156 0.020t0.156 0.020v-1.133h0.82v1.289zM15 5.82q0.352 0 0.586-0.234t0.234-0.586-0.234-0.586-0.586-0.234-0.586 0.234-0.234 0.586 0.234 0.586 0.586 0.234zM18.281 4.063q0.273 0.781-0.469 1.25l-0.703 0.43 0.313 1.016q0.234 0.508-0.098 1.035t-0.918 0.527q-0.469 0-0.742-0.234l-0.664-0.586-0.664 0.586q-0.273 0.234-0.742 0.234-0.586 0-0.918-0.527t-0.098-1.035l0.352-1.016-0.742-0.43q-0.742-0.469-0.469-1.25 0.273-0.742 1.055-0.742h0.898l0.234-0.781q0.195-0.859 1.094-0.859t1.094 0.859l0.234 0.781h0.938q0.703 0 1.016 0.742z"></path>
</svg>
