<!-- Generated by IcoMoon.io -->
<svg version="1.1" xmlns="http://www.w3.org/2000/svg" width="20" height="20" viewBox="0 0 20 20">
<title>emoji_symbols</title>
<path d="M4.18 16.25q0 0.156 0.137 0.293t0.254 0.137q0.156 0 0.313-0.156l0.898-0.859-0.625-0.586-0.859 0.859q-0.117 0.117-0.117 0.313zM5.156 11.719q-0.117 0-0.254 0.117t-0.137 0.273q0 0.195 0.117 0.313l0.273 0.313 0.313-0.313q0.313-0.313 0-0.586-0.117-0.117-0.313-0.117zM8.125 13.281l1.172 1.211-1.172 1.172 1.172 1.172-1.172 1.172-1.172-1.172-0.898 0.898q-0.586 0.586-1.484 0.586t-1.484-0.586q-0.625-0.625-0.625-1.484t0.625-1.484l0.898-0.898-0.273-0.273q-0.625-0.625-0.625-1.484t0.605-1.465 1.465-0.605 1.484 0.605 0.625 1.465-0.625 1.484l-0.273 0.273 0.586 0.625zM12.93 9.18q-0.859 0-1.484-0.625t-0.625-1.484 0.625-1.465 1.484-0.605q0.703 0 1.25 0.43v-3.75h3.32v1.641h-2.5v3.75q0 0.859-0.605 1.484t-1.465 0.625zM15 16.25q0-0.547 0.352-0.898t0.898-0.352 0.898 0.352 0.352 0.898-0.352 0.898-0.898 0.352-0.898-0.352-0.352-0.898zM10.82 12.070q0-0.508 0.371-0.879t0.879-0.371 0.879 0.371 0.371 0.879-0.371 0.879-0.879 0.371-0.879-0.371-0.371-0.879zM10.352 16.836l6.484-6.484 1.172 1.172-6.484 6.484zM5 9.18v-3.359h-2.5v-1.641h6.68v1.641h-2.5v3.359h-1.68zM2.5 1.68h6.68v1.641h-6.68v-1.641z"></path>
</svg>
