<!-- Generated by IcoMoon.io -->
<svg version="1.1" xmlns="http://www.w3.org/2000/svg" width="20" height="20" viewBox="0 0 20 20">
<title>emoji_emotions</title>
<path d="M12.93 9.18q0.508 0 0.879-0.371t0.371-0.879-0.371-0.879-0.879-0.371-0.879 0.371-0.371 0.879 0.371 0.879 0.879 0.371zM10 15q1.406 0 2.539-0.918t1.641-2.402h-8.359q0.508 1.484 1.641 2.402t2.539 0.918zM7.070 6.68q-0.508 0-0.879 0.371t-0.371 0.879 0.371 0.879 0.879 0.371 0.879-0.371 0.371-0.879-0.371-0.879-0.879-0.371zM10 1.68q3.438 0 5.879 2.441t2.441 5.879-2.441 5.879-5.879 2.441-5.879-2.441-2.441-5.879 2.441-5.879 5.879-2.441z"></path>
</svg>
