<!-- Generated by IcoMoon.io -->
<svg version="1.1" xmlns="http://www.w3.org/2000/svg" width="20" height="20" viewBox="0 0 20 20">
<title>emoji_food_beverage</title>
<path d="M3.32 15.82h13.359v1.68h-13.359v-1.68zM16.68 6.68v-2.5h-1.68v2.5h1.68zM16.68 2.5q0.703 0 1.172 0.488t0.469 1.191v2.5q0 0.703-0.469 1.172t-1.172 0.469h-1.68v2.5q0 1.367-0.977 2.363t-2.344 0.996h-5q-1.367 0-2.363-0.996t-0.996-2.363v-8.32h3.359v1.992l-1.523 1.211q-0.156 0.117-0.156 0.313v3.555q0 0.43 0.43 0.43h3.32q0.43 0 0.43-0.43v-3.555q0-0.195-0.156-0.313l-1.523-1.211v-1.992h9.18z"></path>
</svg>
