<!-- Generated by IcoMoon.io -->
<svg version="1.1" xmlns="http://www.w3.org/2000/svg" width="20" height="20" viewBox="0 0 20 20">
<title>emoji_objects</title>
<path d="M10.43 9.492l1.523-1.484-0.586-0.625-1.367 1.367-1.367-1.367-0.586 0.625 1.523 1.484v2.188h0.859v-2.188zM11.68 14.18v-0.859h-3.359v0.859h3.359zM11.68 15.82v-0.82h-3.359v0.82h3.359zM10 2.5q2.422 0 4.121 1.699t1.699 4.121v0.039q0 1.094-0.566 2.363t-1.387 1.973q-0.547 0.469-0.547 1.211v1.914q0 0.664-0.488 1.172t-1.152 0.508h-0.234q-0.469 0.82-1.445 0.82t-1.445-0.82h-0.234q-0.664 0-1.152-0.508t-0.488-1.172v-1.914q0-0.742-0.547-1.211-2.461-2.188-1.875-5.469 0.313-1.719 1.582-3.008t2.988-1.602q0.586-0.117 1.172-0.117z"></path>
</svg>
