<!-- Generated by IcoMoon.io -->
<svg version="1.1" xmlns="http://www.w3.org/2000/svg" width="20" height="20" viewBox="0 0 20 20">
<title>emoji_transportation</title>
<path d="M4.18 15.82h1.641v1.68h-1.641v-1.68zM4.18 12.5h1.641v1.68h-1.641v-1.68zM8.32 4.18h1.68v1.641h-1.68v-1.641zM4.18 9.18h1.641v1.641h-1.641v-1.641zM11.68 7.5v-4.18h-5v4.18h-4.18v10h-0.82v-10.82h4.141v-4.18h6.68v5h-0.82zM16.68 14.18q0.352 0 0.586-0.254t0.234-0.605-0.234-0.586-0.586-0.234-0.605 0.234-0.254 0.586 0.254 0.605 0.605 0.254zM10 14.18q0.352 0 0.586-0.254t0.234-0.605-0.234-0.586-0.586-0.234-0.586 0.234-0.234 0.586 0.234 0.605 0.586 0.254zM10.352 9.18l-0.859 2.5h7.695l-0.859-2.5h-5.977zM17.148 8.867l1.172 3.438v4.609q0 0.234-0.176 0.41t-0.41 0.176h-0.508q-0.234 0-0.391-0.195t-0.156-0.43v-1.055h-6.68v1.055q0 0.234-0.176 0.43t-0.41 0.195h-0.508q-0.547 0-0.547-0.586l-0.039-4.609 1.211-3.438q0.195-0.547 0.82-0.547h5.977q0.625 0 0.82 0.547z"></path>
</svg>
