<!-- Generated by IcoMoon.io -->
<svg version="1.1" xmlns="http://www.w3.org/2000/svg" width="20" height="20" viewBox="0 0 20 20">
<title>emoji_events</title>
<path d="M15.82 6.68v-0.859h-1.641v3.203q1.641-0.586 1.641-2.344zM5.82 9.023v-3.203h-1.641v0.859q0 1.758 1.641 2.344zM15.82 4.18q0.664 0 1.172 0.488t0.508 1.152v0.859q0 1.563-1.055 2.734t-2.617 1.367q-0.352 0.859-1.23 1.563t-1.777 0.898v2.578h3.359v1.68h-8.359v-1.68h3.359v-2.578q-0.898-0.195-1.777-0.898t-1.23-1.563q-1.563-0.195-2.617-1.367t-1.055-2.734v-0.859q0-0.664 0.508-1.152t1.172-0.488h1.641v-1.68h8.359v1.68h1.641z"></path>
</svg>
