<!-- Generated by IcoMoon.io -->
<svg version="1.1" xmlns="http://www.w3.org/2000/svg" width="20" height="20" viewBox="0 0 20 20">
<title>enhanced_encryption</title>
<path d="M13.32 13.32v-1.641h-2.5v-2.5h-1.641v2.5h-2.5v1.641h2.5v2.5h1.641v-2.5h2.5zM7.422 5v1.68h5.156v-1.68q0-1.055-0.762-1.816t-1.816-0.762-1.816 0.762-0.762 1.816zM15 6.68q0.664 0 1.172 0.488t0.508 1.152v8.359q0 0.664-0.508 1.152t-1.172 0.488h-10q-0.664 0-1.172-0.488t-0.508-1.152v-8.359q0-0.664 0.508-1.152t1.172-0.488h0.82v-1.68q0-1.719 1.23-2.949t2.949-1.23 2.949 1.23 1.23 2.949v1.68h0.82z"></path>
</svg>
