<!-- Generated by IcoMoon.io -->
<svg version="1.1" xmlns="http://www.w3.org/2000/svg" width="20" height="20" viewBox="0 0 20 20">
<title>euro_symbol</title>
<path d="M12.5 15.43q1.992 0 3.516-1.328l1.484 1.484q-2.109 1.914-5 1.914-2.422 0-4.355-1.406t-2.715-3.594h-2.93v-1.68h2.539q-0.039-0.234-0.039-0.82t0.039-0.82h-2.539v-1.68h2.93q0.781-2.188 2.715-3.594t4.355-1.406q1.172 0 2.656 0.566t2.344 1.348l-1.484 1.484q-1.523-1.328-3.516-1.328-1.367 0-2.773 0.859t-2.031 2.070h4.805v1.68h-5.352q-0.078 0.547-0.078 0.82t0.078 0.82h5.352v1.68h-4.805q0.625 1.211 2.031 2.070t2.773 0.859z"></path>
</svg>
