<!-- Generated by IcoMoon.io -->
<svg version="1.1" xmlns="http://www.w3.org/2000/svg" width="20" height="20" viewBox="0 0 20 20">
<title>ev_station</title>
<path d="M6.68 15l3.32-5.82h-1.68v-4.18l-3.32 6.25h1.68v3.75zM15 8.32q0.352 0 0.586-0.234t0.234-0.586-0.234-0.586-0.586-0.234-0.586 0.234-0.234 0.586 0.234 0.586 0.586 0.234zM16.484 6.016q0.586 0.586 0.586 1.484v7.93q0 0.859-0.605 1.465t-1.465 0.605-1.465-0.605-0.605-1.465v-4.18h-1.25v6.25h-8.359v-13.32q0-0.664 0.508-1.172t1.172-0.508h5q0.664 0 1.172 0.508t0.508 1.172v5.82h0.82q0.664 0 1.172 0.508t0.508 1.172v3.75q0 0.352 0.234 0.586t0.586 0.234 0.586-0.234 0.234-0.586v-6.016q-0.352 0.156-0.82 0.156-0.859 0-1.465-0.605t-0.605-1.465q0-1.406 1.328-1.953l-1.758-1.758 0.898-0.859z"></path>
</svg>
