<!-- Generated by IcoMoon.io -->
<svg version="1.1" xmlns="http://www.w3.org/2000/svg" width="20" height="20" viewBox="0 0 20 20">
<title>event_busy</title>
<path d="M15.82 15.82v-9.141h-11.641v9.141h11.641zM15.82 2.5q0.664 0 1.172 0.508t0.508 1.172v11.641q0 0.664-0.508 1.172t-1.172 0.508h-11.641q-0.703 0-1.191-0.488t-0.488-1.191v-11.641q0-0.664 0.488-1.172t1.191-0.508h0.82v-1.68h1.68v1.68h6.641v-1.68h1.68v1.68h0.82zM7.773 14.18l-0.898-0.898 2.031-2.031-2.031-2.031 0.898-0.898 2.031 2.031 2.031-2.031 0.859 0.898-2.031 2.031 2.031 2.031-0.859 0.898-2.031-2.031z"></path>
</svg>
