<!-- Generated by IcoMoon.io -->
<svg version="1.1" xmlns="http://www.w3.org/2000/svg" width="20" height="20" viewBox="0 0 20 20">
<title>explore_off</title>
<path d="M18.32 10q0 0.547-0.039 0.781v0.234q0 0.195-0.078 0.508 0 0.117-0.078 0.273l-0.117 0.469q-0.039 0.039-0.039 0.137t-0.039 0.137q-0.039 0.117-0.117 0.332t-0.117 0.293q-0.078 0.234-0.273 0.625l-0.137 0.273t-0.176 0.273q-0.039 0.039-0.137 0.195t-0.137 0.195l-4.336-4.336 2.5-5.391-5.391 2.5-4.336-4.336q0.039-0.039 0.195-0.137t0.195-0.137q0.039 0 0.117-0.078 0.078 0 0.078-0.039l0.156-0.078t0.137-0.078 0.156-0.078 0.176-0.078 0.195-0.117 0.195-0.078q0.078-0.039 0.273-0.098t0.313-0.098l0.273-0.078 0.469-0.117q0.117 0 0.273-0.078 0.313-0.078 0.508-0.078h0.273q0.117 0 0.352-0.020t0.391-0.020q3.438 0 5.879 2.441t2.441 5.879zM5 15l5.391-2.5-2.891-2.891zM1.875 1.875l16.25 16.25-1.094 1.055-2.305-2.344q-0.039 0.039-0.195 0.137t-0.195 0.137q-0.039 0-0.117 0.078-0.078 0-0.078 0.039-0.391 0.273-1.016 0.469l-0.586 0.234q-0.039 0.039-0.137 0.039t-0.137 0.039l-0.469 0.117q-0.156 0.078-0.273 0.078-0.313 0.078-0.508 0.078h-0.234q-0.234 0.039-0.781 0.039-3.438 0-5.879-2.441t-2.441-5.879q0-0.508 0.039-0.742v-0.273q0-0.195 0.078-0.508 0.078-0.156 0.078-0.273l0.117-0.469 0.078-0.273q0.039-0.117 0.098-0.313t0.098-0.273q0-0.039 0.078-0.176t0.117-0.215l0.313-0.625q0.039 0 0.078-0.078t0.039-0.117q0.039-0.039 0.137-0.195t0.137-0.195l-2.344-2.305z"></path>
</svg>
