<!-- Generated by IcoMoon.io -->
<svg version="1.1" xmlns="http://www.w3.org/2000/svg" width="20" height="20" viewBox="0 0 20 20">
<title>exposure_minus_2</title>
<path d="M1.68 9.18h6.641v1.641h-6.641v-1.641zM12.539 13.594h4.961v1.406h-7.188v-1.25l3.477-3.789q0.703-0.703 1.211-1.563 0.273-0.469 0.273-1.094 0-0.508-0.078-0.703-0.391-1.016-1.484-1.016-1.797 0-1.797 1.914h-1.797q0-1.406 0.938-2.344 0.977-0.977 2.656-0.977h0.078q2.305 0 3.086 1.719 0.195 0.43 0.195 1.211 0 0.547-0.156 0.977-0.273 0.742-0.43 0.977-0.664 1.055-1.563 1.953z"></path>
</svg>
