<!-- Generated by IcoMoon.io -->
<svg version="1.1" xmlns="http://www.w3.org/2000/svg" width="20" height="20" viewBox="0 0 20 20">
<title>exposure_plus_2</title>
<path d="M6.68 5.82v3.359h3.32v1.641h-3.32v3.359h-1.68v-3.359h-3.32v-1.641h3.32v-3.359h1.68zM13.359 13.594h4.961v1.406h-7.188v-1.25l3.477-3.789q0.703-0.703 1.211-1.563 0.313-0.508 0.313-1.094 0-0.625-0.43-1.211-0.391-0.508-1.172-0.508-0.82 0-1.367 0.547-0.43 0.43-0.43 1.367h-1.797q0-1.406 0.938-2.344 0.547-0.547 1.133-0.742 0.703-0.234 1.563-0.234h0.039q2.305 0 3.086 1.719 0.234 0.508 0.234 1.211 0 0.938-0.625 1.953-0.469 0.781-0.664 0.977-0.547 0.625-0.898 0.977z"></path>
</svg>
