<!-- Generated by IcoMoon.io -->
<svg version="1.1" xmlns="http://www.w3.org/2000/svg" width="20" height="20" viewBox="0 0 20 20">
<title>exposure_zero</title>
<path d="M11.68 8.438q0-1.563-0.43-2.227-0.156-0.234-0.547-0.469-0.273-0.156-0.703-0.156t-0.703 0.156q-0.391 0.234-0.547 0.469-0.43 0.664-0.43 2.227v2.227q0 2.188 0.977 2.773 0.273 0.156 0.703 0.156 0.82 0 1.25-0.664 0.469-0.703 0.469-2.266v-2.227h-0.039zM6.563 8.711q0-4.531 3.438-4.531 2.539 0 3.203 2.422 0.273 1.016 0.273 2.109v1.719h-0.039q0 2.305-0.938 3.516-0.547 0.625-1.094 0.82-0.625 0.234-1.406 0.234t-1.406-0.234q-0.547-0.195-1.094-0.82-0.938-1.055-0.938-3.516v-1.719z"></path>
</svg>
