<!-- Generated by IcoMoon.io -->
<svg version="1.1" xmlns="http://www.w3.org/2000/svg" width="20" height="20" viewBox="0 0 20 20">
<title>extension</title>
<path d="M17.070 9.18q0.859 0 1.484 0.605t0.625 1.465-0.625 1.465-1.484 0.605h-1.25v3.359q0 0.664-0.488 1.152t-1.152 0.488h-3.164v-1.25q0-0.938-0.664-1.582t-1.602-0.645-1.602 0.645-0.664 1.582v1.25h-3.164q-0.664 0-1.152-0.488t-0.488-1.152v-3.164h1.25q0.938 0 1.582-0.664t0.645-1.602-0.645-1.602-1.582-0.664h-1.25v-3.164q0-0.664 0.488-1.152t1.152-0.488h3.359v-1.25q0-0.859 0.605-1.484t1.465-0.625 1.465 0.625 0.605 1.484v1.25h3.359q0.664 0 1.152 0.488t0.488 1.152v3.359h1.25z"></path>
</svg>
