<!-- Generated by IcoMoon.io -->
<svg version="1.1" xmlns="http://www.w3.org/2000/svg" width="20" height="20" viewBox="0 0 20 20">
<title>face</title>
<path d="M10 16.68q2.734 0 4.707-1.973t1.973-4.707q0-0.859-0.273-1.875-0.859 0.195-1.914 0.195-1.797 0-3.77-1.035t-2.988-2.48q-1.289 3.125-4.375 4.492-0.039 0.234-0.039 0.703 0 2.734 1.973 4.707t4.707 1.973zM10 1.68q3.438 0 5.879 2.441t2.441 5.879-2.441 5.879-5.879 2.441-5.879-2.441-2.441-5.879 2.441-5.879 5.879-2.441zM12.5 9.805q0.43 0 0.742 0.293t0.313 0.723-0.313 0.742-0.742 0.313-0.742-0.313-0.313-0.742 0.313-0.723 0.742-0.293zM7.5 9.805q0.43 0 0.742 0.293t0.313 0.723-0.313 0.742-0.742 0.313-0.742-0.313-0.313-0.742 0.313-0.723 0.742-0.293z"></path>
</svg>
