<!-- Generated by IcoMoon.io -->
<svg version="1.1" xmlns="http://www.w3.org/2000/svg" width="20" height="20" viewBox="0 0 20 20">
<title>fastfood</title>
<path d="M0.859 14.18h12.5v1.641h-12.5v-1.641zM13.359 12.5h-12.539q0-1.914 1.289-3.203t3.125-1.602 3.691 0 3.145 1.602 1.289 3.203zM0.82 18.32v-0.82h12.539v0.82q0 0.352-0.254 0.586t-0.605 0.234h-10.82q-0.352 0-0.605-0.234t-0.254-0.586zM15.039 19.141v-6.68q0-2.461-2.031-4.414-1.211-1.211-3.555-1.875l-0.234-1.953h4.141v-3.398h1.641v3.398h4.18l-1.406 13.711q-0.078 0.508-0.449 0.859t-0.879 0.352h-1.406z"></path>
</svg>
