<!-- Generated by IcoMoon.io -->
<svg version="1.1" xmlns="http://www.w3.org/2000/svg" width="20" height="20" viewBox="0 0 20 20">
<title>favorite_outline</title>
<path d="M10.078 15.469q1.875-1.68 2.773-2.539t1.953-2.031 1.465-2.070 0.41-1.758q0-1.25-0.84-2.070t-2.090-0.82q-0.977 0-1.816 0.547t-1.152 1.406h-1.563q-0.313-0.859-1.152-1.406t-1.816-0.547q-1.25 0-2.090 0.82t-0.84 2.070q0 0.859 0.41 1.758t1.465 2.070 1.953 2.031 2.773 2.539l0.078 0.078zM13.75 2.5q1.953 0 3.262 1.328t1.309 3.242q0 1.133-0.43 2.207t-1.582 2.402-2.090 2.227-3.008 2.773l-1.211 1.094-1.211-1.055q-2.695-2.422-3.887-3.633t-2.207-2.852-1.016-3.164q0-1.914 1.309-3.242t3.262-1.328q2.266 0 3.75 1.758 1.484-1.758 3.75-1.758z"></path>
</svg>
