<!-- Generated by IcoMoon.io -->
<svg version="1.1" xmlns="http://www.w3.org/2000/svg" width="20" height="20" viewBox="0 0 20 20">
<title>fiber_dvr</title>
<path d="M17.5 9.57v-0.82q0-0.547-0.352-0.898t-0.898-0.352h-2.93v5h1.25v-1.68h0.977l0.703 1.68h1.25l-0.742-1.758q0.742-0.352 0.742-1.172zM10.508 12.5l1.484-5h-1.25l-0.859 2.852-0.82-2.852h-1.25l1.445 5h1.25zM6.68 11.25v-2.5q0-0.547-0.371-0.898t-0.879-0.352h-2.93v5h2.93q0.508 0 0.879-0.352t0.371-0.898zM17.5 2.5q0.703 0 1.191 0.488t0.488 1.191v11.641q0 0.703-0.488 1.191t-1.191 0.488h-15q-0.703 0-1.191-0.488t-0.488-1.191v-11.641q0-0.703 0.488-1.191t1.191-0.488h15zM3.75 8.75h1.68v2.5h-1.68v-2.5zM14.57 8.75h1.68v0.82h-1.68v-0.82z"></path>
</svg>
