<!-- Generated by IcoMoon.io -->
<svg version="1.1" xmlns="http://www.w3.org/2000/svg" width="20" height="20" viewBox="0 0 20 20">
<title>fiber_pin</title>
<path d="M16.68 12.5v-5h-1.055v2.93l-2.070-2.93h-1.055v5h1.055v-2.93l2.109 2.93h1.016zM10.43 12.5v-5h-1.25v5h1.25zM7.5 9.57v-0.82q0-0.547-0.352-0.898t-0.898-0.352h-2.93v5h1.25v-1.68h1.68q0.547 0 0.898-0.371t0.352-0.879zM16.68 3.32q0.703 0 1.172 0.488t0.469 1.191v10q0 0.703-0.469 1.191t-1.172 0.488h-13.359q-0.703 0-1.172-0.488t-0.469-1.191v-10q0-0.703 0.469-1.191t1.172-0.488h13.359zM4.57 8.75h1.68v0.82h-1.68v-0.82z"></path>
</svg>
