<!-- Generated by IcoMoon.io -->
<svg version="1.1" xmlns="http://www.w3.org/2000/svg" width="20" height="20" viewBox="0 0 20 20">
<title>fiber_new</title>
<path d="M17.070 11.68v-4.18h-1.016v3.75h-0.938v-2.93h-1.055v2.93h-0.938v-3.75h-1.055v4.18q0 0.352 0.254 0.586t0.605 0.234h3.32q0.352 0 0.586-0.234t0.234-0.586zM11.25 8.555v-1.055h-3.32v5h3.32v-1.055h-2.070v-0.898h2.070v-1.055h-2.070v-0.938h2.070zM7.070 12.5v-5h-1.016v2.93l-2.109-2.93h-1.016v5h1.016v-2.93l2.148 2.93h0.977zM16.68 3.32q0.703 0 1.172 0.488t0.469 1.191v10q0 0.703-0.469 1.191t-1.172 0.488h-13.359q-0.703 0-1.172-0.488t-0.469-1.191v-10q0-0.703 0.469-1.191t1.172-0.488h13.359z"></path>
</svg>
