<!-- Generated by IcoMoon.io -->
<svg version="1.1" xmlns="http://www.w3.org/2000/svg" width="20" height="20" viewBox="0 0 20 20">
<title>file_present</title>
<path d="M13.32 8.32v4.18q0 1.367-0.977 2.344t-2.344 0.977-2.344-0.977-0.977-2.344v-5.43q0-0.859 0.605-1.465t1.465-0.605h0.234q0.82 0.078 1.328 0.723t0.508 1.465v5.313h-1.641v-5.43q0-0.391-0.43-0.391t-0.43 0.391v5.43q0 0.664 0.508 1.172t1.172 0.508 1.172-0.508 0.508-1.172v-4.18h1.641zM5 16.68h10v-10h-3.32v-3.359h-6.68v13.359zM12.5 1.68l4.18 4.141v10.859q0 0.664-0.508 1.152t-1.172 0.488h-10q-0.664 0-1.172-0.488t-0.508-1.152v-13.359q0-0.664 0.508-1.152t1.172-0.488h7.5z"></path>
</svg>
