<!-- Generated by IcoMoon.io -->
<svg version="1.1" xmlns="http://www.w3.org/2000/svg" width="20" height="20" viewBox="0 0 20 20">
<title>filter_center_focus</title>
<path d="M10 7.5q1.016 0 1.758 0.742t0.742 1.758-0.742 1.758-1.758 0.742-1.758-0.742-0.742-1.758 0.742-1.758 1.758-0.742zM15.82 15.82v-3.32h1.68v3.32q0 0.664-0.508 1.172t-1.172 0.508h-3.32v-1.68h3.32zM15.82 2.5q0.664 0 1.172 0.508t0.508 1.172v3.32h-1.68v-3.32h-3.32v-1.68h3.32zM4.18 4.18v3.32h-1.68v-3.32q0-0.664 0.508-1.172t1.172-0.508h3.32v1.68h-3.32zM4.18 12.5v3.32h3.32v1.68h-3.32q-0.664 0-1.172-0.508t-0.508-1.172v-3.32h1.68z"></path>
</svg>
