<!-- Generated by IcoMoon.io -->
<svg version="1.1" xmlns="http://www.w3.org/2000/svg" width="20" height="20" viewBox="0 0 20 20">
<title>filter_tilt_shift</title>
<path d="M4.727 16.445l1.172-1.172q1.406 1.094 3.281 1.328v1.68q-1.055-0.117-2.363-0.664t-2.090-1.172zM10.82 16.602q1.836-0.234 3.242-1.328l1.211 1.172q-1.992 1.602-4.453 1.836v-1.68zM15.273 14.102q1.133-1.406 1.328-3.242h1.68q-0.117 1.016-0.664 2.324t-1.172 2.090zM12.5 10q0 1.016-0.742 1.758t-1.758 0.742-1.758-0.742-0.742-1.758 0.742-1.758 1.758-0.742 1.758 0.742 0.742 1.758zM3.398 10.82q0.195 1.836 1.328 3.242l-1.172 1.211q-1.602-1.992-1.836-4.453h1.68zM4.727 5.898q-1.094 1.445-1.328 3.281h-1.68q0.117-1.055 0.664-2.363t1.172-2.090zM16.602 9.18q-0.234-1.875-1.328-3.281l1.172-1.172q1.602 1.992 1.836 4.453h-1.68zM15.273 3.555l-1.172 1.172q-1.445-1.094-3.281-1.328v-1.68q1.055 0.117 2.363 0.664t2.090 1.172zM9.18 3.398q-1.875 0.234-3.281 1.328l-1.172-1.172q1.992-1.602 4.453-1.836v1.68z"></path>
</svg>
