<!-- Generated by IcoMoon.io -->
<svg version="1.1" xmlns="http://www.w3.org/2000/svg" width="20" height="20" viewBox="0 0 20 20">
<title>filter_9_plus</title>
<path d="M17.5 7.5v-5h-11.68v11.68h11.68v-5h-1.68v1.641h-1.641v-1.641h-1.68v-1.68h1.68v-1.68h1.641v1.68h1.68zM17.5 0.82q0.664 0 1.172 0.508t0.508 1.172v11.68q0 0.664-0.508 1.152t-1.172 0.488h-11.68q-0.664 0-1.152-0.488t-0.488-1.152v-11.68q0-0.664 0.488-1.172t1.152-0.508h11.68zM9.18 7.5h0.82v-0.82h-0.82v0.82zM11.68 10q0 0.703-0.488 1.191t-1.191 0.488h-2.5v-1.68h2.5v-0.82h-0.82q-0.703 0-1.191-0.488t-0.488-1.191v-0.82q0-0.703 0.488-1.191t1.191-0.488h0.82q0.703 0 1.191 0.488t0.488 1.191v3.32zM2.5 4.18v13.32h13.32v1.68h-13.32q-0.664 0-1.172-0.508t-0.508-1.172v-13.32h1.68z"></path>
</svg>
