<!-- Generated by IcoMoon.io -->
<svg version="1.1" xmlns="http://www.w3.org/2000/svg" width="20" height="20" viewBox="0 0 20 20">
<title>filter_vintage</title>
<path d="M10 13.32q1.367 0 2.344-0.977t0.977-2.344-0.977-2.344-2.344-0.977-2.344 0.977-0.977 2.344 0.977 2.344 2.344 0.977zM12.422 5.781q1.367-1.094 3.164-1.094 1.328 0 2.5 0.664 0 1.211-0.742 2.461t-1.758 1.836q-0.078 0.039-0.215 0.117t-0.254 0.137-0.234 0.098q0.352 0.156 0.703 0.352 1.016 0.586 1.758 1.836t0.742 2.461q-1.172 0.664-2.5 0.664-1.797 0-3.164-1.094 0.078 0.547 0.078 0.781 0 1.367-0.684 2.52t-1.816 1.816q-1.133-0.664-1.816-1.816t-0.684-2.52q0-0.234 0.078-0.781-1.367 1.094-3.164 1.094-1.328 0-2.5-0.664 0-1.445 0.938-2.832t2.266-1.816l-0.703-0.352q-1.016-0.586-1.758-1.836t-0.742-2.461q1.25-0.703 2.5-0.703 1.758 0 3.164 1.133-0.078-0.547-0.078-0.781 0-1.367 0.684-2.52t1.816-1.816q1.133 0.664 1.816 1.816t0.684 2.52q0 0.234-0.078 0.781z"></path>
</svg>
