<!-- Generated by IcoMoon.io -->
<svg version="1.1" xmlns="http://www.w3.org/2000/svg" width="20" height="20" viewBox="0 0 20 20">
<title>filter_drama</title>
<path d="M15.82 15q1.016 0 1.758-0.742t0.742-1.758-0.742-1.758-1.758-0.742h-1.25v-0.43q0-1.914-1.328-3.242t-3.242-1.328q-2.266 0-3.672 1.836 1.602 0.43 2.637 1.777t1.035 3.066h-1.68q0-1.367-0.977-2.363t-2.344-0.996-2.344 0.996-0.977 2.363 0.977 2.344 2.344 0.977h10.82zM16.133 8.359q1.602 0.117 2.734 1.309t1.133 2.832q0 1.719-1.23 2.949t-2.949 1.23h-10.82q-2.070 0-3.535-1.465t-1.465-3.535q0-1.836 1.309-3.301t3.145-1.66q0.742-1.406 2.363-2.402t3.184-0.996q2.109 0 3.926 1.484t2.207 3.555z"></path>
</svg>
