<!-- Generated by IcoMoon.io -->
<svg version="1.1" xmlns="http://www.w3.org/2000/svg" width="20" height="20" viewBox="0 0 20 20">
<title>filter_2</title>
<path d="M14.18 10.82v1.68h-5v-3.32q0-0.703 0.469-1.191t1.172-0.488h1.68v-1.68h-3.32v-1.641h3.32q0.703 0 1.191 0.469t0.488 1.172v1.68q0 0.703-0.488 1.191t-1.191 0.488h-1.68v1.641h3.359zM17.5 14.18v-11.68h-11.68v11.68h11.68zM17.5 0.82q0.664 0 1.172 0.508t0.508 1.172v11.68q0 0.664-0.508 1.152t-1.172 0.488h-11.68q-0.664 0-1.152-0.488t-0.488-1.152v-11.68q0-0.664 0.488-1.172t1.152-0.508h11.68zM2.5 4.18v13.32h13.32v1.68h-13.32q-0.664 0-1.172-0.508t-0.508-1.172v-13.32h1.68z"></path>
</svg>
