<!-- Generated by IcoMoon.io -->
<svg version="1.1" xmlns="http://www.w3.org/2000/svg" width="20" height="20" viewBox="0 0 20 20">
<title>find_in_page</title>
<path d="M7.5 10.82q0-1.016 0.742-1.758t1.758-0.742 1.758 0.742 0.742 1.758-0.742 1.758-1.758 0.742-1.758-0.742-0.742-1.758zM16.68 16.328l-3.203-3.203q0.703-1.094 0.703-2.305 0-1.719-1.23-2.93t-2.949-1.211-2.949 1.211-1.23 2.93 1.23 2.949 2.949 1.23q1.211 0 2.305-0.703l3.672 3.711q-0.43 0.313-0.977 0.313h-10q-0.664 0-1.172-0.488t-0.508-1.152l0.039-13.359q0-0.664 0.488-1.152t1.152-0.488h6.68l5 5v9.648z"></path>
</svg>
