<!-- Generated by IcoMoon.io -->
<svg version="1.1" xmlns="http://www.w3.org/2000/svg" width="20" height="20" viewBox="0 0 20 20">
<title>find_replace</title>
<path d="M13.867 12.617l4.023 4.063-1.211 1.211-4.063-4.023q-1.563 1.133-3.438 1.133h-0.039q-0.977 0-2.188-0.508t-1.914-1.211l-1.719 1.719v-5h5l-2.109 2.109q1.211 1.211 2.969 1.211 1.406 0 2.578-0.977t1.484-2.344h1.68q-0.195 1.445-1.055 2.617zM9.18 5q-1.406 0-2.617 0.977t-1.484 2.344h-1.68q0.313-2.109 1.953-3.555t3.828-1.445q0.977 0 2.188 0.508t1.914 1.211l1.719-1.719v5h-5l2.109-2.109q-1.211-1.211-2.93-1.211z"></path>
</svg>
