<!-- Generated by IcoMoon.io -->
<svg version="1.1" xmlns="http://www.w3.org/2000/svg" width="20" height="20" viewBox="0 0 20 20">
<title>fingerprint</title>
<path d="M12.422 18.32h-0.117q-1.797-0.469-3.086-1.758-0.742-0.742-1.27-2.012t-0.527-2.324q0-1.016 0.742-1.738t1.797-0.723 1.816 0.723 0.762 1.738q0 0.664 0.488 1.133t1.23 0.469 1.25-0.469 0.508-1.133q0-2.344-1.777-4.023t-4.277-1.68q-1.797 0-3.281 0.918t-2.227 2.441q-0.469 0.977-0.469 2.344 0 1.563 0.547 3.008 0.117 0.391-0.273 0.508t-0.508-0.234q-0.625-1.602-0.625-3.281 0-1.523 0.586-2.695 0.82-1.758 2.52-2.813t3.73-1.055q2.852 0 4.863 1.934t2.012 4.629q0 1.016-0.762 1.719t-1.816 0.703-1.797-0.703-0.742-1.719q0-0.664-0.508-1.152t-1.25-0.488-1.23 0.488-0.488 1.152q0 2.188 1.563 3.75 1.094 1.094 2.734 1.523 0.352 0.039 0.273 0.508-0.078 0.313-0.391 0.313zM10.352 12.227q0 1.445 1.074 2.5t2.676 1.055q0.078 0 0.352-0.039t0.449-0.039 0.352 0.059 0.215 0.254q0.078 0.43-0.352 0.508-0.469 0.078-1.016 0.078-1.563 0-2.578-0.742-1.992-1.367-1.992-3.633 0-0.43 0.43-0.43 0.391 0 0.391 0.43zM8.125 18.164q-0.156 0-0.273-0.117-1.055-1.055-1.68-2.227-0.898-1.563-0.898-3.594 0-1.836 1.387-3.164t3.34-1.328 3.34 1.328 1.387 3.164q0 0.391-0.43 0.391t-0.43-0.391q0-1.523-1.133-2.598t-2.734-1.074-2.734 1.074-1.133 2.598q0 1.875 0.742 3.203 0.508 0.898 1.563 2.031 0.313 0.273 0 0.586-0.117 0.117-0.313 0.117zM2.93 8.086q-0.43 0-0.43-0.391 0-0.078 0.078-0.234 1.25-1.797 3.125-2.734 1.953-1.016 4.297-1.016t4.297 1.016q1.914 0.938 3.125 2.695 0.078 0.156 0.078 0.234 0 0.273-0.313 0.391t-0.469-0.156q-1.172-1.602-2.813-2.422-1.797-0.898-3.906-0.918t-3.906 0.918q-1.758 0.898-2.852 2.461-0.117 0.156-0.313 0.156zM14.844 3.711q-0.156 0-0.195-0.039-2.305-1.172-4.648-1.172-2.539 0-4.648 1.172-0.195 0.117-0.391 0t-0.195-0.352q0-0.273 0.195-0.391 2.266-1.25 5.039-1.25 2.539 0 5.039 1.25 0.352 0.195 0.156 0.547-0.156 0.234-0.352 0.234z"></path>
</svg>
