<!-- Generated by IcoMoon.io -->
<svg version="1.1" xmlns="http://www.w3.org/2000/svg" width="20" height="20" viewBox="0 0 20 20">
<title>fireplace</title>
<path d="M16.68 16.68v-13.359h-13.359v13.359h1.68v-1.68h1.875q-0.977-1.25-1.055-2.5l-0.039-0.234v-0.352t0.059-0.488 0.137-0.625 0.234-0.703 0.41-0.781 0.645-0.82 0.879-0.879 1.172-0.898 1.504-0.898q-0.078 0.234-0.117 0.645t0.391 1.445 1.523 1.777q1.563 1.094 1.563 2.813 0 1.367-0.859 2.5h1.68v1.68h1.68zM9.883 14.141q0.781 0.664 1.738 0.293t1.074-1.426q0.078-0.742-0.703-1.523t-0.938-1.094q-0.195 0.547-0.078 1.055 0.039 0.156 0.117 0.449t0.098 0.43-0.020 0.449q-0.078 0.391-0.449 0.801t-0.84 0.566zM1.68 1.68h16.641v16.641h-16.641v-16.641z"></path>
</svg>
