<!-- Generated by IcoMoon.io -->
<svg version="1.1" xmlns="http://www.w3.org/2000/svg" width="20" height="20" viewBox="0 0 20 20">
<title>fit_screen</title>
<path d="M15 6.68v6.641h-10v-6.641h10zM5.82 15v1.68h-2.5q-0.664 0-1.152-0.508t-0.488-1.172v-1.68h1.641v1.68h2.5zM16.68 13.32h1.641v1.68q0 0.664-0.488 1.172t-1.152 0.508h-2.5v-1.68h2.5v-1.68zM3.32 6.68h-1.641v-1.68q0-0.664 0.488-1.172t1.152-0.508h2.5v1.68h-2.5v1.68zM14.18 3.32h2.5q0.664 0 1.152 0.508t0.488 1.172v1.68h-1.641v-1.68h-2.5v-1.68z"></path>
</svg>
