<!-- Generated by IcoMoon.io -->
<svg version="1.1" xmlns="http://www.w3.org/2000/svg" width="20" height="20" viewBox="0 0 20 20">
<title>flare</title>
<path d="M9.18 19.18v-5h1.641v5h-1.641zM4.688 14.141l1.797-1.797 1.172 1.172-1.797 1.797zM12.344 13.516l1.172-1.172 1.797 1.797-1.172 1.172zM10 7.5q1.016 0 1.758 0.742t0.742 1.758-0.742 1.758-1.758 0.742-1.758-0.742-0.742-1.758 0.742-1.758 1.758-0.742zM14.18 9.18h5v1.641h-5v-1.641zM15.313 5.859l-1.797 1.797-1.172-1.172 1.797-1.797zM10.82 0.82v5h-1.641v-5h1.641zM7.656 6.484l-1.172 1.172-1.797-1.797 1.172-1.172zM5.82 9.18v1.641h-5v-1.641h5z"></path>
</svg>
