<!-- Generated by IcoMoon.io -->
<svg version="1.1" xmlns="http://www.w3.org/2000/svg" width="20" height="20" viewBox="0 0 20 20">
<title>flip</title>
<path d="M15.82 17.5v-1.68h1.68q0 0.664-0.508 1.172t-1.172 0.508zM15.82 10.82v-1.641h1.68v1.641h-1.68zM12.5 4.18v-1.68h1.68v1.68h-1.68zM15.82 14.18v-1.68h1.68v1.68h-1.68zM9.18 19.18v-18.359h1.641v18.359h-1.641zM15.82 2.5q0.664 0 1.172 0.508t0.508 1.172h-1.68v-1.68zM2.5 4.18q0-0.664 0.508-1.172t1.172-0.508h3.32v1.68h-3.32v11.641h3.32v1.68h-3.32q-0.664 0-1.172-0.508t-0.508-1.172v-11.641zM15.82 7.5v-1.68h1.68v1.68h-1.68zM12.5 17.5v-1.68h1.68v1.68h-1.68z"></path>
</svg>
