<!-- Generated by IcoMoon.io -->
<svg version="1.1" xmlns="http://www.w3.org/2000/svg" width="20" height="20" viewBox="0 0 20 20">
<title>flip_to_front</title>
<path d="M5.82 17.5v-1.68h1.68v1.68h-1.68zM9.18 17.5v-1.68h1.641v1.68h-1.641zM15.82 12.5v-8.32h-8.32v8.32h8.32zM15.82 2.5q0.664 0 1.172 0.508t0.508 1.172v8.32q0 0.664-0.508 1.172t-1.172 0.508h-8.32q-0.703 0-1.191-0.488t-0.488-1.191v-8.32q0-0.703 0.488-1.191t1.191-0.488h8.32zM12.5 17.5v-1.68h1.68v1.68h-1.68zM2.5 7.5v-1.68h1.68v1.68h-1.68zM4.18 17.5q-0.703 0-1.191-0.488t-0.488-1.191h1.68v1.68zM2.5 14.18v-1.68h1.68v1.68h-1.68zM2.5 10.82v-1.641h1.68v1.641h-1.68z"></path>
</svg>
