<!-- Generated by IcoMoon.io -->
<svg version="1.1" xmlns="http://www.w3.org/2000/svg" width="20" height="20" viewBox="0 0 20 20">
<title>flip_to_back</title>
<path d="M12.5 14.18v-1.68h1.68v1.68h-1.68zM12.5 4.18v-1.68h1.68v1.68h-1.68zM4.18 5.82v10h10v1.68h-10q-0.703 0-1.191-0.488t-0.488-1.191v-10h1.68zM15.82 14.18v-1.68h1.68q0 0.664-0.508 1.172t-1.172 0.508zM15.82 7.5v-1.68h1.68v1.68h-1.68zM15.82 10.82v-1.641h1.68v1.641h-1.68zM7.5 14.18q-0.703 0-1.191-0.488t-0.488-1.191h1.68v1.68zM10.82 2.5v1.68h-1.641v-1.68h1.641zM15.82 2.5q0.664 0 1.172 0.508t0.508 1.172h-1.68v-1.68zM10.82 12.5v1.68h-1.641v-1.68h1.641zM7.5 2.5v1.68h-1.68q0-0.703 0.488-1.191t1.191-0.488zM7.5 9.18v1.641h-1.68v-1.641h1.68zM7.5 5.82v1.68h-1.68v-1.68h1.68z"></path>
</svg>
