<!-- Generated by IcoMoon.io -->
<svg version="1.1" xmlns="http://www.w3.org/2000/svg" width="20" height="20" viewBox="0 0 20 20">
<title>flip_camera_ios</title>
<path d="M13.75 12.93l2.070-2.109h-1.641q0-1.719-1.23-2.93t-2.949-1.211q-1.016 0-1.953 0.508l0.586 0.586q0.547-0.273 1.367-0.273 1.367 0 2.344 0.977t0.977 2.344h-1.641zM10 15q1.016 0 1.953-0.508l-0.586-0.625q-0.625 0.313-1.367 0.313-1.367 0-2.344-0.996t-0.977-2.363h1.641l-2.070-2.070-2.070 2.070h1.641q0 1.719 1.23 2.949t2.949 1.23zM16.68 4.18q0.664 0 1.152 0.488t0.488 1.152v10q0 0.664-0.488 1.172t-1.152 0.508h-13.359q-0.664 0-1.152-0.508t-0.488-1.172v-10q0-0.664 0.488-1.152t1.152-0.488h2.656l1.523-1.68h5l1.523 1.68h2.656z"></path>
</svg>
