<!-- Generated by IcoMoon.io -->
<svg version="1.1" xmlns="http://www.w3.org/2000/svg" width="20" height="20" viewBox="0 0 20 20">
<title>flip_camera_android</title>
<path d="M13.32 11.68h5v5h-1.641v-1.68q-2.5 3.32-6.68 3.32-3.008 0-5.293-1.895t-2.871-4.746h1.719q0.547 2.148 2.344 3.574t4.102 1.426q1.797 0 3.34-0.918t2.402-2.441h-2.422v-1.641zM6.68 8.32h-5v-5h1.641v1.68q2.5-3.32 6.68-3.32 3.008 0 5.293 1.895t2.871 4.746h-1.719q-0.547-2.148-2.344-3.574t-4.102-1.426q-1.797 0-3.34 0.918t-2.402 2.441h2.422v1.641zM7.5 10q0-1.016 0.742-1.758t1.758-0.742 1.758 0.742 0.742 1.758-0.742 1.758-1.758 0.742-1.758-0.742-0.742-1.758z"></path>
</svg>
