<!-- Generated by IcoMoon.io -->
<svg version="1.1" xmlns="http://www.w3.org/2000/svg" width="20" height="20" viewBox="0 0 20 20">
<title>format_color_fill</title>
<path d="M0 16.68h20v3.32h-20v-3.32zM15.82 9.57q1.68 1.836 1.68 2.93 0 0.664-0.508 1.172t-1.172 0.508-1.152-0.508-0.488-1.172q0-0.469 0.41-1.211t0.801-1.211zM4.336 8.32h8.008l-4.023-3.984zM13.789 7.461q0.391 0.391 0.391 0.898t-0.391 0.859l-4.57 4.57q-0.391 0.391-0.898 0.391-0.469 0-0.859-0.391l-4.609-4.57q-0.352-0.352-0.352-0.898 0-0.508 0.352-0.859l4.297-4.297-1.992-1.992 1.211-1.172z"></path>
</svg>
