<!-- Generated by IcoMoon.io -->
<svg version="1.1" xmlns="http://www.w3.org/2000/svg" width="20" height="20" viewBox="0 0 20 20">
<title>format_shapes</title>
<path d="M8.906 10.625h2.188l-1.094-3.203zM11.445 11.68h-2.93l-0.586 1.641h-1.367l2.852-7.5h1.172l2.813 7.5h-1.328zM15.82 4.18h1.68v-1.68h-1.68v1.68zM17.5 17.5v-1.68h-1.68v1.68h1.68zM14.18 15.82v-1.641h1.641v-8.359h-1.641v-1.641h-8.359v1.641h-1.641v8.359h1.641v1.641h8.359zM4.18 17.5v-1.68h-1.68v1.68h1.68zM2.5 2.5v1.68h1.68v-1.68h-1.68zM19.18 5.82h-1.68v8.359h1.68v5h-5v-1.68h-8.359v1.68h-5v-5h1.68v-8.359h-1.68v-5h5v1.68h8.359v-1.68h5v5z"></path>
</svg>
