<!-- Generated by IcoMoon.io -->
<svg version="1.1" xmlns="http://www.w3.org/2000/svg" width="20" height="20" viewBox="0 0 20 20">
<title>g_translate</title>
<path d="M17.93 17.070v-11.641q0-0.352-0.254-0.605t-0.605-0.254h-7.539l1.094 3.164h1.211v-1.055h1.055v1.055h3.789v1.094h-1.602q-0.586 1.953-1.992 3.516l2.734 2.734-0.781 0.742-2.578-2.578 0.859 2.578-1.641 2.109h5.391q0.352 0 0.605-0.254t0.254-0.605zM10.977 8.828l0.664 1.953 0.703 0.938q1.211-1.328 1.719-2.891h-3.086zM5.82 13.32q1.797 0 2.91-1.133t1.113-2.93q0-0.039-0.117-0.859h-3.906v1.445h2.461q-0.078 0.742-0.703 1.367t-1.758 0.625q-1.094 0-1.855-0.781t-0.762-1.875q0-1.133 0.762-1.914t1.855-0.781q1.055 0 1.719 0.664l1.094-1.055q-1.211-1.094-2.813-1.094-1.719 0-2.93 1.23t-1.211 2.949 1.211 2.93 2.93 1.211zM17.5 3.32q0.664 0 1.172 0.508t0.508 1.172v12.5q0 0.664-0.508 1.172t-1.172 0.508h-7.5l-0.82-2.5h-6.68q-0.664 0-1.172-0.508t-0.508-1.172v-12.5q0-0.664 0.508-1.172t1.172-0.508h5.82l0.859 2.5h8.32z"></path>
</svg>
