<!-- Generated by IcoMoon.io -->
<svg version="1.1" xmlns="http://www.w3.org/2000/svg" width="20" height="20" viewBox="0 0 20 20">
<title>gesture</title>
<path d="M11.563 15.469q0.547 0 1.094-0.723t0.703-2.207q-1.172 0.313-1.797 1.055t-0.625 1.25q0 0.273 0.195 0.449t0.43 0.176zM3.828 5.742l-1.445-1.406q0.391-0.469 0.703-0.781 1.055-1.055 2.266-1.055 0.742 0 1.426 0.586t0.684 1.797q0 1.172-1.094 2.734-1.094 1.523-1.523 2.93-0.234 0.664-0.137 1.133t0.41 0.469q0.352 0 0.938-0.703 0.859-0.859 1.914-2.266 1.875-2.344 4.102-2.344 1.641 0 2.441 1.074t0.918 2.402h2.070v2.070h-2.031q-0.234 2.695-1.445 3.906t-2.5 1.211q-1.094 0-1.875-0.762t-0.781-1.816q0-1.289 1.172-2.695t3.32-1.797q-0.039-0.313-0.059-0.43t-0.117-0.371-0.234-0.371-0.41-0.215-0.664-0.098q-1.094 0-3.398 2.852-0.664 0.82-0.918 1.113t-0.723 0.684-0.898 0.508q-1.367 0.43-2.344-0.508t-0.977-2.344q0-0.586 0.215-1.289t0.566-1.367 0.664-1.191 0.605-0.957 0.332-0.469q0.664-1.094 0.234-1.25-0.273-0.117-1.406 1.016z"></path>
</svg>
