<!-- Generated by IcoMoon.io -->
<svg version="1.1" xmlns="http://www.w3.org/2000/svg" width="20" height="20" viewBox="0 0 20 20">
<title>goat</title>
<path d="M19.961 7.578q0.039 0.039 0.039 0.098t-0.039 0.098l-0.977 1.25q-0.078 0.078-0.156 0.078l-0.586-0.117-0.273 0.859q-0.078 0.156-0.254 0.156t-0.254-0.156l-0.547-1.172-0.898-0.195-1.836 4.375 0.664 5.313q0 0.156-0.156 0.156h-0.781q-0.078 0-0.156-0.117l-0.781-3.164-0.391-0.664-0.977 3.828q0 0.117-0.156 0.117h-0.82q-0.156 0-0.156-0.156l0.898-5.273h-5.273l-1.367 2.578 0.313 2.656q0.078 0.195-0.156 0.195h-0.781q-0.117 0-0.156-0.078l-1.094-3.984-1.328 1.523 0.234 2.344q0.078 0.195-0.156 0.195h-0.859q-0.156 0-0.156-0.078l-0.508-2.188 0.82-3.203v-5.625q-0.898-0.352-0.898-1.172h10.703q1.875 0.039 3.711-1.289-0.313-0.859 0.234-1.406 1.094 0.781 1.406 0.977 0.273 0.156 0.449-0.059t0.098-0.488q-0.352-1.094-1.758-1.641-0.039 0-0.117-0.039-0.469-0.117-0.391-0.313 0-0.117 0.156-0.117 1.133 0.156 1.934 0.879t1.074 1.387l0.156 0.117q0.117 0.156 0.254 0.313t0.234 0.449 0.059 0.605q0 0.195 0.078 0.273z"></path>
</svg>
