<!-- Generated by IcoMoon.io -->
<svg version="1.1" xmlns="http://www.w3.org/2000/svg" width="20" height="20" viewBox="0 0 20 20">
<title>gps_offlocation_disabled</title>
<path d="M13.555 14.609l-8.164-8.164q-0.508 0.664-0.859 1.699t-0.352 1.855q0 2.422 1.699 4.121t4.121 1.699q0.82 0 1.855-0.352t1.699-0.859zM2.5 3.555l1.055-1.055 13.945 13.945-1.055 1.055-1.719-1.719q-1.758 1.445-3.906 1.68v1.719h-1.641v-1.719q-2.461-0.273-4.414-2.227t-2.227-4.414h-1.719v-1.641h1.719q0.078-0.898 0.586-2.051t1.094-1.855zM17.461 9.18h1.719v1.641h-1.719q-0.195 1.523-0.82 2.656l-1.25-1.25q0.43-1.055 0.43-2.227 0-2.422-1.699-4.121t-4.121-1.699q-1.172 0-2.227 0.43l-1.25-1.25q1.211-0.625 2.656-0.82v-1.719h1.641v1.719q2.461 0.273 4.414 2.227t2.227 4.414z"></path>
</svg>
