<!-- Generated by IcoMoon.io -->
<svg version="1.1" xmlns="http://www.w3.org/2000/svg" width="20" height="20" viewBox="0 0 20 20">
<title>gradient</title>
<path d="M15.82 9.18v-5h-11.641v5h1.641v1.641h1.68v1.68h1.68v-1.68h1.641v1.68h1.68v-1.68h1.68v-1.641h1.641zM14.18 15v-1.68h-1.68v1.68h1.68zM10.82 15v-1.68h-1.641v1.68h1.641zM7.5 15v-1.68h-1.68v1.68h1.68zM15.82 2.5q0.664 0 1.172 0.508t0.508 1.172v11.641q0 0.664-0.508 1.172t-1.172 0.508h-11.641q-0.664 0-1.172-0.508t-0.508-1.172v-11.641q0-0.664 0.508-1.172t1.172-0.508h11.641zM5.82 7.5h1.68v1.68h-1.68v-1.68zM12.5 7.5h1.68v1.68h-1.68v-1.68zM9.18 7.5h1.641v1.68h1.68v1.641h-1.68v-1.641h-1.641v1.641h-1.68v-1.641h1.68v-1.68zM14.18 10.82v1.68h1.641v-1.68h-1.641zM5.82 10.82h-1.641v1.68h1.641v-1.68z"></path>
</svg>
