<!-- Generated by IcoMoon.io -->
<svg version="1.1" xmlns="http://www.w3.org/2000/svg" width="20" height="20" viewBox="0 0 20 20">
<title>grain</title>
<path d="M8.32 3.32q0.664 0 1.172 0.508t0.508 1.172-0.508 1.172-1.172 0.508-1.152-0.508-0.488-1.172 0.488-1.172 1.152-0.508zM11.68 6.68q0.664 0 1.152 0.488t0.488 1.152-0.488 1.172-1.152 0.508-1.172-0.508-0.508-1.172 0.508-1.152 1.172-0.488zM15 10q0.664 0 1.172 0.508t0.508 1.172-0.508 1.152-1.172 0.488-1.172-0.488-0.508-1.152 0.508-1.172 1.172-0.508zM11.68 13.32q0.664 0 1.152 0.508t0.488 1.172-0.488 1.172-1.152 0.508-1.172-0.508-0.508-1.172 0.508-1.172 1.172-0.508zM15 6.68q-0.664 0-1.172-0.508t-0.508-1.172 0.508-1.172 1.172-0.508 1.172 0.508 0.508 1.172-0.508 1.172-1.172 0.508zM5 13.32q0.664 0 1.172 0.508t0.508 1.172-0.508 1.172-1.172 0.508-1.172-0.508-0.508-1.172 0.508-1.172 1.172-0.508zM5 6.68q0.664 0 1.172 0.488t0.508 1.152-0.508 1.172-1.172 0.508-1.172-0.508-0.508-1.172 0.508-1.152 1.172-0.488zM8.32 10q0.664 0 1.172 0.508t0.508 1.172-0.508 1.152-1.172 0.488-1.152-0.488-0.488-1.152 0.488-1.172 1.152-0.508z"></path>
</svg>
