<!-- Generated by IcoMoon.io -->
<svg version="1.1" xmlns="http://www.w3.org/2000/svg" width="20" height="20" viewBox="0 0 20 20">
<title>grid_on</title>
<path d="M16.68 6.68v-3.359h-3.359v3.359h3.359zM16.68 11.68v-3.359h-3.359v3.359h3.359zM16.68 16.68v-3.359h-3.359v3.359h3.359zM11.68 6.68v-3.359h-3.359v3.359h3.359zM11.68 11.68v-3.359h-3.359v3.359h3.359zM11.68 16.68v-3.359h-3.359v3.359h3.359zM6.68 6.68v-3.359h-3.359v3.359h3.359zM6.68 11.68v-3.359h-3.359v3.359h3.359zM6.68 16.68v-3.359h-3.359v3.359h3.359zM16.68 1.68q0.664 0 1.152 0.488t0.488 1.152v13.359q0 0.664-0.488 1.152t-1.152 0.488h-13.359q-0.664 0-1.152-0.488t-0.488-1.152v-13.359q0-0.664 0.488-1.152t1.152-0.488h13.359z"></path>
</svg>
