<!-- Generated by IcoMoon.io -->
<svg version="1.1" xmlns="http://www.w3.org/2000/svg" width="20" height="20" viewBox="0 0 20 20">
<title>grid_off</title>
<path d="M13.32 16.68h1.211l-1.211-1.211v1.211zM11.68 16.68v-2.891l-0.469-0.469h-2.891v3.359h3.359zM6.68 11.68v-2.891l-0.469-0.469h-2.891v3.359h3.359zM6.68 16.68v-3.359h-3.359v3.359h3.359zM3.32 5.469v1.211h1.211zM8.32 10.469v1.211h1.211zM1.055 1.055l17.891 17.891-1.055 1.055-1.68-1.68h-12.891q-0.664 0-1.152-0.488t-0.488-1.152v-12.891l-1.68-1.68zM13.32 3.32v3.359h3.359v-3.359h-3.359zM6.68 3.32h-1.211l-1.68-1.641h12.891q0.664 0 1.152 0.488t0.488 1.152v12.891l-1.641-1.68v-1.211h-1.211l-1.68-1.641h2.891v-3.359h-3.359v2.891l-1.641-1.68v-1.211h-1.211l-1.68-1.641h2.891v-3.359h-3.359v2.891l-1.641-1.68v-1.211z"></path>
</svg>
