<!-- Generated by IcoMoon.io -->
<svg version="1.1" xmlns="http://www.w3.org/2000/svg" width="20" height="20" viewBox="0 0 20 20">
<title>group_work</title>
<path d="M13.32 14.57q0.859 0 1.484-0.605t0.625-1.465-0.625-1.465-1.484-0.605-1.465 0.605-0.605 1.465 0.605 1.465 1.465 0.605zM7.93 6.68q0 0.859 0.605 1.465t1.465 0.605 1.465-0.605 0.605-1.465-0.605-1.484-1.465-0.625-1.465 0.625-0.605 1.484zM6.68 14.57q0.859 0 1.465-0.605t0.605-1.465-0.605-1.465-1.465-0.605-1.484 0.605-0.625 1.465 0.625 1.465 1.484 0.605zM10 1.68q3.438 0 5.879 2.441t2.441 5.879-2.441 5.879-5.879 2.441-5.879-2.441-2.441-5.879 2.441-5.879 5.879-2.441z"></path>
</svg>
