<!-- Generated by IcoMoon.io -->
<svg version="1.1" xmlns="http://www.w3.org/2000/svg" width="20" height="20" viewBox="0 0 20 20">
<title>group_add</title>
<path d="M10.82 10.82q1.563 0 3.281 0.684t1.719 1.816v1.68h-10v-1.68q0-1.133 1.719-1.816t3.281-0.684zM16.367 10.977q1.445 0.234 2.539 0.84t1.094 1.504v1.68h-2.5v-1.68q0-1.328-1.133-2.344zM10.82 9.18q-1.016 0-1.758-0.742t-0.742-1.758 0.742-1.758 1.758-0.742 1.758 0.742 0.742 1.758-0.742 1.758-1.758 0.742zM15 9.18q-0.391 0-0.742-0.117 0.742-1.055 0.742-2.383t-0.742-2.383q0.352-0.117 0.742-0.117 1.016 0 1.758 0.742t0.742 1.758-0.742 1.758-1.758 0.742zM6.68 8.32v1.68h-2.5v2.5h-1.68v-2.5h-2.5v-1.68h2.5v-2.5h1.68v2.5h2.5z"></path>
</svg>
