<!-- Generated by IcoMoon.io -->
<svg version="1.1" xmlns="http://www.w3.org/2000/svg" width="20" height="20" viewBox="0 0 20 20">
<title>hail</title>
<path d="M3.32 13.32h2.5v5h-2.5v-5zM15.82 1.992q-0.078 1.836-0.938 3.184t-2.383 1.816v11.328h-1.68v-5h-1.641v5h-1.68v-9.922q-0.352 0.117-0.508 0.273-1.172 0.938-1.172 2.578v0.43h-1.641v-0.43q0-2.461 1.758-3.984 1.758-1.445 4.063-1.445 1.758 0 2.891-0.859 1.289-1.055 1.289-2.891v-0.391h1.641v0.313zM10 5q-0.664 0-1.172-0.508t-0.508-1.172 0.508-1.152 1.172-0.488 1.172 0.488 0.508 1.152-0.508 1.172-1.172 0.508z"></path>
</svg>
