<!-- Generated by IcoMoon.io -->
<svg version="1.1" xmlns="http://www.w3.org/2000/svg" width="20" height="20" viewBox="0 0 20 20">
<title>hdr_on</title>
<path d="M10.82 11.25v-2.5h-1.641v2.5h1.641zM10.82 7.5q0.508 0 0.879 0.371t0.371 0.879v2.5q0 0.508-0.371 0.879t-0.879 0.371h-2.891v-5h2.891zM5.43 9.18v-1.68h1.25v5h-1.25v-2.070h-1.68v2.070h-1.25v-5h1.25v1.68h1.68zM16.25 9.57v-0.82h-1.68v0.82h1.68zM17.5 9.57q0 0.781-0.742 1.172l0.742 1.758h-1.25l-0.742-1.68h-0.938v1.68h-1.25v-5h2.93q0.508 0 0.879 0.371t0.371 0.879v0.82z"></path>
</svg>
