<!-- Generated by IcoMoon.io -->
<svg version="1.1" xmlns="http://www.w3.org/2000/svg" width="20" height="20" viewBox="0 0 20 20">
<title>hdr_weak</title>
<path d="M14.18 13.32q1.367 0 2.344-0.977t0.977-2.344-0.977-2.344-2.344-0.977-2.363 0.977-0.996 2.344 0.996 2.344 2.363 0.977zM14.18 5q2.070 0 3.535 1.465t1.465 3.535-1.465 3.535-3.535 1.465-3.535-1.465-1.465-3.535 1.465-3.535 3.535-1.465zM4.18 6.68q1.367 0 2.344 0.977t0.977 2.344-0.977 2.344-2.344 0.977-2.363-0.977-0.996-2.344 0.996-2.344 2.363-0.977z"></path>
</svg>
