<!-- Generated by IcoMoon.io -->
<svg version="1.1" xmlns="http://www.w3.org/2000/svg" width="20" height="20" viewBox="0 0 20 20">
<title>hdr_off</title>
<path d="M2.070 2.070q3.828 3.867 15.938 15.859l-0.938 0.898-6.328-6.328h-2.813v-2.852l-1.25-1.25v4.102h-1.25v-2.070h-1.68v2.070h-1.25v-5h1.25v1.68h1.68v-1.68h0.313l-4.57-4.57zM10.82 8.75h-0.313l-1.25-1.25h1.563q0.508 0 0.879 0.371t0.371 0.879v1.602l-1.25-1.25v-0.352zM14.57 8.75v0.82h1.68v-0.82h-1.68zM14.57 12.5h-0.313l-0.938-0.898v-4.102h2.93q0.508 0 0.879 0.371t0.371 0.879v0.82q0 0.898-0.742 1.172l0.742 1.758h-1.25l-0.742-1.68h-0.938v1.68z"></path>
</svg>
