<!-- Generated by IcoMoon.io -->
<svg version="1.1" xmlns="http://www.w3.org/2000/svg" width="20" height="20" viewBox="0 0 20 20">
<title>headset_off</title>
<path d="M1.875 1.445l16.68 16.68-1.055 1.055-1.797-1.797q-0.352 0.117-0.703 0.117h-2.5v-3.32l-7.656-7.695q-0.664 1.211-0.664 2.695v1.641h3.32v6.68h-2.5q-1.016 0-1.758-0.742t-0.742-1.758v-5.82q0-2.188 1.094-3.906l-2.773-2.773zM10 3.32q-1.719 0-3.164 0.938l-1.211-1.172q1.914-1.406 4.375-1.406 3.125 0 5.313 2.207t2.188 5.293v5.742l-4.102-4.102h2.422v-1.641q0-2.422-1.699-4.141t-4.121-1.719z"></path>
</svg>
