<!-- Generated by IcoMoon.io -->
<svg version="1.1" xmlns="http://www.w3.org/2000/svg" width="20" height="20" viewBox="0 0 20 20">
<title>healing</title>
<path d="M13.867 16.953l3.047-3.047-3.047-3.008-3.008 3.047zM11.68 9.18q-0.352 0-0.605 0.234t-0.254 0.586 0.254 0.586 0.605 0.234 0.586-0.234 0.234-0.586-0.234-0.586-0.586-0.234zM10 12.5q0.352 0 0.586-0.234t0.234-0.586-0.234-0.605-0.586-0.254-0.586 0.254-0.234 0.605 0.234 0.586 0.586 0.234zM8.32 10.82q0.352 0 0.605-0.234t0.254-0.586-0.254-0.586-0.605-0.234-0.586 0.234-0.234 0.586 0.234 0.586 0.586 0.234zM6.094 9.141l3.008-3.047-3.008-3.008-3.047 3.047zM10 7.5q-0.352 0-0.586 0.234t-0.234 0.586 0.234 0.605 0.586 0.254 0.586-0.254 0.234-0.605-0.234-0.586-0.586-0.234zM14.766 10l3.32 3.32q0.273 0.273 0.273 0.586t-0.273 0.586l-3.594 3.633q-0.234 0.234-0.586 0.234-0.391 0-0.625-0.234l-3.281-3.32-3.32 3.32q-0.234 0.234-0.586 0.234t-0.586-0.234l-3.633-3.633q-0.234-0.234-0.234-0.586t0.234-0.586l3.32-3.32-3.32-3.281q-0.234-0.234-0.234-0.625 0-0.352 0.234-0.586l3.633-3.594q0.234-0.234 0.586-0.234t0.586 0.234l3.32 3.32 3.281-3.32q0.234-0.234 0.625-0.234 0.352 0 0.586 0.234l3.594 3.594q0.234 0.234 0.234 0.586 0 0.391-0.234 0.625z"></path>
</svg>
