<!-- Generated by IcoMoon.io -->
<svg version="1.1" xmlns="http://www.w3.org/2000/svg" width="20" height="20" viewBox="0 0 20 20">
<title>hearing</title>
<path d="M9.57 7.5q0-0.859 0.625-1.465t1.484-0.605 1.465 0.605 0.605 1.465-0.605 1.465-1.465 0.605-1.484-0.605-0.625-1.465zM6.367 2.188q-2.188 2.188-2.188 5.313t2.188 5.313l-1.172 1.172q-2.695-2.695-2.695-6.484t2.695-6.484zM14.18 16.68q0.664 0 1.152-0.508t0.488-1.172h1.68q0 1.367-0.977 2.344t-2.344 0.977q-0.742 0-1.367-0.273-1.602-0.82-2.305-2.969-0.273-0.859-1.406-1.719-1.602-1.172-2.383-2.617-0.898-1.602-0.898-3.242 0-2.461 1.699-4.141t4.16-1.68 4.141 1.68 1.68 4.141h-1.68q0-1.758-1.191-2.969t-2.949-1.211-2.969 1.211-1.211 2.969q0 1.25 0.664 2.461 0.547 1.055 1.953 2.109 1.563 1.172 1.992 2.5 0.508 1.484 1.406 1.953 0.313 0.156 0.664 0.156z"></path>
</svg>
