<!-- Generated by IcoMoon.io -->
<svg version="1.1" xmlns="http://www.w3.org/2000/svg" width="20" height="20" viewBox="0 0 20 20">
<title>help</title>
<path d="M12.539 9.375q0.781-0.781 0.781-1.875 0-1.367-0.977-2.344t-2.344-0.977-2.344 0.977-0.977 2.344h1.641q0-0.664 0.508-1.172t1.172-0.508 1.172 0.508 0.508 1.172-0.508 1.172l-1.016 1.055q-0.977 1.055-0.977 2.344v0.43h1.641q0-1.289 0.977-2.344zM10.82 15.82v-1.641h-1.641v1.641h1.641zM10 1.68q3.438 0 5.879 2.441t2.441 5.879-2.441 5.879-5.879 2.441-5.879-2.441-2.441-5.879 2.441-5.879 5.879-2.441z"></path>
</svg>
