<!-- Generated by IcoMoon.io -->
<svg version="1.1" xmlns="http://www.w3.org/2000/svg" width="20" height="20" viewBox="0 0 20 20">
<title>help_outline</title>
<path d="M10 5q1.367 0 2.344 0.977t0.977 2.344q0 1.055-1.25 2.168t-1.25 2.012h-1.641q0-0.898 0.391-1.543t0.859-0.938 0.859-0.723 0.391-0.977q0-0.664-0.508-1.152t-1.172-0.488-1.172 0.488-0.508 1.152h-1.641q0-1.367 0.977-2.344t2.344-0.977zM10 16.68q2.734 0 4.707-1.973t1.973-4.707-1.973-4.707-4.707-1.973-4.707 1.973-1.973 4.707 1.973 4.707 4.707 1.973zM10 1.68q3.438 0 5.879 2.441t2.441 5.879-2.441 5.879-5.879 2.441-5.879-2.441-2.441-5.879 2.441-5.879 5.879-2.441zM9.18 15v-1.68h1.641v1.68h-1.641z"></path>
</svg>
