<!-- Generated by IcoMoon.io -->
<svg version="1.1" xmlns="http://www.w3.org/2000/svg" width="20" height="20" viewBox="0 0 20 20">
<title>high_quality</title>
<path d="M12.070 11.25v-2.5h1.68v2.5h-1.68zM15 11.68v-3.359q0-0.352-0.234-0.586t-0.586-0.234h-2.5q-0.352 0-0.605 0.234t-0.254 0.586v3.359q0 0.352 0.254 0.586t0.605 0.234h0.625v1.25h1.25v-1.25h0.625q0.352 0 0.586-0.234t0.234-0.586zM9.18 12.5v-5h-1.25v2.070h-1.68v-2.070h-1.25v5h1.25v-1.68h1.68v1.68h1.25zM15.82 3.32q0.664 0 1.172 0.508t0.508 1.172v10q0 0.664-0.508 1.172t-1.172 0.508h-11.641q-0.703 0-1.191-0.488t-0.488-1.191v-10q0-0.703 0.488-1.191t1.191-0.488h11.641z"></path>
</svg>
