<!-- Generated by IcoMoon.io -->
<svg version="1.1" xmlns="http://www.w3.org/2000/svg" width="20" height="20" viewBox="0 0 20 20">
<title>historyrestore</title>
<path d="M10 6.68h1.25v3.516l2.93 1.758-0.625 1.016-3.555-2.148v-4.141zM10.82 2.5q3.086 0 5.293 2.188t2.207 5.313-2.207 5.313-5.293 2.188q-1.289 0-2.832-0.645t-2.441-1.543l1.172-1.211q1.719 1.719 4.102 1.719 2.422 0 4.141-1.699t1.719-4.121-1.719-4.121-4.141-1.699-4.121 1.699-1.699 4.121h2.5l-3.359 3.359-0.078-0.117-3.242-3.242h2.5q0-3.125 2.207-5.313t5.293-2.188z"></path>
</svg>
