<!-- Generated by IcoMoon.io -->
<svg version="1.1" xmlns="http://www.w3.org/2000/svg" width="20" height="20" viewBox="0 0 20 20">
<title>hot_tub</title>
<path d="M12.227 4.883q1.289 1.25 1.055 3.086l-0.039 0.352h-1.602l0.117-0.469q0.195-1.055-0.625-1.875-1.328-1.328-1.094-3.125l0.039-0.352h1.602l-0.078 0.508q-0.195 1.055 0.547 1.836zM15.547 4.883q1.328 1.289 1.094 3.086l-0.078 0.352h-1.563l0.078-0.469q0.195-1.055-0.547-1.836l-0.078-0.039q-1.328-1.328-1.094-3.125l0.078-0.352h1.563l-0.078 0.508q-0.195 1.055 0.547 1.836zM15.82 16.68v-5h-1.641v5h1.641zM12.5 16.68v-5h-1.68v5h1.68zM9.18 16.68v-5h-1.68v5h1.68zM5.82 16.68v-5h-1.641v5h1.641zM9.297 10h9.023v6.68q0 0.664-0.488 1.152t-1.152 0.488h-13.359q-0.664 0-1.152-0.488t-0.488-1.152v-6.68h2.5v-0.625q0-0.781 0.566-1.328t1.309-0.547q0.781 0 1.406 0.625l1.133 1.289q0.156 0.195 0.703 0.586zM4.18 5q0-0.703 0.469-1.191t1.172-0.488 1.191 0.488 0.488 1.191-0.488 1.191-1.191 0.488-1.172-0.488-0.469-1.191z"></path>
</svg>
