<!-- Generated by IcoMoon.io -->
<svg version="1.1" xmlns="http://www.w3.org/2000/svg" width="20" height="20" viewBox="0 0 20 20">
<title>how_to_vote</title>
<path d="M10.625 1.914q0.234-0.234 0.586-0.234 0.43 0 0.586 0.234l4.141 4.141q0.234 0.234 0.234 0.586t-0.234 0.586l-5.313 5.273q-0.234 0.234-0.586 0.234t-0.586-0.234l-4.141-4.102q-0.234-0.234-0.234-0.586t0.234-0.586zM14.18 6.641l-2.969-2.969-4.102 4.141 2.93 2.93zM15 10.82l2.5 2.5v3.359q0 0.703-0.488 1.172t-1.191 0.469h-11.68q-0.664 0-1.152-0.488t-0.488-1.152v-3.359l2.5-2.5h0.703l1.641 1.68h-1.68l-1.484 1.68h11.641l-1.445-1.68h-1.602l1.641-1.68h0.586z"></path>
</svg>
