<!-- Generated by IcoMoon.io -->
<svg version="1.1" xmlns="http://www.w3.org/2000/svg" width="20" height="20" viewBox="0 0 20 20">
<title>http</title>
<path d="M17.93 9.57v-0.82h-1.68v0.82h1.68zM17.93 7.5q0.508 0 0.879 0.371t0.371 0.879v0.82q0 0.508-0.371 0.879t-0.879 0.371h-1.68v1.68h-1.25v-5h2.93zM10.43 8.75v-1.25h3.75v1.25h-1.25v3.75h-1.25v-3.75h-1.25zM5.82 8.75v-1.25h3.75v1.25h-1.25v3.75h-1.25v-3.75h-1.25zM3.75 9.18v-1.68h1.25v5h-1.25v-2.070h-1.68v2.070h-1.25v-5h1.25v1.68h1.68z"></path>
</svg>
