<!-- Generated by IcoMoon.io -->
<svg version="1.1" xmlns="http://www.w3.org/2000/svg" width="20" height="20" viewBox="0 0 20 20">
<title>icecream</title>
<path d="M5.703 10.82q-0.977-0.078-1.68-0.801t-0.703-1.699q0-0.898 0.605-1.602t1.504-0.859q0.156-1.758 1.465-2.969t3.105-1.211 3.105 1.211 1.465 2.969q0.898 0.156 1.504 0.859t0.605 1.602q0 0.977-0.684 1.699t-1.66 0.801l-4.297 8.359zM7.344 10.352l2.695 5.156 2.656-5.156q-0.039-0.039-0.137-0.117t-0.137-0.117q-1.133 0.703-2.422 0.703t-2.422-0.703q-0.039 0.039-0.078 0.098t-0.078 0.098-0.078 0.039z"></path>
</svg>
