<!-- Generated by IcoMoon.io -->
<svg version="1.1" xmlns="http://www.w3.org/2000/svg" width="20" height="20" viewBox="0 0 20 20">
<title>image_search</title>
<path d="M12.93 7.5q0.859 0 1.465-0.605t0.605-1.465-0.605-1.484-1.465-0.625-1.484 0.625-0.625 1.484 0.625 1.465 1.484 0.605zM16.094 7.422l2.578 2.578-1.172 1.172-2.617-2.578q-0.977 0.586-1.992 0.586-1.563 0-2.637-1.094t-1.074-2.656 1.094-2.656 2.656-1.094 2.656 1.094 1.094 2.656q0 1.016-0.586 1.992zM13.75 15h-9.18l2.305-2.93 1.641 1.953 2.266-2.93zM15 10.82l1.68 1.68v4.18q0 0.664-0.508 1.152t-1.172 0.488h-11.68q-0.664 0-1.152-0.488t-0.488-1.152v-11.68q0-0.664 0.488-1.172t1.152-0.508h4.609q-0.391 0.82-0.43 1.68h-4.18v11.68h11.68v-5.859z"></path>
</svg>
