<!-- Generated by IcoMoon.io -->
<svg version="1.1" xmlns="http://www.w3.org/2000/svg" width="20" height="20" viewBox="0 0 20 20">
<title>image_aspect_ratio</title>
<path d="M16.68 15v-10h-13.359v10h13.359zM16.68 3.32q0.664 0 1.152 0.508t0.488 1.172v10q0 0.664-0.488 1.172t-1.152 0.508h-13.359q-0.664 0-1.152-0.508t-0.488-1.172v-10q0-0.664 0.488-1.172t1.152-0.508h13.359zM10 8.32v1.68h-1.68v-1.68h1.68zM6.68 8.32v1.68h-1.68v-1.68h1.68zM13.32 11.68v1.641h-1.641v-1.641h1.641zM13.32 8.32v1.68h-1.641v-1.68h1.641z"></path>
</svg>
