<!-- Generated by IcoMoon.io -->
<svg version="1.1" xmlns="http://www.w3.org/2000/svg" width="20" height="20" viewBox="0 0 20 20">
<title>import_contacts</title>
<path d="M17.5 15.43v-9.609q-1.289-0.391-2.93-0.391-2.539 0-4.57 1.25v9.57q2.031-1.25 4.57-1.25 1.523 0 2.93 0.43zM14.57 3.75q2.969 0 4.609 1.25v12.148q0 0.156-0.137 0.293t-0.293 0.137q-0.117 0-0.195-0.039-1.602-0.859-3.984-0.859-2.539 0-4.57 1.25-1.68-1.25-4.57-1.25-2.109 0-3.984 0.898-0.039 0-0.098 0.020t-0.098 0.020q-0.156 0-0.293-0.117t-0.137-0.273v-12.227q1.68-1.25 4.609-1.25 2.891 0 4.57 1.25 1.68-1.25 4.57-1.25z"></path>
</svg>
