<!-- Generated by IcoMoon.io -->
<svg version="1.1" xmlns="http://www.w3.org/2000/svg" width="20" height="20" viewBox="0 0 20 20">
<title>important_devices</title>
<path d="M9.961 7.5h2.539l-2.070 1.484 0.781 2.422-2.031-1.523-2.070 1.523 0.781-2.422-2.070-1.484h2.539l0.82-2.5zM16.68 1.68q0.703 0 1.172 0.469t0.469 1.172v4.18h-1.641v-4.18h-15v10h10.82v1.68h-1.68v1.68h1.68v1.641h-6.68v-1.641h1.68v-1.68h-5.82q-0.703 0-1.191-0.488t-0.488-1.191v-10q0-0.703 0.488-1.172t1.191-0.469h15zM19.18 16.68v-5.859h-4.18v5.859h4.18zM19.18 9.18q0.352 0 0.586 0.234t0.234 0.586v7.5q0 0.352-0.234 0.586t-0.586 0.234h-4.18q-0.352 0-0.586-0.234t-0.234-0.586v-7.5q0-0.352 0.234-0.586t0.586-0.234h4.18z"></path>
</svg>
