<!-- Generated by IcoMoon.io -->
<svg version="1.1" xmlns="http://www.w3.org/2000/svg" width="20" height="20" viewBox="0 0 20 20">
<title>insert_emoticontag_facesmood</title>
<path d="M10 14.57q-1.445 0-2.598-0.801t-1.66-2.090h8.516q-0.508 1.289-1.66 2.090t-2.598 0.801zM7.070 9.18q-0.508 0-0.879-0.371t-0.371-0.879 0.371-0.879 0.879-0.371 0.879 0.371 0.371 0.879-0.371 0.879-0.879 0.371zM12.93 9.18q-0.508 0-0.879-0.371t-0.371-0.879 0.371-0.879 0.879-0.371 0.879 0.371 0.371 0.879-0.371 0.879-0.879 0.371zM10 16.68q2.734 0 4.707-1.973t1.973-4.707-1.973-4.707-4.707-1.973-4.707 1.973-1.973 4.707 1.973 4.707 4.707 1.973zM10 1.68q3.438 0 5.879 2.441t2.441 5.879-2.441 5.879-5.879 2.441-5.879-2.441-2.441-5.879 2.441-5.879 5.879-2.441z"></path>
</svg>
