<!-- Generated by IcoMoon.io -->
<svg version="1.1" xmlns="http://www.w3.org/2000/svg" width="20" height="20" viewBox="0 0 20 20">
<title>invert_colors_off</title>
<path d="M10 4.258l-1.914 1.875-1.172-1.172 3.086-3.086 4.727 4.727q1.484 1.484 1.836 3.574t-0.508 3.926l-6.055-6.016v-3.828zM10 16.328v-4.023l-3.984-3.984q-1.016 1.328-1.016 3.008 0 0.859 0.43 1.875t1.055 1.641q1.484 1.484 3.516 1.484zM17.227 17.383l0.273 0.313-1.055 1.055-2.266-2.266q-1.836 1.484-4.18 1.484-1.133 0-2.52-0.566t-2.207-1.387-1.387-2.188-0.566-2.5q0-0.977 0.43-2.227t1.055-1.992l-2.305-2.305 1.055-1.055q11.68 11.68 13.672 13.633z"></path>
</svg>
