<!-- Generated by IcoMoon.io -->
<svg version="1.1" xmlns="http://www.w3.org/2000/svg" width="20" height="20" viewBox="0 0 20 20">
<title>k1</title>
<path d="M16.25 12.5l-1.875-2.5 1.875-2.5h-1.445l-1.484 1.875v-1.875h-1.25v5h1.25v-1.875l1.484 1.875h1.445zM10.82 11.68v-3.359q0-0.352-0.234-0.586t-0.586-0.234h-2.070q-0.352 0-0.605 0.234t-0.254 0.586v3.359q0 0.352 0.254 0.586t0.605 0.234h2.070q0.352 0 0.586-0.234t0.234-0.586zM6.25 12.5v-5h-2.5v1.25h1.25v3.75h1.25zM15.82 2.5q0.664 0 1.172 0.508t0.508 1.172v11.641q0 0.664-0.508 1.172t-1.172 0.508h-11.641q-0.664 0-1.172-0.508t-0.508-1.172v-11.641q0-0.664 0.508-1.172t1.172-0.508h11.641zM8.32 8.75h1.25v2.5h-1.25v-2.5z"></path>
</svg>
