<!-- Generated by IcoMoon.io -->
<svg version="1.1" xmlns="http://www.w3.org/2000/svg" width="20" height="20" viewBox="0 0 20 20">
<title>k3</title>
<path d="M15 12.5l-1.875-2.5 1.875-2.5h-1.445l-1.484 1.875v-1.875h-1.25v5h1.25v-1.875l1.484 1.875h1.445zM8.32 10.43q0.352 0 0.605-0.254t0.254-0.605v-1.25q0-0.352-0.254-0.586t-0.605-0.234h-2.891v1.25h2.5v0.82h-1.68q-0.352 0-0.586 0.254t-0.234 0.605v2.070h3.75v-1.25h-2.5v-0.82h1.641zM15.82 2.5q0.664 0 1.172 0.508t0.508 1.172v11.641q0 0.664-0.508 1.172t-1.172 0.508h-11.641q-0.664 0-1.172-0.508t-0.508-1.172v-11.641q0-0.664 0.508-1.172t1.172-0.508h11.641z"></path>
</svg>
