<!-- Generated by IcoMoon.io -->
<svg version="1.1" xmlns="http://www.w3.org/2000/svg" width="20" height="20" viewBox="0 0 20 20">
<title>k7</title>
<path d="M15 12.5l-1.875-2.5 1.875-2.5h-1.445l-1.484 1.875v-1.875h-1.25v5h1.25v-1.875l1.484 1.875h1.445zM7.93 12.5l1.211-3.906q0.117-0.391-0.137-0.742t-0.684-0.352h-2.891v1.25h2.188l-1.172 3.75h1.484zM15.82 2.5q0.664 0 1.172 0.508t0.508 1.172v11.641q0 0.664-0.508 1.172t-1.172 0.508h-11.641q-0.664 0-1.172-0.508t-0.508-1.172v-11.641q0-0.664 0.508-1.172t1.172-0.508h11.641z"></path>
</svg>
