<!-- Generated by IcoMoon.io -->
<svg version="1.1" xmlns="http://www.w3.org/2000/svg" width="20" height="20" viewBox="0 0 20 20">
<title>k_plus</title>
<path d="M16.25 10.43v-0.859h-1.25v-1.25h-0.82v1.25h-1.25v0.859h1.25v1.25h0.82v-1.25h1.25zM11.445 12.5h1.484l-1.875-2.5 1.875-2.5h-1.484l-1.445 1.875v-1.875h-1.25v5h1.25v-1.875zM7.5 12.5v-5h-2.5v1.25h1.25v3.75h1.25zM15.82 2.5q0.664 0 1.172 0.508t0.508 1.172v11.641q0 0.664-0.508 1.172t-1.172 0.508h-11.641q-0.664 0-1.172-0.508t-0.508-1.172v-11.641q0-0.664 0.508-1.172t1.172-0.508h11.641z"></path>
</svg>
