<!-- Generated by IcoMoon.io -->
<svg version="1.1" xmlns="http://www.w3.org/2000/svg" width="20" height="20" viewBox="0 0 20 20">
<title>k_plus3</title>
<path d="M16.68 10.43v-0.859h-1.25v-1.25h-0.859v1.25h-1.25v0.859h1.25v1.25h0.859v-1.25h1.25zM13.32 12.5l-1.875-2.5 1.875-2.5h-1.445l-1.445 1.875v-1.875h-1.25v5h1.25v-1.875l1.445 1.875h1.445zM8.75 11.25v-1.25h-0.82v-2.5h-1.25v2.5h-1.25v-2.5h-1.25v3.75h2.5v1.25h1.25v-1.25h0.82zM15.82 2.5q0.664 0 1.172 0.508t0.508 1.172v11.641q0 0.664-0.508 1.172t-1.172 0.508h-11.641q-0.664 0-1.172-0.508t-0.508-1.172v-11.641q0-0.664 0.508-1.172t1.172-0.508h11.641z"></path>
</svg>
