<!-- Generated by IcoMoon.io -->
<svg version="1.1" xmlns="http://www.w3.org/2000/svg" width="20" height="20" viewBox="0 0 20 20">
<title>k_plus2</title>
<path d="M16.68 10.43v-0.859h-1.25v-1.25h-0.859v1.25h-1.25v0.859h1.25v1.25h0.859v-1.25h1.25zM13.32 12.5l-1.875-2.5 1.875-2.5h-1.445l-1.445 1.875v-1.875h-1.25v5h1.25v-1.875l1.445 1.875h1.445zM7.93 11.68v-3.359q0-0.352-0.254-0.586t-0.605-0.234h-2.891v1.25h2.5v0.82h-1.68v0.859h1.68v0.82h-2.5v1.25h2.891q0.352 0 0.605-0.234t0.254-0.586zM15.82 2.5q0.664 0 1.172 0.508t0.508 1.172v11.641q0 0.664-0.508 1.172t-1.172 0.508h-11.641q-0.664 0-1.172-0.508t-0.508-1.172v-11.641q0-0.664 0.508-1.172t1.172-0.508h11.641z"></path>
</svg>
