<!-- Generated by IcoMoon.io -->
<svg version="1.1" xmlns="http://www.w3.org/2000/svg" width="20" height="20" viewBox="0 0 20 20">
<title>keyboard</title>
<path d="M15.82 8.32v-1.641h-1.641v1.641h1.641zM15.82 10.82v-1.641h-1.641v1.641h1.641zM13.32 8.32v-1.641h-1.641v1.641h1.641zM13.32 10.82v-1.641h-1.641v1.641h1.641zM13.32 14.18v-1.68h-6.641v1.68h6.641zM5.82 8.32v-1.641h-1.641v1.641h1.641zM5.82 10.82v-1.641h-1.641v1.641h1.641zM6.68 9.18v1.641h1.641v-1.641h-1.641zM6.68 6.68v1.641h1.641v-1.641h-1.641zM9.18 9.18v1.641h1.641v-1.641h-1.641zM9.18 6.68v1.641h1.641v-1.641h-1.641zM16.68 4.18q0.664 0 1.152 0.488t0.488 1.152v8.359q0 0.664-0.488 1.152t-1.152 0.488h-13.359q-0.664 0-1.152-0.488t-0.488-1.152v-8.359q0-0.664 0.488-1.152t1.152-0.488h13.359z"></path>
</svg>
