<!-- Generated by IcoMoon.io -->
<svg version="1.1" xmlns="http://www.w3.org/2000/svg" width="20" height="20" viewBox="0 0 20 20">
<title>keyboard_hide</title>
<path d="M10 19.18l-3.32-3.359h6.641zM15.82 6.68v-1.68h-1.641v1.68h1.641zM15.82 9.18v-1.68h-1.641v1.68h1.641zM13.32 6.68v-1.68h-1.641v1.68h1.641zM13.32 9.18v-1.68h-1.641v1.68h1.641zM13.32 12.5v-1.68h-6.641v1.68h6.641zM5.82 6.68v-1.68h-1.641v1.68h1.641zM5.82 9.18v-1.68h-1.641v1.68h1.641zM6.68 7.5v1.68h1.641v-1.68h-1.641zM6.68 5v1.68h1.641v-1.68h-1.641zM9.18 7.5v1.68h1.641v-1.68h-1.641zM9.18 5v1.68h1.641v-1.68h-1.641zM16.68 2.5q0.664 0 1.152 0.508t0.488 1.172v8.32q0 0.664-0.488 1.172t-1.152 0.508h-13.359q-0.664 0-1.152-0.508t-0.488-1.172v-8.32q0-0.664 0.488-1.172t1.152-0.508h13.359z"></path>
</svg>
