<!-- Generated by IcoMoon.io -->
<svg version="1.1" xmlns="http://www.w3.org/2000/svg" width="20" height="20" viewBox="0 0 20 20">
<title>keyboard_control</title>
<path d="M10 8.32q0.664 0 1.172 0.508t0.508 1.172-0.508 1.172-1.172 0.508-1.172-0.508-0.508-1.172 0.508-1.172 1.172-0.508zM15 8.32q0.664 0 1.172 0.508t0.508 1.172-0.508 1.172-1.172 0.508-1.172-0.508-0.508-1.172 0.508-1.172 1.172-0.508zM5 8.32q0.664 0 1.172 0.508t0.508 1.172-0.508 1.172-1.172 0.508-1.172-0.508-0.508-1.172 0.508-1.172 1.172-0.508z"></path>
</svg>
