<!-- Generated by IcoMoon.io -->
<svg version="1.1" xmlns="http://www.w3.org/2000/svg" width="20" height="20" viewBox="0 0 20 20">
<title>language</title>
<path d="M13.633 11.68h2.813q0.234-1.094 0.234-1.68t-0.234-1.68h-2.813q0.117 0.82 0.117 1.68t-0.117 1.68zM12.148 16.289q0.977-0.313 2.031-1.191t1.602-1.777h-2.461q-0.391 1.563-1.172 2.969zM11.953 11.68q0.117-0.82 0.117-1.68t-0.117-1.68h-3.906q-0.117 0.82-0.117 1.68t0.117 1.68h3.906zM10 16.641q1.094-1.602 1.602-3.32h-3.203q0.508 1.719 1.602 3.32zM6.68 6.68q0.469-1.68 1.172-2.969-0.977 0.313-2.051 1.191t-1.582 1.777h2.461zM4.219 13.32q0.508 0.898 1.582 1.777t2.051 1.191q-0.781-1.406-1.172-2.969h-2.461zM3.555 11.68h2.813q-0.117-0.82-0.117-1.68t0.117-1.68h-2.813q-0.234 1.094-0.234 1.68t0.234 1.68zM10 3.359q-1.094 1.602-1.602 3.32h3.203q-0.508-1.719-1.602-3.32zM15.781 6.68q-0.547-0.898-1.602-1.777t-2.031-1.191q0.703 1.289 1.172 2.969h2.461zM10 1.68q3.438 0 5.879 2.441t2.441 5.879-2.441 5.879-5.879 2.441-5.879-2.441-2.441-5.879 2.441-5.879 5.879-2.441z"></path>
</svg>
