<!-- Generated by IcoMoon.io -->
<svg version="1.1" xmlns="http://www.w3.org/2000/svg" width="20" height="20" viewBox="0 0 20 20">
<title>laptop_mac</title>
<path d="M10 15.82q0.352 0 0.586-0.234t0.234-0.586-0.234-0.586-0.586-0.234-0.586 0.234-0.234 0.586 0.234 0.586 0.586 0.234zM3.32 4.18v9.141h13.359v-9.141h-13.359zM16.68 15h3.32q0 0.664-0.508 1.172t-1.172 0.508h-16.641q-0.664 0-1.172-0.508t-0.508-1.172h3.32q-0.664 0-1.152-0.508t-0.488-1.172v-9.141q0-0.664 0.488-1.172t1.152-0.508h13.359q0.664 0 1.152 0.508t0.488 1.172v9.141q0 0.664-0.488 1.172t-1.152 0.508z"></path>
</svg>
