<!-- Generated by IcoMoon.io -->
<svg version="1.1" xmlns="http://www.w3.org/2000/svg" width="20" height="20" viewBox="0 0 20 20">
<title>leak_remove</title>
<path d="M12.813 9.648q2.227-1.328 4.688-1.328v1.68q-1.836 0-3.477 0.859zM16.602 13.438l-1.328-1.328q1.055-0.43 2.227-0.43v1.641q-0.469 0-0.898 0.117zM11.68 2.5q0 2.461-1.328 4.688l-1.211-1.211q0.859-1.641 0.859-3.477h1.68zM2.5 3.555l1.055-1.055 13.945 13.945-1.055 1.055-2.383-2.383q-0.742 1.055-0.742 2.383h-1.641q0-0.82 0.352-1.855t0.859-1.699l-1.211-1.172q-1.68 2.070-1.68 4.727h-1.68q0-1.406 0.645-3.145t1.543-2.793l-2.070-2.070q-2.578 2.188-5.938 2.188v-1.68q1.133 0 2.52-0.488t2.246-1.191l-1.211-1.211q-1.602 1.211-3.555 1.211v-1.641q1.328 0 2.383-0.742zM8.32 2.5q0 1.172-0.43 2.227l-1.328-1.328q0.117-0.43 0.117-0.898h1.641z"></path>
</svg>
