<!-- Generated by IcoMoon.io -->
<svg version="1.1" xmlns="http://www.w3.org/2000/svg" width="20" height="20" viewBox="0 0 20 20">
<title>leak_add</title>
<path d="M11.68 17.5q0-2.422 1.699-4.121t4.121-1.699v1.641q-1.719 0-2.949 1.23t-1.23 2.949h-1.641zM15 17.5q0-1.016 0.742-1.758t1.758-0.742v2.5h-2.5zM8.32 17.5q0-3.789 2.695-6.484t6.484-2.695v1.68q-3.125 0-5.313 2.188t-2.188 5.313h-1.68zM8.32 2.5q0 2.422-1.699 4.121t-4.121 1.699v-1.641q1.719 0 2.949-1.23t1.23-2.949h1.641zM11.68 2.5q0 3.789-2.695 6.484t-6.484 2.695v-1.68q3.125 0 5.313-2.188t2.188-5.313h1.68zM5 2.5q0 1.016-0.742 1.758t-1.758 0.742v-2.5h2.5z"></path>
</svg>
