<!-- Generated by IcoMoon.io -->
<svg version="1.1" xmlns="http://www.w3.org/2000/svg" width="20" height="20" viewBox="0 0 20 20">
<title>library_books</title>
<path d="M15.82 5.82v-1.641h-8.32v1.641h8.32zM12.5 12.5v-1.68h-5v1.68h5zM15.82 9.18v-1.68h-8.32v1.68h8.32zM16.68 1.68q0.664 0 1.152 0.488t0.488 1.152v10q0 0.664-0.488 1.172t-1.152 0.508h-10q-0.664 0-1.172-0.508t-0.508-1.172v-10q0-0.664 0.508-1.152t1.172-0.488h10zM3.32 5v11.68h11.68v1.641h-11.68q-0.664 0-1.152-0.488t-0.488-1.152v-11.68h1.641z"></path>
</svg>
