<!-- Generated by IcoMoon.io -->
<svg version="1.1" xmlns="http://www.w3.org/2000/svg" width="20" height="20" viewBox="0 0 20 20">
<title>library_music</title>
<path d="M3.32 5v11.68h11.68v1.641h-11.68q-0.664 0-1.152-0.488t-0.488-1.152v-11.68h1.641zM15 5.82v-1.641h-3.32v4.57q-0.547-0.43-1.25-0.43-0.859 0-1.484 0.625t-0.625 1.484 0.625 1.465 1.484 0.605 1.465-0.605 0.605-1.465v-4.609h2.5zM16.68 1.68q0.664 0 1.152 0.488t0.488 1.152v10q0 0.664-0.488 1.172t-1.152 0.508h-10q-0.664 0-1.172-0.508t-0.508-1.172v-10q0-0.664 0.508-1.152t1.172-0.488h10z"></path>
</svg>
