<!-- Generated by IcoMoon.io -->
<svg version="1.1" xmlns="http://www.w3.org/2000/svg" width="20" height="20" viewBox="0 0 20 20">
<title>line_style</title>
<path d="M2.5 3.32h15v3.359h-15v-3.359zM10.82 10v-1.68h6.68v1.68h-6.68zM2.5 10v-1.68h6.68v1.68h-6.68zM15.82 16.68v-1.68h1.68v1.68h-1.68zM12.5 16.68v-1.68h1.68v1.68h-1.68zM9.18 16.68v-1.68h1.641v1.68h-1.641zM5.82 16.68v-1.68h1.68v1.68h-1.68zM2.5 16.68v-1.68h1.68v1.68h-1.68zM13.32 13.32v-1.641h4.18v1.641h-4.18zM7.93 13.32v-1.641h4.141v1.641h-4.141zM2.5 13.32v-1.641h4.18v1.641h-4.18z"></path>
</svg>
