<!-- Generated by IcoMoon.io -->
<svg version="1.1" xmlns="http://www.w3.org/2000/svg" width="20" height="20" viewBox="0 0 20 20">
<title>linkinsert_link</title>
<path d="M14.18 5.82q1.719 0 2.93 1.23t1.211 2.949-1.211 2.949-2.93 1.23h-3.359v-1.602h3.359q1.055 0 1.816-0.762t0.762-1.816-0.762-1.816-1.816-0.762h-3.359v-1.602h3.359zM6.68 10.82v-1.641h6.641v1.641h-6.641zM3.242 10q0 1.055 0.762 1.816t1.816 0.762h3.359v1.602h-3.359q-1.719 0-2.93-1.23t-1.211-2.949 1.211-2.949 2.93-1.23h3.359v1.602h-3.359q-1.055 0-1.816 0.762t-0.762 1.816z"></path>
</svg>
