<!-- Generated by IcoMoon.io -->
<svg version="1.1" xmlns="http://www.w3.org/2000/svg" width="20" height="20" viewBox="0 0 20 20">
<title>link_off</title>
<path d="M1.68 3.555l1.055-1.055 13.945 13.945-1.055 1.055-3.359-3.32h-1.445v-1.445l-1.875-1.914h-2.266v-1.641h0.586l-1.719-1.719q-0.977 0.117-1.641 0.84t-0.664 1.699q0 1.055 0.762 1.816t1.816 0.762h3.359v1.602h-3.359q-1.719 0-2.93-1.23t-1.211-2.949q0-1.172 0.742-2.305t1.836-1.563zM13.32 9.18v1.641h-0.156l-1.641-1.641h1.797zM14.18 5.82q1.719 0 2.93 1.23t1.211 2.949q0 2.539-2.266 3.711l-1.211-1.211q0.82-0.195 1.367-0.898t0.547-1.602q0-1.055-0.762-1.816t-1.816-0.762h-3.359v-1.602h3.359z"></path>
</svg>
