<!-- Generated by IcoMoon.io -->
<svg version="1.1" xmlns="http://www.w3.org/2000/svg" width="20" height="20" viewBox="0 0 20 20">
<title>linked_camera</title>
<path d="M13.32 5q0.703 0 1.191 0.488t0.488 1.191h1.094q0-1.133-0.82-1.953t-1.953-0.82v1.094zM10 15.82q1.719 0 2.949-1.211t1.23-2.93-1.23-2.949-2.949-1.23-2.949 1.23-1.23 2.949 1.23 2.93 2.949 1.211zM14.18 7.5h4.141v9.18q0 0.664-0.488 1.152t-1.152 0.488h-13.359q-0.664 0-1.152-0.488t-0.488-1.152v-10q0-0.664 0.488-1.172t1.152-0.508h2.656l1.523-1.68h5v2.5q0.703 0 1.191 0.488t0.488 1.191zM13.32 2.773v-1.094q2.070 0 3.535 1.465t1.465 3.535h-1.094q0-1.602-1.152-2.754t-2.754-1.152zM7.344 11.68q0-1.133 0.781-1.914t1.875-0.781 1.875 0.781 0.781 1.914-0.781 1.895-1.875 0.762-1.875-0.762-0.781-1.895z"></path>
</svg>
