<!-- Generated by IcoMoon.io -->
<svg version="1.1" xmlns="http://www.w3.org/2000/svg" width="20" height="20" viewBox="0 0 20 20">
<title>liquor</title>
<path d="M16.68 16.68v-1.68h-5.859v1.68h5.859zM10.82 8.711v1.289h5.859v-1.289l-0.82-0.273q-0.703-0.234-1.191-0.938t-0.488-1.445v-0.234h-0.859v0.234q0 1.797-1.68 2.383zM13.32 3.32v0.859h0.859v-0.859h-0.859zM17.188 7.109q1.133 0.391 1.133 1.602v7.969q0 0.664-0.488 1.152t-1.152 0.488h-5.859q-0.664 0-1.152-0.488t-0.488-1.152v-7.969q0-1.211 1.133-1.602l0.781-0.234q0.586-0.195 0.586-0.82v-3.555q0-0.352 0.234-0.586t0.586-0.234h2.5q0.352 0 0.586 0.234t0.234 0.586v3.555q0 0.547 0.586 0.781zM4.18 6.68v2.5h1.641v-2.5h-1.641zM2.5 11.68v-6.68h5v6.68q0 0.82-0.469 1.445t-1.211 0.898v2.656h1.68v1.641h-5v-1.641h1.68v-2.656q-0.742-0.273-1.211-0.898t-0.469-1.445z"></path>
</svg>
