<!-- Generated by IcoMoon.io -->
<svg version="1.1" xmlns="http://www.w3.org/2000/svg" width="20" height="20" viewBox="0 0 20 20">
<title>list_alt</title>
<path d="M5.82 12.5h1.68v1.68h-1.68v-1.68zM5.82 9.18h1.68v1.641h-1.68v-1.641zM5.82 5.82h1.68v1.68h-1.68v-1.68zM9.18 12.5h5v1.68h-5v-1.68zM9.18 9.18h5v1.641h-5v-1.641zM9.18 5.82h5v1.68h-5v-1.68zM16.758 2.5q0.273 0 0.508 0.215t0.234 0.527v13.516q0 0.273-0.234 0.508t-0.508 0.234h-13.516q-0.313 0-0.527-0.234t-0.215-0.508v-13.516q0-0.742 0.742-0.742h13.516zM15.82 4.18h-11.641v11.641h11.641v-11.641z"></path>
</svg>
