<!-- Generated by IcoMoon.io -->
<svg version="1.1" xmlns="http://www.w3.org/2000/svg" width="20" height="20" viewBox="0 0 20 20">
<title>live_help</title>
<path d="M12.539 8.555q0.781-0.781 0.781-1.875 0-1.367-0.977-2.363t-2.344-0.996-2.344 0.996-0.977 2.363h1.641q0-0.664 0.508-1.172t1.172-0.508 1.172 0.508 0.508 1.172-0.508 1.172l-1.016 1.055q-0.977 1.055-0.977 2.344v0.43h1.641q0-1.328 0.977-2.383zM10.82 15v-1.68h-1.641v1.68h1.641zM15.82 1.68q0.664 0 1.172 0.488t0.508 1.152v11.68q0 0.664-0.508 1.172t-1.172 0.508h-3.32l-2.5 2.5-2.5-2.5h-3.32q-0.703 0-1.191-0.488t-0.488-1.191v-11.68q0-0.703 0.488-1.172t1.191-0.469h11.641z"></path>
</svg>
