<!-- Generated by IcoMoon.io -->
<svg version="1.1" xmlns="http://www.w3.org/2000/svg" width="20" height="20" viewBox="0 0 20 20">
<title>local_attractionlocal_play</title>
<path d="M12.969 13.984l-0.898-3.398 2.734-2.266-3.516-0.195-1.289-3.281-1.289 3.281-3.555 0.195 2.773 2.266-0.898 3.398 2.969-1.914zM16.68 10q0 0.664 0.488 1.172t1.152 0.508v3.32q0 0.664-0.488 1.172t-1.152 0.508h-13.359q-0.664 0-1.152-0.508t-0.488-1.172v-3.32q0.703 0 1.172-0.488t0.469-1.191q0-0.664-0.488-1.172t-1.152-0.508v-3.32q0-0.664 0.488-1.172t1.152-0.508h13.359q0.664 0 1.152 0.508t0.488 1.172v3.32q-0.664 0-1.152 0.508t-0.488 1.172z"></path>
</svg>
