<!-- Generated by IcoMoon.io -->
<svg version="1.1" xmlns="http://www.w3.org/2000/svg" width="20" height="20" viewBox="0 0 20 20">
<title>local_moviestheaters</title>
<path d="M15 7.5v-1.68h-1.68v1.68h1.68zM15 10.82v-1.641h-1.68v1.641h1.68zM15 14.18v-1.68h-1.68v1.68h1.68zM6.68 7.5v-1.68h-1.68v1.68h1.68zM6.68 10.82v-1.641h-1.68v1.641h1.68zM6.68 14.18v-1.68h-1.68v1.68h1.68zM15 2.5h1.68v15h-1.68v-1.68h-1.68v1.68h-6.641v-1.68h-1.68v1.68h-1.68v-15h1.68v1.68h1.68v-1.68h6.641v1.68h1.68v-1.68z"></path>
</svg>
