<!-- Generated by IcoMoon.io -->
<svg version="1.1" xmlns="http://www.w3.org/2000/svg" width="20" height="20" viewBox="0 0 20 20">
<title>local_laundry_service</title>
<path d="M10 16.68q2.070 0 3.535-1.465t1.465-3.535-1.465-3.535-3.535-1.465-3.535 1.465-1.465 3.535 1.465 3.535 3.535 1.465zM5.82 3.32q-0.352 0-0.586 0.254t-0.234 0.605 0.234 0.586 0.586 0.234 0.605-0.234 0.254-0.586-0.254-0.605-0.605-0.254zM8.32 3.32q-0.352 0-0.586 0.254t-0.234 0.605 0.234 0.586 0.586 0.234 0.605-0.234 0.254-0.586-0.254-0.605-0.605-0.254zM15 1.68q0.703 0 1.191 0.469t0.488 1.172v13.359q0 0.703-0.488 1.172t-1.191 0.469h-10q-0.703 0-1.191-0.469t-0.488-1.172v-13.359q0-0.703 0.488-1.172t1.191-0.469h10zM7.656 14.023l4.688-4.727q0.977 0.977 0.977 2.383 0 1.367-0.977 2.344t-2.344 0.977-2.344-0.977z"></path>
</svg>
