<!-- Generated by IcoMoon.io -->
<svg version="1.1" xmlns="http://www.w3.org/2000/svg" width="20" height="20" viewBox="0 0 20 20">
<title>location_off</title>
<path d="M9.766 9.57q4.258 4.219 6.914 6.875l-1.055 1.055-2.813-2.773q-0.625 0.938-1.328 1.836t-1.094 1.328l-0.391 0.43q-0.234-0.273-0.625-0.723t-1.406-1.797-1.777-2.617-1.387-2.871-0.625-2.813q0-0.43 0.156-1.289l-2.656-2.656 1.055-1.055 6.953 6.953zM10 5.43q-0.898 0-1.523 0.703l-2.695-2.656q0.703-0.742 1.953-1.27t2.266-0.527q2.422 0 4.121 1.699t1.699 4.121q0 1.875-1.406 4.57l-3.008-3.047q0.664-0.586 0.664-1.523 0-0.859-0.605-1.465t-1.465-0.605z"></path>
</svg>
