<!-- Generated by IcoMoon.io -->
<svg version="1.1" xmlns="http://www.w3.org/2000/svg" width="20" height="20" viewBox="0 0 20 20">
<title>local_shipping</title>
<path d="M15 15.43q0.547 0 0.898-0.371t0.352-0.879-0.352-0.879-0.898-0.371-0.898 0.371-0.352 0.879 0.352 0.879 0.898 0.371zM16.25 7.93h-2.070v2.070h3.711zM5 15.43q0.547 0 0.898-0.371t0.352-0.879-0.352-0.879-0.898-0.371-0.898 0.371-0.352 0.879 0.352 0.879 0.898 0.371zM16.68 6.68l2.5 3.32v4.18h-1.68q0 1.016-0.742 1.758t-1.758 0.742-1.758-0.742-0.742-1.758h-5q0 1.016-0.742 1.758t-1.758 0.742-1.758-0.742-0.742-1.758h-1.68v-9.18q0-0.664 0.508-1.172t1.172-0.508h11.68v3.359h2.5z"></path>
</svg>
