<!-- Generated by IcoMoon.io -->
<svg version="1.1" xmlns="http://www.w3.org/2000/svg" width="20" height="20" viewBox="0 0 20 20">
<title>local_atm</title>
<path d="M16.68 15v-10h-13.359v10h13.359zM16.68 3.32q0.703 0 1.172 0.488t0.469 1.191v10q0 0.703-0.469 1.191t-1.172 0.488h-13.359q-0.703 0-1.172-0.488t-0.469-1.191v-10q0-0.703 0.469-1.191t1.172-0.488h13.359zM9.18 14.18v-0.859h-1.68v-1.641h3.32v-0.859h-2.5q-0.352 0-0.586-0.234t-0.234-0.586v-2.5q0-0.352 0.234-0.586t0.586-0.234h0.859v-0.859h1.641v0.859h1.68v1.641h-3.32v0.859h2.5q0.352 0 0.586 0.234t0.234 0.586v2.5q0 0.352-0.234 0.586t-0.586 0.234h-0.859v0.859h-1.641z"></path>
</svg>
