<!-- Generated by IcoMoon.io -->
<svg version="1.1" xmlns="http://www.w3.org/2000/svg" width="20" height="20" viewBox="0 0 20 20">
<title>local_florist</title>
<path d="M10 4.57q-0.859 0-1.465 0.625t-0.605 1.484 0.605 1.465 1.465 0.605 1.465-0.605 0.605-1.465-0.605-1.484-1.465-0.625zM4.648 8.555q0-1.289 1.211-1.875-1.211-0.586-1.211-1.875 0-0.859 0.625-1.484t1.484-0.625q0.586 0 1.172 0.391v-0.156q0-0.859 0.605-1.484t1.465-0.625 1.465 0.625 0.605 1.484v0.156q0.625-0.391 1.172-0.391 0.859 0 1.484 0.625t0.625 1.484q0 1.289-1.211 1.875 1.211 0.586 1.211 1.875 0 0.859-0.625 1.465t-1.484 0.605q-0.664 0-1.172-0.352v0.156q0 0.859-0.605 1.465t-1.465 0.605-1.465-0.605-0.605-1.465v-0.156q-0.547 0.352-1.172 0.352-0.859 0-1.484-0.605t-0.625-1.465zM10 18.32q-3.125 0-5.313-2.207t-2.188-5.293q3.125 0 5.313 2.207t2.188 5.293zM10 18.32q0-3.086 2.188-5.293t5.313-2.207q0 3.086-2.188 5.293t-5.313 2.207z"></path>
</svg>
