<!-- Generated by IcoMoon.io -->
<svg version="1.1" xmlns="http://www.w3.org/2000/svg" width="20" height="20" viewBox="0 0 20 20">
<title>local_mall</title>
<path d="M10 10.82q1.719 0 2.949-1.211t1.23-2.93h-1.68q0 1.016-0.742 1.758t-1.758 0.742-1.758-0.742-0.742-1.758h-1.68q0 1.719 1.23 2.93t2.949 1.211zM10 2.5q-1.016 0-1.758 0.742t-0.742 1.758h5q0-1.016-0.742-1.758t-1.758-0.742zM15.82 5q0.664 0 1.172 0.508t0.508 1.172v10q0 0.664-0.508 1.152t-1.172 0.488h-11.641q-0.664 0-1.172-0.488t-0.508-1.152v-10q0-0.664 0.508-1.172t1.172-0.508h1.641q0-1.719 1.23-2.949t2.949-1.23 2.949 1.23 1.23 2.949h1.641z"></path>
</svg>
