<!-- Generated by IcoMoon.io -->
<svg version="1.1" xmlns="http://www.w3.org/2000/svg" width="20" height="20" viewBox="0 0 20 20">
<title>location_history</title>
<path d="M10 15.234q1.367 0 2.813-0.781t2.188-1.875q-0.039-1.094-1.758-1.836t-3.242-0.742-3.242 0.723-1.758 1.855q0.742 1.094 2.188 1.875t2.813 0.781zM10 3.32q-1.016 0-1.758 0.742t-0.742 1.758 0.742 1.758 1.758 0.742 1.758-0.742 0.742-1.758-0.742-1.758-1.758-0.742zM10 1.68q3.125 0 5.313 2.207t2.188 5.293q0 2.578-1.582 4.57t-4.004 2.656l-1.914 1.914-1.914-1.914q-2.422-0.664-4.004-2.656t-1.582-4.57q0-3.086 2.188-5.293t5.313-2.207z"></path>
</svg>
