<!-- Generated by IcoMoon.io -->
<svg version="1.1" xmlns="http://www.w3.org/2000/svg" width="20" height="20" viewBox="0 0 20 20">
<title>lock_open</title>
<path d="M15 16.68v-8.359h-10v8.359h10zM15 6.68q0.664 0 1.172 0.488t0.508 1.152v8.359q0 0.664-0.508 1.152t-1.172 0.488h-10q-0.664 0-1.172-0.488t-0.508-1.152v-8.359q0-0.664 0.508-1.152t1.172-0.488h7.578v-1.68q0-1.055-0.762-1.816t-1.816-0.762-1.816 0.762-0.762 1.816h-1.602q0-1.719 1.23-2.949t2.949-1.23 2.949 1.23 1.23 2.949v1.68h0.82zM10 14.18q-0.664 0-1.172-0.508t-0.508-1.172 0.508-1.172 1.172-0.508 1.172 0.508 0.508 1.172-0.508 1.172-1.172 0.508z"></path>
</svg>
