<!-- Generated by IcoMoon.io -->
<svg version="1.1" xmlns="http://www.w3.org/2000/svg" width="20" height="20" viewBox="0 0 20 20">
<title>looks_6</title>
<path d="M12.5 7.5v-1.68h-3.32q-0.703 0-1.191 0.488t-0.488 1.191v5q0 0.703 0.488 1.191t1.191 0.488h1.641q0.703 0 1.191-0.488t0.488-1.191v-1.68q0-0.703-0.488-1.172t-1.191-0.469h-1.641v-1.68h3.32zM15.82 2.5q0.664 0 1.172 0.508t0.508 1.172v11.641q0 0.664-0.508 1.172t-1.172 0.508h-11.641q-0.664 0-1.172-0.508t-0.508-1.172v-11.641q0-0.664 0.508-1.172t1.172-0.508h11.641zM9.18 12.5v-1.68h1.641v1.68h-1.641z"></path>
</svg>
