<!-- Generated by IcoMoon.io -->
<svg version="1.1" xmlns="http://www.w3.org/2000/svg" width="20" height="20" viewBox="0 0 20 20">
<title>looks_3</title>
<path d="M12.5 8.75v-1.25q0-0.703-0.469-1.191t-1.172-0.488h-3.359v1.68h3.359v1.68h-1.68v1.641h1.68v1.68h-3.359v1.68h3.359q0.703 0 1.172-0.488t0.469-1.191v-1.25q0-0.547-0.352-0.898t-0.898-0.352q0.547 0 0.898-0.352t0.352-0.898zM15.859 2.5q0.664 0 1.152 0.508t0.488 1.172v11.641q0 0.664-0.488 1.172t-1.152 0.508h-11.68q-0.664 0-1.172-0.508t-0.508-1.172v-11.641q0-0.664 0.508-1.172t1.172-0.508h11.68z"></path>
</svg>
