<!-- Generated by IcoMoon.io -->
<svg version="1.1" xmlns="http://www.w3.org/2000/svg" width="20" height="20" viewBox="0 0 20 20">
<title>loopsync</title>
<path d="M10 15v-2.5l3.32 3.32-3.32 3.359v-2.5q-2.734 0-4.707-1.973t-1.973-4.707q0-1.953 1.055-3.555l1.211 1.211q-0.586 1.055-0.586 2.344 0 2.070 1.465 3.535t3.535 1.465zM10 3.32q2.734 0 4.707 1.973t1.973 4.707q0 1.953-1.055 3.555l-1.211-1.211q0.586-1.055 0.586-2.344 0-2.070-1.465-3.535t-3.535-1.465v2.5l-3.32-3.32 3.32-3.359v2.5z"></path>
</svg>
