<!-- Generated by IcoMoon.io -->
<svg version="1.1" xmlns="http://www.w3.org/2000/svg" width="20" height="20" viewBox="0 0 20 20">
<title>loupe</title>
<path d="M10 16.68q2.734 0 4.707-1.973t1.973-4.707-1.973-4.707-4.707-1.973-4.707 1.973-1.973 4.707 1.973 4.707 4.707 1.973zM10 1.68q3.438 0 5.879 2.441t2.441 5.879v6.68q0 0.664-0.488 1.152t-1.152 0.488h-6.68q-3.438 0-5.879-2.441t-2.441-5.879 2.441-5.879 5.879-2.441zM10.82 5.82v3.359h3.359v1.641h-3.359v3.359h-1.641v-3.359h-3.359v-1.641h3.359v-3.359h1.641z"></path>
</svg>
