<!-- Generated by IcoMoon.io -->
<svg version="1.1" xmlns="http://www.w3.org/2000/svg" width="20" height="20" viewBox="0 0 20 20">
<title>loyalty</title>
<path d="M14.375 12.734q0.625-0.625 0.625-1.484t-0.605-1.465-1.465-0.605q-0.898 0-1.484 0.586l-0.625 0.625-0.586-0.625q-0.586-0.586-1.484-0.586-0.859 0-1.465 0.605t-0.605 1.465q0 0.898 0.586 1.484l3.555 3.555zM4.57 5.82q0.508 0 0.879-0.371t0.371-0.879-0.371-0.879-0.879-0.371-0.879 0.371-0.371 0.879 0.371 0.879 0.879 0.371zM17.852 9.648q0.469 0.469 0.469 1.172t-0.469 1.172l-5.859 5.859q-0.469 0.469-1.172 0.469t-1.172-0.469l-7.5-7.5q-0.469-0.469-0.469-1.172v-5.859q0-0.664 0.488-1.152t1.152-0.488h5.859q0.703 0 1.172 0.469z"></path>
</svg>
