<!-- Generated by IcoMoon.io -->
<svg version="1.1" xmlns="http://www.w3.org/2000/svg" width="20" height="20" viewBox="0 0 20 20">
<title>lunch_dining</title>
<path d="M1.68 13.32h16.641v1.68q0 0.664-0.488 1.172t-1.152 0.508h-13.359q-0.664 0-1.152-0.508t-0.488-1.172v-1.68zM4.453 11.25q-0.43 0-0.938 0.313-0.859 0.508-1.836 0.508v-1.641q0.43 0 0.938-0.313 0.898-0.547 1.836-0.547 0.898 0 1.797 0.547 0.508 0.313 0.977 0.313 0.43 0 0.938-0.313 0.898-0.547 1.836-0.547 0.898 0 1.797 0.547 0.508 0.313 0.977 0.313 0.43 0 0.938-0.313 0.898-0.547 1.836-0.547 0.898 0 1.797 0.547l0.977 0.313v1.641q-0.938 0-1.797-0.508-0.508-0.313-0.977-0.313-0.43 0-0.938 0.313-0.859 0.508-1.836 0.508-0.938 0-1.797-0.508-0.508-0.313-0.977-0.313-0.43 0-0.938 0.313-0.859 0.508-1.836 0.508-0.938 0-1.797-0.508-0.508-0.313-0.977-0.313zM18.32 8.32h-16.641q-0.195-2.031 2.266-3.516t6.055-1.484 6.055 1.484 2.266 3.516z"></path>
</svg>
