<!-- Generated by IcoMoon.io -->
<svg version="1.1" xmlns="http://www.w3.org/2000/svg" width="20" height="20" viewBox="0 0 20 20">
<title>mark_as_unread</title>
<path d="M16.68 9.727v-1.406l-5.43 2.773-5.43-2.773v1.406l5.43 2.773zM16.68 6.68q0.664 0 1.152 0.488t0.488 1.152v7.5q0 0.664-0.488 1.172t-1.152 0.508h-10.859q-0.664 0-1.152-0.508t-0.488-1.172v-7.5q0-0.664 0.488-1.152t1.152-0.488h10.859zM15.703 5.82h-2.188l-4.766-2.5-5.43 2.852v8.008q-0.664 0-1.152-0.508t-0.488-1.172v-6.523q0-0.82 0.664-1.133l6.406-3.164 6.289 3.164q0.586 0.352 0.664 0.977z"></path>
</svg>
