<!-- Generated by IcoMoon.io -->
<svg version="1.1" xmlns="http://www.w3.org/2000/svg" width="20" height="20" viewBox="0 0 20 20">
<title>memory</title>
<path d="M14.18 14.18v-8.359h-8.359v8.359h8.359zM17.5 9.18h-1.68v1.641h1.68v1.68h-1.68v1.68q0 0.664-0.488 1.152t-1.152 0.488h-1.68v1.68h-1.68v-1.68h-1.641v1.68h-1.68v-1.68h-1.68q-0.664 0-1.152-0.488t-0.488-1.152v-1.68h-1.68v-1.68h1.68v-1.641h-1.68v-1.68h1.68v-1.68q0-0.664 0.488-1.152t1.152-0.488h1.68v-1.68h1.68v1.68h1.641v-1.68h1.68v1.68h1.68q0.664 0 1.152 0.488t0.488 1.152v1.68h1.68v1.68zM10.82 10.82v-1.641h-1.641v1.641h1.641zM12.5 7.5v5h-5v-5h5z"></path>
</svg>
