<!-- Generated by IcoMoon.io -->
<svg version="1.1" xmlns="http://www.w3.org/2000/svg" width="20" height="20" viewBox="0 0 20 20">
<title>mic_none</title>
<path d="M14.414 9.18h1.406q0 2.109-1.465 3.691t-3.535 1.895v2.734h-1.641v-2.734q-2.070-0.313-3.535-1.895t-1.465-3.691h1.406q0 1.836 1.309 3.027t3.105 1.191 3.105-1.191 1.309-3.027zM8.984 4.102v5.156q0 0.391 0.293 0.684t0.723 0.293q0.391 0 0.684-0.273t0.293-0.703l0.039-5.156q0-0.43-0.313-0.723t-0.703-0.293-0.703 0.293-0.313 0.723zM10 11.68q-1.016 0-1.758-0.742t-0.742-1.758v-5q0-1.016 0.742-1.758t1.758-0.742 1.758 0.742 0.742 1.758v5q0 1.016-0.742 1.758t-1.758 0.742z"></path>
</svg>
