<!-- Generated by IcoMoon.io -->
<svg version="1.1" xmlns="http://www.w3.org/2000/svg" width="20" height="20" viewBox="0 0 20 20">
<title>mic_off</title>
<path d="M3.555 2.5l13.945 13.945-1.055 1.055-3.477-3.477q-0.859 0.547-2.148 0.742v2.734h-1.641v-2.734q-2.070-0.313-3.535-1.895t-1.465-3.691h1.406q0 1.836 1.309 3.027t3.105 1.191q0.977 0 1.914-0.43l-1.367-1.367q-0.313 0.078-0.547 0.078-1.016 0-1.758-0.742t-0.742-1.758v-0.625l-5-5zM12.5 9.297l-5-4.961v-0.156q0-1.016 0.742-1.758t1.758-0.742 1.758 0.742 0.742 1.758v5.117zM15.82 9.18q0 1.445-0.742 2.734l-1.016-1.055q0.352-0.781 0.352-1.68h1.406z"></path>
</svg>
