<!-- Generated by IcoMoon.io -->
<svg version="1.1" xmlns="http://www.w3.org/2000/svg" width="20" height="20" viewBox="0 0 20 20">
<title>money_off</title>
<path d="M4.453 3.398l12.148 12.188-1.055 1.055-1.836-1.875q-0.742 0.664-2.031 0.938v1.797h-2.5v-1.797q-1.289-0.273-2.148-1.094t-0.938-2.109h1.836q0.156 1.758 2.5 1.758 1.445 0 1.992-0.781l-2.93-2.891q-3.242-0.977-3.242-3.281l-2.852-2.852zM10.43 5.742q-0.742 0-1.289 0.234l-1.211-1.211q0.547-0.273 1.25-0.469v-1.797h2.5v1.836q1.25 0.313 1.934 1.172t0.723 1.992h-1.836q-0.078-1.758-2.070-1.758z"></path>
</svg>
