<!-- Generated by IcoMoon.io -->
<svg version="1.1" xmlns="http://www.w3.org/2000/svg" width="20" height="20" viewBox="0 0 20 20">
<title>monetization_on</title>
<path d="M11.172 15.078q2.617-0.508 2.617-2.617 0-2.383-3.516-3.281-2.188-0.547-2.188-1.602 0-0.586 0.527-0.977t1.465-0.391q1.758 0 1.836 1.563h1.641q-0.078-2.227-2.383-2.813v-1.641h-2.227v1.641q-1.133 0.234-1.855 0.918t-0.723 1.738q0 2.188 3.477 3.047 2.227 0.508 2.227 1.797 0 0.508-0.449 0.918t-1.543 0.41q-2.070 0-2.227-1.563h-1.641q0.117 2.227 2.734 2.813v1.641h2.227v-1.602zM10 1.68q3.438 0 5.879 2.441t2.441 5.879-2.441 5.879-5.879 2.441-5.879-2.441-2.441-5.879 2.441-5.879 5.879-2.441z"></path>
</svg>
