<!-- Generated by IcoMoon.io -->
<svg version="1.1" xmlns="http://www.w3.org/2000/svg" width="20" height="20" viewBox="0 0 20 20">
<title>money</title>
<path d="M3.32 15h13.359v-10h-13.359v10zM1.68 3.32h16.641v13.359h-16.641v-13.359zM14.18 11.68v-3.359h-0.859v3.359h0.859zM15 6.68q0.352 0 0.586 0.234t0.234 0.586v5q0 0.352-0.234 0.586t-0.586 0.234h-2.5q-0.352 0-0.586-0.234t-0.234-0.586v-5q0-0.352 0.234-0.586t0.586-0.234h2.5zM9.18 11.68v-3.359h-0.859v3.359h0.859zM10 6.68q0.352 0 0.586 0.234t0.234 0.586v5q0 0.352-0.234 0.586t-0.586 0.234h-2.5q-0.352 0-0.586-0.234t-0.234-0.586v-5q0-0.352 0.234-0.586t0.586-0.234h2.5zM4.18 6.68h1.641v6.641h-1.641v-6.641z"></path>
</svg>
