<!-- Generated by IcoMoon.io -->
<svg version="1.1" xmlns="http://www.w3.org/2000/svg" width="20" height="20" viewBox="0 0 20 20">
<title>monochrome_photos</title>
<path d="M16.68 15.82v-10h-6.68v0.859q1.758 0 2.969 1.191t1.211 2.949-1.211 2.969-2.969 1.211v-1.484q-1.094 0-1.875-0.781t-0.781-1.914 0.781-1.895 1.875-0.762v5.352q1.094 0 1.875-0.781t0.781-1.914-0.781-1.895-1.875-0.762v-1.484q-1.758 0-2.969 1.191t-1.211 2.949 1.211 2.969 2.969 1.211v0.82h6.68zM16.68 4.18q0.664 0 1.152 0.488t0.488 1.152v10q0 0.664-0.488 1.172t-1.152 0.508h-13.359q-0.664 0-1.152-0.508t-0.488-1.172v-10q0-0.664 0.488-1.152t1.152-0.488h2.695l1.484-1.68h5l1.484 1.68h2.695z"></path>
</svg>
