<!-- Generated by IcoMoon.io -->
<svg version="1.1" xmlns="http://www.w3.org/2000/svg" width="20" height="20" viewBox="0 0 20 20">
<title>more</title>
<path d="M15.82 11.25q0.508 0 0.879-0.352t0.371-0.898-0.371-0.898-0.879-0.352-0.879 0.352-0.371 0.898 0.371 0.898 0.879 0.352zM11.68 11.25q0.508 0 0.879-0.352t0.371-0.898-0.371-0.898-0.879-0.352-0.879 0.352-0.371 0.898 0.371 0.898 0.879 0.352zM7.5 11.25q0.547 0 0.898-0.352t0.352-0.898-0.352-0.898-0.898-0.352-0.898 0.352-0.352 0.898 0.352 0.898 0.898 0.352zM18.32 2.5q0.664 0 1.172 0.508t0.508 1.172v11.641q0 0.664-0.508 1.172t-1.172 0.508h-12.422q-0.859 0-1.406-0.742l-4.492-6.758 4.492-6.758q0.547-0.742 1.328-0.742h12.5z"></path>
</svg>
