<!-- Generated by IcoMoon.io -->
<svg version="1.1" xmlns="http://www.w3.org/2000/svg" width="20" height="20" viewBox="0 0 20 20">
<title>motorcycle</title>
<path d="M14.57 14.18q0.859 0 1.465-0.625t0.605-1.484-0.605-1.465-1.465-0.605-1.484 0.605-0.625 1.465 0.625 1.484 1.484 0.625zM7.383 12.734l-2.383-0.039v-1.25h2.383q-0.469-1.445-1.992-1.445-0.859 0-1.465 0.605t-0.605 1.465 0.605 1.484 1.465 0.625q0.625 0 1.23-0.43t0.762-1.016zM14.57 8.32q1.563 0 2.656 1.094t1.094 2.656-1.094 2.656-2.656 1.094-2.656-1.094-1.094-2.656q0-0.078 0.020-0.195t0.020-0.195l-1.758 1.055q-0.234 1.289-1.309 2.188t-2.363 0.898q-1.563 0-2.656-1.094t-1.094-2.656 1.074-2.656 2.637-1.094h6.758l-1.641-1.641h-3.008v-1.68h3.672l3.359 3.359q0-0.039 0.039-0.039z"></path>
</svg>
