<!-- Generated by IcoMoon.io -->
<svg version="1.1" xmlns="http://www.w3.org/2000/svg" width="20" height="20" viewBox="0 0 20 20">
<title>movie_filter</title>
<path d="M14.102 9.961l1.719-0.781-1.719-0.781-0.781-1.719-0.781 1.719-1.719 0.781 1.719 0.781 0.781 1.719zM9.375 12.695l2.305-1.016-2.305-1.055-1.055-2.305-1.016 2.305-2.305 1.055 2.305 1.016 1.016 2.305zM15 3.32h3.32v11.68q0 0.664-0.488 1.172t-1.152 0.508h-13.359q-0.664 0-1.152-0.508t-0.488-1.172v-10q0-0.664 0.488-1.172t1.152-0.508h0.859l1.641 2.5h2.5l-1.641-2.5h1.641l1.68 2.5h2.5l-1.68-2.5h1.68l1.68 2.5h2.5z"></path>
</svg>
