<!-- Generated by IcoMoon.io -->
<svg version="1.1" xmlns="http://www.w3.org/2000/svg" width="20" height="20" viewBox="0 0 20 20">
<title>mp14</title>
<path d="M12.93 11.68h1.25v1.25h-1.25v-1.25zM15.43 8.32v-1.25h-0.859v-2.5h-1.25v2.5h-1.25v-2.5h-1.25v3.75h2.5v1.25h1.25v-1.25h0.859zM8.32 7.5q0.352 0 0.605-0.234t0.254-0.586v-1.25q0-0.352-0.254-0.605t-0.605-0.254h-2.891v1.25h2.5v0.859h-1.68q-0.352 0-0.586 0.234t-0.234 0.586v2.070h3.75v-1.25h-2.5v-0.82h1.641zM12.93 15.43v-1.25h1.641q0.352 0 0.605-0.254t0.254-0.605v-2.070q0-0.352-0.254-0.586t-0.605-0.234h-2.891v5h1.25zM10 15.43v-4.18q0-0.352-0.234-0.586t-0.586-0.234h-3.75q-0.352 0-0.605 0.234t-0.254 0.586v4.18h1.25v-3.75h0.859v2.5h1.25v-2.5h0.82v3.75h1.25zM15.82 2.5q0.664 0 1.172 0.508t0.508 1.172v11.641q0 0.664-0.508 1.172t-1.172 0.508h-11.641q-0.664 0-1.172-0.508t-0.508-1.172v-11.641q0-0.664 0.508-1.172t1.172-0.508h11.641z"></path>
</svg>
