<!-- Generated by IcoMoon.io -->
<svg version="1.1" xmlns="http://www.w3.org/2000/svg" width="20" height="20" viewBox="0 0 20 20">
<title>mp23</title>
<path d="M12.93 10v-1.25h1.25v1.25h-1.25zM12.93 12.5v-1.25h1.641q0.352 0 0.605-0.234t0.254-0.586v-2.109q0-0.352-0.254-0.586t-0.605-0.234h-2.891v5h1.25zM5.43 7.5q-0.352 0-0.605 0.234t-0.254 0.586v4.18h1.25v-3.75h0.859v2.5h1.25v-2.5h0.82v3.75h1.25v-4.18q0-0.352-0.234-0.586t-0.586-0.234h-3.75zM15.82 2.5q0.664 0 1.172 0.508t0.508 1.172v11.641q0 0.664-0.508 1.172t-1.172 0.508h-11.641q-0.664 0-1.172-0.508t-0.508-1.172v-11.641q0-0.664 0.508-1.172t1.172-0.508h11.641z"></path>
</svg>
