<!-- Generated by IcoMoon.io -->
<svg version="1.1" xmlns="http://www.w3.org/2000/svg" width="20" height="20" viewBox="0 0 20 20">
<title>music_video</title>
<path d="M6.68 12.5q0-1.016 0.742-1.758t1.758-0.742q0.273 0 0.82 0.156v-5.156h4.18v1.68h-2.5v5.859q0 1.016-0.742 1.738t-1.758 0.723-1.758-0.742-0.742-1.758zM17.5 15.82v-11.641h-15v11.641h15zM17.5 2.5q0.664 0 1.172 0.508t0.508 1.172v11.641q0 0.664-0.508 1.172t-1.172 0.508h-15q-0.664 0-1.172-0.508t-0.508-1.172v-11.641q0-0.664 0.508-1.172t1.172-0.508h15z"></path>
</svg>
