<!-- Generated by IcoMoon.io -->
<svg version="1.1" xmlns="http://www.w3.org/2000/svg" width="20" height="20" viewBox="0 0 20 20">
<title>nature_people</title>
<path d="M3.75 9.18q-0.547 0-0.898-0.371t-0.352-0.879 0.352-0.879 0.898-0.371 0.898 0.371 0.352 0.879-0.352 0.879-0.898 0.371zM18.477 7.656q0 2.148-1.504 3.828t-3.652 1.953v3.242h2.5v1.641h-13.32v-4.141h-0.82v-3.359q0-0.352 0.234-0.586t0.586-0.234h2.5q0.352 0 0.586 0.234t0.234 0.586v3.359h-0.82v2.5h6.68v-3.281q-2.031-0.313-3.457-1.992t-1.426-3.75q0-2.422 1.719-4.141t4.141-1.719 4.121 1.719 1.699 4.141z"></path>
</svg>
