<!-- Generated by IcoMoon.io -->
<svg version="1.1" xmlns="http://www.w3.org/2000/svg" width="20" height="20" viewBox="0 0 20 20">
<title>network_locked</title>
<path d="M17.5 13.32v-1.25q0-0.508-0.352-0.879t-0.898-0.371-0.898 0.371-0.352 0.879v1.25h2.5zM18.32 13.32q0.352 0 0.605 0.254t0.254 0.605v3.32q0 0.352-0.254 0.586t-0.605 0.234h-4.141q-0.352 0-0.605-0.234t-0.254-0.586v-3.32q0-0.352 0.254-0.605t0.605-0.254v-1.25q0-0.859 0.605-1.465t1.465-0.605 1.465 0.605 0.605 1.465v1.25zM16.25 8.32q-1.563 0-2.656 1.094t-1.094 2.656v0.234q-0.82 0.742-0.82 1.875v2.5h-10.859l15.859-15.859v7.539q-0.078 0-0.215-0.020t-0.215-0.020z"></path>
</svg>
