<!-- Generated by IcoMoon.io -->
<svg version="1.1" xmlns="http://www.w3.org/2000/svg" width="20" height="20" viewBox="0 0 20 20">
<title>network_check</title>
<path d="M4.18 10.82q2.5-2.5 6.094-2.383l-1.094 2.383q-0.82 0.117-1.797 0.605t-1.563 1.074zM14.18 12.5q-0.43-0.43-1.016-0.82l0.469-2.422q1.25 0.625 2.188 1.563zM17.5 9.18q-1.523-1.523-3.438-2.305l0.43-2.344q1.133 0.43 2.5 1.289t2.188 1.68zM0.82 7.5q2.305-2.305 5.332-3.223t6.113-0.371l-0.977 2.227q-2.383-0.313-4.707 0.488t-4.082 2.559zM13.242 4.18q0.43 0 0.43 0.391l-2.031 10.742v0.039q-0.117 0.547-0.586 0.938t-1.055 0.391q-0.703 0-1.191-0.488t-0.488-1.191q0-0.43 0.195-0.82l4.336-9.688q0.117-0.313 0.391-0.313z"></path>
</svg>
