<!-- Generated by IcoMoon.io -->
<svg version="1.1" xmlns="http://www.w3.org/2000/svg" width="20" height="20" viewBox="0 0 20 20">
<title>next_week</title>
<path d="M9.18 15.43l3.32-3.359-3.32-3.32-0.859 0.82 2.5 2.5-2.5 2.5zM8.32 4.18v1.641h3.359v-1.641h-3.359zM11.68 2.5q0.664 0 1.152 0.488t0.488 1.191v1.641h3.359q0.664 0 1.152 0.508t0.488 1.172v9.18q0 0.664-0.488 1.152t-1.152 0.488h-13.359q-0.664 0-1.152-0.488t-0.488-1.152v-9.18q0-0.664 0.488-1.172t1.152-0.508h3.359v-1.641q0-0.664 0.488-1.172t1.152-0.508h3.359z"></path>
</svg>
