<!-- Generated by IcoMoon.io -->
<svg version="1.1" xmlns="http://www.w3.org/2000/svg" width="20" height="20" viewBox="0 0 20 20">
<title>nfc</title>
<path d="M15 5v10h-10v-10h3.32v1.68h-1.641v6.641h6.641v-6.641h-2.5v1.875q0.859 0.469 0.859 1.445 0 0.664-0.508 1.172t-1.172 0.508-1.172-0.508-0.508-1.172q0-0.977 0.859-1.445v-1.875q0-0.664 0.488-1.172t1.152-0.508h4.18zM16.68 16.68v-13.359h-13.359v13.359h13.359zM16.68 1.68q0.664 0 1.152 0.488t0.488 1.152v13.359q0 0.664-0.488 1.152t-1.152 0.488h-13.359q-0.664 0-1.152-0.488t-0.488-1.152v-13.359q0-0.664 0.488-1.152t1.152-0.488h13.359z"></path>
</svg>
