<!-- Generated by IcoMoon.io -->
<svg version="1.1" xmlns="http://www.w3.org/2000/svg" width="20" height="20" viewBox="0 0 20 20">
<title>nights_stay</title>
<path d="M5.82 13.32q0.664 0 1.172 0.508t0.508 1.172-0.508 1.172-1.172 0.508h-2.5q-1.016 0-1.758-0.742t-0.742-1.758 0.742-1.758 1.758-0.742q1.758 0 2.344 1.641h0.156zM9.258 10.078q1.289 2.5 3.574 3.594t4.121 0.898q-1.133 1.758-2.969 2.773t-3.984 1.016q-1.328 0-2.617-0.43 1.797-1.016 1.797-2.93 0-1.055-0.703-1.973t-1.719-1.23q-1.289-1.797-3.438-1.797-0.898 0-1.641 0.352 0-0.039-0.020-0.156t-0.020-0.195q0-3.359 2.344-5.781t5.703-2.539q-0.586 0.898-0.977 1.953t-0.371 2.891 0.918 3.555z"></path>
</svg>
