<!-- Generated by IcoMoon.io -->
<svg version="1.1" xmlns="http://www.w3.org/2000/svg" width="20" height="20" viewBox="0 0 20 20">
<title>no_encryption</title>
<path d="M7.422 5v1.016l-1.523-1.523q0.195-1.563 1.348-2.617t2.754-1.055q1.719 0 2.949 1.23t1.23 2.949v1.68h0.82q0.664 0 1.172 0.488t0.508 1.152v6.953l-8.633-8.594h4.531v-1.68q0-1.055-0.762-1.816t-1.816-0.762-1.816 0.762-0.762 1.816zM17.5 18.164l-1.016 1.016-0.938-0.938q-0.313 0.078-0.547 0.078h-10q-0.664 0-1.172-0.488t-0.508-1.152v-8.359q0-0.977 0.898-1.445l-1.719-1.68 1.016-1.016z"></path>
</svg>
