<!-- Generated by IcoMoon.io -->
<svg version="1.1" xmlns="http://www.w3.org/2000/svg" width="20" height="20" viewBox="0 0 20 20">
<title>not_interesteddo_not_disturb</title>
<path d="M15.273 14.102q1.406-1.758 1.406-4.102 0-2.734-1.973-4.707t-4.707-1.973q-0.938 0-2.148 0.41t-1.953 0.996zM10 16.68q0.938 0 2.148-0.41t1.953-0.996l-9.375-9.375q-1.406 1.758-1.406 4.102 0 2.734 1.973 4.707t4.707 1.973zM10 1.68q3.438 0 5.879 2.441t2.441 5.879-2.441 5.879-5.879 2.441-5.879-2.441-2.441-5.879 2.441-5.879 5.879-2.441z"></path>
</svg>
