<!-- Generated by IcoMoon.io -->
<svg version="1.1" xmlns="http://www.w3.org/2000/svg" width="20" height="20" viewBox="0 0 20 20">
<title>not_listed_location</title>
<path d="M10.742 10.742q0-0.781 1.094-1.758t1.094-1.914q0-1.211-0.859-2.051t-2.070-0.84-2.070 0.84-0.859 2.051h1.484q0-0.586 0.43-1.016t1.016-0.43 1.016 0.43 0.43 1.016q0 0.469-0.332 0.859t-0.762 0.645-0.762 0.801-0.332 1.367h1.484zM10.742 13.125v-1.445h-1.484v1.445h1.484zM10 1.68q2.422 0 4.121 1.699t1.699 4.121q0 1.211-0.605 2.773t-1.465 2.93-1.699 2.559-1.426 1.895l-0.625 0.664q-0.234-0.273-0.625-0.723t-1.406-1.797-1.777-2.617-1.387-2.871-0.625-2.813q0-2.422 1.699-4.121t4.121-1.699z"></path>
</svg>
