<!-- Generated by IcoMoon.io -->
<svg version="1.1" xmlns="http://www.w3.org/2000/svg" width="20" height="20" viewBox="0 0 20 20">
<title>notifications_off</title>
<path d="M15 12.227l-7.461-7.852q0.117-0.039 0.313-0.137l0.273-0.137h0.039l0.234-0.117q0.039 0 0.156-0.039t0.195-0.039v-0.586q0-0.508 0.352-0.879t0.898-0.371 0.898 0.371 0.352 0.879v0.586q1.758 0.43 2.754 1.875t0.996 3.398v3.047zM10 18.32q-0.703 0-1.191-0.469t-0.488-1.172h3.359q0 0.703-0.488 1.172t-1.191 0.469zM6.523 5.117q0.938 0.977 4.902 5.039t6.074 6.289l-1.055 1.055-1.68-1.68h-11.445v-0.82l1.68-1.68v-4.18q0-1.602 0.664-2.852l-2.344-2.305 1.055-1.094z"></path>
</svg>
