<!-- Generated by IcoMoon.io -->
<svg version="1.1" xmlns="http://www.w3.org/2000/svg" width="20" height="20" viewBox="0 0 20 20">
<title>notifications_active</title>
<path d="M10 18.32q-0.703 0-1.191-0.488t-0.488-1.152h3.32q0 0.703-0.469 1.172t-1.172 0.469zM15 9.18v4.141l1.68 1.68v0.82h-13.359v-0.82l1.68-1.68v-4.141q0-1.953 0.996-3.398t2.754-1.875v-0.586q0-0.508 0.352-0.879t0.898-0.371 0.898 0.371 0.352 0.879v0.586q1.758 0.43 2.754 1.875t0.996 3.398zM16.641 8.75q-0.078-1.406-0.938-2.969t-1.992-2.383l1.172-1.172q3.242 2.5 3.438 6.523h-1.68zM6.328 3.398q-1.133 0.82-2.012 2.383t-0.957 2.969h-1.68q0.195-4.023 3.438-6.523z"></path>
</svg>
