<!-- Generated by IcoMoon.io -->
<svg version="1.1" xmlns="http://www.w3.org/2000/svg" width="20" height="20" viewBox="0 0 20 20">
<title>now_wallpaper</title>
<path d="M3.32 10.82v5.859h5.859v1.641h-5.859q-0.664 0-1.152-0.488t-0.488-1.152v-5.859h1.641zM16.68 16.68v-5.859h1.641v5.859q0 0.664-0.488 1.152t-1.152 0.488h-5.859v-1.641h5.859zM16.68 1.68q0.664 0 1.152 0.488t0.488 1.152v5.859h-1.641v-5.859h-5.859v-1.641h5.859zM14.18 7.070q0 0.508-0.371 0.879t-0.879 0.371-0.879-0.371-0.371-0.879 0.371-0.879 0.879-0.371 0.879 0.371 0.371 0.879zM8.32 10.82l2.5 3.086 1.68-2.227 2.5 3.32h-10zM3.32 3.32v5.859h-1.641v-5.859q0-0.664 0.488-1.152t1.152-0.488h5.859v1.641h-5.859z"></path>
</svg>
