<!-- Generated by IcoMoon.io -->
<svg version="1.1" xmlns="http://www.w3.org/2000/svg" width="20" height="20" viewBox="0 0 20 20">
<title>offline_share</title>
<path d="M15 13.32v-10h-6.68v10h6.68zM15 0.82q0.664 0 1.172 0.508t0.508 1.172v11.68q0 0.664-0.508 1.152t-1.172 0.488h-6.68q-0.664 0-1.152-0.488t-0.488-1.152v-11.68q0-0.664 0.488-1.172t1.152-0.508h6.68zM13.32 19.18h-8.32q-0.664 0-1.172-0.508t-0.508-1.172v-13.32h1.68v13.32h8.32v1.68zM12.148 8.555q-1.953 0-2.969 1.367 0.547-2.578 2.969-2.93v-1.094l2.031 1.875-2.031 1.875v-1.094z"></path>
</svg>
