<!-- Generated by IcoMoon.io -->
<svg version="1.1" xmlns="http://www.w3.org/2000/svg" width="20" height="20" viewBox="0 0 20 20">
<title>outdoor_grill</title>
<path d="M11.992 5.82q0.273-1.055-0.352-1.68-0.977-1.016-0.742-2.461h0.82q-0.195 0.977 0.391 1.68 0.664 0.742 0.781 1.27t-0.039 1.191h-0.859zM9.922 5.82q0.234-1.055-0.391-1.68-0.977-1.016-0.742-2.461h0.82q-0.195 0.977 0.391 1.68 0.664 0.742 0.781 1.27t-0.039 1.191h-0.82zM7.852 5.82q0.234-1.055-0.391-1.68-0.977-1.016-0.742-2.461h0.82q-0.195 0.977 0.391 1.68 0.664 0.742 0.781 1.27t-0.039 1.191h-0.82zM14.18 15q-0.352 0-0.605 0.234t-0.254 0.586 0.254 0.605 0.605 0.254 0.586-0.254 0.234-0.605-0.234-0.586-0.586-0.234zM14.18 18.32q-0.82 0-1.445-0.469t-0.898-1.211h-5.313l-0.82 1.328q-0.195 0.352-0.703 0.352-0.313 0-0.469-0.117-0.352-0.195-0.352-0.703 0-0.313 0.117-0.469l3.32-5.039q-1.563-0.703-2.5-2.129t-0.938-3.184h11.641q0 1.563-0.996 3.125t-2.402 2.188l0.469 0.742q-0.781 0.313-1.328 1.016l-0.82-1.289q-0.195 0.039-0.742 0.039t-0.742-0.039l-1.641 2.539h4.219q0.273-0.742 0.898-1.211t1.445-0.469q1.016 0 1.758 0.742t0.742 1.758-0.742 1.758-1.758 0.742z"></path>
</svg>
