<!-- Generated by IcoMoon.io -->
<svg version="1.1" xmlns="http://www.w3.org/2000/svg" width="20" height="20" viewBox="0 0 20 20">
<title>pages</title>
<path d="M15.82 2.5q0.664 0 1.172 0.508t0.508 1.172v5h-4.18l0.859-3.359-3.359 0.859v-4.18h5zM14.18 14.18l-0.859-3.359h4.18v5q0 0.664-0.508 1.172t-1.172 0.508h-5v-4.18zM6.68 10.82l-0.859 3.359 3.359-0.859v4.18h-5q-0.664 0-1.172-0.508t-0.508-1.172v-5h4.18zM2.5 4.18q0-0.664 0.508-1.172t1.172-0.508h5v4.18l-3.359-0.859 0.859 3.359h-4.18v-5z"></path>
</svg>
