<!-- Generated by IcoMoon.io -->
<svg version="1.1" xmlns="http://www.w3.org/2000/svg" width="20" height="20" viewBox="0 0 20 20">
<title>pageview</title>
<path d="M13.984 15.156l1.172-1.172-2.422-2.422q0.586-0.977 0.586-1.992 0-1.563-1.094-2.656t-2.656-1.094-2.656 1.094-1.094 2.656 1.094 2.656 2.656 1.094q1.016 0 1.992-0.586zM16.68 3.32q0.664 0 1.152 0.508t0.488 1.172v10q0 0.664-0.488 1.172t-1.152 0.508h-13.359q-0.664 0-1.152-0.508t-0.488-1.172v-10q0-0.664 0.488-1.172t1.152-0.508h13.359zM9.57 7.5q0.859 0 1.484 0.605t0.625 1.465-0.625 1.484-1.484 0.625-1.465-0.625-0.605-1.484 0.605-1.465 1.465-0.605z"></path>
</svg>
