<!-- Generated by IcoMoon.io -->
<svg version="1.1" xmlns="http://www.w3.org/2000/svg" width="20" height="20" viewBox="0 0 20 20">
<title>pan_tool</title>
<path d="M19.18 4.57v12.109q0 1.367-0.996 2.344t-2.363 0.977h-6.055q-1.406 0-2.383-0.977l-6.563-6.68q1.055-1.016 1.094-1.016 0.273-0.234 0.664-0.234 0.273 0 0.508 0.117l3.594 2.031v-9.922q0-0.508 0.371-0.879t0.879-0.371 0.879 0.371 0.371 0.879v5.859h0.82v-7.93q0-0.547 0.352-0.898t0.898-0.352 0.898 0.352 0.352 0.898v7.93h0.82v-7.109q0-0.508 0.371-0.879t0.879-0.371 0.879 0.371 0.371 0.879v7.109h0.859v-4.609q0-0.508 0.371-0.879t0.879-0.371 0.879 0.371 0.371 0.879z"></path>
</svg>
