<!-- Generated by IcoMoon.io -->
<svg version="1.1" xmlns="http://www.w3.org/2000/svg" width="20" height="20" viewBox="0 0 20 20">
<title>panorama_photosphere</title>
<path d="M18.75 7.109q0.43 0.234 0.43 0.664v4.453q0 0.469-0.43 0.703-0.391 0.195-1.172 0.508-0.859 1.914-2.422 3.145t-3.359 1.563-3.594 0-3.359-1.563-2.422-3.145q-0.391-0.156-1.172-0.547-0.43-0.195-0.43-0.664v-4.453q0-0.469 0.43-0.664 0.781-0.391 1.172-0.547 0.977-2.188 3.027-3.535t4.551-1.348 4.551 1.348 3.027 3.535q0.391 0.156 1.172 0.547zM10 3.164q-3.32 0-5.352 2.617 5.313-1.563 10.703 0-2.109-2.617-5.352-2.617zM10 16.836q1.367 0 2.93-0.762t2.422-1.855q-5.43 1.563-10.703 0 2.070 2.617 5.352 2.617zM17.852 11.875v-3.75q-7.891-3.711-15.703 0v3.75q0.039 0 0.117 0.039t0.117 0.039q3.047 1.523 7.617 1.523 2.969 0 5.039-0.625 1.953-0.547 2.813-0.977z"></path>
</svg>
