<!-- Generated by IcoMoon.io -->
<svg version="1.1" xmlns="http://www.w3.org/2000/svg" width="20" height="20" viewBox="0 0 20 20">
<title>panorama_wide_angle</title>
<path d="M10 3.32q3.008 0 6.641 0.625l0.742 0.117 0.234 0.742q0.703 2.578 0.703 5.195t-0.703 5.195l-0.234 0.742-0.742 0.117q-3.633 0.625-6.641 0.625t-6.641-0.625l-0.742-0.117-0.234-0.742q-0.703-2.578-0.703-5.195t0.703-5.195l0.234-0.742 0.742-0.117q3.633-0.625 6.641-0.625zM10 5q-2.734 0-6.094 0.547-0.586 2.266-0.586 4.453t0.586 4.453q3.359 0.547 6.094 0.547t6.094-0.547q0.586-2.266 0.586-4.453t-0.586-4.453q-3.359-0.547-6.094-0.547z"></path>
</svg>
