<!-- Generated by IcoMoon.io -->
<svg version="1.1" xmlns="http://www.w3.org/2000/svg" width="20" height="20" viewBox="0 0 20 20">
<title>panorama_horizontal</title>
<path d="M17.852 3.32q0.469 0 0.469 0.547v12.266q0 0.547-0.469 0.547-0.078 0-0.234-0.078-3.75-1.367-7.617-1.367t-7.617 1.367q-0.156 0.078-0.234 0.078-0.469 0-0.469-0.547v-12.266q0-0.547 0.469-0.547 0.078 0 0.234 0.078 3.75 1.367 7.617 1.367t7.617-1.367q0.156-0.078 0.234-0.078zM16.68 5.469q-3.047 0.938-6.68 0.938-3.438 0-6.68-0.938v9.063q3.203-0.938 6.68-0.938 3.438 0 6.68 0.938v-9.063z"></path>
</svg>
