<!-- Generated by IcoMoon.io -->
<svg version="1.1" xmlns="http://www.w3.org/2000/svg" width="20" height="20" viewBox="0 0 20 20">
<title>panorama_photosphere_select</title>
<path d="M4.648 14.219q0.859 1.094 2.422 1.855t2.93 0.762 2.93-0.762 2.422-1.855q-5.43 1.563-10.703 0zM10 3.164q-3.32 0-5.352 2.617 5.313-1.563 10.703 0-2.109-2.617-5.352-2.617zM18.75 7.109q0.43 0.234 0.43 0.664v4.453q0 0.469-0.43 0.703-0.391 0.195-1.172 0.508-0.859 1.914-2.422 3.145t-3.359 1.563-3.594 0-3.359-1.563-2.422-3.145q-0.391-0.156-1.172-0.547-0.43-0.195-0.43-0.664v-4.453q0-0.469 0.43-0.664 0.781-0.391 1.172-0.547 0.977-2.188 3.027-3.535t4.551-1.348 4.551 1.348 3.027 3.535q0.391 0.156 1.172 0.547z"></path>
</svg>
