<!-- Generated by IcoMoon.io -->
<svg version="1.1" xmlns="http://www.w3.org/2000/svg" width="20" height="20" viewBox="0 0 20 20">
<title>panorama_vertical</title>
<path d="M5.469 16.68h9.063q-0.938-3.242-0.938-6.68t0.938-6.68h-9.063q0.938 3.203 0.938 6.68 0 3.438-0.938 6.68zM16.602 17.617q0.078 0.156 0.078 0.234 0 0.469-0.547 0.469h-12.266q-0.547 0-0.547-0.469 0-0.078 0.078-0.234 1.367-3.75 1.367-7.617t-1.367-7.617q-0.078-0.156-0.078-0.234 0-0.469 0.547-0.469h12.266q0.547 0 0.547 0.469 0 0.078-0.078 0.234-1.367 3.75-1.367 7.617t1.367 7.617z"></path>
</svg>
