<!-- Generated by IcoMoon.io -->
<svg version="1.1" xmlns="http://www.w3.org/2000/svg" width="20" height="20" viewBox="0 0 20 20">
<title>party_mode</title>
<path d="M10 14.18q1.719 0 2.949-1.23t1.23-2.949q0-0.352-0.078-0.82h-1.758q0.156 0.547 0.156 0.82 0 1.016-0.742 1.758t-1.758 0.742h-3.32q1.289 1.68 3.32 1.68zM10 5.82q-1.719 0-2.949 1.23t-1.23 2.949q0 0.352 0.078 0.82h1.758q-0.156-0.547-0.156-0.82 0-1.016 0.742-1.758t1.758-0.742h3.32q-1.289-1.68-3.32-1.68zM16.68 3.32q0.664 0 1.152 0.508t0.488 1.172v10q0 0.664-0.488 1.172t-1.152 0.508h-13.359q-0.664 0-1.152-0.508t-0.488-1.172v-10q0-0.664 0.488-1.172t1.152-0.508h2.656l1.523-1.641h5l1.523 1.641h2.656z"></path>
</svg>
