<!-- Generated by IcoMoon.io -->
<svg version="1.1" xmlns="http://www.w3.org/2000/svg" width="20" height="20" viewBox="0 0 20 20">
<title>people_outline</title>
<path d="M13.75 5.43q-0.664 0-1.172 0.488t-0.508 1.152 0.508 1.172 1.172 0.508 1.172-0.508 0.508-1.172-0.508-1.152-1.172-0.488zM13.75 10q-1.211 0-2.070-0.859t-0.859-2.070 0.859-2.051 2.070-0.84 2.070 0.84 0.859 2.051-0.859 2.070-2.070 0.859zM6.25 5.43q-0.664 0-1.172 0.488t-0.508 1.152 0.508 1.172 1.172 0.508 1.172-0.508 0.508-1.172-0.508-1.152-1.172-0.488zM6.25 10q-1.211 0-2.070-0.859t-0.859-2.070 0.859-2.051 2.070-0.84 2.070 0.84 0.859 2.051-0.859 2.070-2.070 0.859zM17.93 14.57v-1.016q0-0.391-1.387-0.938t-2.793-0.547q-1.016 0-2.5 0.469 0.43 0.508 0.43 1.016v1.016h6.25zM10.43 14.57v-1.016q0-0.391-1.387-0.938t-2.793-0.547-2.793 0.547-1.387 0.938v1.016h8.359zM13.75 10.82q1.68 0 3.555 0.762t1.875 1.973v2.266h-18.359v-2.266q0-1.211 1.875-1.973t3.555-0.762q1.836 0 3.75 0.859 1.914-0.859 3.75-0.859z"></path>
</svg>
