<!-- Generated by IcoMoon.io -->
<svg version="1.1" xmlns="http://www.w3.org/2000/svg" width="20" height="20" viewBox="0 0 20 20">
<title>perm_camera_mic</title>
<path d="M11.68 10.82v-3.32q0-0.664-0.508-1.172t-1.172-0.508-1.172 0.508-0.508 1.172v3.32q0 0.664 0.508 1.172t1.172 0.508 1.172-0.508 0.508-1.172zM16.68 4.18q0.664 0 1.152 0.488t0.488 1.152v10q0 0.664-0.488 1.172t-1.152 0.508h-5.859v-1.758q1.758-0.313 2.969-1.699t1.211-3.223h-1.68q0 1.367-0.977 2.363t-2.344 0.996-2.344-0.996-0.977-2.363h-1.68q0 1.836 1.211 3.223t2.969 1.699v1.758h-5.859q-0.664 0-1.152-0.508t-0.488-1.172v-10q0-0.664 0.488-1.152t1.152-0.488h2.656l1.523-1.68h5l1.523 1.68h2.656z"></path>
</svg>
