<!-- Generated by IcoMoon.io -->
<svg version="1.1" xmlns="http://www.w3.org/2000/svg" width="20" height="20" viewBox="0 0 20 20">
<title>perm_data_setting</title>
<path d="M15.82 17.070q0.508 0 0.879-0.371t0.371-0.879-0.371-0.879-0.879-0.371-0.879 0.371-0.371 0.879 0.371 0.879 0.879 0.371zM18.906 16.25l0.898 0.664q0.078 0.078 0.078 0.195l-0.039 0.039v0.039l-0.82 1.445q-0.117 0.195-0.273 0.117l-1.016-0.43q-0.117 0.117-0.703 0.391l-0.156 1.133q0 0.156-0.234 0.156h-1.641q-0.234 0-0.234-0.156l-0.156-1.133q-0.313-0.156-0.703-0.391l-1.016 0.43q-0.195 0.078-0.273-0.117l-0.82-1.445v-0.039l-0.039-0.039q0-0.117 0.078-0.195l0.898-0.664q0-0.078-0.020-0.234t-0.020-0.195 0.020-0.195 0.020-0.195l-0.898-0.703q-0.117-0.117-0.039-0.273l0.82-1.445q0.078-0.156 0.273-0.078l1.016 0.43q0.469-0.313 0.703-0.43l0.156-1.094q0-0.156 0.234-0.156h1.641q0.234 0 0.234 0.156l0.156 1.094q0.156 0.078 0.703 0.43l1.016-0.43q0.195-0.078 0.273 0.078l0.82 1.445v0.039q0.039 0.039 0.039 0.078 0 0.078-0.078 0.156l-0.898 0.703q0.039 0.117 0.039 0.391 0 0.078-0.020 0.234t-0.020 0.195zM15.82 9.57q-2.578 0-4.414 1.836t-1.836 4.414q0 0.313 0.078 0.859h-9.648l16.68-16.68-0.039 9.648q-0.547-0.078-0.82-0.078z"></path>
</svg>
