<!-- Generated by IcoMoon.io -->
<svg version="1.1" xmlns="http://www.w3.org/2000/svg" width="20" height="20" viewBox="0 0 20 20">
<title>perm_contact_calendar</title>
<path d="M15 15v-0.82q0-1.133-1.719-1.855t-3.281-0.723-3.281 0.723-1.719 1.855v0.82h10zM10 5q-1.016 0-1.758 0.742t-0.742 1.758 0.742 1.758 1.758 0.742 1.758-0.742 0.742-1.758-0.742-1.758-1.758-0.742zM15.82 2.5q0.664 0 1.172 0.508t0.508 1.172v11.641q0 0.664-0.508 1.172t-1.172 0.508h-11.641q-0.703 0-1.191-0.488t-0.488-1.191v-11.641q0-0.703 0.488-1.191t1.191-0.488h0.82v-1.68h1.68v1.68h6.641v-1.68h1.68v1.68h0.82z"></path>
</svg>
