<!-- Generated by IcoMoon.io -->
<svg version="1.1" xmlns="http://www.w3.org/2000/svg" width="20" height="20" viewBox="0 0 20 20">
<title>person_add_disabled</title>
<path d="M5 8.32h0.742l-0.742-0.742v0.742zM9.492 12.070l-2.070-2.070h-2.422v2.5h-1.68v-2.5h-2.5v-1.68h2.5v-2.422l-3.32-3.32 1.016-1.094 17.5 17.422-1.094 1.094-3.32-3.32h-8.281v-1.68q0-0.977 1.055-1.738t2.617-1.191zM19.18 16.68h-0.781l-5-4.922q2.031 0.117 3.906 1.016t1.875 2.227v1.68zM9.18 6.68q0-1.367 0.977-2.363t2.344-0.996 2.344 0.996 0.977 2.363-0.977 2.344-2.344 0.977-2.344-0.977-0.977-2.344z"></path>
</svg>
