<!-- Generated by IcoMoon.io -->
<svg version="1.1" xmlns="http://www.w3.org/2000/svg" width="20" height="20" viewBox="0 0 20 20">
<title>person_pin_circle</title>
<path d="M10 11.68q0.859 0 1.836-0.527t1.484-1.27q0-0.742-1.152-1.23t-2.168-0.488-2.168 0.488-1.152 1.23q1.172 1.797 3.32 1.797zM10 3.32q-0.703 0-1.191 0.488t-0.488 1.191 0.488 1.191 1.191 0.488 1.191-0.488 0.488-1.191-0.488-1.191-1.191-0.488zM10 1.68q2.422 0 4.121 1.699t1.699 4.121q0 1.211-0.605 2.773t-1.465 2.93-1.699 2.559-1.426 1.895l-0.625 0.664q-0.234-0.273-0.625-0.723t-1.406-1.797-1.777-2.617-1.387-2.871-0.625-2.813q0-2.422 1.699-4.121t4.121-1.699z"></path>
</svg>
