<!-- Generated by IcoMoon.io -->
<svg version="1.1" xmlns="http://www.w3.org/2000/svg" width="20" height="20" viewBox="0 0 20 20">
<title>pets</title>
<path d="M14.453 12.383l0.664 0.664t0.332 0.352 0.313 0.371 0.293 0.371 0.254 0.391 0.195 0.43 0.117 0.449 0.039 0.469-0.020 0.488q-0.43 1.641-1.953 1.953-0.273 0.039-1.895-0.156t-2.715-0.195h-0.156q-1.094 0-2.715 0.195t-1.895 0.156q-1.523-0.313-1.953-1.953-0.117-0.781 0.273-1.602t0.723-1.172 1.191-1.211q0.391-0.43 1.035-1.211t1.035-1.211q0.703-0.859 1.445-1.094 0.156-0.078 0.273-0.078 0.234-0.039 0.664-0.039 0.469 0 0.664 0.039 0.117 0 0.273 0.078 0.742 0.234 1.445 1.094 0.352 0.43 1.016 1.211t1.055 1.211zM14.18 7.93q0-0.859 0.605-1.484t1.465-0.625 1.465 0.625 0.605 1.484-0.605 1.465-1.465 0.605-1.465-0.605-0.605-1.465zM10.43 4.57q0-0.859 0.605-1.465t1.465-0.605 1.465 0.605 0.605 1.465-0.605 1.484-1.465 0.625-1.465-0.625-0.605-1.484zM5.43 4.57q0-0.859 0.605-1.465t1.465-0.605 1.465 0.605 0.605 1.465-0.605 1.484-1.465 0.625-1.465-0.625-0.605-1.484zM1.68 7.93q0-0.859 0.605-1.484t1.465-0.625 1.465 0.625 0.605 1.484-0.605 1.465-1.465 0.605-1.465-0.605-0.605-1.465z"></path>
</svg>
