<!-- Generated by IcoMoon.io -->
<svg version="1.1" xmlns="http://www.w3.org/2000/svg" width="20" height="20" viewBox="0 0 20 20">
<title>phone_in_talk</title>
<path d="M12.5 10q0-1.016-0.742-1.758t-1.758-0.742v-1.68q1.719 0 2.949 1.23t1.23 2.949h-1.68zM15.82 10q0-2.422-1.699-4.121t-4.121-1.699v-1.68q3.125 0 5.313 2.188t2.188 5.313h-1.68zM16.68 12.93q0.352 0 0.586 0.234t0.234 0.586v2.93q0 0.352-0.234 0.586t-0.586 0.234q-5.859 0-10.020-4.16t-4.16-10.020q0-0.352 0.234-0.586t0.586-0.234h2.93q0.352 0 0.586 0.234t0.234 0.586v0.039q0 1.602 0.469 2.93 0.078 0.156 0.078 0.273 0 0.391-0.273 0.586l-1.836 1.836q0.781 1.484 2.402 3.105t3.105 2.402l1.836-1.836q0.273-0.273 0.586-0.273 0.117 0 0.273 0.078 1.406 0.469 2.969 0.469z"></path>
</svg>
