<!-- Generated by IcoMoon.io -->
<svg version="1.1" xmlns="http://www.w3.org/2000/svg" width="20" height="20" viewBox="0 0 20 20">
<title>phonelink_off</title>
<path d="M19.18 6.68q0.352 0 0.586 0.234t0.234 0.586v8.32q0 0.352-0.234 0.605t-0.586 0.254h-0.156l-2.5-2.5h1.797v-5.859h-3.32v4.336l-1.68-1.68v-3.477q0-0.352 0.254-0.586t0.605-0.234h5zM3.32 5.234v8.945h8.945zM1.602 1.367q3.164 3.164 9.004 9.023t7.168 7.188l-1.055 1.055-1.953-1.953h-14.766v-2.5h1.68v-9.18q0-0.586 0.391-1.055l-1.523-1.523zM18.32 5h-10.977l-1.68-1.68h12.656v1.68z"></path>
</svg>
