<!-- Generated by IcoMoon.io -->
<svg version="1.1" xmlns="http://www.w3.org/2000/svg" width="20" height="20" viewBox="0 0 20 20">
<title>phonelink_lock</title>
<path d="M7.93 9.18v-1.25q0-0.469-0.371-0.781t-0.879-0.313-0.879 0.313-0.371 0.781v1.25h2.5zM8.984 9.18q0.391 0 0.703 0.313t0.313 0.742v2.93q0 0.391-0.332 0.703t-0.762 0.313h-4.57q-0.391 0-0.703-0.332t-0.313-0.762v-2.93q0-0.391 0.313-0.684t0.703-0.293v-1.25q0-0.859 0.723-1.484t1.621-0.625 1.602 0.625 0.703 1.484v1.25zM15.82 0.82q0.664 0 1.172 0.508t0.508 1.172v15q0 0.664-0.508 1.172t-1.172 0.508h-8.32q-0.664 0-1.172-0.508t-0.508-1.172v-2.5h1.68v1.68h8.32v-13.359h-8.32v1.68h-1.68v-2.5q0-0.664 0.508-1.172t1.172-0.508h8.32z"></path>
</svg>
