<!-- Generated by IcoMoon.io -->
<svg version="1.1" xmlns="http://www.w3.org/2000/svg" width="20" height="20" viewBox="0 0 20 20">
<title>phone_disabled</title>
<path d="M12.109 14.453q-1.563 1.25-4.141 2.148t-4.609 0.898h-0.039q-0.352 0-0.586-0.234t-0.234-0.586v-2.93q0-0.352 0.234-0.586t0.586-0.234q1.563 0 2.969-0.469 0.469-0.195 0.859 0.195l1.836 1.836q1.172-0.625 1.914-1.211l-9.727-9.766 1.172-1.172 15.313 15.313-1.172 1.172zM14.453 12.109l-1.211-1.172q0.742-0.977 1.25-1.953l-1.836-1.836q-0.352-0.352-0.195-0.859 0.469-1.406 0.469-2.969 0-0.352 0.234-0.586t0.586-0.234h2.93q0.352 0 0.586 0.234t0.234 0.586q0 4.922-3.047 8.789z"></path>
</svg>
