<!-- Generated by IcoMoon.io -->
<svg version="1.1" xmlns="http://www.w3.org/2000/svg" width="20" height="20" viewBox="0 0 20 20">
<title>phone_bluetooth_speaker</title>
<path d="M16.68 12.93q0.352 0 0.586 0.234t0.234 0.586v2.93q0 0.352-0.234 0.586t-0.586 0.234q-5.859 0-10.020-4.16t-4.16-10.020q0-0.352 0.234-0.586t0.586-0.234h2.93q0.352 0 0.586 0.234t0.234 0.586v0.039q0 1.602 0.469 2.93 0.078 0.156 0.078 0.273 0 0.391-0.273 0.586l-1.836 1.836q0.781 1.484 2.402 3.105t3.105 2.402l1.836-1.836q0.273-0.273 0.586-0.273 0.117 0 0.273 0.078 1.406 0.469 2.969 0.469zM15 6.016v1.563l0.781-0.781zM15 2.422v1.563l0.781-0.781zM12.266 7.93l-0.586-0.586 2.305-2.344-2.305-2.344 0.586-0.586 1.914 1.914v-3.164h0.391l2.383 2.383-1.797 1.797 1.797 1.797-2.383 2.383h-0.391v-3.164z"></path>
</svg>
