<!-- Generated by IcoMoon.io -->
<svg version="1.1" xmlns="http://www.w3.org/2000/svg" width="20" height="20" viewBox="0 0 20 20">
<title>phone_enabled</title>
<path d="M14.492 8.984l-1.836-1.836q-0.352-0.352-0.195-0.859 0.469-1.406 0.469-2.969 0-0.352 0.234-0.586t0.586-0.234h2.93q0.352 0 0.586 0.234t0.234 0.586q0 5.859-4.16 10.020t-10.020 4.16q-0.352 0-0.586-0.234t-0.234-0.586v-2.93q0-0.352 0.234-0.586t0.586-0.234q1.563 0 2.969-0.469 0.469-0.195 0.859 0.195l1.836 1.836q3.633-1.875 5.508-5.508z"></path>
</svg>
