<!-- Generated by IcoMoon.io -->
<svg version="1.1" xmlns="http://www.w3.org/2000/svg" width="20" height="20" viewBox="0 0 20 20">
<title>phonelink_erase</title>
<path d="M15.82 0.82q0.664 0 1.172 0.508t0.508 1.172v15q0 0.664-0.508 1.172t-1.172 0.508h-8.32q-0.664 0-1.172-0.508t-0.508-1.172v-2.5h1.68v1.68h8.32v-13.359h-8.32v1.68h-1.68v-2.5q0-0.664 0.508-1.172t1.172-0.508h8.32zM10.82 6.836l-3.32 3.32 3.32 3.359-0.82 0.82-3.32-3.32-3.359 3.32-0.82-0.82 3.32-3.359-3.32-3.32 0.82-0.82 3.359 3.32 3.32-3.32z"></path>
</svg>
