<!-- Generated by IcoMoon.io -->
<svg version="1.1" xmlns="http://www.w3.org/2000/svg" width="20" height="20" viewBox="0 0 20 20">
<title>phonelink_ring</title>
<path d="M11.68 16.68v-13.359h-8.359v13.359h8.359zM11.68 0.82q0.664 0 1.152 0.508t0.488 1.172v15q0 0.664-0.488 1.172t-1.152 0.508h-8.359q-0.664 0-1.152-0.508t-0.488-1.172v-15q0-0.664 0.488-1.172t1.152-0.508h8.359zM15 8.164q0.781 0.82 0.781 1.836t-0.781 1.758l-0.82-0.859q0.703-0.977 0-1.914zM16.758 6.406q1.563 1.484 1.563 3.574t-1.563 3.535l-0.859-0.859q1.133-1.211 1.133-2.754t-1.133-2.637z"></path>
</svg>
