<!-- Generated by IcoMoon.io -->
<svg version="1.1" xmlns="http://www.w3.org/2000/svg" width="20" height="20" viewBox="0 0 20 20">
<title>phonelink_setup</title>
<path d="M15 0.859q0.664 0 1.172 0.488t0.508 1.152v15q0 0.664-0.508 1.172t-1.172 0.508h-8.32q-0.664 0-1.172-0.508t-0.508-1.172v-2.5h1.68v0.82h8.32v-11.641h-8.32v0.82h-1.68v-2.5q0-0.664 0.508-1.172t1.172-0.508zM5.82 11.445q0.625 0 1.074-0.41t0.449-1.035-0.449-1.035-1.074-0.41-1.055 0.41-0.43 1.035 0.43 1.035 1.055 0.41zM9.023 10.391l0.898 0.703q0.156 0.156 0.078 0.273l-0.859 1.445q-0.078 0.156-0.273 0.078l-1.055-0.391q-0.313 0.195-0.742 0.391l-0.156 1.094q0 0.195-0.195 0.195h-1.719q-0.234 0-0.234-0.195l-0.156-1.094q-0.43-0.195-0.742-0.391l-1.055 0.391q-0.195 0.078-0.273-0.078l-0.82-1.445q-0.039-0.039-0.020-0.137t0.059-0.137l0.898-0.703q0-0.039-0.020-0.176t-0.020-0.215 0.020-0.195 0.020-0.195l-0.898-0.703q-0.117-0.117-0.078-0.273l0.859-1.445q0.078-0.156 0.273-0.078l1.055 0.391q0.313-0.195 0.742-0.391l0.156-1.094q0-0.195 0.195-0.195h1.719q0.195 0 0.195 0.195l0.195 1.094q0.156 0.078 0.703 0.43l1.094-0.43q0.156-0.078 0.234 0.078l0.859 1.445q0.039 0.039 0.020 0.137t-0.059 0.137l-0.898 0.703q0 0.039 0.020 0.176t0.020 0.215-0.020 0.215-0.020 0.176z"></path>
</svg>
