<!-- Generated by IcoMoon.io -->
<svg version="1.1" xmlns="http://www.w3.org/2000/svg" width="20" height="20" viewBox="0 0 20 20">
<title>photo_size_select_large</title>
<path d="M2.5 15.82h8.32l-2.656-3.555-2.070 2.695-1.523-1.797zM0.82 9.18h11.68v8.32h-10q-0.664 0-1.172-0.508t-0.508-1.172v-6.641zM4.18 2.5h1.641v1.68h-1.641v-1.68zM7.5 2.5h1.68v1.68h-1.68v-1.68zM2.5 2.5v1.68h-1.68q0-0.625 0.527-1.152t1.152-0.527zM14.18 15.82h1.641v1.68h-1.641v-1.68zM14.18 2.5h1.641v1.68h-1.641v-1.68zM0.82 5.82h1.68v1.68h-1.68v-1.68zM17.5 2.5q0.625 0 1.152 0.527t0.527 1.152h-1.68v-1.68zM17.5 5.82h1.68v1.68h-1.68v-1.68zM10.82 2.5h1.68v1.68h-1.68v-1.68zM19.18 15.82q0 0.625-0.527 1.152t-1.152 0.527v-1.68h1.68zM17.5 9.18h1.68v1.641h-1.68v-1.641zM17.5 12.5h1.68v1.68h-1.68v-1.68z"></path>
</svg>
