<!-- Generated by IcoMoon.io -->
<svg version="1.1" xmlns="http://www.w3.org/2000/svg" width="20" height="20" viewBox="0 0 20 20">
<title>photo_size_select_small</title>
<path d="M5.82 2.5v1.68h-1.641v-1.68h1.641zM9.18 2.5v1.68h-1.68v-1.68h1.68zM2.5 9.18v1.641h-1.68v-1.641h1.68zM2.5 2.5v1.68h-1.68q0-0.625 0.527-1.152t1.152-0.527zM15.82 15.82v1.68h-1.641v-1.68h1.641zM15.82 2.5v1.68h-1.641v-1.68h1.641zM12.5 15.82v1.68h-1.68v-1.68h1.68zM2.5 5.82v1.68h-1.68v-1.68h1.68zM2.5 17.5q-0.664 0-1.172-0.508t-0.508-1.172v-3.32h8.359v5h-6.68zM17.5 2.5q0.625 0 1.152 0.527t0.527 1.152h-1.68v-1.68zM19.18 5.82v1.68h-1.68v-1.68h1.68zM12.5 2.5v1.68h-1.68v-1.68h1.68zM19.18 15.82q0 0.625-0.527 1.152t-1.152 0.527v-1.68h1.68zM19.18 9.18v1.641h-1.68v-1.641h1.68zM19.18 12.5v1.68h-1.68v-1.68h1.68z"></path>
</svg>
