<!-- Generated by IcoMoon.io -->
<svg version="1.1" xmlns="http://www.w3.org/2000/svg" width="20" height="20" viewBox="0 0 20 20">
<title>photo_filter</title>
<path d="M11.055 8.945l2.266 1.055-2.266 1.055-1.055 2.266-1.055-2.266-2.266-1.055 2.266-1.055 1.055-2.266zM14.18 8.32l-0.781-1.719-1.719-0.781 1.719-0.781 0.781-1.719 0.781 1.719 1.719 0.781-1.719 0.781zM15.859 8.32h1.641v7.5q0 0.664-0.488 1.172t-1.152 0.508h-11.68q-0.664 0-1.172-0.508t-0.508-1.172v-11.641q0-0.664 0.508-1.172t1.172-0.508h7.5v1.68h-7.5v11.641h11.68v-7.5z"></path>
</svg>
