<!-- Generated by IcoMoon.io -->
<svg version="1.1" xmlns="http://www.w3.org/2000/svg" width="20" height="20" viewBox="0 0 20 20">
<title>picture_as_pdf</title>
<path d="M11.68 9.57v-2.5h0.82v2.5h-0.82zM3.32 5v11.68h11.68v1.641h-11.68q-0.664 0-1.152-0.488t-0.488-1.152v-11.68h1.641zM7.5 7.93v-0.859h0.82v0.859h-0.82zM17.070 7.070v-1.25h-2.5v5h1.25v-1.641h1.25v-1.25h-1.25v-0.859h1.25zM13.75 9.57v-2.5q0-0.508-0.352-0.879t-0.898-0.371h-2.070v5h2.070q0.547 0 0.898-0.371t0.352-0.879zM9.57 7.93v-0.859q0-0.508-0.371-0.879t-0.879-0.371h-2.070v5h1.25v-1.641h0.82q0.508 0 0.879-0.371t0.371-0.879zM16.68 1.68q0.664 0 1.152 0.488t0.488 1.152v10q0 0.664-0.488 1.172t-1.152 0.508h-10q-0.664 0-1.172-0.508t-0.508-1.172v-10q0-0.664 0.508-1.152t1.172-0.488h10z"></path>
</svg>
