<!-- Generated by IcoMoon.io -->
<svg version="1.1" xmlns="http://www.w3.org/2000/svg" width="20" height="20" viewBox="0 0 20 20">
<title>pivot_table_chart</title>
<path d="M11.68 10.82l3.32-3.32 3.32 3.32h-2.5v1.328q0 1.523-1.074 2.598t-2.598 1.074h-1.328v2.5l-3.32-3.32 3.32-3.32v2.5h1.328q0.82 0 1.426-0.586t0.605-1.445v-1.328h-2.5zM4.18 17.5q-0.664 0-1.172-0.508t-0.508-1.172v-7.5h4.18v9.18h-2.5zM2.5 6.68v-2.5q0-0.664 0.508-1.172t1.172-0.508h2.5v4.18h-4.18zM8.32 6.68v-4.18h7.5q0.664 0 1.172 0.508t0.508 1.172v2.5h-9.18z"></path>
</svg>
