<!-- Generated by IcoMoon.io -->
<svg version="1.1" xmlns="http://www.w3.org/2000/svg" width="20" height="20" viewBox="0 0 20 20">
<title>policy</title>
<path d="M7.5 10q0-1.016 0.742-1.758t1.758-0.742 1.758 0.742 0.742 1.758-0.742 1.758-1.758 0.742-1.758-0.742-0.742-1.758zM17.5 4.18v5q0 2.969-1.602 5.547l-2.422-2.422q0.703-1.055 0.703-2.305 0-0.703-0.352-1.582t-0.859-1.387-1.387-0.859-1.582-0.352-1.563 0.352-1.367 0.859-0.879 1.387-0.371 1.582 0.371 1.563 0.879 1.367 1.367 0.879 1.563 0.371q1.25 0 2.305-0.703l2.578 2.617q-2.031 2.383-4.883 3.086-3.203-0.781-5.352-3.652t-2.148-6.348v-5l7.5-3.359z"></path>
</svg>
