<!-- Generated by IcoMoon.io -->
<svg version="1.1" xmlns="http://www.w3.org/2000/svg" width="20" height="20" viewBox="0 0 20 20">
<title>pool</title>
<path d="M11.68 4.57q0-0.859 0.605-1.465t1.465-0.605 1.465 0.605 0.605 1.465-0.605 1.484-1.465 0.625-1.465-0.625-0.605-1.484zM7.227 10q-0.469 0-0.977-0.313-0.156-0.117-0.625-0.313l2.695-2.695-0.82-0.859q-1.25-1.25-3.32-1.25v-2.070q1.602 0 2.617 0.371t1.953 1.309l5.352 5.313q-0.234 0.156-0.352 0.195-0.508 0.313-0.977 0.313-0.43 0-0.938-0.313-0.859-0.508-1.836-0.508t-1.836 0.508q-0.508 0.313-0.938 0.313zM18.32 13.75q-0.898 0-1.797-0.547-0.43-0.273-0.977-0.273-0.508 0-0.938 0.273-0.898 0.547-1.836 0.547-0.898 0-1.797-0.547-0.43-0.273-0.977-0.273-0.508 0-0.938 0.273-0.898 0.547-1.836 0.547-0.898 0-1.797-0.547-0.43-0.273-0.977-0.273-0.508 0-0.938 0.273-0.898 0.547-1.836 0.547v-1.68q0.508 0 0.938-0.273 0.898-0.547 1.836-0.547 0.898 0 1.797 0.547 0.43 0.273 0.977 0.273 0.508 0 0.938-0.273 0.898-0.547 1.836-0.547 0.898 0 1.797 0.547 0.43 0.273 0.977 0.273 0.508 0 0.938-0.273 0.898-0.547 1.836-0.547 0.898 0 1.797 0.547 0.43 0.273 0.977 0.273v1.68zM18.32 17.5q-0.898 0-1.797-0.547-0.43-0.273-0.977-0.273-0.508 0-0.938 0.273-0.898 0.547-1.836 0.547-0.898 0-1.797-0.547-0.43-0.273-0.977-0.273-0.508 0-0.938 0.273-0.898 0.547-1.836 0.547t-1.836-0.547q-0.43-0.273-0.938-0.273-0.547 0-0.977 0.273-0.898 0.547-1.797 0.547v-1.68q0.508 0 0.938-0.273 0.898-0.547 1.836-0.547 0.898 0 1.797 0.547 0.43 0.273 0.977 0.273 0.508 0 0.938-0.273 0.898-0.547 1.836-0.547t1.836 0.547q0.43 0.273 0.938 0.273 0.547 0 0.977-0.273 0.898-0.547 1.797-0.547 0.938 0 1.836 0.547 0.43 0.273 0.938 0.273v1.68z"></path>
</svg>
