<!-- Generated by IcoMoon.io -->
<svg version="1.1" xmlns="http://www.w3.org/2000/svg" width="20" height="20" viewBox="0 0 20 20">
<title>portrait</title>
<path d="M15.82 15.82v-11.641h-11.641v11.641h11.641zM15.82 2.5q0.664 0 1.172 0.508t0.508 1.172v11.641q0 0.664-0.508 1.172t-1.172 0.508h-11.641q-0.664 0-1.172-0.508t-0.508-1.172v-11.641q0-0.664 0.508-1.172t1.172-0.508h11.641zM13.75 13.555v0.625h-7.5v-0.625q0-0.859 1.289-1.367t2.461-0.508 2.461 0.508 1.289 1.367zM10 10.195q-0.781 0-1.328-0.566t-0.547-1.309 0.547-1.309 1.328-0.566 1.328 0.566 0.547 1.309-0.547 1.309-1.328 0.566z"></path>
</svg>
