<!-- Generated by IcoMoon.io -->
<svg version="1.1" xmlns="http://www.w3.org/2000/svg" width="20" height="20" viewBox="0 0 20 20">
<title>portable_wifi_off</title>
<path d="M2.734 2.070l0.82 0.859 13.945 13.945-1.055 1.055-6.25-6.289h-0.039l-0.156 0.039q-0.664 0-1.172-0.508t-0.508-1.172l0.039-0.156-1.328-1.328q-0.352 0.703-0.352 1.484 0 1.914 1.641 2.891l-0.82 1.445q-1.133-0.664-1.816-1.816t-0.684-2.52q0-1.484 0.781-2.695l-1.172-1.211q-1.289 1.797-1.289 3.906 0 1.797 0.898 3.34t2.422 2.441l-0.82 1.445q-1.914-1.094-3.027-3.027t-1.113-4.199q0-2.891 1.719-5.117l-1.719-1.758zM10 3.32q-1.68 0-3.125 0.781l-1.211-1.211q1.953-1.211 4.336-1.211 3.438 0 5.879 2.441t2.441 5.879q0 2.344-1.211 4.336l-1.25-1.211q0.82-1.523 0.82-3.125 0-2.734-1.973-4.707t-4.707-1.973zM14.648 11.875l-1.367-1.367q0.039-0.156 0.039-0.508 0-1.367-0.977-2.344t-2.344-0.977q-0.352 0-0.508 0.039l-1.367-1.367q0.859-0.352 1.875-0.352 2.070 0 3.535 1.465t1.465 3.535q0 1.016-0.352 1.875z"></path>
</svg>
