<!-- Generated by IcoMoon.io -->
<svg version="1.1" xmlns="http://www.w3.org/2000/svg" width="20" height="20" viewBox="0 0 20 20">
<title>post_add</title>
<path d="M5.82 12.5h6.68v1.68h-6.68v-1.68zM5.82 10h6.68v1.68h-6.68v-1.68zM5.82 7.5h6.68v1.68h-6.68v-1.68zM15.82 1.68v2.5h2.5v1.641h-2.5v2.5h-1.641v-2.5h-2.5v-1.641h2.5v-2.5h1.641zM14.18 16.016v-6.016h1.641v5.82q0 0.664-0.488 1.172t-1.152 0.508h-10q-0.664 0-1.172-0.508t-0.508-1.172v-10q0-0.664 0.508-1.152t1.172-0.488h5.82v1.641h-5.82v10.195h10z"></path>
</svg>
