<!-- Generated by IcoMoon.io -->
<svg version="1.1" xmlns="http://www.w3.org/2000/svg" width="20" height="20" viewBox="0 0 20 20">
<title>print_disabled</title>
<path d="M6.68 15.82h6.563l-4.141-4.141h-2.422v4.141zM1.016 1.484l17.5 17.422-1.094 1.094-2.5-2.5h-9.922v-3.32h-3.32v-5q0-0.977 0.703-1.699t1.719-0.801l-4.102-4.18zM15 5.82h-7.5l-2.5-2.422v-0.898h10v3.32zM15.82 8.32q-0.352 0-0.586 0.254t-0.234 0.605 0.234 0.586 0.586 0.234 0.605-0.234 0.254-0.586-0.254-0.605-0.605-0.254zM15.898 14.18l-7.578-7.5h7.5q1.055 0 1.777 0.723t0.723 1.777v5h-2.422z"></path>
</svg>
