<!-- Generated by IcoMoon.io -->
<svg version="1.1" xmlns="http://www.w3.org/2000/svg" width="20" height="20" viewBox="0 0 20 20">
<title>public</title>
<path d="M14.922 14.492q1.758-1.875 1.758-4.492 0-2.070-1.152-3.75t-3.027-2.422v0.352q0 0.664-0.508 1.152t-1.172 0.488h-1.641v1.68q0 0.352-0.254 0.586t-0.605 0.234h-1.641v1.68h5q0.352 0 0.586 0.234t0.234 0.586v2.5h0.82q1.172 0 1.602 1.172zM9.18 16.602v-1.602q-0.664 0-1.172-0.508t-0.508-1.172v-0.82l-3.984-3.984q-0.195 0.781-0.195 1.484 0 2.539 1.699 4.414t4.16 2.188zM10 1.68q3.438 0 5.879 2.441t2.441 5.879-2.441 5.879-5.879 2.441-5.879-2.441-2.441-5.879 2.441-5.879 5.879-2.441z"></path>
</svg>
