<!-- Generated by IcoMoon.io -->
<svg version="1.1" xmlns="http://www.w3.org/2000/svg" width="20" height="20" viewBox="0 0 20 20">
<title>radio</title>
<path d="M16.68 10v-3.32h-13.359v3.32h10v-1.68h1.68v1.68h1.68zM5.82 16.68q1.016 0 1.758-0.742t0.742-1.758-0.742-1.758-1.758-0.742-1.758 0.742-0.742 1.758 0.742 1.758 1.758 0.742zM2.695 5.117l10.547-4.297 0.547 1.406-6.875 2.773h9.766q0.703 0 1.172 0.488t0.469 1.191v10q0 0.703-0.469 1.172t-1.172 0.469h-13.359q-0.703 0-1.172-0.469t-0.469-1.172v-10q0-1.172 1.016-1.563z"></path>
</svg>
