<!-- Generated by IcoMoon.io -->
<svg version="1.1" xmlns="http://www.w3.org/2000/svg" width="20" height="20" viewBox="0 0 20 20">
<title>railway_alert</title>
<path d="M12.5 8.32h1.68v1.68h-1.68v-1.68zM12.5 3.32h1.68v4.18h-1.68v-4.18zM12.227 10.664q0.156 0.078 0.352 0.117h0.234l0.117 0.039h0.82l0.156-0.039q1.484-0.234 2.52-1.445t1.035-2.656q0-1.68-1.211-2.91t-2.93-1.27q-1.094 0-2.109 0.586l-0.039 0.039-0.391 0.234v0.039q-0.508 0.391-0.703 0.664l-0.313 0.469-0.156 0.313-0.078 0.117-0.117 0.313q-0.234 0.703-0.234 1.406 0 1.25 0.84 2.402t2.012 1.543q0.039 0.039 0.195 0.039zM7.5 15.82q0.664 0 1.172-0.488t0.508-1.152-0.508-1.172-1.172-0.508-1.172 0.508-0.508 1.172 0.508 1.152 1.172 0.488zM2.5 10h6.055q-1.055-1.484-1.055-3.32 0-0.391 0.078-0.859h-5.078v4.18zM19.18 6.68q0 2.070-1.465 3.77t-3.535 1.973v2.148q0 1.211-0.859 2.070t-2.070 0.859l1.25 1.25v0.43h-10v-0.43l1.25-1.25q-1.211 0-2.070-0.859t-0.859-2.070v-8.75q0-1.992 1.719-2.656t4.961-0.664h0.156q1.133 0 1.563 0.039 0.703-0.703 1.914-1.211t2.188-0.508q2.383 0 4.121 1.738t1.738 4.121z"></path>
</svg>
