<!-- Generated by IcoMoon.io -->
<svg version="1.1" xmlns="http://www.w3.org/2000/svg" width="20" height="20" viewBox="0 0 20 20">
<title>recent_actors</title>
<path d="M10.43 14.18v-0.625q0-0.859-1.289-1.367t-2.461-0.508-2.461 0.508-1.289 1.367v0.625h7.5zM6.68 6.445q-0.742 0-1.309 0.566t-0.566 1.309 0.566 1.309 1.309 0.566 1.309-0.566 0.566-1.309-0.566-1.309-1.309-0.566zM11.68 4.18q0.352 0 0.586 0.234t0.234 0.586v10q0 0.352-0.234 0.586t-0.586 0.234h-10q-0.352 0-0.605-0.234t-0.254-0.586v-10q0-0.352 0.254-0.586t0.605-0.234h10zM14.18 15.82v-11.641h1.641v11.641h-1.641zM17.5 4.18h1.68v11.641h-1.68v-11.641z"></path>
</svg>
