<!-- Generated by IcoMoon.io -->
<svg version="1.1" xmlns="http://www.w3.org/2000/svg" width="20" height="20" viewBox="0 0 20 20">
<title>receipt</title>
<path d="M2.5 18.32v-16.641l1.25 1.25 1.25-1.25 1.25 1.25 1.25-1.25 1.25 1.25 1.25-1.25 1.25 1.25 1.25-1.25 1.25 1.25 1.25-1.25 1.25 1.25 1.25-1.25v16.641l-1.25-1.25-1.25 1.25-1.25-1.25-1.25 1.25-1.25-1.25-1.25 1.25-1.25-1.25-1.25 1.25-1.25-1.25-1.25 1.25-1.25-1.25zM15 7.5v-1.68h-10v1.68h10zM15 10.82v-1.641h-10v1.641h10zM15 14.18v-1.68h-10v1.68h10z"></path>
</svg>
