<!-- Generated by IcoMoon.io -->
<svg version="1.1" xmlns="http://www.w3.org/2000/svg" width="20" height="20" viewBox="0 0 20 20">
<title>recommend</title>
<path d="M15 9.883v-0.703q0-0.352-0.234-0.605t-0.586-0.254h-3.828l0.469-2.813v-0.195q0-0.352-0.234-0.586l-0.586-0.547-3.828 4.141q-0.352 0.273-0.352 0.781v4.219q0 0.703 0.488 1.191t1.191 0.488h4.648q0.703 0 1.016-0.664l1.758-4.102q0.078-0.156 0.078-0.352zM10 1.68q3.438 0 5.879 2.441t2.441 5.879-2.441 5.879-5.879 2.441-5.879-2.441-2.441-5.879 2.441-5.879 5.879-2.441z"></path>
</svg>
