<!-- Generated by IcoMoon.io -->
<svg version="1.1" xmlns="http://www.w3.org/2000/svg" width="20" height="20" viewBox="0 0 20 20">
<title>record_voice_over</title>
<path d="M16.719 1.68q2.422 2.539 2.422 5.879t-2.422 5.762l-1.367-1.328q1.719-1.992 1.719-4.551t-1.719-4.434zM13.984 4.453q1.25 1.367 1.25 3.086t-1.25 2.969l-1.406-1.406q0.547-0.742 0.547-1.621t-0.547-1.621zM7.5 12.5q2.109 0 4.395 0.918t2.285 2.402v1.68h-13.359v-1.68q0-1.484 2.285-2.402t4.395-0.918zM4.18 7.5q0-1.367 0.977-2.344t2.344-0.977 2.344 0.977 0.977 2.344-0.977 2.344-2.344 0.977-2.344-0.977-0.977-2.344z"></path>
</svg>
