<!-- Generated by IcoMoon.io -->
<svg version="1.1" xmlns="http://www.w3.org/2000/svg" width="20" height="20" viewBox="0 0 20 20">
<title>redeemcard_giftcard</title>
<path d="M16.68 11.68v-5h-4.258l1.758 2.344-1.367 0.977q-2.5-3.398-2.813-3.828-0.313 0.43-2.813 3.828l-1.367-0.977 1.758-2.344h-4.258v5h13.359zM16.68 15.82v-1.641h-13.359v1.641h13.359zM7.5 3.32q-0.352 0-0.586 0.254t-0.234 0.605 0.234 0.586 0.586 0.234 0.586-0.234 0.234-0.586-0.234-0.605-0.586-0.254zM12.5 3.32q-0.352 0-0.586 0.254t-0.234 0.605 0.234 0.586 0.586 0.234 0.586-0.234 0.234-0.586-0.234-0.605-0.586-0.254zM16.68 5q0.703 0 1.172 0.488t0.469 1.191v9.141q0 0.703-0.469 1.191t-1.172 0.488h-13.359q-0.703 0-1.172-0.488t-0.469-1.191v-9.141q0-0.703 0.469-1.191t1.172-0.488h1.836q-0.156-0.547-0.156-0.82 0-1.016 0.742-1.758t1.758-0.742q1.289 0 2.070 1.094l0.43 0.586 0.43-0.586q0.273-0.469 0.898-0.781t1.172-0.313q1.016 0 1.758 0.742t0.742 1.758q0 0.273-0.156 0.82h1.836z"></path>
</svg>
