<!-- Generated by IcoMoon.io -->
<svg version="1.1" xmlns="http://www.w3.org/2000/svg" width="20" height="20" viewBox="0 0 20 20">
<title>remove_shopping_cart</title>
<path d="M5.82 15q0.664 0 1.172 0.508t0.508 1.172-0.508 1.152-1.172 0.488-1.152-0.488-0.488-1.152 0.488-1.172 1.152-0.508zM12.969 10.82l-7.5-7.5h11.211q0.352 0 0.586 0.254t0.234 0.605q0 0.039-0.117 0.391l-2.969 5.391q-0.469 0.859-1.445 0.859zM6.172 12.5h4.219l-1.68-1.68h-1.953l-0.742 1.367-0.039 0.117q0 0.195 0.195 0.195zM18.945 18.945l-1.055 1.055-2.383-2.383q-0.508 0.703-1.328 0.703-0.664 0-1.172-0.488t-0.508-1.152q0-0.859 0.703-1.367l-1.172-1.133h-6.211q-0.664 0-1.152-0.508t-0.488-1.172q0-0.391 0.195-0.781l1.133-2.070-1.836-3.867-3.672-3.672 1.055-1.055z"></path>
</svg>
