<!-- Generated by IcoMoon.io -->
<svg version="1.1" xmlns="http://www.w3.org/2000/svg" width="20" height="20" viewBox="0 0 20 20">
<title>replay_circle_filled</title>
<path d="M15 10q0-2.070-1.465-3.535t-3.535-1.465v-2.5l-3.32 3.32 3.32 3.359v-2.5q1.367 0 2.344 0.977t0.977 2.344-0.977 2.344-2.344 0.977-2.344-0.977-0.977-2.344h-1.68q0 2.070 1.465 3.535t3.535 1.465 3.535-1.465 1.465-3.535zM10 1.68q3.438 0 5.879 2.441t2.441 5.879-2.441 5.879-5.879 2.441-5.879-2.441-2.441-5.879 2.441-5.879 5.879-2.441z"></path>
</svg>
