<!-- Generated by IcoMoon.io -->
<svg version="1.1" xmlns="http://www.w3.org/2000/svg" width="20" height="20" viewBox="0 0 20 20">
<title>replay_10</title>
<path d="M11.016 12.656q0 0.273 0.391 0.273 0.195 0 0.273-0.078l0.156-0.195q0.078-0.156 0.078-0.234v-1.68q-0.078-0.156-0.078-0.234t-0.176-0.176-0.254-0.098q-0.117 0-0.234 0.117l-0.156 0.156q-0.117 0.156-0.117 0.234v1.68q0.117 0.156 0.117 0.234zM12.656 11.836q0 0.508-0.078 0.664l-0.234 0.508q-0.273 0.234-0.43 0.234-0.078 0-0.254 0.039t-0.254 0.039q-0.352 0-0.508-0.078-0.078-0.039-0.195-0.117t-0.195-0.117q-0.352-0.195-0.352-1.172v-0.586q0-0.508 0.078-0.664l0.273-0.508q0.234-0.234 0.391-0.234 0.078 0 0.254-0.039t0.254-0.039q0.352 0 0.508 0.078 0.078 0.039 0.215 0.117t0.215 0.117 0.234 0.508q0.078 0.234 0.078 0.664v0.586zM9.102 13.32h-0.781v-2.734l-0.82 0.234v-0.586l1.484-0.469h0.117v3.555zM10 4.18q2.773 0 4.727 1.953t1.953 4.688q0 2.773-1.973 4.727t-4.707 1.953-4.707-1.953-1.973-4.727h1.68q0 2.070 1.484 3.535t3.516 1.465 3.516-1.465 1.484-3.535-1.484-3.535-3.516-1.465v3.359l-4.18-4.18 4.18-4.18v3.359z"></path>
</svg>
