<!-- Generated by IcoMoon.io -->
<svg version="1.1" xmlns="http://www.w3.org/2000/svg" width="20" height="20" viewBox="0 0 20 20">
<title>replay_30</title>
<path d="M11.172 12.656q0 0.273 0.43 0.273 0.156 0 0.234-0.078l0.156-0.195q0.078-0.156 0.078-0.234v-1.68q0-0.039-0.039-0.117t-0.039-0.117q0-0.078-0.156-0.176t-0.234-0.098q-0.156 0-0.273 0.117l-0.156 0.156q-0.078 0.156-0.078 0.234v1.68q0.078 0.156 0.078 0.234zM12.734 11.836q0 0.508-0.078 0.664l-0.234 0.508q-0.273 0.234-0.43 0.234-0.078 0-0.254 0.039t-0.254 0.039q-0.273 0-0.898-0.313-0.078-0.039-0.234-0.508-0.117-0.352-0.117-0.664v-0.586q0-0.43 0.117-0.664l0.234-0.508q0.273-0.234 0.43-0.234 0.078 0 0.234-0.039t0.234-0.039q0.352 0 0.508 0.078 0.078 0.039 0.215 0.117t0.215 0.117 0.234 0.508q0.078 0.234 0.078 0.664v0.586zM8.32 11.25q0.586 0 0.586-0.508v-0.156q-0.078-0.078-0.078-0.156t-0.156-0.078h-0.43q-0.078 0.078-0.156 0.078t-0.078 0.156v0.156h-0.859q0-0.313 0.215-0.605t0.488-0.293q0.039 0 0.195-0.039t0.195-0.039q0.469 0 0.938 0.234 0.313 0.156 0.313 0.742v0.273q-0.078 0.156-0.078 0.234 0 0.156-0.156 0.156-0.078 0-0.273 0.195 0.352 0.195 0.43 0.313 0.156 0.313 0.156 0.508 0 0.352-0.078 0.43-0.039 0.039-0.117 0.156t-0.117 0.156q-0.156 0.156-0.43 0.156-0.078 0-0.254 0.039t-0.254 0.039q-0.313 0-0.391-0.078-0.039-0.039-0.195-0.078t-0.234-0.078q-0.352-0.195-0.352-0.82h0.703v0.156q0.078 0.078 0.078 0.156t0.156 0.078h0.43q0.078-0.078 0.156-0.078t0.078-0.156v-0.43q-0.078-0.078-0.078-0.156t-0.156-0.078h-0.508v-0.586h0.313zM10 4.18q2.773 0 4.727 1.953t1.953 4.688q0 2.773-1.973 4.727t-4.707 1.953-4.707-1.953-1.973-4.727h1.68q0 2.070 1.484 3.535t3.516 1.465 3.516-1.465 1.484-3.535-1.484-3.535-3.516-1.465v3.359l-4.18-4.18 4.18-4.18v3.359z"></path>
</svg>
