<!-- Generated by IcoMoon.io -->
<svg version="1.1" xmlns="http://www.w3.org/2000/svg" width="20" height="20" viewBox="0 0 20 20">
<title>replay_5</title>
<path d="M9.844 11.328q-0.273 0.117-0.273 0.156l-0.078 0.117h-0.586l0.195-1.836h1.992v0.586h-1.445l-0.078 0.742q0.078 0 0.078-0.078 0-0.039 0.059-0.059t0.059-0.059h0.313q0.313 0 0.43 0.117 0.039 0.039 0.156 0.117t0.156 0.117q0.352 0.352 0.352 0.898 0 0.352-0.078 0.43-0.039 0.039-0.117 0.195t-0.156 0.234-0.176 0.137-0.137 0.098q-0.078 0.078-0.508 0.078-0.352 0-0.43-0.078-0.039-0.039-0.176-0.078t-0.215-0.078q-0.352-0.195-0.352-0.742h0.664q0 0.391 0.508 0.391 0.156 0 0.234-0.078l0.195-0.156q0.078-0.156 0.078-0.234v-0.508l-0.078-0.156-0.195-0.195q-0.156-0.078-0.234-0.078h-0.156zM10 4.18q2.773 0 4.727 1.953t1.953 4.688q0 2.773-1.973 4.727t-4.707 1.953-4.707-1.953-1.973-4.727h1.68q0 2.070 1.484 3.535t3.516 1.465 3.516-1.465 1.484-3.535-1.484-3.535-3.516-1.465v3.359l-4.18-4.18 4.18-4.18v3.359z"></path>
</svg>
