<!-- Generated by IcoMoon.io -->
<svg version="1.1" xmlns="http://www.w3.org/2000/svg" width="20" height="20" viewBox="0 0 20 20">
<title>restore_page</title>
<path d="M10 15q1.719 0 2.949-1.23t1.23-2.949-1.23-2.93-2.949-1.211q-2.266 0-3.516 1.914l-1.055-1.094v3.32h3.32l-1.328-1.328q0.313-0.625 1.074-1.094t1.504-0.469q1.211 0 2.070 0.84t0.859 2.051-0.859 2.070-2.070 0.859q-1.523 0-2.383-1.25h-1.445q0.469 1.133 1.504 1.816t2.324 0.684zM11.68 1.68l5 5v10q0 0.664-0.508 1.152t-1.172 0.488h-10q-0.664 0-1.172-0.488t-0.508-1.152l0.039-13.359q0-0.664 0.488-1.152t1.152-0.488h6.68z"></path>
</svg>
