<!-- Generated by IcoMoon.io -->
<svg version="1.1" xmlns="http://www.w3.org/2000/svg" width="20" height="20" viewBox="0 0 20 20">
<title>ring_volume</title>
<path d="M5.352 8.164q-2.891-2.891-2.969-2.93l1.172-1.211 2.969 2.969zM10.82 1.68v4.141h-1.641v-4.141h1.641zM17.617 5.234l-2.969 2.93-1.172-1.172 2.969-2.969zM19.766 13.906q0.234 0.234 0.234 0.586t-0.234 0.586l-2.070 2.070q-0.234 0.234-0.586 0.234t-0.586-0.234q-1.094-1.016-2.227-1.563-0.469-0.195-0.469-0.742v-2.578q-1.797-0.586-3.828-0.586t-3.828 0.586v2.578q0 0.586-0.469 0.781-1.25 0.586-2.227 1.523-0.234 0.234-0.586 0.234t-0.586-0.234l-2.070-2.070q-0.234-0.234-0.234-0.586t0.234-0.586q4.102-3.906 9.766-3.906 2.344 0 5.195 1.152t4.57 2.754z"></path>
</svg>
