<!-- Generated by IcoMoon.io -->
<svg version="1.1" xmlns="http://www.w3.org/2000/svg" width="20" height="20" viewBox="0 0 20 20">
<title>rotate_90_degrees_ccw</title>
<path d="M16.133 5.547q0.898 0.898 1.543 2.441t0.645 2.832-0.645 2.852-1.543 2.461q-2.148 2.188-5.313 2.188-1.914 0-3.594-0.938l1.25-1.211q1.172 0.508 2.383 0.508 0.977 0 2.188-0.508t1.914-1.211 1.211-1.934 0.508-2.207-0.508-2.188-1.211-1.914q-1.719-1.719-4.141-1.719v2.695l-3.516-3.516 3.516-3.555v2.695h0.039q1.289 0 2.832 0.664t2.441 1.563zM3.086 10.742l3.047 3.047 3.047-3.047-3.047-3.047zM6.133 5.352l5.391 5.391-5.391 5.391-5.43-5.391z"></path>
</svg>
