<!-- Generated by IcoMoon.io -->
<svg version="1.1" xmlns="http://www.w3.org/2000/svg" width="20" height="20" viewBox="0 0 20 20">
<title>rotate_right</title>
<path d="M14.063 12.891q0.664-0.898 0.859-2.070h1.68q-0.234 1.797-1.328 3.242zM10.82 14.922q1.172-0.195 2.070-0.859l1.211 1.211q-1.406 1.094-3.281 1.328v-1.68zM16.602 9.18h-1.68q-0.195-1.172-0.859-2.070l1.211-1.172q1.133 1.406 1.328 3.242zM12.969 4.609l-3.789 3.711v-3.242q-1.797 0.313-2.988 1.699t-1.191 3.223 1.191 3.223 2.988 1.699v1.68q-2.461-0.313-4.16-2.188t-1.699-4.414 1.699-4.414 4.16-2.188v-2.578z"></path>
</svg>
