<!-- Generated by IcoMoon.io -->
<svg version="1.1" xmlns="http://www.w3.org/2000/svg" width="20" height="20" viewBox="0 0 20 20">
<title>rotate_left</title>
<path d="M10.82 3.398q2.461 0.313 4.16 2.188t1.699 4.414-1.699 4.414-4.16 2.188v-1.68q1.797-0.313 2.988-1.699t1.191-3.223-1.191-3.223-2.988-1.699v3.242l-3.789-3.711 3.789-3.789v2.578zM5.898 15.273l1.211-1.211q0.898 0.664 2.070 0.859v1.68q-1.875-0.234-3.281-1.328zM5.078 10.82q0.195 1.133 0.82 2.070l-1.172 1.172q-1.094-1.445-1.328-3.242h1.68zM5.938 7.109q-0.703 1.016-0.859 2.070h-1.68q0.234-1.758 1.367-3.242z"></path>
</svg>
