<!-- Generated by IcoMoon.io -->
<svg version="1.1" xmlns="http://www.w3.org/2000/svg" width="20" height="20" viewBox="0 0 20 20">
<title>rounded_corner</title>
<path d="M17.5 6.68v4.141h-1.68v-4.141q0-1.016-0.742-1.758t-1.758-0.742h-4.141v-1.68h4.141q1.719 0 2.949 1.23t1.23 2.949zM2.5 17.5v-1.68h1.68v1.68h-1.68zM5.82 17.5v-1.68h1.68v1.68h-1.68zM9.18 17.5v-1.68h1.641v1.68h-1.641zM5.82 4.18v-1.68h1.68v1.68h-1.68zM2.5 4.18v-1.68h1.68v1.68h-1.68zM2.5 7.5v-1.68h1.68v1.68h-1.68zM2.5 14.18v-1.68h1.68v1.68h-1.68zM2.5 10.82v-1.641h1.68v1.641h-1.68zM15.82 14.18v-1.68h1.68v1.68h-1.68zM15.82 15.82h1.68v1.68h-1.68v-1.68z"></path>
</svg>
