<!-- Generated by IcoMoon.io -->
<svg version="1.1" xmlns="http://www.w3.org/2000/svg" width="20" height="20" viewBox="0 0 20 20">
<title>router</title>
<path d="M12.5 15v-1.68h-1.68v1.68h1.68zM9.57 15v-1.68h-1.641v1.68h1.641zM6.68 15v-1.68h-1.68v1.68h1.68zM15.82 10.82q0.664 0 1.172 0.508t0.508 1.172v3.32q0 0.664-0.508 1.172t-1.172 0.508h-11.641q-0.664 0-1.172-0.508t-0.508-1.172v-3.32q0-0.664 0.508-1.172t1.172-0.508h8.32v-3.32h1.68v3.32h1.641zM16.094 5.586l-0.664 0.664q-0.82-0.82-2.109-0.82-1.25 0-2.070 0.82l-0.664-0.664q1.172-1.172 2.734-1.172 1.602 0 2.773 1.172zM16.836 4.922q-1.602-1.406-3.516-1.406-1.875 0-3.477 1.406l-0.664-0.664q1.758-1.758 4.141-1.758 2.422 0 4.18 1.758z"></path>
</svg>
