<!-- Generated by IcoMoon.io -->
<svg version="1.1" xmlns="http://www.w3.org/2000/svg" width="20" height="20" viewBox="0 0 20 20">
<title>rowing</title>
<path d="M17.5 17.5l-2.5 2.5-2.5-2.5v-1.25l-5.898-5.898q-0.273 0.039-0.781 0.039v-1.797q1.016 0.039 2.109-0.449t1.797-1.23l1.172-1.289q0.625-0.625 1.367-0.625h0.039q0.742 0 1.309 0.547t0.566 1.328v4.805q0 1.016-0.781 1.797l-2.969-2.969v-1.914q-0.781 0.664-1.914 1.172l5.234 5.234h1.25zM12.5 0.82q0.664 0 1.172 0.508t0.508 1.172-0.508 1.172-1.172 0.508-1.172-0.508-0.508-1.172 0.508-1.172 1.172-0.508zM7.070 12.070l2.109 2.109h-1.68l-2.93 2.891-1.25-1.25z"></path>
</svg>
