<!-- Generated by IcoMoon.io -->
<svg version="1.1" xmlns="http://www.w3.org/2000/svg" width="20" height="20" viewBox="0 0 20 20">
<title>rv_hookup</title>
<path d="M14.18 1.68l2.5 2.5-2.5 2.5v-1.68h-6.68v-1.68h6.68v-1.641zM15 11.68v-2.5h-3.32v2.5h3.32zM9.18 16.68q0.352 0 0.586-0.254t0.234-0.605-0.234-0.586-0.586-0.234-0.605 0.234-0.254 0.586 0.254 0.605 0.605 0.254zM16.68 14.18h1.641v1.641h-6.641q0 1.016-0.742 1.758t-1.758 0.742-1.758-0.742-0.742-1.758h-1.68q-0.664 0-1.172-0.488t-0.508-1.152v-2.5h5.859v-2.5h-3.359v1.641l-2.5-2.5 2.5-2.5v1.68h9.18q0.664 0 1.172 0.508t0.508 1.172v5z"></path>
</svg>
