<!-- Generated by IcoMoon.io -->
<svg version="1.1" xmlns="http://www.w3.org/2000/svg" width="20" height="20" viewBox="0 0 20 20">
<title>satellite</title>
<path d="M4.18 15h11.641l-3.75-5-2.891 3.75-2.109-2.5zM4.18 10q2.422 0 4.121-1.719t1.699-4.141h-1.68q0 1.719-1.211 2.949t-2.93 1.23v1.68zM4.18 4.141v2.539q1.016 0 1.758-0.762t0.742-1.777h-2.5zM15.82 2.5q0.664 0 1.172 0.508t0.508 1.172v11.641q0 0.664-0.508 1.172t-1.172 0.508h-11.641q-0.664 0-1.172-0.508t-0.508-1.172v-11.641q0-0.664 0.508-1.172t1.172-0.508h11.641z"></path>
</svg>
