<!-- Generated by IcoMoon.io -->
<svg version="1.1" xmlns="http://www.w3.org/2000/svg" width="20" height="20" viewBox="0 0 20 20">
<title>scatter_plot</title>
<path d="M11.328 14.648q0-1.016 0.742-1.758t1.758-0.742 1.758 0.742 0.742 1.758-0.742 1.758-1.758 0.742-1.758-0.742-0.742-1.758zM6.68 5q0-1.016 0.742-1.758t1.758-0.742 1.758 0.742 0.742 1.758-0.742 1.758-1.758 0.742-1.758-0.742-0.742-1.758zM3.32 11.68q0-1.016 0.742-1.758t1.758-0.742 1.758 0.742 0.742 1.758-0.742 1.758-1.758 0.742-1.758-0.742-0.742-1.758z"></path>
</svg>
