<!-- Generated by IcoMoon.io -->
<svg version="1.1" xmlns="http://www.w3.org/2000/svg" width="20" height="20" viewBox="0 0 20 20">
<title>schedule_send</title>
<path d="M13.32 17.5q1.719 0 2.949-1.23t1.23-2.949-1.23-2.949-2.949-1.23q-1.68 0-2.91 1.211t-1.23 2.93v0.078q0 1.719 1.211 2.93t2.93 1.211zM13.32 7.5q2.422 0 4.141 1.719t1.719 4.102-1.738 4.121-4.121 1.738q-1.992 0-3.535-1.191t-2.051-3.066l-6.055 2.578v-5.82l7.5-1.68-7.5-1.68v-5.82zM13.75 10.43v2.695l1.875 1.25-0.625 1.055-2.5-1.68v-3.32h1.25z"></path>
</svg>
