<!-- Generated by IcoMoon.io -->
<svg version="1.1" xmlns="http://www.w3.org/2000/svg" width="20" height="20" viewBox="0 0 20 20">
<title>score</title>
<path d="M15.82 10.82v-2.070l-5 5-3.32-3.32-3.32 3.32v2.070l3.32-3.32 3.32 3.32zM5.82 6.055v3.125h3.359v-1.25h-2.109v-0.625h2.109v-3.125h-3.359v1.25h2.109v0.625h-2.109zM10 4.18v5h1.25v-2.5l1.68 2.5h1.406l-1.68-2.5 1.68-2.5h-1.406l-1.68 2.5v-2.5h-1.25zM15.82 2.5q0.664 0 1.172 0.508t0.508 1.172v11.641q0 0.664-0.508 1.172t-1.172 0.508h-11.641q-0.664 0-1.172-0.508t-0.508-1.172v-11.641q0-0.664 0.508-1.172t1.172-0.508h11.641z"></path>
</svg>
