<!-- Generated by IcoMoon.io -->
<svg version="1.1" xmlns="http://www.w3.org/2000/svg" width="20" height="20" viewBox="0 0 20 20">
<title>screen_rotation</title>
<path d="M6.25 17.891l1.133-1.094 3.164 3.164-0.547 0.039q-3.906 0-6.777-2.656t-3.184-6.523h1.25q0.195 2.070 1.641 4.141t3.32 2.93zM12.344 17.656l5.313-5.313-10-10-5.313 5.313zM8.516 1.445l10.039 10.039q0.391 0.352 0.391 0.859t-0.391 0.898l-5.313 5.313q-0.352 0.391-0.859 0.391t-0.898-0.391l-10.039-10.039q-0.352-0.352-0.352-0.859 0-0.547 0.352-0.898l5.313-5.313q0.352-0.352 0.898-0.352 0.508 0 0.859 0.352zM13.75 2.109l-1.133 1.094-3.164-3.164 0.547-0.039q3.906 0 6.777 2.656t3.184 6.523h-1.25q-0.234-2.344-1.563-4.219t-3.398-2.852z"></path>
</svg>
