<!-- Generated by IcoMoon.io -->
<svg version="1.1" xmlns="http://www.w3.org/2000/svg" width="20" height="20" viewBox="0 0 20 20">
<title>screen_lock_rotation</title>
<path d="M13.984 2.070v0.43h2.852v-0.43q0-0.586-0.41-0.996t-0.996-0.41-1.016 0.41-0.43 0.996zM13.32 7.5q-0.352 0-0.586-0.234t-0.234-0.586v-3.359q0-0.352 0.234-0.586t0.586-0.234v-0.43q0-0.859 0.625-1.465t1.484-0.605 1.465 0.605 0.605 1.465v0.43q0.352 0 0.586 0.234t0.234 0.586v3.359q0 0.352-0.234 0.586t-0.586 0.234h-4.18zM7.070 17.070l1.094-1.094 3.164 3.164-0.547 0.039q-3.906 0-6.777-2.656t-3.184-6.523h1.25q0.195 2.070 1.66 4.141t3.34 2.93zM19.375 10.625q0.391 0.352 0.391 0.879t-0.391 0.918l-5.313 5.273q-0.352 0.391-0.859 0.391t-0.898-0.391l-10-10q-0.391-0.391-0.391-0.898 0-0.469 0.391-0.859l5.273-5.313q0.352-0.352 0.898-0.352t0.898 0.352l2.031 2.031-1.172 1.172-1.758-1.719-4.727 4.688 9.453 9.453 4.688-4.727-1.836-1.836 1.172-1.172z"></path>
</svg>
