<!-- Generated by IcoMoon.io -->
<svg version="1.1" xmlns="http://www.w3.org/2000/svg" width="20" height="20" viewBox="0 0 20 20">
<title>screen_lock_portrait</title>
<path d="M14.18 15.82v-11.641h-8.359v11.641h8.359zM14.18 0.82q0.664 0 1.152 0.508t0.488 1.172v15q0 0.664-0.488 1.172t-1.152 0.508h-8.359q-0.664 0-1.152-0.508t-0.488-1.172v-15q0-0.664 0.488-1.172t1.152-0.508h8.359zM8.984 8.32v0.859h2.031v-0.859q0-0.391-0.293-0.684t-0.723-0.293-0.723 0.293-0.293 0.684zM8.32 13.32q-0.352 0-0.586-0.234t-0.234-0.586v-2.5q0-0.352 0.234-0.586t0.586-0.234v-0.859q0-0.703 0.488-1.172t1.191-0.469 1.191 0.469 0.488 1.172v0.859q0.352 0 0.586 0.234t0.234 0.586v2.5q0 0.352-0.234 0.586t-0.586 0.234h-3.359z"></path>
</svg>
