<!-- Generated by IcoMoon.io -->
<svg version="1.1" xmlns="http://www.w3.org/2000/svg" width="20" height="20" viewBox="0 0 20 20">
<title>screen_lock_landscape</title>
<path d="M8.984 8.32v0.859h2.031v-0.859q0-0.391-0.293-0.684t-0.723-0.293-0.723 0.293-0.293 0.684zM8.32 13.32q-0.352 0-0.586-0.234t-0.234-0.586v-2.5q0-0.352 0.234-0.586t0.586-0.234v-0.859q0-0.703 0.488-1.172t1.191-0.469 1.191 0.469 0.488 1.172v0.859q0.352 0 0.586 0.234t0.234 0.586v2.5q0 0.352-0.234 0.586t-0.586 0.234h-3.359zM15.82 14.18v-8.359h-11.641v8.359h11.641zM17.5 4.18q0.664 0 1.172 0.488t0.508 1.152v8.359q0 0.664-0.508 1.152t-1.172 0.488h-15q-0.664 0-1.172-0.488t-0.508-1.152v-8.359q0-0.664 0.508-1.152t1.172-0.488h15z"></path>
</svg>
