<!-- Generated by IcoMoon.io -->
<svg version="1.1" xmlns="http://www.w3.org/2000/svg" width="20" height="20" viewBox="0 0 20 20">
<title>sd</title>
<path d="M12.070 11.25v-2.5h1.68v2.5h-1.68zM7.93 11.25h-1.68v-0.43h-1.25v0.859q0 0.352 0.234 0.586t0.586 0.234h2.5q0.352 0 0.605-0.234t0.254-0.586v-1.25q0-0.352-0.254-0.605t-0.605-0.254h-2.070v-0.82h1.68v0.43h1.25v-0.859q0-0.352-0.254-0.586t-0.605-0.234h-2.5q-0.352 0-0.586 0.234t-0.234 0.586v1.25q0 0.352 0.234 0.605t0.586 0.254h2.109v0.82zM10.82 7.5v5h3.359q0.352 0 0.586-0.234t0.234-0.586v-3.359q0-0.352-0.234-0.586t-0.586-0.234h-3.359zM15.82 2.5q0.664 0 1.172 0.508t0.508 1.172v11.641q0 0.664-0.508 1.172t-1.172 0.508h-11.641q-0.703 0-1.191-0.488t-0.488-1.191v-11.641q0-0.703 0.488-1.191t1.191-0.488h11.641z"></path>
</svg>
