<!-- Generated by IcoMoon.io -->
<svg version="1.1" xmlns="http://www.w3.org/2000/svg" width="20" height="20" viewBox="0 0 20 20">
<title>search</title>
<path d="M7.93 11.68q1.563 0 2.656-1.094t1.094-2.656-1.094-2.656-2.656-1.094-2.656 1.094-1.094 2.656 1.094 2.656 2.656 1.094zM12.93 11.68l4.141 4.141-1.25 1.25-4.141-4.141v-0.664l-0.234-0.234q-1.484 1.289-3.516 1.289-2.266 0-3.848-1.563t-1.582-3.828 1.582-3.848 3.848-1.582 3.828 1.582 1.563 3.848q0 0.82-0.391 1.855t-0.898 1.66l0.234 0.234h0.664z"></path>
</svg>
