<!-- Generated by IcoMoon.io -->
<svg version="1.1" xmlns="http://www.w3.org/2000/svg" width="20" height="20" viewBox="0 0 20 20">
<title>sentiment_dissatisfied</title>
<path d="M10 13.75q-0.859 0-1.641 0.43l-0.43-0.469q-0.039-0.039-0.43-0.469 1.094-0.742 2.5-0.742 1.328 0 2.5 0.742-0.078 0.039-0.449 0.449t-0.41 0.488q-0.742-0.43-1.641-0.43zM10 16.68q2.734 0 4.707-1.973t1.973-4.707-1.973-4.707-4.707-1.973-4.707 1.973-1.973 4.707 1.973 4.707 4.707 1.973zM10 1.68q3.438 0 5.879 2.441t2.441 5.879-2.441 5.879-5.879 2.441-5.879-2.441-2.441-5.879 2.441-5.879 5.879-2.441zM5.82 7.93q0-0.508 0.371-0.879t0.879-0.371 0.879 0.371 0.371 0.879-0.371 0.879-0.879 0.371-0.879-0.371-0.371-0.879zM11.68 7.93q0-0.508 0.371-0.879t0.879-0.371 0.879 0.371 0.371 0.879-0.371 0.879-0.879 0.371-0.879-0.371-0.371-0.879z"></path>
</svg>
