<!-- Generated by IcoMoon.io -->
<svg version="1.1" xmlns="http://www.w3.org/2000/svg" width="20" height="20" viewBox="0 0 20 20">
<title>sentiment_very_satisfied</title>
<path d="M5.82 11.68h8.359q-0.508 1.484-1.641 2.402t-2.539 0.918-2.539-0.918-1.641-2.402zM10 16.68q2.734 0 4.707-1.973t1.973-4.707-1.973-4.707-4.707-1.973-4.707 1.973-1.973 4.707 1.973 4.707 4.707 1.973zM10 1.68q3.438 0 5.879 2.441t2.441 5.879-2.441 5.879-5.879 2.441-5.879-2.441-2.441-5.879 2.441-5.879 5.879-2.441zM5.82 7.93q0-0.508 0.371-0.879t0.879-0.371 0.879 0.371 0.371 0.879-0.371 0.879-0.879 0.371-0.879-0.371-0.371-0.879zM11.68 7.93q0-0.508 0.371-0.879t0.879-0.371 0.879 0.371 0.371 0.879-0.371 0.879-0.879 0.371-0.879-0.371-0.371-0.879z"></path>
</svg>
