<!-- Generated by IcoMoon.io -->
<svg version="1.1" xmlns="http://www.w3.org/2000/svg" width="20" height="20" viewBox="0 0 20 20">
<title>sentiment_very_dissatisfied</title>
<path d="M10 11.68q1.445 0 2.598 0.801t1.66 2.090h-1.367q-0.977-1.641-2.891-1.641t-2.891 1.641h-1.367q0.508-1.289 1.66-2.090t2.598-0.801zM10 16.68q2.734 0 4.707-1.973t1.973-4.707-1.973-4.707-4.707-1.973-4.707 1.973-1.973 4.707 1.973 4.707 4.707 1.973zM10 1.68q3.438 0 5.879 2.441t2.441 5.879-2.441 5.879-5.879 2.441-5.879-2.441-2.441-5.879 2.441-5.879 5.879-2.441zM5.82 7.93q0-0.508 0.371-0.879t0.879-0.371 0.879 0.371 0.371 0.879-0.371 0.879-0.879 0.371-0.879-0.371-0.371-0.879zM11.68 7.93q0-0.508 0.371-0.879t0.879-0.371 0.879 0.371 0.371 0.879-0.371 0.879-0.879 0.371-0.879-0.371-0.371-0.879z"></path>
</svg>
