<!-- Generated by IcoMoon.io -->
<svg version="1.1" xmlns="http://www.w3.org/2000/svg" width="20" height="20" viewBox="0 0 20 20">
<title>settings_remote</title>
<path d="M10 0q3.867 0 6.484 2.695l-1.172 1.172q-2.188-2.188-5.313-2.188t-5.313 2.188l-1.172-1.172q2.695-2.695 6.484-2.695zM5.859 5.039q1.719-1.719 4.141-1.719t4.141 1.719l-1.172 1.172q-0.508-0.508-1.387-0.859t-1.582-0.352-1.582 0.352-1.387 0.859zM10 12.5q0.664 0 1.172-0.508t0.508-1.172-0.508-1.152-1.172-0.488-1.172 0.488-0.508 1.152 0.508 1.172 1.172 0.508zM12.5 7.5q0.352 0 0.586 0.234t0.234 0.586v10q0 0.352-0.234 0.605t-0.586 0.254h-5q-0.352 0-0.586-0.254t-0.234-0.605v-10q0-0.352 0.234-0.586t0.586-0.234h5z"></path>
</svg>
