<!-- Generated by IcoMoon.io -->
<svg version="1.1" xmlns="http://www.w3.org/2000/svg" width="20" height="20" viewBox="0 0 20 20">
<title>settings_backup_restore</title>
<path d="M10 2.5q3.125 0 5.313 2.188t2.188 5.313-2.188 5.313-5.313 2.188q-1.055 0-2.383-0.449t-2.188-1.113l1.172-1.172q1.484 1.055 3.398 1.055 2.422 0 4.121-1.699t1.699-4.121-1.699-4.121-4.121-1.699-4.121 1.699-1.699 4.121h2.5l-3.359 3.32-3.32-3.32h2.5q0-3.125 2.188-5.313t5.313-2.188zM11.68 10q0 0.664-0.508 1.172t-1.172 0.508-1.172-0.508-0.508-1.172 0.508-1.172 1.172-0.508 1.172 0.508 0.508 1.172z"></path>
</svg>
