<!-- Generated by IcoMoon.io -->
<svg version="1.1" xmlns="http://www.w3.org/2000/svg" width="20" height="20" viewBox="0 0 20 20">
<title>settings_overscan</title>
<path d="M17.5 15.859v-11.719h-15v11.719h15zM17.5 2.5q0.664 0 1.172 0.508t0.508 1.172v11.641q0 0.664-0.508 1.172t-1.172 0.508h-15q-0.664 0-1.172-0.508t-0.508-1.172v-11.641q0-0.664 0.508-1.172t1.172-0.508h15zM11.68 13.32l-1.68 2.109-1.68-2.109h3.359zM5 8.32v3.359l-2.070-1.68zM15 8.32l2.070 1.68-2.070 1.68v-3.359zM10 4.57l1.68 2.109h-3.359z"></path>
</svg>
