<!-- Generated by IcoMoon.io -->
<svg version="1.1" xmlns="http://www.w3.org/2000/svg" width="20" height="20" viewBox="0 0 20 20">
<title>settings_voice</title>
<path d="M15.82 8.32q0 2.109-1.465 3.711t-3.535 1.914v2.734h-1.641v-2.734q-2.070-0.313-3.535-1.914t-1.465-3.711h1.406q0 1.836 1.309 3.047t3.105 1.211 3.105-1.211 1.309-3.047h1.406zM12.5 20v-1.68h1.68v1.68h-1.68zM9.18 20v-1.68h1.641v1.68h-1.641zM10 10.82q-1.016 0-1.758-0.742t-0.742-1.758v-5q0-1.016 0.742-1.758t1.758-0.742 1.758 0.742 0.742 1.758v5q0 1.016-0.742 1.758t-1.758 0.742zM5.82 20v-1.68h1.68v1.68h-1.68z"></path>
</svg>
