<!-- Generated by IcoMoon.io -->
<svg version="1.1" xmlns="http://www.w3.org/2000/svg" width="20" height="20" viewBox="0 0 20 20">
<title>settings_input_svideo</title>
<path d="M12.93 12.5q0.508 0 0.879 0.352t0.371 0.898-0.371 0.898-0.879 0.352-0.879-0.352-0.371-0.898 0.371-0.898 0.879-0.352zM14.57 8.32q0.508 0 0.879 0.371t0.371 0.879-0.371 0.879-0.879 0.371-0.879-0.371-0.371-0.879 0.371-0.879 0.879-0.371zM10 17.5q3.125 0 5.313-2.188t2.188-5.313-2.188-5.313-5.313-2.188-5.313 2.188-2.188 5.313 2.188 5.313 5.313 2.188zM10 0.82q3.789 0 6.484 2.695t2.695 6.484-2.695 6.484-6.484 2.695-6.484-2.695-2.695-6.484 2.695-6.484 6.484-2.695zM7.070 12.5q0.508 0 0.879 0.352t0.371 0.898-0.371 0.898-0.879 0.352-0.879-0.352-0.371-0.898 0.371-0.898 0.879-0.352zM12.5 5.43q0 0.508-0.352 0.879t-0.898 0.371h-2.5q-0.547 0-0.898-0.371t-0.352-0.879 0.352-0.879 0.898-0.371h2.5q0.547 0 0.898 0.371t0.352 0.879zM6.68 9.57q0 0.508-0.371 0.879t-0.879 0.371-0.879-0.371-0.371-0.879 0.371-0.879 0.879-0.371 0.879 0.371 0.371 0.879z"></path>
</svg>
