<!-- Generated by IcoMoon.io -->
<svg version="1.1" xmlns="http://www.w3.org/2000/svg" width="20" height="20" viewBox="0 0 20 20">
<title>settings_brightness</title>
<path d="M10 7.5v5q1.016 0 1.758-0.742t0.742-1.758-0.742-1.758-1.758-0.742zM6.68 13.32v-2.070l-1.25-1.25 1.25-1.25v-2.070h2.070l1.25-1.25 1.25 1.25h2.070v2.070l1.25 1.25-1.25 1.25v2.070h-2.070l-1.25 1.25-1.25-1.25h-2.070zM17.5 15.859v-11.719h-15v11.719h15zM17.5 2.5q0.664 0 1.172 0.508t0.508 1.172v11.641q0 0.664-0.508 1.172t-1.172 0.508h-15q-0.664 0-1.172-0.508t-0.508-1.172v-11.641q0-0.664 0.508-1.172t1.172-0.508h15z"></path>
</svg>
