<!-- Generated by IcoMoon.io -->
<svg version="1.1" xmlns="http://www.w3.org/2000/svg" width="20" height="20" viewBox="0 0 20 20">
<title>settings_power</title>
<path d="M12.5 20v-1.68h1.68v1.68h-1.68zM13.789 3.711q2.891 2.031 2.891 5.469 0 2.734-1.953 4.688t-4.727 1.953-4.727-1.953-1.953-4.688q0-1.445 0.84-3.047t2.051-2.422l1.172 1.172q-2.383 1.484-2.383 4.297 0 2.070 1.465 3.535t3.535 1.465 3.535-1.465 1.465-3.535q0-1.172-0.703-2.422t-1.719-1.836zM10.82 1.68v8.32h-1.641v-8.32h1.641zM9.18 20v-1.68h1.641v1.68h-1.641zM5.82 20v-1.68h1.68v1.68h-1.68z"></path>
</svg>
