<!-- Generated by IcoMoon.io -->
<svg version="1.1" xmlns="http://www.w3.org/2000/svg" width="20" height="20" viewBox="0 0 20 20">
<title>settings_input_antenna</title>
<path d="M10 0.82q3.789 0 6.484 2.695t2.695 6.484h-1.68q0-3.125-2.188-5.313t-5.313-2.188-5.313 2.188-2.188 5.313h-1.68q0-3.789 2.695-6.484t6.484-2.695zM10.82 11.914v2.734l2.852 2.852-1.172 1.172-2.5-2.5-2.5 2.5-1.172-1.172 2.852-2.852v-2.734q-1.25-0.508-1.25-1.914 0-0.859 0.605-1.465t1.465-0.605 1.465 0.605 0.605 1.465q0 1.406-1.25 1.914zM10 4.18q2.422 0 4.121 1.699t1.699 4.121h-1.641q0-1.719-1.23-2.949t-2.949-1.23-2.949 1.23-1.23 2.949h-1.641q0-2.422 1.699-4.121t4.121-1.699z"></path>
</svg>
