<!-- Generated by IcoMoon.io -->
<svg version="1.1" xmlns="http://www.w3.org/2000/svg" width="20" height="20" viewBox="0 0 20 20">
<title>settings_input_componentsettings_input_composite</title>
<path d="M14.18 13.32v-1.641h5v1.641q0 0.82-0.469 1.445t-1.211 0.898v3.516h-1.68v-3.516q-1.641-0.586-1.641-2.344zM10.82 1.68v3.32h1.68v5h-5v-5h1.68v-3.32q0-0.352 0.234-0.605t0.586-0.254 0.586 0.254 0.234 0.605zM17.5 5h1.68v5h-5v-5h1.641v-3.32q0-0.352 0.254-0.605t0.605-0.254 0.586 0.254 0.234 0.605v3.32zM0.82 13.32v-1.641h5v1.641q0 1.758-1.641 2.344v3.516h-1.68v-3.516q-0.742-0.273-1.211-0.898t-0.469-1.445zM7.5 13.32v-1.641h5v1.641q0 0.82-0.469 1.445t-1.211 0.898v3.516h-1.641v-3.516q-0.742-0.273-1.211-0.898t-0.469-1.445zM4.18 1.68v3.32h1.641v5h-5v-5h1.68v-3.32q0-0.352 0.234-0.605t0.586-0.254 0.605 0.254 0.254 0.605z"></path>
</svg>
