<!-- Generated by IcoMoon.io -->
<svg version="1.1" xmlns="http://www.w3.org/2000/svg" width="20" height="20" viewBox="0 0 20 20">
<title>settings_applications</title>
<path d="M14.375 10q0-0.391-0.039-0.586l1.25-0.938q0.195-0.156 0.039-0.391l-1.172-2.031q-0.117-0.195-0.352-0.117l-1.445 0.586q-0.508-0.391-0.977-0.586l-0.234-1.523q-0.078-0.234-0.273-0.234h-2.344q-0.234 0-0.273 0.234l-0.234 1.563q-0.625 0.273-0.977 0.547l-1.445-0.586q-0.195-0.078-0.352 0.156l-1.172 1.992q-0.039 0.039-0.039 0.156 0 0.195 0.078 0.234l1.25 0.938q-0.039 0.195-0.039 0.586t0.039 0.586l-1.25 0.938q-0.078 0.039-0.078 0.234 0 0.117 0.039 0.156l1.172 2.031q0.117 0.195 0.352 0.117l1.445-0.586q0.508 0.391 0.977 0.586l0.234 1.523q0.078 0.234 0.273 0.234h2.344q0.234 0 0.273-0.234l0.234-1.563q0.625-0.273 0.977-0.547l1.445 0.586q0.195 0.078 0.352-0.156l1.172-1.992q0.156-0.234-0.039-0.391l-1.25-0.938q0.039-0.195 0.039-0.586zM15.82 2.5q0.703 0 1.191 0.488t0.488 1.191v11.641q0 0.703-0.488 1.191t-1.191 0.488h-11.641q-0.703 0-1.191-0.488t-0.488-1.191v-11.641q0-0.703 0.488-1.191t1.191-0.488h11.641zM10 8.32q0.664 0 1.172 0.508t0.508 1.172-0.508 1.172-1.172 0.508-1.172-0.508-0.508-1.172 0.508-1.172 1.172-0.508z"></path>
</svg>
