<!-- Generated by IcoMoon.io -->
<svg version="1.1" xmlns="http://www.w3.org/2000/svg" width="20" height="20" viewBox="0 0 20 20">
<title>settings_system_daydream</title>
<path d="M17.5 15.859v-11.719h-15v11.719h15zM17.5 2.5q0.664 0 1.172 0.508t0.508 1.172v11.641q0 0.664-0.508 1.172t-1.172 0.508h-15q-0.664 0-1.172-0.508t-0.508-1.172v-11.641q0-0.664 0.508-1.172t1.172-0.508h15zM7.5 13.32q-1.016 0-1.758-0.742t-0.742-1.758q0-0.938 0.645-1.66t1.582-0.801h0.156q0.82-1.68 2.617-1.68 1.094 0 1.914 0.723t0.977 1.777h0.039q0.859 0 1.465 0.605t0.605 1.465-0.605 1.465-1.465 0.605h-5.43z"></path>
</svg>
