<!-- Generated by IcoMoon.io -->
<svg version="1.1" xmlns="http://www.w3.org/2000/svg" width="20" height="20" viewBox="0 0 20 20">
<title>shop_two</title>
<path d="M10 12.5l4.57-3.32-4.57-2.5v5.82zM10 2.5v1.68h3.32v-1.68h-3.32zM15 4.18h4.18v9.141q0 0.703-0.488 1.191t-1.191 0.488h-11.68q-0.703 0-1.172-0.488t-0.469-1.191v-9.141h4.141v-1.68q0-0.703 0.488-1.191t1.191-0.488h3.32q0.703 0 1.191 0.488t0.488 1.191v1.68zM2.5 7.5v9.18h13.32q0 0.703-0.469 1.172t-1.172 0.469h-11.68q-0.703 0-1.191-0.469t-0.488-1.172v-9.18h1.68z"></path>
</svg>
