<!-- Generated by IcoMoon.io -->
<svg version="1.1" xmlns="http://www.w3.org/2000/svg" width="20" height="20" viewBox="0 0 20 20">
<title>shopping_basket</title>
<path d="M10 14.18q0.664 0 1.172-0.508t0.508-1.172-0.508-1.172-1.172-0.508-1.172 0.508-0.508 1.172 0.508 1.172 1.172 0.508zM7.5 7.5h5l-2.5-3.672zM14.336 7.5h3.984q0.352 0 0.605 0.234t0.254 0.586q-0.391 1.563-1.172 4.395t-0.977 3.574q-0.352 1.211-1.602 1.211h-10.859q-1.25 0-1.602-1.211l-2.109-7.734q-0.039-0.078-0.039-0.234 0-0.352 0.254-0.586t0.605-0.234h3.984l3.633-5.469q0.234-0.352 0.703-0.352 0.508 0 0.703 0.352z"></path>
</svg>
