<!-- Generated by IcoMoon.io -->
<svg version="1.1" xmlns="http://www.w3.org/2000/svg" width="20" height="20" viewBox="0 0 20 20">
<title>shuffle_on</title>
<path d="M12.344 11.172l-1.172 1.172 2.617 2.617-1.719 1.719h4.609v-4.609l-1.719 1.719zM12.070 3.32l1.719 1.719-10.469 10.469 1.172 1.172 10.469-10.469 1.719 1.719v-4.609h-4.609zM8.828 7.656l-4.336-4.336-1.172 1.172 4.336 4.336zM17.5 0.82q0.664 0 1.172 0.508t0.508 1.172v15q0 0.664-0.508 1.172t-1.172 0.508h-15q-0.664 0-1.172-0.508t-0.508-1.172v-15q0-0.664 0.508-1.172t1.172-0.508h15z"></path>
</svg>
