<!-- Generated by IcoMoon.io -->
<svg version="1.1" xmlns="http://www.w3.org/2000/svg" width="20" height="20" viewBox="0 0 20 20">
<title>shutter_speed</title>
<path d="M11.094 5.977l-2.266 3.906-1.914-2.969q1.406-1.094 3.086-1.094 0.391 0 1.094 0.156zM13.633 14.258l-2.344-4.258h3.633q0.078 0.547 0.078 0.82v0.039q0 0.82-0.391 1.816t-0.977 1.582zM6.289 7.5l2.734 4.18h-3.945q-0.078-0.547-0.078-0.859 0-0.781 0.371-1.758t0.918-1.563zM8.828 15.703l2.383-4.102 1.758 3.242q-1.289 0.977-2.969 0.977-0.586 0-1.172-0.117zM14.727 9.18h-4.492l1.68-2.969q0.859 0.352 1.699 1.23t1.113 1.738zM9.727 12.5l-1.68 2.93q-0.859-0.352-1.66-1.211t-1.113-1.719h4.453zM10 16.68q2.422 0 4.121-1.719t1.699-4.141-1.699-4.121-4.121-1.699-4.121 1.699-1.699 4.121 1.699 4.141 4.121 1.719zM15.859 6.172q0.664 0.859 1.152 2.207t0.488 2.441q0 3.086-2.188 5.293t-5.313 2.207-5.313-2.207-2.188-5.293 2.188-5.293 5.313-2.207q1.055 0 2.441 0.508t2.246 1.172l1.172-1.211q0.625 0.508 1.172 1.172zM12.5 0.82v1.68h-5v-1.68h5z"></path>
</svg>
