<!-- Generated by IcoMoon.io -->
<svg version="1.1" xmlns="http://www.w3.org/2000/svg" width="20" height="20" viewBox="0 0 20 20">
<title>signal_wifi_4_bar_lock</title>
<path d="M12.93 12.070v2.188l-2.93 3.672-9.648-12.109 0.234-0.195q0.234-0.156 0.488-0.332t0.684-0.449 0.918-0.508 1.113-0.527 1.328-0.508 1.465-0.41 1.641-0.293 1.777-0.098 1.777 0.098 1.641 0.293 1.465 0.41 1.328 0.508 1.113 0.527 0.918 0.508 0.684 0.449 0.488 0.332l0.234 0.195-1.719 2.188q-0.234-0.078-0.859-0.078-1.758 0-2.949 1.191t-1.191 2.949zM18.32 13.32v-1.25q0-0.508-0.371-0.879t-0.879-0.371-0.879 0.371-0.371 0.879v1.25h2.5zM19.18 13.32q0.313 0 0.566 0.273t0.254 0.586v3.32q0 0.313-0.254 0.566t-0.566 0.254h-4.18q-0.313 0-0.566-0.254t-0.254-0.566v-3.32q0-0.313 0.254-0.586t0.566-0.273v-1.25q0-0.898 0.586-1.484t1.484-0.586 1.504 0.605 0.605 1.465v1.25z"></path>
</svg>
