<!-- Generated by IcoMoon.io -->
<svg version="1.1" xmlns="http://www.w3.org/2000/svg" width="20" height="20" viewBox="0 0 20 20">
<title>sim_card</title>
<path d="M14.18 12.5v-3.32h-1.68v3.32h1.68zM10.82 10.82v-1.641h-1.641v1.641h1.641zM10.82 15.82v-3.32h-1.641v3.32h1.641zM7.5 12.5v-3.32h-1.68v3.32h1.68zM14.18 15.82v-1.641h-1.68v1.641h1.68zM7.5 15.82v-1.641h-1.68v1.641h1.68zM16.641 3.32l0.039 13.359q0 0.664-0.508 1.152t-1.172 0.488h-10q-0.664 0-1.172-0.488t-0.508-1.152v-10l5-5h6.68q0.664 0 1.152 0.488t0.488 1.152z"></path>
</svg>
