<!-- Generated by IcoMoon.io -->
<svg version="1.1" xmlns="http://www.w3.org/2000/svg" width="20" height="20" viewBox="0 0 20 20">
<title>single_bed</title>
<path d="M5 10v2.5h10v-2.5h-10zM6.68 5.82v2.5h2.5v-2.5h-2.5zM13.32 8.32v-2.5h-2.5v2.5h2.5zM16.68 10v4.18h-1.133l-0.547 1.641h-0.82l-0.547-1.641h-7.227l-0.586 1.641h-0.82l-0.547-1.641h-1.133v-4.18q0-0.664 0.508-1.172t1.172-0.508v-2.5q0-0.664 0.508-1.152t1.172-0.488h6.641q0.664 0 1.172 0.488t0.508 1.152v2.5q0.664 0 1.172 0.508t0.508 1.172z"></path>
</svg>
