<!-- Generated by IcoMoon.io -->
<svg version="1.1" xmlns="http://www.w3.org/2000/svg" width="20" height="20" viewBox="0 0 20 20">
<title>slow_motion_video</title>
<path d="M18.32 10q0 3.203-2.148 5.586t-5.313 2.695v-1.68q2.461-0.313 4.141-2.207t1.68-4.395-1.68-4.395-4.141-2.207v-1.68q3.164 0.313 5.313 2.695t2.148 5.586zM4.727 16.445l1.172-1.172q1.406 1.094 3.281 1.328v1.68q-1.055-0.117-2.363-0.664t-2.090-1.172zM3.398 10.82q0.195 1.836 1.328 3.242l-1.172 1.211q-1.602-1.992-1.836-4.453h1.68zM4.727 5.898q-1.094 1.445-1.328 3.281h-1.68q0.117-1.055 0.664-2.363t1.172-2.090zM9.18 3.398q-1.875 0.234-3.281 1.328l-1.172-1.172q1.992-1.602 4.453-1.836v1.68zM10.859 8.164l2.461 1.836q-2.461 1.836-5 3.75z"></path>
</svg>
