<!-- Generated by IcoMoon.io -->
<svg version="1.1" xmlns="http://www.w3.org/2000/svg" width="20" height="20" viewBox="0 0 20 20">
<title>smoking_rooms</title>
<path d="M13.359 8.516q1.211 0 2.051 0.742t0.84 1.875v1.367h-1.25v-1.094q0-0.781-0.488-1.23t-1.152-0.449h-1.289q-1.133 0-1.953-0.84t-0.82-1.973 0.82-1.953 1.953-0.82v1.25q-0.664 0-1.094 0.41t-0.43 1.035q0 0.664 0.449 1.172t1.074 0.508h1.289zM15.703 6.445q1.172 0.547 1.895 1.68t0.723 2.5v1.875h-1.25v-1.875q0-1.406-0.957-2.383t-2.363-0.977v-1.25q0.625 0 1.074-0.449t0.449-1.113q0-0.625-0.449-1.074t-1.074-0.449v-1.25q1.133 0 1.953 0.82t0.82 1.953q0 1.172-0.82 1.992zM15 13.32h1.25v2.5h-1.25v-2.5zM17.070 13.32h1.25v2.5h-1.25v-2.5zM1.68 13.32h12.5v2.5h-12.5v-2.5z"></path>
</svg>
