<!-- Generated by IcoMoon.io -->
<svg version="1.1" xmlns="http://www.w3.org/2000/svg" width="20" height="20" viewBox="0 0 20 20">
<title>smoke_free</title>
<path d="M14.18 13.281l-2.461-2.461h2.461v2.461zM12.070 7.266q-1.133 0-1.953-0.84t-0.82-1.973 0.82-1.953 1.953-0.82v1.25q-0.664 0-1.094 0.41t-0.43 1.035q0 0.664 0.449 1.172t1.074 0.508h1.289q1.172 0 2.031 0.762t0.859 1.855v1.328h-1.25v-1.055q0-0.781-0.488-1.23t-1.152-0.449h-1.289zM15.703 4.063q1.172 0.547 1.895 1.68t0.723 2.539v1.719h-1.25v-1.719q0-1.406-0.957-2.402t-2.363-0.996v-1.25q0.625 0 1.074-0.449t0.449-1.113h1.25q0 1.172-0.82 1.992zM15 10.82h1.25v2.5h-1.25v-2.5zM17.070 10.82h1.25v2.5h-1.25v-2.5zM1.68 5l1.016-1.055 14.18 14.18-1.055 1.055-5.82-5.859h-8.32v-2.5h5.82z"></path>
</svg>
