<!-- Generated by IcoMoon.io -->
<svg version="1.1" xmlns="http://www.w3.org/2000/svg" width="20" height="20" viewBox="0 0 20 20">
<title>snooze</title>
<path d="M7.5 9.18v-1.68h5v1.484l-3.008 3.516h3.008v1.68h-5v-1.523l3.008-3.477h-3.008zM10 16.68q2.422 0 4.121-1.719t1.699-4.141-1.699-4.121-4.121-1.699-4.121 1.699-1.699 4.121 1.699 4.141 4.121 1.719zM10 3.32q3.125 0 5.313 2.207t2.188 5.293-2.188 5.293-5.313 2.207-5.313-2.207-2.188-5.293 2.188-5.293 5.313-2.207zM18.32 4.766l-1.055 1.289-3.828-3.242 1.055-1.25zM6.563 2.813l-3.828 3.203-1.055-1.25 3.828-3.203z"></path>
</svg>
