<!-- Generated by IcoMoon.io -->
<svg version="1.1" xmlns="http://www.w3.org/2000/svg" width="20" height="20" viewBox="0 0 20 20">
<title>speaker_group</title>
<path d="M5 4.18v13.32h8.32v1.68h-8.32q-0.703 0-1.191-0.488t-0.488-1.191v-13.32h1.68zM9.57 10.43q0-0.859 0.625-1.484t1.484-0.625 1.465 0.625 0.605 1.484-0.605 1.465-1.465 0.605-1.484-0.605-0.625-1.465zM11.68 13.75q1.367 0 2.344-0.977t0.977-2.344-0.977-2.363-2.344-0.996-2.363 0.996-0.996 2.363 0.996 2.344 2.363 0.977zM11.68 2.5q-0.664 0-1.172 0.488t-0.508 1.191 0.488 1.172 1.191 0.469q0.664 0 1.152-0.469t0.488-1.172-0.488-1.191-1.152-0.488zM15.156 0.82q0.625 0 1.074 0.449t0.449 1.074v11.992q0 0.625-0.449 1.055t-1.074 0.43h-6.992q-0.625 0-1.055-0.43t-0.43-1.055v-11.992q0-0.625 0.43-1.074t1.055-0.449h6.992z"></path>
</svg>
