<!-- Generated by IcoMoon.io -->
<svg version="1.1" xmlns="http://www.w3.org/2000/svg" width="20" height="20" viewBox="0 0 20 20">
<title>speaker</title>
<path d="M10 10q1.016 0 1.758 0.742t0.742 1.758-0.742 1.758-1.758 0.742-1.758-0.742-0.742-1.758 0.742-1.758 1.758-0.742zM10 16.68q1.719 0 2.949-1.23t1.23-2.949-1.23-2.949-2.949-1.23-2.949 1.23-1.23 2.949 1.23 2.949 2.949 1.23zM10 3.32q-0.703 0-1.191 0.488t-0.488 1.191 0.488 1.191 1.191 0.488q0.664 0 1.172-0.508t0.508-1.172-0.508-1.172-1.172-0.508zM14.18 1.68q0.664 0 1.152 0.488t0.488 1.152v13.359q0 0.664-0.488 1.152t-1.152 0.488h-8.359q-0.664 0-1.152-0.488t-0.488-1.152v-13.359q0-0.664 0.488-1.152t1.152-0.488h8.359z"></path>
</svg>
