<!-- Generated by IcoMoon.io -->
<svg version="1.1" xmlns="http://www.w3.org/2000/svg" width="20" height="20" viewBox="0 0 20 20">
<title>speaker_phone</title>
<path d="M12.5 16.68v-6.68h-5v6.68h5zM12.383 8.359q0.391 0 0.664 0.273t0.273 0.664v8.086q0 0.391-0.273 0.664t-0.664 0.273h-4.766q-0.391 0-0.664-0.273t-0.273-0.664v-8.086q0-0.391 0.273-0.684t0.664-0.293zM10 0.82q1.563 0 3.438 0.781t3.008 1.914l-1.172 1.172q-2.188-2.188-5.273-2.188t-5.273 2.188l-1.172-1.172q2.695-2.695 6.445-2.695zM5.82 5.898q1.719-1.719 4.18-1.719t4.18 1.719l-1.211 1.172q-1.211-1.211-2.969-1.211t-2.969 1.211z"></path>
</svg>
