<!-- Generated by IcoMoon.io -->
<svg version="1.1" xmlns="http://www.w3.org/2000/svg" width="20" height="20" viewBox="0 0 20 20">
<title>speed</title>
<path d="M10 13.32q-0.664 0-1.172-0.488t-0.508-1.152q0-0.703 0.508-1.211l7.070-4.688-4.727 7.070q-0.469 0.469-1.172 0.469zM16.992 7.148q0.547 0.859 0.938 2.188t0.391 2.344q0 2.305-1.094 4.141-0.508 0.859-1.445 0.859h-11.563q-0.938 0-1.445-0.859-1.094-1.836-1.094-4.141 0-3.438 2.441-5.879t5.918-2.441q1.016 0 2.324 0.391t2.168 0.938l-1.563 1.016q-1.406-0.703-2.969-0.703-2.734 0-4.707 1.953t-1.973 4.727q0 1.797 0.898 3.32h11.563q0.898-1.523 0.898-3.32 0-1.602-0.703-3.008z"></path>
</svg>
