<!-- Generated by IcoMoon.io -->
<svg version="1.1" xmlns="http://www.w3.org/2000/svg" width="20" height="20" viewBox="0 0 20 20">
<title>sports_tennis</title>
<path d="M15 12.5q1.367 0 2.344 0.977t0.977 2.344-0.977 2.363-2.344 0.996-2.344-0.977-0.977-2.383q0-1.367 0.977-2.344t2.344-0.977zM15 14.18q-0.703 0-1.172 0.469-0.508 0.508-0.508 1.172t0.508 1.172 1.172 0.508q0.703 0 1.172-0.469 0.508-0.508 0.508-1.191t-0.508-1.191q-0.469-0.469-1.172-0.469zM8.594 9.727q0.977 0.977 2.637 0.723t2.988-1.582 1.582-2.988-0.723-2.637-2.617-0.703-2.969 1.602-1.602 2.969 0.703 2.617zM16.25 2.070q1.445 1.484 1.211 3.809t-2.070 4.16q-0.977 0.977-2.246 1.543t-2.324 0.566h-1.27t-0.664 0.020-0.723 0.098-0.645 0.195-0.684 0.332-0.586 0.488l-3.516 3.516-1.211-1.172 3.555-3.516q0.273-0.273 0.488-0.586t0.332-0.684 0.195-0.664 0.098-0.742 0.020-0.664v-1.27q0-1.016 0.566-2.285t1.543-2.246q1.836-1.836 4.16-2.109t3.77 1.211z"></path>
</svg>
