<!-- Generated by IcoMoon.io -->
<svg version="1.1" xmlns="http://www.w3.org/2000/svg" width="20" height="20" viewBox="0 0 20 20">
<title>sports_golf</title>
<path d="M5.82 15.82v-1.641h8.359v1.641h-1.68q-0.664 0-1.172 0.508t-0.508 1.172v0.82h-1.641v-0.82q0-0.664-0.508-1.172t-1.172-0.508h-1.68zM9.18 5q0-0.352 0.234-0.586t0.586-0.234 0.586 0.234 0.234 0.586-0.234 0.586-0.586 0.234-0.586-0.234-0.234-0.586zM10.82 6.68q0-0.352 0.254-0.605t0.605-0.254 0.586 0.254 0.234 0.605-0.234 0.586-0.586 0.234-0.605-0.234-0.254-0.586zM7.5 6.68q0-0.352 0.234-0.605t0.586-0.254 0.605 0.254 0.254 0.605-0.254 0.586-0.605 0.234-0.586-0.234-0.234-0.586zM10 3.32q-1.719 0-2.949 1.23t-1.23 2.949 1.23 2.949 2.949 1.23 2.949-1.23 1.23-2.949-1.23-2.949-2.949-1.23zM10 13.32q-2.422 0-4.121-1.699t-1.699-4.121 1.699-4.121 4.121-1.699 4.121 1.699 1.699 4.121-1.699 4.121-4.121 1.699z"></path>
</svg>
