<!-- Generated by IcoMoon.io -->
<svg version="1.1" xmlns="http://www.w3.org/2000/svg" width="20" height="20" viewBox="0 0 20 20">
<title>sports_basketball</title>
<path d="M7.461 10.82h1.719v7.461q-1.211-0.117-2.715-0.84t-2.402-1.621q1.211-0.664 2.207-2.148t1.191-2.852zM14.258 10.82h4.023q-0.195 1.953-1.289 3.672-0.977-0.469-1.758-1.543t-0.977-2.129zM3.008 14.492q-1.133-1.758-1.289-3.672h4.023q-0.195 1.055-0.977 2.129t-1.758 1.543zM12.539 10.82q0.195 1.367 1.191 2.852t2.207 2.148q-0.859 0.898-2.363 1.621t-2.754 0.84v-7.461h1.719zM7.461 9.18q-0.195-1.367-1.191-2.852t-2.207-2.148q0.859-0.898 2.363-1.621t2.754-0.84v7.461h-1.719zM12.539 9.18h-1.719v-7.461q1.211 0.117 2.715 0.84t2.402 1.621q-1.211 0.664-2.207 2.148t-1.191 2.852zM5.742 9.18h-4.023q0.195-1.953 1.289-3.672 0.977 0.469 1.758 1.543t0.977 2.129zM14.258 9.18q0.195-1.055 0.977-2.129t1.758-1.543q1.094 1.719 1.289 3.672h-4.023z"></path>
</svg>
