<!-- Generated by IcoMoon.io -->
<svg version="1.1" xmlns="http://www.w3.org/2000/svg" width="20" height="20" viewBox="0 0 20 20">
<title>sports_esports</title>
<path d="M14.18 10.82q0.352 0 0.586-0.234t0.234-0.586-0.234-0.586-0.586-0.234-0.605 0.234-0.254 0.586 0.254 0.586 0.605 0.234zM12.5 8.32q0.352 0 0.586-0.234t0.234-0.586-0.234-0.586-0.586-0.234-0.586 0.234-0.234 0.586 0.234 0.586 0.586 0.234zM9.18 9.18v-0.859h-1.68v-1.641h-0.82v1.641h-1.68v0.859h1.68v1.641h0.82v-1.641h1.68zM17.969 13.398q0.156 0.977-0.488 1.699t-1.621 0.723q-0.859 0-1.484-0.625l-1.875-1.875h-5l-1.875 1.875q-0.625 0.625-1.523 0.625t-1.504-0.605-0.605-1.504q0-0.039 0.020-0.156t0.020-0.156l0.898-6.367q0.156-1.211 1.094-2.031t2.188-0.82h7.578q1.211 0 2.148 0.84t1.133 2.012z"></path>
</svg>
