<!-- Generated by IcoMoon.io -->
<svg version="1.1" xmlns="http://www.w3.org/2000/svg" width="20" height="20" viewBox="0 0 20 20">
<title>sports_kabaddi</title>
<path d="M9.375 8.789q1.289 1.289 3.008 1.289l0.117 1.719q-2.422 0-4.219-1.719l-0.586-0.586-1.953 1.992 1.758 1.758v5h-1.68v-4.297l-1.055-0.977v1.836l-3.555 3.516-1.172-1.172 3.047-3.008-0.898-2.461q0-0.039-0.039-0.137t-0.059-0.176-0.020-0.156q-0.078-0.703 0.508-1.289l2.773-2.773q0.508-0.508 1.172-0.508 0.586 0 0.938 0.273 0.234 0.234 1.914 1.875zM9.18 6.992q-0.625-0.117-1.055-0.703t-0.273-1.25q0.117-0.898 1.016-1.25 0.234-0.078 0.352-0.078 0.078 0 0.156-0.039h0.117q0.078 0 0.176 0.020t0.137 0.020q0.391 0 0.859 0.469t0.488 1.133-0.488 1.211q-0.234 0.234-0.547 0.352-0.039 0-0.137 0.059t-0.176 0.059q-0.117 0.039-0.313 0.039-0.039 0-0.156-0.020t-0.156-0.020zM20 9.883h-1.68v-2.813l-1.484-0.586 0.742 3.711t0.859 4.336 0.742 3.711h-1.758l-1.523-6.68-1.719 1.68v5h-1.68v-6.25q0.703-0.664 1.758-1.68l-0.508-2.5q-0.703 0.781-1.758 1.367-1.172-0.117-2.070-1.016 1.953-0.352 2.813-1.914l0.859-1.367q0.781-1.25 2.188-0.664l4.219 1.758v3.906zM12.070 1.992q0-0.703 0.488-1.191t1.191-0.488 1.191 0.488 0.488 1.191-0.488 1.172-1.191 0.469-1.191-0.469-0.488-1.172z"></path>
</svg>
