<!-- Generated by IcoMoon.io -->
<svg version="1.1" xmlns="http://www.w3.org/2000/svg" width="20" height="20" viewBox="0 0 20 20">
<title>sports_handball</title>
<path d="M10.625 3.164q-0.625-0.352-0.625-1.055 0-0.547 0.352-0.898t0.898-0.352q0.742 0 1.094 0.625t0 1.211q-0.273 0.43-0.781 0.586t-0.938-0.117zM13.203 8.672q1.797 1.484 2.129 3.691t-0.723 3.887l-1.445-0.859q0.547-0.977 0.547-2.070 0-1.25-0.82-2.461l-5.234 9.063-1.445-0.82 2.5-4.336-1.445-0.82-1.25 2.148-1.406-0.82 4.258-7.422q-1.289-1.406-1.523-3.32t0.742-3.633l1.445 0.859q-0.859 1.484-0.43 3.145t1.914 2.52zM11.875 5q0.352-0.586 1.035-0.781t1.27 0.156 0.762 1.035-0.176 1.27-1.016 0.762-1.25-0.176-0.781-1.016 0.156-1.25z"></path>
</svg>
