<!-- Generated by IcoMoon.io -->
<svg version="1.1" xmlns="http://www.w3.org/2000/svg" width="20" height="20" viewBox="0 0 20 20">
<title>sports_rugby</title>
<path d="M13.516 13.516q2.539-2.539 2.695-6.68-1.367 3.008-3.867 5.508t-5.508 3.867q4.102-0.117 6.68-2.695zM6.484 6.484q-2.539 2.539-2.695 6.68 0.586-1.25 1.719-2.871t2.148-2.637q2.5-2.5 5.508-3.867-4.102 0.117-6.68 2.695zM17.070 2.93q0.664 0.664 0.82 2.656t-0.605 4.668-2.559 4.473q-1.641 1.641-3.887 2.402t-4.434 0.762q-2.656 0-3.477-0.82-0.664-0.664-0.82-2.656t0.605-4.668 2.559-4.473q1.641-1.641 3.887-2.402t4.434-0.762q2.656 0 3.477 0.82z"></path>
</svg>
