<!-- Generated by IcoMoon.io -->
<svg version="1.1" xmlns="http://www.w3.org/2000/svg" width="20" height="20" viewBox="0 0 20 20">
<title>sports_soccer</title>
<path d="M15.039 14.336q1.641-1.875 1.641-4.336 0-0.078-0.020-0.156t-0.020-0.117l-0.82-0.625-1.172 0.391-1.211 3.633 0.664 1.133zM11.875 12.5l1.133-3.359-3.008-2.109-3.008 2.109 1.133 3.359h3.75zM12.070 16.328l0.586-1.25-0.508-0.898h-4.258l-0.547 0.898 0.586 1.25q0.977 0.352 2.070 0.352t2.070-0.352zM5.898 14.258l0.664-1.133-1.211-3.633-1.172-0.391-0.82 0.625q0 0.039-0.020 0.117t-0.020 0.156q0 1.016 0.488 2.285t1.152 2.051zM8.047 3.633q-0.977 0.273-2.051 1.094t-1.621 1.68l0.352 1.133 1.133 0.352 3.32-2.305v-1.172zM10.82 4.414v1.172l3.32 2.305 1.133-0.352 0.352-1.133q-0.547-0.859-1.621-1.68t-2.051-1.094zM10 1.68q3.438 0 5.879 2.441t2.441 5.879-2.441 5.879-5.879 2.441-5.879-2.441-2.441-5.879 2.441-5.879 5.879-2.441z"></path>
</svg>
