<!-- Generated by IcoMoon.io -->
<svg version="1.1" xmlns="http://www.w3.org/2000/svg" width="20" height="20" viewBox="0 0 20 20">
<title>sports_volleyball</title>
<path d="M18.281 9.023l-7.461-4.297v-3.008q2.891 0.313 5 2.363t2.461 4.941zM6.719 17.656l7.461-4.297 2.578 1.523q-2.5 3.438-6.758 3.438-1.719 0-3.281-0.664zM10.82 6.641l7.461 4.297q-0.156 1.289-0.703 2.461l-6.758-3.867v-2.891zM10 10.977l2.5 1.445-7.461 4.258q-0.977-0.703-1.797-1.836zM9.18 9.531l-2.5 1.445v-8.594q1.211-0.547 2.5-0.664v7.813zM5 3.359v8.555l-2.578 1.523q-0.742-1.68-0.742-3.438 0-4.141 3.32-6.641z"></path>
</svg>
