<!-- Generated by IcoMoon.io -->
<svg version="1.1" xmlns="http://www.w3.org/2000/svg" width="20" height="20" viewBox="0 0 20 20">
<title>sports_motorsports</title>
<path d="M18.281 9.336q0.273 2.969-1.699 5.156t-4.902 2.188h-8.359q-0.664 0-1.152-0.508t-0.488-1.172v-0.664q0-0.742 0.156-1.836h6.797q1.211 0 2.109-0.898t0.898-2.109q0-1.992-1.797-2.773l-3.984-1.68q2.109-1.523 4.961-1.68 2.813-0.195 5 1.543t2.461 4.434zM10 9.492q0 0.547-0.391 0.938t-0.938 0.391h-6.484q0.742-2.734 2.344-4.531l4.648 1.953q0.82 0.313 0.82 1.25z"></path>
</svg>
