<!-- Generated by IcoMoon.io -->
<svg version="1.1" xmlns="http://www.w3.org/2000/svg" width="20" height="20" viewBox="0 0 20 20">
<title>sports_cricket</title>
<path d="M12.5 4.57q0-1.211 0.859-2.051t2.070-0.84 2.051 0.84 0.84 2.051-0.84 2.070-2.051 0.859-2.070-0.859-0.859-2.070zM11.953 14.805l1.172-1.172 3.555 3.516-1.211 1.172zM12.539 10.664q0.234 0.234 0.234 0.586t-0.234 0.586l-2.344 2.383q-0.234 0.234-0.586 0.234t-0.586-0.234l-7.109-7.070q-0.234-0.234-0.234-0.586t0.234-0.586l2.383-2.383q0.234-0.234 0.586-0.234t0.586 0.234z"></path>
</svg>
