<!-- Generated by IcoMoon.io -->
<svg version="1.1" xmlns="http://www.w3.org/2000/svg" width="20" height="20" viewBox="0 0 20 20">
<title>sports_hockey</title>
<path d="M11.328 10.703l1.172 2.617h3.32v3.359l-3.906-0.039q-0.508 0-0.742-0.43l-1.172-2.578q-0.273-0.547-0.742-1.602t-0.586-1.328l-3.398-7.383h2.813l1.914 4.336q0.078-0.195 0.254-0.566t0.215-0.449l1.445-3.32h2.813zM17.5 13.32q0.352 0 0.586 0.254t0.234 0.605v2.5h-1.641v-3.359h0.82zM7.5 13.32l0.703-1.602 1.328 2.891-0.703 1.602q-0.234 0.43-0.742 0.43l-3.906 0.039v-3.359h3.32zM1.68 14.18q0-0.352 0.234-0.605t0.586-0.254h0.82v3.359h-1.641v-2.5z"></path>
</svg>
