<!-- Generated by IcoMoon.io -->
<svg version="1.1" xmlns="http://www.w3.org/2000/svg" width="20" height="20" viewBox="0 0 20 20">
<title>sports</title>
<path d="M7.5 10q0-0.703 0.488-1.191t1.191-0.488 1.172 0.488 0.469 1.191-0.469 1.191-1.172 0.488-1.191-0.488-0.488-1.191zM9.18 12.5q1.016 0 1.758-0.742t0.742-1.758-0.742-1.758-1.758-0.742-1.758 0.742-0.742 1.758 0.742 1.758 1.758 0.742zM3.75 7.5q0.43 0 0.43-0.43 0-0.391-0.43-0.391t-0.43 0.391q0 0.43 0.43 0.43zM9.375 5h8.945v3.359h-3.359q-0.391 0-0.645 0.273t-0.215 0.664q0.117 0.898-0.039 1.719-0.313 1.563-1.523 2.656t-2.813 1.289q-0.078 0-0.273 0.020t-0.273 0.020q-2.070 0-3.535-1.465t-1.465-3.535v-0.234q0-0.273 0.078-0.664-0.313 0.078-0.508 0.078-0.859 0-1.465-0.625t-0.605-1.484 0.605-1.465 1.465-0.605q0.703 0 1.25 0.41t0.742 1.035q1.523-1.445 3.633-1.445z"></path>
</svg>
