<!-- Generated by IcoMoon.io -->
<svg version="1.1" xmlns="http://www.w3.org/2000/svg" width="20" height="20" viewBox="0 0 20 20">
<title>sports_baseball</title>
<path d="M11.68 10q0 1.797 1.172 3.574t2.813 2.52q-2.422 2.227-5.664 2.227t-5.664-2.227q1.797-0.781 2.891-2.422t1.094-3.672-1.094-3.672-2.891-2.422q2.422-2.227 5.664-2.227t5.664 2.227q-1.797 0.781-2.891 2.422t-1.094 3.672zM16.836 5.234q1.484 2.148 1.484 4.766t-1.484 4.766q-1.523-0.469-2.52-1.797t-0.996-2.969 0.996-2.969 2.52-1.797zM3.164 5.234q1.523 0.469 2.52 1.797t0.996 2.969-0.996 2.969-2.52 1.797q-1.484-2.148-1.484-4.766t1.484-4.766z"></path>
</svg>
