<!-- Generated by IcoMoon.io -->
<svg version="1.1" xmlns="http://www.w3.org/2000/svg" width="20" height="20" viewBox="0 0 20 20">
<title>sports_mma</title>
<path d="M12.5 8.32v-2.5h-6.68v2.5h6.68zM15 5.82q0.352 0 0.586 0.254t0.234 0.605v2.305q0 0.234-0.039 0.352l-0.664 3.32q-0.156 0.664-0.781 0.664h-8.672q-0.664 0-0.781-0.664l-0.664-3.32q-0.039-0.117-0.039-0.352v-4.805q0-0.664 0.488-1.172t1.152-0.508h6.68q0.664 0 1.172 0.508t0.508 1.172v2.5q0-0.352 0.234-0.605t0.586-0.254zM5.82 16.68v-2.5h8.359v2.5q0 0.352-0.254 0.586t-0.605 0.234h-6.641q-0.352 0-0.605-0.234t-0.254-0.586z"></path>
</svg>
