<!-- Generated by IcoMoon.io -->
<svg version="1.1" xmlns="http://www.w3.org/2000/svg" width="20" height="20" viewBox="0 0 20 20">
<title>stop_screen_share</title>
<path d="M5.82 12.5q1.133-1.563 3.047-2.031l-1.328-1.328q-1.25 1.211-1.719 3.359zM1.992 1.445l16.445 16.445-1.055 1.055-2.266-2.266h-15.117v-1.68h3.32q-0.703 0-1.172-0.469t-0.469-1.172v-8.359q0-0.742 0.547-1.211l-1.289-1.289zM18.32 13.359q0 0.977-0.859 1.445l-4.609-4.609 1.328-1.25-3.359-3.086v1.758q-0.078 0.039-0.215 0.039t-0.215 0.039l-4.375-4.336h10.664q0.703 0 1.172 0.469t0.469 1.172v8.359zM17.695 15h2.305v1.68h-0.664z"></path>
</svg>
