<!-- Generated by IcoMoon.io -->
<svg version="1.1" xmlns="http://www.w3.org/2000/svg" width="20" height="20" viewBox="0 0 20 20">
<title>storefront</title>
<path d="M4.18 15.82h11.68v-5h-0.195q-1.172 0-1.875-0.781-0.781 0.781-1.875 0.781-1.055 0-1.914-0.781-0.781 0.781-1.836 0.781-1.172 0-1.953-0.781-0.703 0.781-1.836 0.781h-0.195v5zM3.359 7.813q-0.117 0.547 0.234 0.977 0.273 0.391 0.781 0.391 0.82 0 0.977-0.977l0.508-4.023h-1.641zM7.070 8.047q0 0.43 0.293 0.781t0.723 0.352q0.469 0 0.781-0.332t0.313-0.762v-3.906h-1.641l-0.469 3.75v0.117zM10.82 4.18v3.906q0 0.43 0.313 0.762t0.703 0.332q0.508 0 0.84-0.371t0.254-0.879l-0.469-3.75h-1.641zM15.742 4.141l-1.602 0.039 0.508 4.023q0.039 0.391 0.313 0.684t0.664 0.293q0.469 0 0.781-0.391 0.352-0.43 0.234-0.977zM18.242 7.422q0.313 1.367-0.508 2.383l-0.234 0.234v5.781q0 0.664-0.508 1.172t-1.172 0.508h-11.641q-0.664 0-1.172-0.508t-0.508-1.172v-5.781l-0.234-0.234q-0.82-1.016-0.508-2.383l0.859-3.672q0.117-0.547 0.586-0.898t1.016-0.352h11.563q0.547 0 0.996 0.352t0.605 0.898z"></path>
</svg>
