<!-- Generated by IcoMoon.io -->
<svg version="1.1" xmlns="http://www.w3.org/2000/svg" width="20" height="20" viewBox="0 0 20 20">
<title>streetview</title>
<path d="M9.57 5q0 0.938 0.469 2.051t1.133 1.777l-8.164 8.164q-0.508-0.508-0.508-1.172v-11.641q0-0.664 0.508-1.172t1.172-0.508h6.016q-0.625 1.172-0.625 2.5zM10.82 5q0-1.719 1.23-2.949t2.949-1.23 2.949 1.23 1.23 2.949-1.23 2.949-2.949 1.23-2.949-1.23-1.23-2.949zM10.469 11.953q2.031-1.523 4.531-1.523 1.289 0 2.5 0.43v4.961q0 0.664-0.508 1.172t-1.172 0.508h-5.82v-4.57q0-0.586 0.469-0.977z"></path>
</svg>
