<!-- Generated by IcoMoon.io -->
<svg version="1.1" xmlns="http://www.w3.org/2000/svg" width="20" height="20" viewBox="0 0 20 20">
<title>stream</title>
<path d="M8.32 3.32q0-0.703 0.488-1.172t1.191-0.469 1.191 0.469 0.488 1.172-0.488 1.191-1.191 0.488-1.191-0.488-0.488-1.191zM16.484 15.234l-1.211 1.172q-0.703-0.703-1.992-2.012t-1.602-1.621l1.172-1.172 0.273 0.313zM8.359 12.813q-0.703 0.703-2.012 1.992t-1.621 1.602l-1.211-1.172q0.703-0.703 2.012-1.992t1.621-1.602zM11.602 7.188l3.672-3.672 1.211 1.172-3.672 3.672zM8.359 7.148l-1.172 1.172-0.273-0.234-3.32-3.398 1.172-1.172 0.234 0.273h0.039zM8.32 16.68q0-0.703 0.488-1.191t1.191-0.488 1.191 0.488 0.488 1.191-0.488 1.172-1.191 0.469-1.191-0.469-0.488-1.172zM1.68 10q0-0.703 0.469-1.191t1.172-0.488 1.191 0.488 0.488 1.191-0.488 1.191-1.191 0.488-1.172-0.488-0.469-1.191zM15 10q0-0.703 0.488-1.191t1.191-0.488 1.172 0.488 0.469 1.191-0.469 1.191-1.172 0.488-1.191-0.488-0.488-1.191z"></path>
</svg>
