<!-- Generated by IcoMoon.io -->
<svg version="1.1" xmlns="http://www.w3.org/2000/svg" width="20" height="20" viewBox="0 0 20 20">
<title>strikethrough_s</title>
<path d="M7.813 10.938q0 2.109 2.422 2.109 1.914 0 1.914-1.406 0-0.625-0.254-0.898t-0.918-0.586q-0.039 0-0.137-0.039t-0.176-0.078-0.156-0.039h-8.008v-1.68h15v1.68h-3.242q0 0.039 0.059 0.137t0.098 0.137q0.273 0.664 0.273 1.367 0 2.383-2.617 3.125-0.82 0.234-1.797 0.234-0.625 0-1.211-0.117-1.406-0.273-2.188-0.859-1.523-1.133-1.523-3.086h2.461zM12.148 6.25q0-1.758-1.992-1.758-1.406 0-1.836 0.859-0.117 0.234-0.117 0.547 0 0.586 0.625 1.016 0.625 0.391 1.172 0.586h-3.828q0-0.039-0.078-0.098t-0.078-0.098q-0.313-0.508-0.313-1.406 0-1.445 1.25-2.461 1.211-0.938 3.242-0.938 2.070 0 3.242 1.055 1.211 1.094 1.211 2.695h-2.5z"></path>
</svg>
