<!-- Generated by IcoMoon.io -->
<svg version="1.1" xmlns="http://www.w3.org/2000/svg" width="20" height="20" viewBox="0 0 20 20">
<title>style</title>
<path d="M4.883 16.445v-5.273l2.891 6.953h-1.211q-0.664 0-1.172-0.508t-0.508-1.172zM6.563 7.305q0.352 0 0.586-0.254t0.234-0.605-0.234-0.586-0.586-0.234-0.586 0.234-0.234 0.586 0.234 0.605 0.586 0.254zM18.359 13.281q0.117 0.234 0.117 0.625 0 0.469-0.293 0.938t-0.723 0.625l-6.133 2.539q-0.234 0.117-0.625 0.117-0.469 0-0.918-0.293t-0.645-0.723l-4.141-10q-0.117-0.234-0.117-0.625 0-0.469 0.293-0.898t0.723-0.625l6.172-2.539q0.352-0.117 0.664-0.117 0.43 0 0.859 0.293t0.625 0.723zM2.109 16.367q-0.625-0.273-0.898-0.898t0-1.25l2.031-4.883v7.5z"></path>
</svg>
