<!-- Generated by IcoMoon.io -->
<svg version="1.1" xmlns="http://www.w3.org/2000/svg" width="20" height="20" viewBox="0 0 20 20">
<title>subway</title>
<path d="M15 13.242v-5.742q0-1.484-1.289-1.992t-3.711-0.508q-2.305 0-3.652 0.508t-1.348 1.992v5.742q0 0.898 0.645 1.543t1.543 0.645l-0.938 0.938v0.313h1.406l1.25-1.25h2.344l1.25 1.25h1.25v-0.313l-0.938-0.938q0.898 0 1.543-0.645t0.645-1.543zM14.844 2.344q1.68 0.625 2.578 1.953t0.898 3.086v10.938h-16.641v-10.938q0-1.758 0.898-3.086t2.578-1.953q1.68-0.664 4.844-0.664t4.844 0.664zM5.859 7.5h8.32v4.18h-8.32v-4.18zM6.25 13.32q0-0.352 0.234-0.586t0.586-0.234 0.605 0.234 0.254 0.586-0.254 0.605-0.605 0.254-0.586-0.254-0.234-0.605zM12.070 13.32q0-0.352 0.254-0.586t0.605-0.234 0.586 0.234 0.234 0.586-0.234 0.605-0.586 0.254-0.605-0.254-0.254-0.605z"></path>
</svg>
