<!-- Generated by IcoMoon.io -->
<svg version="1.1" xmlns="http://www.w3.org/2000/svg" width="20" height="20" viewBox="0 0 20 20">
<title>supervisor_account</title>
<path d="M7.5 10.82q0.859 0 1.992 0.234-1.992 1.094-1.992 2.891v1.875h-5.82v-2.070q0-0.898 1.074-1.602t2.363-1.016 2.383-0.313zM13.75 11.68q1.445 0 3.008 0.625t1.563 1.641v1.875h-9.141v-1.875q0-1.016 1.563-1.641t3.008-0.625zM7.5 9.18q-1.016 0-1.758-0.742t-0.742-1.758 0.742-1.758 1.758-0.742 1.758 0.742 0.742 1.758-0.742 1.758-1.758 0.742zM13.75 10q-0.859 0-1.465-0.605t-0.605-1.465 0.605-1.484 1.465-0.625 1.465 0.625 0.605 1.484-0.605 1.465-1.465 0.605z"></path>
</svg>
