<!-- Generated by IcoMoon.io -->
<svg version="1.1" xmlns="http://www.w3.org/2000/svg" width="20" height="20" viewBox="0 0 20 20">
<title>supervised_user_circle</title>
<path d="M10 16.68q2.070 0 3.77-1.191t2.441-3.066q-1.172-0.938-3.203-0.938-1.133 0-2.402 0.488t-1.27 1.27v3.398q0.234 0.039 0.664 0.039zM8.008 13.242q0-1.367 1.563-2.227-0.977-0.195-1.563-0.195-1.055 0-2.383 0.371t-1.914 1.035q0.547 1.484 1.68 2.578t2.617 1.563v-3.125zM8.008 5.625q-0.82 0-1.406 0.586t-0.586 1.406 0.586 1.387 1.406 0.566 1.387-0.566 0.566-1.387-0.566-1.406-1.387-0.586zM13.008 6.953q-0.664 0-1.133 0.469t-0.469 1.133 0.469 1.133 1.133 0.469 1.133-0.469 0.469-1.133-0.469-1.133-1.133-0.469zM10 1.68q3.438 0 5.879 2.441t2.441 5.879-2.441 5.879-5.879 2.441q-3.477 0-5.918-2.441t-2.441-5.879 2.441-5.879 5.918-2.441z"></path>
</svg>
