<!-- Generated by IcoMoon.io -->
<svg version="1.1" xmlns="http://www.w3.org/2000/svg" width="20" height="20" viewBox="0 0 20 20">
<title>surround_sound</title>
<path d="M10 8.32q0.664 0 1.172 0.508t0.508 1.172-0.508 1.172-1.172 0.508-1.172-0.508-0.508-1.172 0.508-1.172 1.172-0.508zM14.727 14.727q1.953-1.953 1.953-4.727v-0.039q0-1.133-0.566-2.52t-1.387-2.168l-1.211 1.211q1.484 1.484 1.484 3.516 0 2.109-1.445 3.555zM10 13.32q1.367 0 2.344-0.977t0.977-2.344-0.977-2.344-2.344-0.977-2.344 0.977-0.977 2.344 0.977 2.344 2.344 0.977zM6.484 13.516q-1.484-1.484-1.484-3.516 0-2.109 1.445-3.555l-1.172-1.172q-1.953 1.953-1.953 4.727v0.039q0 1.133 0.566 2.52t1.387 2.168zM16.68 3.32q0.664 0 1.152 0.508t0.488 1.172v10q0 0.664-0.488 1.172t-1.152 0.508h-13.359q-0.664 0-1.152-0.508t-0.488-1.172v-10q0-0.664 0.488-1.172t1.152-0.508h13.359z"></path>
</svg>
