<!-- Generated by IcoMoon.io -->
<svg version="1.1" xmlns="http://www.w3.org/2000/svg" width="20" height="20" viewBox="0 0 20 20">
<title>swap_calls</title>
<path d="M15 3.32l3.32 3.359h-2.5v5.82q0 1.367-0.977 2.344t-2.344 0.977-2.344-0.977-0.977-2.344v-5.82q0-0.664-0.508-1.172t-1.172-0.508-1.172 0.508-0.508 1.172v5.82h2.5l-3.32 3.32-3.32-3.32h2.5v-5.82q0-1.367 0.977-2.363t2.344-0.996 2.344 0.996 0.977 2.363v5.82q0 0.664 0.508 1.172t1.172 0.508 1.172-0.508 0.508-1.172v-5.82h-2.5z"></path>
</svg>
