<!-- Generated by IcoMoon.io -->
<svg version="1.1" xmlns="http://www.w3.org/2000/svg" width="20" height="20" viewBox="0 0 20 20">
<title>swipe</title>
<path d="M16.758 3.242l1.563-1.563v4.141h-4.141l1.719-1.719q-0.664-0.859-2.266-1.445t-3.633-0.586-3.633 0.586-2.266 1.445l1.719 1.719h-4.141v-4.141l1.563 1.563q0.938-1.094 2.754-1.758t4.004-0.664 4.004 0.664 2.754 1.758zM16.445 13.555v0.156l-0.625 4.375q-0.078 0.469-0.41 0.781t-0.801 0.313h-5.664q-0.469 0-0.859-0.391l-4.141-4.102 0.664-0.664q0.273-0.273 0.664-0.273h0.195l2.852 0.625v-8.945q0-0.508 0.371-0.879t0.879-0.371 0.879 0.371 0.371 0.879v5h0.664q0.117 0 0.43 0.078l3.789 1.875q0.742 0.352 0.742 1.172z"></path>
</svg>
