<!-- Generated by IcoMoon.io -->
<svg version="1.1" xmlns="http://www.w3.org/2000/svg" width="20" height="20" viewBox="0 0 20 20">
<title>switch_account</title>
<path d="M16.68 13.32v-1.25q0-1.094-1.719-1.797t-3.281-0.703-3.281 0.703-1.719 1.797v1.25h10zM11.68 3.32q-1.016 0-1.758 0.742t-0.742 1.758 0.742 1.758 1.758 0.742 1.758-0.742 0.742-1.758-0.742-1.758-1.758-0.742zM16.68 1.68q0.664 0 1.152 0.488t0.488 1.152v10q0 0.664-0.488 1.172t-1.152 0.508h-10q-0.664 0-1.172-0.508t-0.508-1.172v-10q0-0.664 0.508-1.152t1.172-0.488h10zM3.32 5v11.68h11.68v1.641h-11.68q-0.664 0-1.152-0.488t-0.488-1.152v-11.68h1.641z"></path>
</svg>
