<!-- Generated by IcoMoon.io -->
<svg version="1.1" xmlns="http://www.w3.org/2000/svg" width="20" height="20" viewBox="0 0 20 20">
<title>sync_problem</title>
<path d="M9.18 10.82v-5h1.641v5h-1.641zM17.5 3.32l-1.953 1.992q1.953 1.953 1.953 4.688 0 2.305-1.406 4.102t-3.594 2.344v-1.719q1.367-0.508 2.344-1.895t0.977-2.832q0-0.859-0.41-1.875t-1.035-1.641l-1.875 1.836v-5h5zM9.18 14.18v-1.68h1.641v1.68h-1.641zM2.5 10q0-2.305 1.406-4.102t3.594-2.344v1.719q-1.367 0.508-2.344 1.895t-0.977 2.832q0 0.859 0.41 1.875t1.035 1.641l1.875-1.836v5h-5l1.953-1.992q-1.953-1.953-1.953-4.688z"></path>
</svg>
