<!-- Generated by IcoMoon.io -->
<svg version="1.1" xmlns="http://www.w3.org/2000/svg" width="20" height="20" viewBox="0 0 20 20">
<title>sync_disabled</title>
<path d="M16.68 3.32l-1.992 1.992q0.82 0.781 1.406 2.168t0.586 2.52q0 1.836-1.016 3.516l-1.25-1.211q0.586-1.172 0.586-2.305 0-0.859-0.43-1.875t-1.055-1.641l-1.836 1.836v-5h5zM2.383 4.492l1.055-1.055 13.086 13.125-1.055 1.055-1.953-1.953q-0.938 0.547-1.875 0.781v-1.719q0.313-0.117 0.664-0.313l-6.719-6.719q-0.586 1.172-0.586 2.305 0 0.859 0.43 1.875t1.055 1.641l1.836-1.836v5h-5l1.992-1.992q-0.82-0.781-1.406-2.168t-0.586-2.52q0-1.836 1.016-3.516zM8.32 5.273q-0.234 0.078-0.625 0.313l-1.211-1.25q0.977-0.586 1.836-0.781v1.719z"></path>
</svg>
