<!-- Generated by IcoMoon.io -->
<svg version="1.1" xmlns="http://www.w3.org/2000/svg" width="20" height="20" viewBox="0 0 20 20">
<title>tab_unselected</title>
<path d="M14.18 17.5v-1.68h1.641v1.68h-1.641zM10.82 17.5v-1.68h1.68v1.68h-1.68zM17.5 10.82v-1.641h1.68v1.641h-1.68zM17.5 17.5v-1.68h1.68q0 0.664-0.508 1.172t-1.172 0.508zM4.18 4.18v-1.68h1.641v1.68h-1.641zM4.18 17.5v-1.68h1.641v1.68h-1.641zM7.5 4.18v-1.68h1.68v1.68h-1.68zM17.5 14.18v-1.68h1.68v1.68h-1.68zM17.5 2.5q0.664 0 1.172 0.508t0.508 1.172v3.32h-8.359v-5h6.68zM2.5 17.5q-0.664 0-1.172-0.508t-0.508-1.172h1.68v1.68zM0.82 14.18v-1.68h1.68v1.68h-1.68zM7.5 17.5v-1.68h1.68v1.68h-1.68zM0.82 4.18q0-0.664 0.508-1.172t1.172-0.508v1.68h-1.68zM0.82 10.82v-1.641h1.68v1.641h-1.68zM0.82 7.5v-1.68h1.68v1.68h-1.68z"></path>
</svg>
