<!-- Generated by IcoMoon.io -->
<svg version="1.1" xmlns="http://www.w3.org/2000/svg" width="20" height="20" viewBox="0 0 20 20">
<title>tap_and_play</title>
<path d="M14.18 0.859q0.664 0 1.152 0.488t0.488 1.152v14.18q0 0.664-0.488 1.152t-1.152 0.488h-1.758q-0.117-1.68-0.781-3.32h2.539v-10.82h-8.359v5q-0.977-0.43-1.641-0.547v-6.133q0-0.664 0.488-1.172t1.152-0.508zM1.68 10q3.789 0 6.465 2.676t2.676 6.504h-1.641q0-3.086-2.207-5.293t-5.293-2.207v-1.68zM1.68 16.68q1.016 0 1.758 0.742t0.742 1.758h-2.5v-2.5zM1.68 13.32q2.422 0 4.121 1.719t1.699 4.141h-1.68q0-1.719-1.211-2.949t-2.93-1.23v-1.68z"></path>
</svg>
