<!-- Generated by IcoMoon.io -->
<svg version="1.1" xmlns="http://www.w3.org/2000/svg" width="20" height="20" viewBox="0 0 20 20">
<title>theater_comedy</title>
<path d="M15.82 6.719q0.352 0 0.605-0.234t0.254-0.586-0.254-0.586-0.605-0.234-0.586 0.234-0.234 0.586 0.234 0.586 0.586 0.234zM11.68 6.719q0.352 0 0.586-0.234t0.234-0.586-0.234-0.586-0.586-0.234-0.605 0.234-0.254 0.586 0.254 0.586 0.605 0.234zM9.18 2.5h9.141v5.43q0 1.914-1.328 3.242t-3.242 1.328q-1.055 0-2.070-0.508v-2.422h4.141q0-0.508-0.605-0.879t-1.465-0.371-1.465 0.371-0.605 0.879v-2.070h-2.5v-5zM4.18 10.82q-0.352 0-0.605 0.254t-0.254 0.605 0.254 0.586 0.605 0.234 0.586-0.234 0.234-0.586-0.234-0.605-0.586-0.254zM8.32 10.82q-0.352 0-0.586 0.254t-0.234 0.605 0.234 0.586 0.586 0.234 0.605-0.234 0.254-0.586-0.254-0.605-0.605-0.254zM6.25 15.43q0.859 0 1.465-0.371t0.605-0.879h-4.141q0 0.508 0.605 0.879t1.465 0.371zM1.68 13.75v-5.43h9.141v5.43q0 1.914-1.328 3.242t-3.242 1.328-3.242-1.328-1.328-3.242z"></path>
</svg>
