<!-- Generated by IcoMoon.io -->
<svg version="1.1" xmlns="http://www.w3.org/2000/svg" width="20" height="20" viewBox="0 0 20 20">
<title>thumb_up_alt</title>
<path d="M18.203 10.742l-2.227 5.117q-0.508 0.82-1.445 0.82h-6.758q-0.781 0-1.367-0.586t-0.586-1.367v-6.523q0-0.703 0.508-1.211l5.352-5.313 0.352 0.391q0.469 0.469 0.742 1.016 0.117 0.273 0.078 0.547l-0.781 3.867h4.609q0.664 0 1.152 0.508t0.488 1.172v0.898q0 0.352-0.117 0.664zM1.68 16.68v-9.18h1.641q0.352 0 0.605 0.234t0.254 0.586v7.5q0 0.352-0.254 0.605t-0.605 0.254h-1.641z"></path>
</svg>
