<!-- Generated by IcoMoon.io -->
<svg version="1.1" xmlns="http://www.w3.org/2000/svg" width="20" height="20" viewBox="0 0 20 20">
<title>thumb_up_off_alt</title>
<path d="M3.32 7.5q0.352 0 0.605 0.234t0.254 0.586v7.5q0 0.352-0.254 0.605t-0.605 0.254h-1.641v-9.18h1.641zM11.68 1.68l0.352 0.391q0.469 0.469 0.742 1.016 0.117 0.273 0.078 0.547l-0.781 3.867h4.609q0.664 0 1.152 0.508t0.488 1.172v0.898q0 0.352-0.117 0.664l-2.227 5.117q-0.508 0.82-1.445 0.82h-6.758q-0.82 0-1.387-0.566t-0.566-1.387v-6.523q0-0.703 0.508-1.211zM10.938 4.766l-3.438 3.398v6.563q0 0.273 0.273 0.273h6.758l2.148-4.922v-0.898h-4.609q-0.742 0-1.27-0.605t-0.332-1.387z"></path>
</svg>
