<!-- Generated by IcoMoon.io -->
<svg version="1.1" xmlns="http://www.w3.org/2000/svg" width="20" height="20" viewBox="0 0 20 20">
<title>thumbs_up_down</title>
<path d="M18.75 8.32q0.547 0 0.898 0.371t0.352 0.879v5.43q0 0.547-0.352 0.898l-4.141 4.102-0.664-0.664q-0.273-0.273-0.273-0.664 0.117-0.547 0.332-1.563t0.254-1.289h-4.336q-0.352 0-0.586-0.234t-0.234-0.586v-1.055q0-0.117 0.078-0.43l1.914-4.414q0.352-0.781 1.133-0.781h5.625zM10 5v1.055q0 0.117-0.078 0.43l-1.914 4.414q-0.352 0.781-1.133 0.781h-5.625q-0.547 0-0.898-0.371t-0.352-0.879v-5.43q0-0.547 0.352-0.898l4.141-4.102 0.664 0.664q0.273 0.273 0.273 0.664-0.117 0.547-0.332 1.563t-0.254 1.289h4.336q0.352 0 0.586 0.234t0.234 0.586z"></path>
</svg>
