<!-- Generated by IcoMoon.io -->
<svg version="1.1" xmlns="http://www.w3.org/2000/svg" width="20" height="20" viewBox="0 0 20 20">
<title>thumb_down_alt</title>
<path d="M1.797 9.258l2.227-5.117q0.508-0.82 1.445-0.82h6.758q0.82 0 1.387 0.566t0.566 1.387v6.523q0 0.703-0.508 1.211l-5.352 5.313-0.352-0.391q-0.469-0.469-0.742-1.016-0.117-0.273-0.078-0.547l0.781-3.867h-4.609q-0.664 0-1.152-0.508t-0.488-1.172v-0.898q0-0.391 0.117-0.664zM18.32 3.32v9.18h-1.641q-0.352 0-0.605-0.234t-0.254-0.586v-7.5q0-0.352 0.254-0.605t0.605-0.254h1.641z"></path>
</svg>
