<!-- Generated by IcoMoon.io -->
<svg version="1.1" xmlns="http://www.w3.org/2000/svg" width="20" height="20" viewBox="0 0 20 20">
<title>timer_3</title>
<path d="M14.609 8.711q-0.508 0-0.859 0.234t-0.352 0.664v0.039q0 0.469 0.781 0.742 0.273 0.117 0.703 0.195t1.133 0.313q0.313 0.117 0.859 0.469 0.273 0.195 0.508 0.625 0.195 0.391 0.195 0.82 0 1.445-1.719 2.031-0.469 0.156-1.211 0.156-2.188 0-2.852-1.523-0.195-0.469-0.195-0.859h1.563q0 0.508 0.449 0.84t1.074 0.332q1.289 0 1.289-0.898 0-0.234-0.117-0.41t-0.234-0.234-0.391-0.176q-0.195-0.078-0.82-0.234-1.094-0.234-1.875-0.742-0.703-0.469-0.703-1.406 0-1.484 1.641-2.031 0.469-0.156 1.133-0.156 1.367 0 2.148 0.664 0.781 0.625 0.781 1.641h-1.641q0-0.781-0.742-0.977-0.469-0.117-0.547-0.117zM8.398 9.883q1.641 0.547 1.641 2.266 0 1.445-0.938 2.148-0.898 0.781-2.344 0.781t-2.363-0.742-0.918-2.070h1.68q0 0.781 0.43 1.094 0.508 0.391 1.172 0.391 1.641 0 1.641-1.602t-1.797-1.602h-1.016v-1.289h0.977q1.25 0 1.602-0.898 0.078-0.195 0.078-0.625 0-1.484-1.484-1.484-1.016 0-1.406 0.781-0.117 0.234-0.117 0.586h-1.641q0-1.758 1.875-2.5 0.664-0.195 1.289-0.195 1.484 0 2.305 0.703t0.82 2.109-1.484 2.148z"></path>
</svg>
