<!-- Generated by IcoMoon.io -->
<svg version="1.1" xmlns="http://www.w3.org/2000/svg" width="20" height="20" viewBox="0 0 20 20">
<title>timer_off</title>
<path d="M10 16.68q1.523 0 2.93-0.82l-7.969-7.969q-0.781 1.328-0.781 2.93 0 2.422 1.699 4.141t4.121 1.719zM2.5 3.32l14.805 14.805-1.055 1.055-2.109-2.109q-1.953 1.25-4.141 1.25-3.125 0-5.313-2.207t-2.188-5.293q0-0.938 0.371-2.168t0.879-1.973l-2.305-2.305zM9.18 7.852v-1.172h1.641v2.852zM12.5 0.82v1.68h-5v-1.68h5zM15.859 3.789l1.172 1.172-1.172 1.211q1.641 2.070 1.641 4.648v0.039q0 0.938-0.371 2.148t-0.879 1.953l-1.211-1.211q0.781-1.328 0.781-2.93 0-2.422-1.699-4.121t-4.121-1.699q-1.563 0-2.891 0.781l-1.25-1.211q1.992-1.25 4.141-1.25 1.094 0 2.461 0.488t2.227 1.152z"></path>
</svg>
