<!-- Generated by IcoMoon.io -->
<svg version="1.1" xmlns="http://www.w3.org/2000/svg" width="20" height="20" viewBox="0 0 20 20">
<title>timer_10</title>
<path d="M10.742 11.016v-2.109q0-1.406-0.391-2.070-0.273-0.586-1.172-0.586-0.391 0-0.703 0.117-0.898 0.547-0.898 2.578v2.070q0 0.938 0.078 1.289 0.039 0.195 0.352 0.82t1.172 0.625 1.172-0.625q0.234-0.469 0.313-0.82t0.078-1.289zM5.938 9.18q0-4.258 3.242-4.258 1.602 0 2.344 0.938 0.859 1.094 0.859 3.32v1.602q0 4.297-3.203 4.297-3.242 0-3.242-4.297v-1.602zM17.031 8.711q-1.172 0-1.172 0.898 0 0.547 0.742 0.781 0.234 0.078 0.742 0.195 0.352 0.078 1.094 0.313 0.313 0.117 0.859 0.469 0.313 0.195 0.508 0.625 0.195 0.391 0.195 0.82 0 1.445-1.719 2.031-0.469 0.156-1.172 0.156-2.227 0-2.891-1.523-0.195-0.469-0.195-0.859h1.602q0 0.547 0.43 0.859t1.055 0.313q1.289 0 1.289-0.898 0-0.234-0.117-0.41t-0.234-0.234-0.391-0.176-0.957-0.293-0.918-0.254q-0.313-0.117-0.781-0.43-0.742-0.508-0.742-1.406 0-1.484 1.641-2.031 0.469-0.156 1.133-0.156 1.367 0 2.148 0.664 0.781 0.625 0.781 1.641h-1.641q0-0.82-0.703-0.977-0.469-0.117-0.586-0.117zM0 6.445l3.945-1.445h0.234v10h-1.68v-8.008l-2.5 0.859v-1.406z"></path>
</svg>
