<!-- Generated by IcoMoon.io -->
<svg version="1.1" xmlns="http://www.w3.org/2000/svg" width="20" height="20" viewBox="0 0 20 20">
<title>timeline</title>
<path d="M19.18 6.68q0 0.664-0.508 1.152t-1.172 0.488h-0.039q-0.273 0-0.391-0.039l-2.969 2.969q0.078 0.234 0.078 0.43 0 0.664-0.508 1.152t-1.172 0.488-1.172-0.488-0.508-1.152q0-0.195 0.078-0.43l-2.148-2.148q-0.234 0.078-0.43 0.078t-0.43-0.078l-3.789 3.789q0.078 0.234 0.078 0.43 0 0.664-0.508 1.172t-1.172 0.508-1.172-0.508-0.508-1.172 0.508-1.152 1.172-0.488q0.313 0 0.43 0.039l3.789-3.789q-0.039-0.117-0.039-0.43 0-0.664 0.488-1.172t1.152-0.508 1.172 0.508 0.508 1.172q0 0.313-0.039 0.43l2.109 2.109q0.117-0.039 0.43-0.039t0.43 0.039l2.969-2.93q-0.078-0.234-0.078-0.43 0-0.664 0.508-1.172t1.172-0.508 1.172 0.508 0.508 1.172z"></path>
</svg>
