<!-- Generated by IcoMoon.io -->
<svg version="1.1" xmlns="http://www.w3.org/2000/svg" width="20" height="20" viewBox="0 0 20 20">
<title>timer</title>
<path d="M10 16.68q2.422 0 4.121-1.719t1.699-4.141-1.699-4.121-4.121-1.699-4.121 1.699-1.699 4.121 1.699 4.141 4.121 1.719zM15.859 6.172q0.664 0.859 1.152 2.207t0.488 2.441q0 3.086-2.188 5.293t-5.313 2.207-5.313-2.207-2.188-5.293 2.188-5.293 5.313-2.207q1.055 0 2.441 0.508t2.246 1.172l1.172-1.211q0.625 0.508 1.172 1.172zM9.18 11.68v-5h1.641v5h-1.641zM12.5 0.82v1.68h-5v-1.68h5z"></path>
</svg>
