<!-- Generated by IcoMoon.io -->
<svg version="1.1" xmlns="http://www.w3.org/2000/svg" width="20" height="20" viewBox="0 0 20 20">
<title>timelapse</title>
<path d="M10 16.68q2.734 0 4.707-1.973t1.973-4.707-1.973-4.707-4.707-1.973-4.707 1.973-1.973 4.707 1.973 4.707 4.707 1.973zM10 1.68q3.438 0 5.879 2.441t2.441 5.879-2.441 5.879-5.879 2.441-5.879-2.441-2.441-5.879 2.441-5.879 5.879-2.441zM13.516 6.484q0.625 0.625 1.055 1.641t0.43 1.875-0.41 1.875-1.035 1.641q-1.445 1.484-3.516 1.484t-3.555-1.484l3.516-3.516v-5q0.859 0 1.875 0.43t1.641 1.055z"></path>
</svg>
