<!-- Generated by IcoMoon.io -->
<svg version="1.1" xmlns="http://www.w3.org/2000/svg" width="20" height="20" viewBox="0 0 20 20">
<title>toll</title>
<path d="M2.5 10q0 1.445 0.977 2.832t2.344 1.895v1.719q-2.188-0.547-3.594-2.344t-1.406-4.102 1.406-4.102 3.594-2.344v1.719q-1.367 0.508-2.344 1.895t-0.977 2.832zM12.5 15q2.070 0 3.535-1.465t1.465-3.535-1.465-3.535-3.535-1.465-3.535 1.465-1.465 3.535 1.465 3.535 3.535 1.465zM12.5 3.32q2.734 0 4.707 1.973t1.973 4.707-1.973 4.707-4.707 1.973-4.707-1.973-1.973-4.707 1.973-4.707 4.707-1.973z"></path>
</svg>
