<!-- Generated by IcoMoon.io -->
<svg version="1.1" xmlns="http://www.w3.org/2000/svg" width="20" height="20" viewBox="0 0 20 20">
<title>tonality</title>
<path d="M16.445 11.68q0.078-0.234 0.156-0.859h-5.781v0.859h5.625zM15.195 14.18q0.469-0.664 0.586-0.859h-4.961v0.859h4.375zM10.82 16.602q1.25-0.156 2.422-0.781h-2.422v0.781zM10.82 8.32v0.859h5.781q-0.078-0.625-0.156-0.859h-5.625zM10.82 5.82v0.859h4.961q-0.117-0.195-0.586-0.859h-4.375zM10.82 3.398v0.781h2.422q-1.172-0.625-2.422-0.781zM9.18 16.602v-13.203q-2.461 0.313-4.16 2.188t-1.699 4.414 1.699 4.414 4.16 2.188zM10 1.68q3.438 0 5.879 2.441t2.441 5.879-2.441 5.879-5.879 2.441-5.879-2.441-2.441-5.879 2.441-5.879 5.879-2.441z"></path>
</svg>
