<!-- Generated by IcoMoon.io -->
<svg version="1.1" xmlns="http://www.w3.org/2000/svg" width="20" height="20" viewBox="0 0 20 20">
<title>touch_app</title>
<path d="M15.703 13.242q0.742 0.352 0.742 1.133v0.156l-0.625 4.414q-0.039 0.469-0.391 0.762t-0.82 0.293h-5.664q-0.508 0-0.859-0.352l-4.141-4.141 0.664-0.664q0.273-0.273 0.664-0.273 0.039 0 0.098 0.020t0.098 0.020l2.852 0.586v-8.945q0-0.547 0.371-0.898t0.879-0.352 0.879 0.352 0.371 0.898v5h0.664q0.117 0 0.43 0.078zM7.5 9.375q-1.68-1.094-1.68-3.125 0-1.563 1.094-2.656t2.656-1.094 2.656 1.094 1.094 2.656q0 2.070-1.641 3.125v-3.125q0-0.859-0.625-1.465t-1.484-0.605-1.465 0.605-0.605 1.465v3.125z"></path>
</svg>
