<!-- Generated by IcoMoon.io -->
<svg version="1.1" xmlns="http://www.w3.org/2000/svg" width="20" height="20" viewBox="0 0 20 20">
<title>track_changes</title>
<path d="M15.898 4.102q2.422 2.422 2.422 5.898 0 3.438-2.441 5.879t-5.879 2.441-5.879-2.441-2.441-5.879 2.441-5.879 5.879-2.441h0.82v6.875q0.859 0.469 0.859 1.445 0 0.664-0.508 1.172t-1.172 0.508-1.172-0.508-0.508-1.172q0-0.977 0.859-1.445v-1.758q-1.094 0.313-1.797 1.172t-0.703 2.031q0 1.367 0.977 2.344t2.344 0.977 2.344-0.977 0.977-2.344q0-1.289-0.977-2.344l1.172-1.172q1.484 1.484 1.484 3.516 0 2.070-1.465 3.535t-3.535 1.465-3.535-1.465-1.465-3.535q0-1.836 1.191-3.223t2.988-1.699v-1.68q-2.461 0.313-4.16 2.188t-1.699 4.414q0 2.734 1.973 4.707t4.707 1.973 4.707-1.973 1.973-4.707q0-1.133-0.566-2.52t-1.387-2.207z"></path>
</svg>
