<!-- Generated by IcoMoon.io -->
<svg version="1.1" xmlns="http://www.w3.org/2000/svg" width="20" height="20" viewBox="0 0 20 20">
<title>traffic</title>
<path d="M10 7.5q0.703 0 1.191-0.488t0.488-1.191-0.488-1.172-1.191-0.469-1.191 0.469-0.488 1.172 0.488 1.191 1.191 0.488zM10 11.68q0.664-0.039 1.152-0.527t0.488-1.152-0.488-1.152-1.152-0.527h-0.039q-0.703 0-1.191 0.488t-0.488 1.191 0.488 1.191 1.191 0.488h0.039zM10 15.82q0.664-0.039 1.152-0.508t0.488-1.133-0.488-1.152-1.152-0.527h-0.039q-0.703 0-1.191 0.488t-0.488 1.191 0.488 1.172 1.191 0.469h0.039zM16.68 8.32q0 1.172-0.703 2.051t-1.797 1.191v0.938h2.5q0 1.172-0.703 2.031t-1.797 1.172v0.977q0 0.352-0.254 0.586t-0.605 0.234h-6.641q-0.352 0-0.605-0.234t-0.254-0.586v-0.977q-1.094-0.313-1.797-1.172t-0.703-2.031h2.5v-0.938q-1.094-0.313-1.797-1.191t-0.703-2.051h2.5v-0.938q-1.094-0.313-1.797-1.172t-0.703-2.031h2.5v-0.859q0-0.352 0.254-0.586t0.605-0.234h6.641q0.352 0 0.605 0.234t0.254 0.586v0.859h2.5q0 1.172-0.703 2.031t-1.797 1.172v0.938h2.5z"></path>
</svg>
