<!-- Generated by IcoMoon.io -->
<svg version="1.1" xmlns="http://www.w3.org/2000/svg" width="20" height="20" viewBox="0 0 20 20">
<title>train</title>
<path d="M13.75 14.18q0.547 0 0.898-0.371t0.352-0.879-0.352-0.879-0.898-0.371-0.898 0.371-0.352 0.879 0.352 0.879 0.898 0.371zM10.82 8.32h4.18v-3.32h-4.18v3.32zM9.18 8.32v-3.32h-4.18v3.32h4.18zM6.25 14.18q0.547 0 0.898-0.371t0.352-0.879-0.352-0.879-0.898-0.371-0.898 0.371-0.352 0.879 0.352 0.879 0.898 0.371zM10 1.68q3.242 0 4.961 0.664t1.719 2.656v7.93q0 1.211-0.859 2.051t-2.070 0.84l1.25 1.25v0.43h-1.68l-1.641-1.68h-3.164l-1.641 1.68h-1.875v-0.43l1.25-1.25q-1.211 0-2.070-0.84t-0.859-2.051v-7.93q0-1.055 0.547-1.758t1.582-1.016 2.070-0.43 2.48-0.117z"></path>
</svg>
