<!-- Generated by IcoMoon.io -->
<svg version="1.1" xmlns="http://www.w3.org/2000/svg" width="20" height="20" viewBox="0 0 20 20">
<title>tram</title>
<path d="M14.18 11.68v-4.18h-8.359v4.18h8.359zM10 15.43q0.547 0 0.898-0.371t0.352-0.879-0.352-0.879-0.898-0.371-0.898 0.371-0.352 0.879 0.352 0.879 0.898 0.371zM15.82 14.102q0 1.094-0.566 1.836t-1.582 0.742h0.078l1.25 1.25v0.391h-1.68l-1.641-1.641h-3.164l-1.641 1.641h-1.875v-0.391l1.328-1.328q-0.898-0.195-1.523-0.898t-0.625-1.602v-7.031q0-1.602 1.328-2.207t3.633-0.684l0.664-1.25h-3.984v-1.25h8.359v1.25h-2.734l-0.625 1.25q2.461 0.078 3.73 0.664t1.27 2.227v7.031z"></path>
</svg>
