<!-- Generated by IcoMoon.io -->
<svg version="1.1" xmlns="http://www.w3.org/2000/svg" width="20" height="20" viewBox="0 0 20 20">
<title>transfer_within_a_station</title>
<path d="M4.805 7.422l-2.305 11.758h1.758l1.445-6.68 1.797 1.68v5h1.68v-6.289l-1.719-1.719 0.508-2.5q1.758 2.148 4.531 2.148v-1.641q-1.133 0-2.090-0.566t-1.543-1.504l-0.781-1.328q-0.43-0.781-1.406-0.781-0.352 0-0.625 0.117l-4.375 1.797v3.906h1.641v-2.773l1.484-0.625zM7.93 4.57q-0.664 0-1.172-0.488t-0.508-1.152 0.508-1.172 1.172-0.508 1.152 0.508 0.488 1.172-0.488 1.152-1.152 0.488zM16.25 16.445v-1.445l2.070 2.070-2.070 2.109v-1.484h-4.57v-1.25h4.57zM13.75 12.93h4.57v1.25h-4.57v1.445l-2.070-2.070 2.070-2.109v1.484z"></path>
</svg>
