<!-- Generated by IcoMoon.io -->
<svg version="1.1" xmlns="http://www.w3.org/2000/svg" width="20" height="20" viewBox="0 0 20 20">
<title>translate</title>
<path d="M13.242 14.18h2.695l-1.367-3.633zM15.43 8.32l3.75 10h-1.68l-0.938-2.5h-3.945l-0.938 2.5h-1.68l3.75-10h1.68zM10.742 12.539l-0.664 1.719-2.578-2.578-4.18 4.141-1.172-1.172 4.258-4.18q-1.563-1.719-2.5-3.789h1.68q0.82 1.563 1.914 2.773 1.797-1.992 2.656-4.453h-9.336v-1.68h5.859v-1.641h1.641v1.641h5.859v1.68h-2.461q-0.391 1.25-1.289 2.832t-1.797 2.598l-0.039 0.039z"></path>
</svg>
