<!-- Generated by IcoMoon.io -->
<svg version="1.1" xmlns="http://www.w3.org/2000/svg" width="20" height="20" viewBox="0 0 20 20">
<title>tv_off</title>
<path d="M17.5 4.18q0.703 0 1.191 0.469t0.488 1.172v10q0 0.508-0.313 0.938l-1.367-1.367v-9.57h-9.57l-1.68-1.641h2.578l-2.734-2.773 0.586-0.586 3.32 3.359 3.32-3.359 0.586 0.586-2.734 2.773h6.328zM2.5 15.82h11.211l-10-10h-1.211v10zM0.82 2.969l1.055-1.094 16.211 16.25-1.055 1.055-1.641-1.68h-12.891q-0.664 0-1.172-0.508t-0.508-1.172v-10q0-0.586 0.371-1.035t0.918-0.566z"></path>
</svg>
