<!-- Generated by IcoMoon.io -->
<svg version="1.1" xmlns="http://www.w3.org/2000/svg" width="20" height="20" viewBox="0 0 20 20">
<title>two_wheeler</title>
<path d="M4.57 10.43q-0.664 0-1.152 0.488t-0.488 1.152 0.488 1.172 1.152 0.508 1.172-0.508 0.508-1.172-0.508-1.152-1.172-0.488zM15.43 9.18q1.211 0 2.051 0.84t0.84 2.051-0.84 2.070-2.051 0.859-2.070-0.859-0.859-2.070q0-1.289 0.977-2.148l-0.352-0.43-2.305 3.828h-2.5l-0.859-0.781q-0.195 1.055-1.016 1.758t-1.875 0.703q-1.211 0-2.051-0.859t-0.84-2.070q0-0.469 0.156-0.918t0.41-0.801 0.645-0.625 0.82-0.43l-0.781-0.664h-1.25v-0.703h3.047l1.758 1.094 2.813-1.094h2.539l-1.016-1.25h-1.641v-0.859h2.383l1.016 1.289 2.422-0.938v1.758h-1.758l1.094 1.445q0.195-0.039 0.371-0.098t0.352-0.078 0.371-0.020zM15.43 10.43q-0.664 0-1.172 0.488t-0.508 1.152 0.508 1.172 1.172 0.508 1.152-0.508 0.488-1.172-0.488-1.152-1.152-0.488z"></path>
</svg>
