<!-- Generated by IcoMoon.io -->
<svg version="1.1" xmlns="http://www.w3.org/2000/svg" width="20" height="20" viewBox="0 0 20 20">
<title>unsubscribe</title>
<path d="M10 8.75l5.82-2.93v-1.641l-5.82 2.891-5.82-2.891v1.641zM11.289 14.18h-7.109q-0.664 0-1.172-0.508t-0.508-1.172v-8.32q0-0.664 0.508-1.172t1.172-0.508h11.641q0.664 0 1.172 0.508t0.508 1.172v5.977q-1.055-0.586-2.070-0.586-1.719 0-2.949 1.23t-1.23 2.949q0 0.078 0.020 0.215t0.020 0.215zM17.070 14.18v-0.859h-3.32v0.859h3.32zM15.43 10.82q1.211 0 2.051 0.859t0.84 2.070-0.84 2.070-2.051 0.859-2.070-0.859-0.859-2.070 0.859-2.070 2.070-0.859z"></path>
</svg>
