<!-- Generated by IcoMoon.io -->
<svg version="1.1" xmlns="http://www.w3.org/2000/svg" width="20" height="20" viewBox="0 0 20 20">
<title>untitled</title>
<path d="M10 5.82q3.438 0 5.879 1.23t2.441 2.949q0 1.289-1.387 2.324t-3.613 1.504v-1.719q1.523-0.391 2.441-0.996t0.918-1.113q0-0.469-0.781-1.035t-2.383-1.016-3.516-0.449-3.516 0.449-2.383 1.016-0.781 1.035q0 0.586 1.172 1.27t3.008 0.996v-2.266l3.32 3.32-3.32 3.359v-2.695q-2.578-0.43-4.199-1.504t-1.621-2.48q0-1.719 2.441-2.949t5.879-1.23z"></path>
</svg>
