<!-- Generated by IcoMoon.io -->
<svg version="1.1" xmlns="http://www.w3.org/2000/svg" width="20" height="20" viewBox="0 0 20 20">
<title>update</title>
<path d="M10.43 6.68v3.516l2.891 1.758-0.586 1.016-3.555-2.148v-4.141h1.25zM17.5 8.438h-5.664l2.305-2.344q-1.719-1.719-4.121-1.738t-4.121 1.66q-0.703 0.703-1.211 1.895t-0.508 2.168 0.508 2.168 1.211 1.895 1.914 1.211 2.188 0.508 2.207-0.508 1.934-1.211q1.68-1.68 1.68-4.063h1.68q0 3.086-2.188 5.234-2.188 2.188-5.313 2.188t-5.313-2.188q-2.188-2.148-2.188-5.215t2.188-5.254q0.898-0.898 2.441-1.543t2.832-0.645 2.832 0.645 2.441 1.543l2.266-2.344v5.938z"></path>
</svg>
