<!-- Generated by IcoMoon.io -->
<svg version="1.1" xmlns="http://www.w3.org/2000/svg" width="20" height="20" viewBox="0 0 20 20">
<title>usb</title>
<path d="M12.5 5.82h3.32v3.359h-0.82v1.641q0 0.703-0.488 1.191t-1.191 0.488h-2.5v2.539q1.016 0.547 1.016 1.641 0 0.742-0.527 1.289t-1.309 0.547-1.309-0.547-0.527-1.289q0-1.094 1.016-1.641v-2.539h-2.5q-0.703 0-1.191-0.488t-0.488-1.191v-1.719q-1.016-0.547-1.016-1.602 0-0.781 0.547-1.309t1.289-0.527 1.289 0.527 0.547 1.309q0 1.094-0.977 1.602v1.719h2.5v-6.641h-1.68l2.5-3.359 2.5 3.359h-1.68v6.641h2.5v-1.641h-0.82v-3.359z"></path>
</svg>
