<!-- Generated by IcoMoon.io -->
<svg version="1.1" xmlns="http://www.w3.org/2000/svg" width="20" height="20" viewBox="0 0 20 20">
<title>vibration</title>
<path d="M13.32 15.82v-11.641h-6.641v11.641h6.641zM13.75 2.5q0.547 0 0.898 0.352t0.352 0.898v12.5q0 0.547-0.352 0.898t-0.898 0.352h-7.5q-0.547 0-0.898-0.352t-0.352-0.898v-12.5q0-0.547 0.352-0.898t0.898-0.352h7.5zM15.82 14.18v-8.359h1.68v8.359h-1.68zM18.32 7.5h1.68v5h-1.68v-5zM2.5 14.18v-8.359h1.68v8.359h-1.68zM0 12.5v-5h1.68v5h-1.68z"></path>
</svg>
