<!-- Generated by IcoMoon.io -->
<svg version="1.1" xmlns="http://www.w3.org/2000/svg" width="20" height="20" viewBox="0 0 20 20">
<title>videogame_asset</title>
<path d="M16.25 10q0.547 0 0.898-0.352t0.352-0.898-0.352-0.898-0.898-0.352-0.898 0.352-0.352 0.898 0.352 0.898 0.898 0.352zM12.93 12.5q0.508 0 0.879-0.352t0.371-0.898-0.371-0.898-0.879-0.352-0.879 0.352-0.371 0.898 0.371 0.898 0.879 0.352zM9.18 10.82v-1.641h-2.5v-2.5h-1.68v2.5h-2.5v1.641h2.5v2.5h1.68v-2.5h2.5zM17.5 5q0.664 0 1.172 0.508t0.508 1.172v6.641q0 0.664-0.508 1.172t-1.172 0.508h-15q-0.664 0-1.172-0.508t-0.508-1.172v-6.641q0-0.664 0.508-1.172t1.172-0.508h15z"></path>
</svg>
