<!-- Generated by IcoMoon.io -->
<svg version="1.1" xmlns="http://www.w3.org/2000/svg" width="20" height="20" viewBox="0 0 20 20">
<title>view_in_ar</title>
<path d="M14.18 18.32v-1.641h2.5v-2.5h1.641v2.891q0 0.508-0.371 0.879t-0.879 0.371h-2.891zM5.82 18.32h-2.891q-0.508 0-0.879-0.371t-0.371-0.879v-2.891h1.641v2.5h2.5v1.641zM14.18 1.68h2.891q0.508 0 0.879 0.371t0.371 0.879v2.891h-1.641v-2.5h-2.5v-1.641zM5.82 1.68v1.641h-2.5v2.5h-1.641v-2.891q0-0.508 0.371-0.879t0.879-0.371h2.891zM10.82 14.375l3.359-1.914v-3.828l-3.359 1.914v3.828zM10 9.102l3.32-1.914-3.32-1.953-3.32 1.953zM5.82 12.461l3.359 1.914v-3.828l-3.359-1.914v3.828zM15.195 6.328q0.625 0.391 0.625 1.094v5.273q0 0.703-0.625 1.094l-4.57 2.656q-0.625 0.391-1.25 0l-4.57-2.656q-0.625-0.391-0.625-1.094v-5.273q0-0.703 0.625-1.094l4.57-2.656q0.313-0.156 0.625-0.156t0.625 0.156z"></path>
</svg>
