<!-- Generated by IcoMoon.io -->
<svg version="1.1" xmlns="http://www.w3.org/2000/svg" width="20" height="20" viewBox="0 0 20 20">
<title>view_agenda</title>
<path d="M16.68 2.5q0.352 0 0.586 0.234t0.234 0.586v5q0 0.352-0.234 0.605t-0.586 0.254h-14.18q-0.352 0-0.586-0.254t-0.234-0.605v-5q0-0.352 0.234-0.586t0.586-0.234h14.18zM16.68 10.82q0.352 0 0.586 0.254t0.234 0.605v5q0 0.352-0.234 0.586t-0.586 0.234h-14.18q-0.352 0-0.586-0.234t-0.234-0.586v-5q0-0.352 0.234-0.605t0.586-0.254h14.18z"></path>
</svg>
