<!-- Generated by IcoMoon.io -->
<svg version="1.1" xmlns="http://www.w3.org/2000/svg" width="20" height="20" viewBox="0 0 20 20">
<title>view_comfortable</title>
<path d="M15 4.18h3.32v3.32h-3.32v-3.32zM15 15.82v-3.32h3.32v3.32h-3.32zM10.82 15.82v-3.32h3.359v3.32h-3.359zM6.68 15.82v-3.32h3.32v3.32h-3.32zM2.5 15.82v-3.32h3.32v3.32h-3.32zM15 11.68v-3.359h3.32v3.359h-3.32zM10.82 4.18h3.359v3.32h-3.359v-3.32zM6.68 7.5v-3.32h3.32v3.32h-3.32zM10.82 11.68v-3.359h3.359v3.359h-3.359zM6.68 11.68v-3.359h3.32v3.359h-3.32zM2.5 11.68v-3.359h3.32v3.359h-3.32zM2.5 7.5v-3.32h3.32v3.32h-3.32z"></path>
</svg>
