<!-- Generated by IcoMoon.io -->
<svg version="1.1" xmlns="http://www.w3.org/2000/svg" width="20" height="20" viewBox="0 0 20 20">
<title>view_week</title>
<path d="M10.82 4.18q0.352 0 0.605 0.234t0.254 0.586v10q0 0.352-0.254 0.586t-0.605 0.234h-2.5q-0.352 0-0.586-0.234t-0.234-0.586v-10q0-0.352 0.234-0.586t0.586-0.234h2.5zM16.68 4.18q0.352 0 0.586 0.234t0.234 0.586v10q0 0.352-0.234 0.586t-0.586 0.234h-2.5q-0.352 0-0.605-0.234t-0.254-0.586v-10q0-0.352 0.254-0.586t0.605-0.234h2.5zM5 4.18q0.352 0 0.586 0.234t0.234 0.586v10q0 0.352-0.234 0.586t-0.586 0.234h-2.5q-0.352 0-0.586-0.234t-0.234-0.586v-10q0-0.352 0.234-0.586t0.586-0.234h2.5z"></path>
</svg>
