<!-- Generated by IcoMoon.io -->
<svg version="1.1" xmlns="http://www.w3.org/2000/svg" width="20" height="20" viewBox="0 0 20 20">
<title>visibility_off</title>
<path d="M9.883 7.5h0.117q1.016 0 1.758 0.742t0.742 1.758v0.156zM6.289 8.164q-0.469 0.938-0.469 1.836 0 1.719 1.23 2.949t2.949 1.23q0.898 0 1.836-0.469l-1.289-1.289q-0.313 0.078-0.547 0.078-1.016 0-1.758-0.742t-0.742-1.758q0-0.234 0.078-0.547zM1.68 3.555l1.055-1.055 14.766 14.766-1.055 1.055q-0.195-0.195-1.23-1.211t-1.582-1.563q-1.68 0.703-3.633 0.703-3.086 0-5.586-1.719t-3.594-4.531q0.43-1.016 1.348-2.246t1.777-1.895q-0.469-0.469-1.309-1.328t-0.957-0.977zM10 5.82q-0.781 0-1.523 0.313l-1.797-1.797q1.523-0.586 3.32-0.586 3.086 0 5.566 1.719t3.574 4.531q-0.938 2.305-2.852 3.945l-2.422-2.422q0.313-0.742 0.313-1.523 0-1.719-1.23-2.949t-2.949-1.23z"></path>
</svg>
