<!-- Generated by IcoMoon.io -->
<svg version="1.1" xmlns="http://www.w3.org/2000/svg" width="20" height="20" viewBox="0 0 20 20">
<title>voice_over_off</title>
<path d="M16.719 1.68q2.422 2.539 2.422 5.879t-2.422 5.762l-1.367-1.328q1.719-1.992 1.719-4.551t-1.719-4.434zM13.984 4.453q1.25 1.367 1.25 3.086t-1.25 2.969l-1.406-1.406q0.547-0.742 0.547-1.621t-0.547-1.621zM3.555 2.5l13.945 13.945-1.055 1.055-2.461-2.461q0.078 0.195 0.137 0.391t0.059 0.391v1.68h-13.359v-1.68q0-1.484 2.285-2.402t4.395-0.918q0.43 0 0.957 0.059t1.133 0.176 1.172 0.273 1.113 0.391 0.977 0.508l-3.594-3.594q-0.82 0.508-1.758 0.508-1.367 0-2.344-0.977t-0.977-2.344q0-0.938 0.508-1.758l-2.188-2.188zM10.82 7.656l-3.477-3.477h0.156q1.367 0 2.344 0.977t0.977 2.344v0.156z"></path>
</svg>
