<!-- Generated by IcoMoon.io -->
<svg version="1.1" xmlns="http://www.w3.org/2000/svg" width="20" height="20" viewBox="0 0 20 20">
<title>voicemail</title>
<path d="M15.43 12.5q1.211 0 2.051-0.859t0.84-2.070-0.84-2.051-2.051-0.84-2.070 0.84-0.859 2.051 0.859 2.070 2.070 0.859zM4.57 12.5q1.211 0 2.070-0.859t0.859-2.070-0.859-2.051-2.070-0.84-2.051 0.84-0.84 2.051 0.84 2.070 2.051 0.859zM15.43 5q1.914 0 3.242 1.328t1.328 3.242-1.328 3.262-3.242 1.348h-10.859q-1.914 0-3.242-1.348t-1.328-3.262 1.328-3.242 3.242-1.328 3.262 1.328 1.348 3.242q0 1.68-1.055 2.93h3.75q-1.055-1.25-1.055-2.93 0-1.914 1.348-3.242t3.262-1.328z"></path>
</svg>
