<!-- Generated by IcoMoon.io -->
<svg version="1.1" xmlns="http://www.w3.org/2000/svg" width="20" height="20" viewBox="0 0 20 20">
<title>volunteer_activism</title>
<path d="M16.68 14.18q0.703 0 1.191 0.488t0.488 1.152l-6.68 2.5-5.859-1.641v-7.5h1.641l6.055 2.227q0.664 0.273 0.664 0.938 0 0.391-0.293 0.684t-0.723 0.293h-2.344l-1.445-0.547-0.273 0.781 1.719 0.625h5.859zM13.32 2.695q0.898-1.016 2.266-1.016 1.133 0 1.934 0.801t0.801 1.934q0 0.859-0.82 2.051t-1.641 1.992-2.539 2.363q-1.719-1.563-2.539-2.363t-1.641-1.992-0.82-2.051q0-1.133 0.82-1.934t1.953-0.801q1.328 0 2.227 1.016zM0.82 9.18h3.359v9.141h-3.359v-9.141z"></path>
</svg>
