<!-- Generated by IcoMoon.io -->
<svg version="1.1" xmlns="http://www.w3.org/2000/svg" width="20" height="20" viewBox="0 0 20 20">
<title>volume_off</title>
<path d="M10 3.32v3.516l-1.758-1.758zM3.555 2.5l13.945 13.945-1.055 1.055-1.719-1.719q-1.289 1.094-3.047 1.523v-1.719q0.977-0.273 1.875-0.977l-3.555-3.555v5.625l-4.18-4.18h-3.32v-5h3.945l-3.945-3.945zM15.82 10q0-1.992-1.152-3.516t-2.988-2.070v-1.719q2.539 0.547 4.18 2.598t1.641 4.707q0 1.836-0.859 3.477l-1.25-1.289q0.43-1.055 0.43-2.188zM13.75 10q0 0.352-0.039 0.508l-2.031-2.031v-1.836q0.859 0.43 1.465 1.406t0.605 1.953z"></path>
</svg>
