<!-- Generated by IcoMoon.io -->
<svg version="1.1" xmlns="http://www.w3.org/2000/svg" width="20" height="20" viewBox="0 0 20 20">
<title>vpn_lock</title>
<path d="M8.32 17.461v-1.641q-0.664 0-1.152-0.488t-0.488-1.152v-0.859l-4.023-3.984q-0.156 0.625-0.156 1.484 0 2.539 1.68 4.434t4.141 2.207zM15.781 10h1.68q0.039 0.273 0.039 0.82 0 3.477-2.441 5.918t-5.879 2.441q-3.477 0-5.918-2.441t-2.441-5.918q0-3.438 2.441-5.879t5.918-2.441q1.211 0 2.5 0.391v2.109q0 0.664-0.508 1.172t-1.172 0.508h-1.68v1.641q0 0.352-0.234 0.605t-0.586 0.254h-1.68v1.641h5q0.352 0 0.605 0.254t0.254 0.605v2.5h0.82q1.211 0 1.602 1.133 1.719-1.836 1.719-4.492 0-0.547-0.039-0.82zM17.656 3.32v-0.391q0-0.586-0.41-1.016t-0.996-0.43-0.996 0.43-0.41 1.016v0.391h2.813zM18.32 3.32q0.352 0 0.605 0.254t0.254 0.605v3.32q0 0.352-0.254 0.586t-0.605 0.234h-4.141q-0.352 0-0.605-0.234t-0.254-0.586v-3.32q0-0.352 0.254-0.605t0.605-0.254v-0.391q0-0.859 0.605-1.484t1.465-0.625 1.465 0.625 0.605 1.484v0.391z"></path>
</svg>
