<!-- Generated by IcoMoon.io -->
<svg version="1.1" xmlns="http://www.w3.org/2000/svg" width="20" height="20" viewBox="0 0 20 20">
<title>waves</title>
<path d="M14.18 6.758q1.133 0 2.461 0.664 0.938 0.469 1.68 0.469v1.641q-1.133 0-2.461-0.664-1.016-0.508-1.68-0.508-0.703 0-1.719 0.508-1.328 0.664-2.461 0.664t-2.461-0.664q-1.016-0.508-1.719-0.508-0.664 0-1.68 0.508-1.328 0.664-2.461 0.664v-1.641q0.742 0 1.68-0.469 1.328-0.664 2.461-0.664t2.461 0.664q0.938 0.469 1.719 0.469t1.719-0.469q1.328-0.664 2.461-0.664zM16.641 3.711q1.016 0.508 1.68 0.508v1.602q-1.133 0-2.461-0.664-1.016-0.508-1.68-0.508-0.703 0-1.719 0.508-1.328 0.664-2.461 0.664t-2.461-0.664q-1.016-0.508-1.719-0.508-0.664 0-1.68 0.508-1.328 0.664-2.461 0.664v-1.602q0.664 0 1.68-0.508 1.328-0.664 2.461-0.664t2.461 0.664q1.016 0.508 1.719 0.508t1.719-0.508q1.328-0.664 2.461-0.664t2.461 0.664zM14.18 10.469q1.133 0 2.461 0.664 0.938 0.469 1.68 0.469v1.641q-1.133 0-2.461-0.664-1.016-0.508-1.68-0.508-0.703 0-1.719 0.508-1.328 0.664-2.461 0.664t-2.461-0.664q-1.016-0.508-1.719-0.508-0.664 0-1.68 0.508-1.328 0.664-2.461 0.664v-1.641q0.742 0 1.68-0.469 1.328-0.664 2.461-0.664t2.461 0.664q0.938 0.469 1.719 0.469t1.719-0.469q1.328-0.664 2.461-0.664zM14.18 14.141q1.055 0 2.461 0.703 0.938 0.469 1.68 0.469v1.641q-1.133 0-2.461-0.664-1.016-0.508-1.68-0.508-0.703 0-1.719 0.508-1.328 0.664-2.461 0.664t-2.461-0.664q-1.016-0.508-1.719-0.508-0.664 0-1.68 0.508-1.328 0.664-2.461 0.664v-1.641q0.742 0 1.68-0.469 1.406-0.703 2.461-0.703t2.461 0.703q0.938 0.469 1.719 0.469t1.719-0.469q1.406-0.703 2.461-0.703z"></path>
</svg>
