<!-- Generated by IcoMoon.io -->
<svg version="1.1" xmlns="http://www.w3.org/2000/svg" width="20" height="20" viewBox="0 0 20 20">
<title>wb_auto</title>
<path d="M8.594 13.32h1.563l-2.656-7.5h-1.68l-2.656 7.5h1.602l0.586-1.641h2.656zM18.32 5.82h1.523l-1.719 7.5h-1.445l-1.25-5.078-1.25 5.078h-1.484l-0.078-0.352q-0.82 1.68-2.422 2.695t-3.516 1.016q-2.773 0-4.727-1.973t-1.953-4.707 1.953-4.707 4.727-1.973q3.203 0 5.195 2.5h0.625l1.016 5.273 1.25-5.273h1.328l1.25 5.273zM5.703 10.547l0.977-3.047 0.938 3.047h-1.914z"></path>
</svg>
