<!-- Generated by IcoMoon.io -->
<svg version="1.1" xmlns="http://www.w3.org/2000/svg" width="20" height="20" viewBox="0 0 20 20">
<title>wb_incandescent</title>
<path d="M14.375 15.117l1.172-1.133 1.484 1.484-1.172 1.172zM16.68 8.75h2.5v1.68h-2.5v-1.68zM12.5 5.273q1.133 0.664 1.816 1.797t0.684 2.5q0 2.070-1.465 3.535t-3.535 1.465-3.535-1.465-1.465-3.535q0-1.367 0.684-2.5t1.816-1.797v-4.023h5v4.023zM3.32 8.75v1.68h-2.5v-1.68h2.5zM9.18 18.711v-2.461h1.641v2.461h-1.641zM2.969 15.469l1.484-1.523 1.172 1.172-1.484 1.523z"></path>
</svg>
