<!-- Generated by IcoMoon.io -->
<svg version="1.1" xmlns="http://www.w3.org/2000/svg" width="20" height="20" viewBox="0 0 20 20">
<title>wb_sunny</title>
<path d="M2.969 15.469l1.484-1.523 1.172 1.172-1.484 1.523zM9.18 18.711v-2.461h1.641v2.461h-1.641zM10 4.57q2.070 0 3.535 1.465t1.465 3.535-1.465 3.535-3.535 1.465-3.535-1.465-1.465-3.535 1.465-3.535 3.535-1.465zM16.68 8.75h2.5v1.68h-2.5v-1.68zM14.375 15.117l1.172-1.133 1.484 1.484-1.172 1.172zM17.031 3.711l-1.484 1.484-1.172-1.172 1.484-1.484zM10.82 0.469v2.461h-1.641v-2.461h1.641zM3.32 8.75v1.68h-2.5v-1.68h2.5zM5.625 4.023l-1.172 1.172-1.484-1.484 1.172-1.172z"></path>
</svg>
