<!-- Generated by IcoMoon.io -->
<svg version="1.1" xmlns="http://www.w3.org/2000/svg" width="20" height="20" viewBox="0 0 20 20">
<title>wc</title>
<path d="M13.75 5q-0.703 0-1.191-0.488t-0.488-1.191 0.488-1.172 1.191-0.469 1.191 0.469 0.488 1.172-0.488 1.191-1.191 0.488zM6.25 5q-0.703 0-1.191-0.488t-0.488-1.191 0.488-1.172 1.191-0.469 1.191 0.469 0.488 1.172-0.488 1.191-1.191 0.488zM15 18.32h-2.5v-5h-2.5l2.109-6.328q0.156-0.469 0.625-0.82t0.977-0.352h0.078q0.508 0 0.977 0.352t0.625 0.82l2.109 6.328h-2.5v5zM4.57 18.32v-6.25h-1.25v-4.57q0-0.664 0.508-1.172t1.172-0.508h2.5q0.664 0 1.172 0.508t0.508 1.172v4.57h-1.25v6.25h-3.359z"></path>
</svg>
