<!-- Generated by IcoMoon.io -->
<svg version="1.1" xmlns="http://www.w3.org/2000/svg" width="20" height="20" viewBox="0 0 20 20">
<title>weekend</title>
<path d="M15 4.18q0.664 0 1.172 0.488t0.508 1.152v1.797q-0.742 0.273-1.211 0.898t-0.469 1.445v1.719h-10v-1.719q0-0.82-0.469-1.445t-1.211-0.898v-1.797q0-0.664 0.508-1.152t1.172-0.488h10zM17.5 8.32q0.664 0 1.172 0.508t0.508 1.172v4.18q0 0.664-0.508 1.152t-1.172 0.488h-15q-0.664 0-1.172-0.488t-0.508-1.152v-4.18q0-0.664 0.508-1.172t1.172-0.508 1.172 0.508 0.508 1.172v2.5h11.641v-2.5q0-0.664 0.508-1.172t1.172-0.508z"></path>
</svg>
