<!-- Generated by IcoMoon.io -->
<svg version="1.1" xmlns="http://www.w3.org/2000/svg" width="20" height="20" viewBox="0 0 20 20">
<title>whatshot</title>
<path d="M9.766 15.82q1.68 0 2.832-1.152t1.152-2.832q0-1.719-0.469-3.359-1.211 1.602-3.867 2.148-2.344 0.508-2.344 2.578 0 1.094 0.781 1.855t1.914 0.762zM11.25 0.547q2.5 2.031 3.965 4.941t1.465 6.191q0 2.734-1.953 4.688t-4.727 1.953-4.727-1.953-1.953-4.688q0-4.219 2.695-7.422v0.313q0 1.289 0.859 2.188t2.148 0.898q1.25 0 2.051-0.879t0.801-2.207q0-0.781-0.156-1.797t-0.313-1.602z"></path>
</svg>
