<!-- Generated by IcoMoon.io -->
<svg version="1.1" xmlns="http://www.w3.org/2000/svg" width="20" height="20" viewBox="0 0 20 20">
<title>wifi_tethering</title>
<path d="M10 2.5q3.438 0 5.879 2.422t2.441 5.898q0 2.266-1.113 4.199t-3.027 3.027l-0.859-1.445q1.523-0.898 2.441-2.441t0.918-3.34q0-2.734-1.953-4.688t-4.727-1.953-4.727 1.953-1.953 4.688q0 1.836 0.898 3.359t2.422 2.422l-0.82 1.445q-1.914-1.094-3.027-3.027t-1.113-4.199q0-3.477 2.441-5.898t5.879-2.422zM15 10.82q0 1.367-0.684 2.52t-1.816 1.816l-0.82-1.445q1.641-0.977 1.641-2.891 0-1.367-0.977-2.344t-2.344-0.977-2.344 0.977-0.977 2.344q0 1.914 1.641 2.891l-0.82 1.445q-1.133-0.664-1.816-1.816t-0.684-2.52q0-2.070 1.465-3.535t3.535-1.465 3.535 1.465 1.465 3.535zM10 9.18q0.664 0 1.172 0.488t0.508 1.152-0.508 1.172-1.172 0.508-1.172-0.508-0.508-1.172 0.508-1.152 1.172-0.488z"></path>
</svg>
