<!-- Generated by IcoMoon.io -->
<svg version="1.1" xmlns="http://www.w3.org/2000/svg" width="20" height="20" viewBox="0 0 20 20">
<title>wifi_lock</title>
<path d="M18.32 13.32v-1.25q0-0.508-0.371-0.879t-0.879-0.371-0.879 0.371-0.371 0.879v1.25h2.5zM19.18 13.32q0.352 0 0.586 0.254t0.234 0.605v3.32q0 0.352-0.234 0.586t-0.586 0.234h-4.18q-0.352 0-0.586-0.234t-0.234-0.586v-3.32q0-0.352 0.234-0.605t0.586-0.254v-1.25q0-0.859 0.605-1.465t1.465-0.605 1.484 0.605 0.625 1.465v1.25zM17.070 7.93q-1.719 0-2.93 1.211t-1.211 2.93v2.383l-2.93 3.867-10-13.32q4.375-3.32 10-3.32t10 3.32l-2.227 2.969q-0.234-0.039-0.703-0.039z"></path>
</svg>
