<!-- Generated by IcoMoon.io -->
<svg version="1.1" xmlns="http://www.w3.org/2000/svg" width="20" height="20" viewBox="0 0 20 20">
<title>wifi_off</title>
<path d="M7.5 14.18q1.055-1.055 2.5-1.055t2.5 1.055l-2.5 2.5zM1.68 2.539l1.055-1.055 14.141 14.141-1.055 1.055-5.898-5.898q-0.977 0-2.188 0.508t-1.914 1.211l-1.641-1.641v-0.039q1.523-1.523 3.672-2.109l-1.875-1.836q-1.914 0.781-3.477 2.305l-1.68-1.68q1.523-1.523 3.398-2.422zM15.82 10.82l-0.781 0.82-2.969-2.93q2.227 0.586 3.75 2.109zM19.141 7.5l-1.641 1.68q-3.281-3.359-8.047-3.086l-2.070-2.109q3.164-0.664 6.27 0.234t5.488 3.281z"></path>
</svg>
