<!-- Generated by IcoMoon.io -->
<svg version="1.1" xmlns="http://www.w3.org/2000/svg" width="20" height="20" viewBox="0 0 20 20">
<title>work_outline</title>
<path d="M16.68 5q0.703 0 1.172 0.488t0.469 1.191v9.141q0 0.703-0.469 1.191t-1.172 0.488h-13.359q-0.703 0-1.172-0.488t-0.469-1.191v-9.141q0-0.703 0.469-1.191t1.172-0.488h3.359v-1.68q0-0.703 0.469-1.172t1.172-0.469h3.359q0.703 0 1.172 0.469t0.469 1.172v1.68h3.359zM3.32 6.68v9.141h13.359v-9.141h-13.359zM11.68 5v-1.68h-3.359v1.68h3.359z"></path>
</svg>
