<!-- Generated by IcoMoon.io -->
<svg version="1.1" xmlns="http://www.w3.org/2000/svg" width="20" height="20" viewBox="0 0 20 20">
<title>workspaces_filled</title>
<path d="M15 10.82q1.367 0 2.344 0.996t0.977 2.363-0.977 2.344-2.344 0.977-2.344-0.977-0.977-2.344 0.977-2.363 2.344-0.996zM10 2.5q1.367 0 2.344 0.977t0.977 2.344-0.977 2.363-2.344 0.996-2.344-0.996-0.977-2.363 0.977-2.344 2.344-0.977zM5 10.82q1.367 0 2.344 0.996t0.977 2.363-0.977 2.344-2.344 0.977-2.344-0.977-0.977-2.344 0.977-2.363 2.344-0.996z"></path>
</svg>
