<!-- Generated by IcoMoon.io -->
<svg version="1.1" xmlns="http://www.w3.org/2000/svg" width="20" height="20" viewBox="0 0 20 20">
<title>workspaces_outline</title>
<path d="M15 10.82q1.367 0 2.344 0.996t0.977 2.363-0.977 2.344-2.344 0.977-2.344-0.977-0.977-2.344 0.977-2.363 2.344-0.996zM15 12.5q-0.664 0-1.172 0.508t-0.508 1.172 0.508 1.152 1.172 0.488 1.172-0.488 0.508-1.152-0.508-1.172-1.172-0.508zM10 2.5q1.367 0 2.344 0.977t0.977 2.344-0.977 2.363-2.344 0.996-2.344-0.996-0.977-2.363 0.977-2.344 2.344-0.977zM10 4.18q-0.664 0-1.172 0.488t-0.508 1.152 0.508 1.172 1.172 0.508 1.172-0.508 0.508-1.172-0.508-1.152-1.172-0.488zM5 10.82q1.367 0 2.344 0.996t0.977 2.363-0.977 2.344-2.344 0.977-2.344-0.977-0.977-2.344 0.977-2.363 2.344-0.996zM5 12.5q-0.664 0-1.172 0.508t-0.508 1.172 0.508 1.152 1.172 0.488 1.172-0.488 0.508-1.152-0.508-1.172-1.172-0.508z"></path>
</svg>
