<!-- Generated by IcoMoon.io -->
<svg version="1.1" xmlns="http://www.w3.org/2000/svg" width="20" height="20" viewBox="0 0 20 20">
<title>work_off</title>
<path d="M11.719 5v-1.719h-3.398v1.719h3.398zM18.32 6.641v8.594l-11.602-11.68v-0.273q0-0.703 0.469-1.172t1.172-0.43h3.359q0.703-0.039 1.172 0.43t0.469 1.172v1.719h3.359q0.703-0.039 1.172 0.449t0.43 1.191zM19.18 18.125l-1.055 1.055-1.719-1.719h-13.047q-0.703 0-1.172-0.488t-0.469-1.191v-9.141q0-0.703 0.469-1.191t1.172-0.488h0.547l-2.266-2.266 1.055-1.055z"></path>
</svg>
