<!-- Generated by IcoMoon.io -->
<svg version="1.1" xmlns="http://www.w3.org/2000/svg" width="20" height="20" viewBox="0 0 20 20">
<title>youtube_searched_for</title>
<path d="M14.18 11.68l4.141 4.141-1.211 1.25-4.18-4.18v-0.625l-0.234-0.234q-0.625 0.508-1.66 0.898t-1.855 0.391q-1.563 0-2.773-0.742l1.25-1.211q0.781 0.313 1.523 0.313 1.563 0 2.656-1.094t1.094-2.656-1.094-2.656-2.656-1.094-2.656 1.094-1.094 2.656h2.891l-3.438 3.32-3.203-3.32h2.070q0-2.227 1.602-3.828t3.828-1.602q2.266 0 3.848 1.582t1.582 3.848q0 0.82-0.391 1.855t-0.938 1.66l0.234 0.234h0.664z"></path>
</svg>
